<?xml version="1.0" encoding="UTF-8"?>
<svg width="360px" height="285px" viewBox="0 0 360 285" version="1.1" xmlns="http://www.w3.org/2000/svg" xmlns:xlink="http://www.w3.org/1999/xlink">
    <title>langch</title>
    <desc>Created with Sketch.</desc>
    <defs>
        <linearGradient x1="79.797092%" y1="58.8864894%" x2="0%" y2="26.4973463%" id="linearGradient-1">
            <stop stop-color="#0091FF" offset="0%"></stop>
            <stop stop-color="#AF00F7" offset="100%"></stop>
        </linearGradient>
        <path d="M0,246.8175 L284.09558,176.284854 C328.689259,165.213544 360,125.178715 360,79.2312446 L360,-1.13686838e-13 L0,-1.13686838e-13 L0,246.8175 Z" id="path-2"></path>
        <filter x="-17.8%" y="-22.7%" width="135.6%" height="151.9%" filterUnits="objectBoundingBox" id="filter-4">
            <feOffset dx="0" dy="8" in="SourceAlpha" result="shadowOffsetOuter1"></feOffset>
            <feGaussianBlur stdDeviation="20" in="shadowOffsetOuter1" result="shadowBlurOuter1"></feGaussianBlur>
            <feColorMatrix values="0 0 0 0 0   0 0 0 0 0   0 0 0 0 0  0 0 0 0.0782099185 0" type="matrix" in="shadowBlurOuter1"></feColorMatrix>
        </filter>
    </defs>
    <g id="IM-启登注找" stroke="none" stroke-width="1" fill="none" fill-rule="evenodd">
        <g id="启动">
            <g id="编组" transform="translate(-11.000000, -6.000000)">
                <g id="Illustration-/-Enable-location" transform="translate(204.000000, 49.000000)">
                    <g id="illustration">
                        <g id="accesories" fill="#22FFC6">
                            <circle id="Oval" opacity="0.300000012" cx="115.5" cy="85.5" r="18.5"></circle>
                            <circle id="Oval" opacity="0.699999988" cx="9.5" cy="119.5" r="9.5"></circle>
                            <circle id="Oval" opacity="0.699999988" cx="90.5" cy="22.5" r="7.5"></circle>
                            <circle id="Oval" opacity="0.600000024" cx="27" cy="7" r="7"></circle>
                        </g>
                        <path d="M57.1144124,116.730423 L47.8232036,88.8567964 L19.9495772,79.5655876 C17.5588453,78.8048903 15.9288246,77.8268887 15.0594673,76.6315217 C14.1901101,75.4361547 14.1086091,74.1864667 14.8149618,72.8824374 C15.5213146,71.5784081 17.0154991,70.4373825 19.2975626,69.4593605 L96.5612988,33.435551 C100.038737,31.9141767 102.40225,31.7783335 103.651958,33.0280418 C104.901667,34.2777502 104.765823,36.6412625 103.244449,40.1187012 L67.0576358,117.382437 C66.0796139,119.664501 64.9657691,121.158685 63.7160607,121.865038 C62.4663524,122.571391 61.2438453,122.48989 60.0484783,121.620533 C58.8531113,120.751175 57.8751097,119.121155 57.1144124,116.730423 Z" id="Page-1" fill="#32D5AB"></path>
                        <path d="M47.0006594,46.0792811 C22.6459152,48.1330942 4.72732015,55.0740355 4.72732015,63.3204246 C4.72732015,73.1834489 30.3601481,81.1790099 61.9798439,81.1790099 C93.5995396,81.1790099 119.232368,73.1834489 119.232368,63.3204246 C119.232368,57.2984856 109.676965,51.9726995 95.037646,48.7378419" id="Oval-2" stroke="#22FFC6" stroke-width="2" stroke-linecap="round" stroke-linejoin="round" stroke-dasharray="6" transform="translate(61.979844, 63.629146) rotate(27.000000) translate(-61.979844, -63.629146) "></path>
                    </g>
                </g>
                <g id="Illustration-/-Bell" transform="translate(0.000000, 152.000000)">
                    <g id="illustration">
                        <g id="accesories" fill="#22FFC6">
                            <ellipse id="Oval" opacity="0.300000012" cx="82.7462687" cy="60.9767442" rx="13.2537313" ry="13.1937984"></ellipse>
                            <ellipse id="Oval" opacity="0.699999988" cx="6.80597015" cy="85.2248062" rx="6.80597015" ry="6.7751938"></ellipse>
                            <ellipse id="Oval" opacity="0.699999988" cx="64.8358209" cy="16.0465116" rx="5.37313433" ry="5.34883721"></ellipse>
                            <ellipse id="Oval" opacity="0.600000024" cx="19.3432836" cy="4.99224806" rx="5.01492537" ry="4.99224806"></ellipse>
                        </g>
                        <path d="M61.5615973,23.3450376 C59.1085837,21.9560749 56.5604408,21.1142977 53.9170955,20.8196656 C51.2737583,20.5250335 48.7044701,20.7039187 46.2091578,21.3563051 C43.7138375,22.0086996 41.3877361,23.1135358 39.2307645,24.670862 C37.0738009,26.2281801 35.2975009,28.1642798 33.9018157,30.4792176 L25.8449568,44.1162266 L10.7462687,53.8389008 L29.7147927,64.4454633 C29.5033237,64.866364 29.3341535,65.3083001 29.2072737,65.7712876 C29.0803859,66.2342752 29.0169501,66.6972547 29.0169501,67.1602422 C29.0169501,68.843829 29.6090501,70.2748624 30.7932663,71.4533747 C31.9774826,72.631887 33.415442,73.2211351 35.1071772,73.2211351 C36.2068043,73.2211351 37.2112614,72.9580762 38.1205729,72.4319584 C39.0298763,71.9058325 39.7382834,71.221889 40.2458023,70.3800956 L59.7852811,81.3023256 L60.8637628,63.75099 L68.9206218,50.1771194 C70.316307,47.8200867 71.1727391,45.3473555 71.4899424,42.7588371 C71.8071377,40.1703186 71.6273948,37.6660143 70.9506975,35.2458513 C70.2740083,32.8256963 69.1426715,30.5739292 67.5566707,28.4904851 C65.9706619,26.4070411 63.9723285,24.6919054 61.5615973,23.3450376 Z" id="Fill-1" fill="#32D5AB"></path>
                        <path d="M33.7005631,32.8697561 C16.2659586,34.3677781 3.4316248,39.3460227 3.42081831,45.2326746 C3.40789328,52.2733551 21.7441173,57.9473638 44.3759209,57.9059277 C67.0077245,57.8644916 85.3649041,52.1233017 85.3778291,45.0826212 C85.3857206,40.7838842 78.5534182,36.9946149 68.079562,34.7046089" id="Oval-2" stroke="#22FFC6" stroke-width="2" stroke-linecap="round" stroke-linejoin="round" stroke-dasharray="6" transform="translate(44.399324, 45.387955) rotate(27.000000) translate(-44.399324, -45.387955) "></path>
                    </g>
                </g>
                <g id="Illustration-/-Lock" transform="translate(58.000000, 9.000000)">
                    <g id="illustration">
                        <g id="accesories" fill="#22FFC6">
                            <circle id="Oval" opacity="0.300000012" cx="115.5" cy="85.5" r="18.5"></circle>
                            <circle id="Oval" opacity="0.699999988" cx="9.5" cy="119.5" r="9.5"></circle>
                            <circle id="Oval" opacity="0.699999988" cx="90.5" cy="22.5" r="7.5"></circle>
                            <circle id="Oval" opacity="0.600000024" cx="27" cy="7" r="7"></circle>
                        </g>
                        <path d="M98.6666667,66.5 L96,66.5 L96,47.90625 C96,41.3762737 93.638912,35.7594631 88.916672,31.0556587 C84.1944213,26.351865 78.555584,24 72,24 C65.444416,24 59.8055787,26.351865 55.083328,31.0556587 C50.361088,35.7594631 48,41.3762737 48,47.90625 L48,66.5 L45.3333333,66.5 C43.7777696,66.5 42.5000053,66.9980469 41.5,67.9941406 C40.499995,68.9902344 40,70.2630137 40,71.8125 L40,103.6875 C40,105.236987 40.499995,106.50976 41.5,107.505859 C42.5000053,108.501958 43.7777696,109 45.3333333,109 L98.6666667,109 C100.222229,109 101.5,108.501958 102.5,107.505859 C103.5,106.50976 104,105.236987 104,103.6875 L104,71.8125 C104,70.2630137 103.5,68.9902344 102.5,67.9941406 C101.5,66.9980469 100.222229,66.5 98.6666667,66.5 Z M76.9567333,92.7544827 C75.6567229,94.0544931 74.1400701,94.7044827 72.4067333,94.7044827 C70.6733965,94.7044827 69.1567437,94.0544931 67.8567333,92.7544827 C66.5567229,91.4544723 65.9067333,89.9378195 65.9067333,88.2044827 C65.9067333,86.4711459 66.5567229,84.9544931 67.8567333,83.6544827 C69.1567437,82.3544723 70.6733965,81.7044827 72.4067333,81.7044827 C74.1400701,81.7044827 75.6567229,82.3544723 76.9567333,83.6544827 C78.2567437,84.9544931 78.9067333,86.4711459 78.9067333,88.2044827 C78.9067333,89.9378195 78.2567437,91.4544723 76.9567333,92.7544827 Z M89.9772413,66.3266062 L54.9772413,66.3266062 L54.9772413,47.6599396 C54.9772413,42.7710222 56.6599121,38.6599609 60.0253183,35.3266062 C63.3907244,31.9932516 67.5413152,30.3266062 72.4772413,30.3266062 C77.4131675,30.3266062 81.5637583,31.9932516 84.9291644,35.3266062 C88.2945706,38.6599609 89.9772413,42.7710222 89.9772413,47.6599396 L89.9772413,66.3266062 Z" id="Fill-1" fill="#32D5AB" transform="translate(72.000000, 66.500000) rotate(-330.000000) translate(-72.000000, -66.500000) "></path>
                        <path d="M47.0006594,46.0792811 C22.6459152,48.1330942 4.72732015,55.0740355 4.72732015,63.3204246 C4.72732015,73.1834489 30.3601481,81.1790099 61.9798439,81.1790099 C93.5995396,81.1790099 119.232368,73.1834489 119.232368,63.3204246 C119.232368,57.2984856 109.676965,51.9726995 95.037646,48.7378419" id="Oval-2" stroke="#22FFC6" stroke-width="2" stroke-linecap="round" stroke-linejoin="round" stroke-dasharray="6" transform="translate(61.979844, 63.629146) rotate(27.000000) translate(-61.979844, -63.629146) "></path>
                    </g>
                </g>
                <g id="Top-element" transform="translate(11.000000, 0.000000)">
                    <mask id="mask-3" fill="white">
                        <use xlink:href="#path-2"></use>
                    </mask>
                    <g id="BG" opacity="0.588262649" fill-rule="nonzero">
                        <use fill="black" fill-opacity="1" filter="url(#filter-4)" xlink:href="#path-2"></use>
                        <use fill="url(#linearGradient-1)" xlink:href="#path-2"></use>
                    </g>
                    <text id="Welcome-message" mask="url(#mask-3)" font-family="PingFangSC-Semibold, PingFang SC" font-size="22" font-weight="500" line-spacing="32" fill="#FFFFFF">
                        <tspan x="27" y="111">Hi, Follow Your </tspan>
                        <tspan x="27" y="143">interests</tspan>
                    </text>
                </g>
            </g>
        </g>
    </g>
</svg>