<?xml version="1.0" encoding="UTF-8"?>
<svg width="50px" height="50px" viewBox="0 0 50 50" version="1.1" xmlns="http://www.w3.org/2000/svg" xmlns:xlink="http://www.w3.org/1999/xlink">
    <!-- Generator: Sketch 61.2 (89653) - https://sketch.com -->
    <title>群聊入口icon@1x</title>
    <desc>Created with Sketch.</desc>
    <g id="群聊入口icon" stroke="none" stroke-width="1" fill="none" fill-rule="evenodd">
        <g id="053-群聊入口" fill="#000000" fill-rule="nonzero">
            <rect id="矩形" opacity="0" x="0" y="0" width="50" height="50"></rect>
            <g id="编组-6" transform="translate(5.000000, 6.000000)">
                <path d="M12.7657895,29.4276316 C12.6276316,29.3723684 12.4894737,29.3171053 12.3789474,29.2618421 C11.6328947,28.9578947 10.8315789,28.9855263 10.1131579,29.3447368 L7.35,31.1960526 L8.04078947,28.35 L8.06842105,28.2671053 C8.23421053,27.4105263 7.95789474,26.5263158 7.35,25.8907895 C4.91842105,23.4315789 3.56447368,20.3092105 3.56447368,17.0763158 C3.56447368,9.64342105 10.5276316,3.59210526 19.1210526,3.59210526 C25.3105263,3.59210526 30.6710526,6.74210526 33.1578947,11.3289474 C34.8434211,11.8263158 36.4184211,12.5723684 37.8276316,13.5394737 C35.9763158,5.80263158 28.2947368,8.8817842e-14 19.1210526,8.8817842e-14 C8.56578947,8.8817842e-14 -4.61852778e-14,7.68157895 -4.61852778e-14,17.1039474 C-4.61852778e-14,21.1381579 1.575,25.0065789 4.44868421,28.0736842 L3.12236842,33.4618421 C2.87368421,34.4289474 3.26052632,35.3960526 4.06184211,35.9763158 C4.47631579,36.2526316 4.94605263,36.3907895 5.41578947,36.3907895 C5.88552632,36.3907895 6.32763158,36.2526316 6.74210526,35.9763158 L11.4671053,32.7710526 C12.6276316,33.2407895 13.8434211,33.5723684 15.0868421,33.8210526 C14.0644737,32.4947368 13.2631579,31.0026316 12.7657895,29.4276316 Z" id="路径"></path>
                <path d="M37.4407895,38.7671053 C37.0539474,38.7671053 36.6394737,38.6565789 36.2802632,38.4078947 L33.2960526,36.3907895 C31.6934211,36.9986842 29.9802632,37.3026316 28.2118421,37.3026316 C20.8618421,37.3026316 14.8934211,31.9421053 14.8934211,25.3381579 C14.8934211,18.7342105 20.8618421,13.3736842 28.2118421,13.3736842 C35.5618421,13.3736842 41.5578947,18.7342105 41.5578947,25.3381579 C41.5578947,28.0736842 40.5078947,30.7263158 38.6013158,32.8539474 L39.4302632,36.2526316 C39.6236842,37.0815789 39.3197368,37.9381579 38.6013158,38.4078947 C38.2697368,38.6565789 37.8552632,38.7671053 37.4407895,38.7671053 Z M28.2394737,16.6894737 C22.7131579,16.6894737 18.2368421,20.5578947 18.2368421,25.3381579 C18.2368421,30.1184211 22.7407895,33.9868421 28.2394737,33.9868421 C29.7592105,33.9868421 31.2236842,33.7105263 32.6052632,33.1302632 C33.2131579,32.8815789 33.9039474,32.9092105 34.5118421,33.2131579 L34.6776316,33.3236842 L35.4513158,33.8486842 L35.2302632,32.9921053 C35.0921053,32.2736842 35.3131579,31.5276316 35.8381579,31.0026316 C37.3855263,29.4276316 38.2421053,27.4381579 38.2421053,25.3934211 C38.2421053,20.5578947 33.7381579,16.6894737 28.2394737,16.6894737 L28.2394737,16.6894737 Z" id="形状"></path>
            </g>
        </g>
    </g>
</svg>