<?xml version="1.0" encoding="UTF-8"?>
<svg width="50px" height="50px" viewBox="0 0 50 50" version="1.1" xmlns="http://www.w3.org/2000/svg" xmlns:xlink="http://www.w3.org/1999/xlink">
    <!-- Generator: Sketch 61.2 (89653) - https://sketch.com -->
    <title>默认群头像@1x</title>
    <desc>Created with Sketch.</desc>
    <g id="IM-对话列表" stroke="none" stroke-width="1" fill="none" fill-rule="evenodd">
        <g id="组建群聊01备份" transform="translate(-17.000000, -112.000000)">
            <g id="默认群头像" transform="translate(17.000000, 112.000000)">
                <g>
                    <circle id="椭圆形" fill="#C2E3F6" cx="25" cy="25" r="25"></circle>
                    <g id="群组1" transform="translate(8.666667, 8.666667)" fill-rule="nonzero">
                        <rect id="矩形" fill="#000000" opacity="0" x="0" y="0" width="33" height="33"></rect>
                        <path d="M13.0854668,30.7581914 C5.62385742,30.7581914 1.99804688,29.0050664 1.99804688,25.3971416 C1.99804688,22.8594609 5.76504199,21.1983105 9.57331934,20.6179746 L9.57331934,20.4032168 C6.73032422,18.2185459 6.35095313,14.3220645 6.35095313,11.1172939 C6.35095313,6.7491123 8.9126748,4.14169336 13.2043506,4.14169336 L13.4287764,4.14169336 C17.7207422,4.14169336 20.2833662,6.7491123 20.2833662,11.1172939 C20.2833662,14.3223867 19.9039629,18.2188682 17.0598398,20.4032168 L17.0598398,20.6179746 C20.866957,21.1983105 24.6342425,22.8583008 24.6342425,25.3971416 C24.6351123,27.8428477 22.6321025,30.7581914 13.0854346,30.7581914 L13.0854668,30.7581914 Z M13.204415,6.25636816 C10.0550098,6.25636816 8.4583125,7.891125 8.4583125,11.1172939 C8.4583125,14.1328301 8.78293066,17.4234521 11.1928975,18.9621416 C11.4880928,19.1536963 11.6806465,19.481666 11.6807109,19.8545918 L11.6807109,21.5484521 C11.6807109,21.5489355 11.6807109,21.5494834 11.6807109,21.5500635 C11.6807109,22.0933389 11.2701445,22.5407725 10.7423701,22.5989414 C6.75033691,23.0212383 4.10540625,24.5628281 4.10540625,25.3972061 C4.10540625,27.5511006 7.12648535,28.643291 13.085499,28.643291 C19.0855049,28.643291 22.5278818,27.4602539 22.5278818,25.3972061 C22.5278818,24.5628281 19.8829512,23.0212383 15.8968477,22.5993604 C15.3641748,22.5409014 14.9534795,22.0934355 14.9534795,21.5500313 C14.9534795,21.5494834 14.9534795,21.5489033 14.9534795,21.5483877 L14.9534795,19.8545273 C14.9536406,19.4815049 15.1463232,19.1535352 15.4375869,18.9645908 C17.8515498,17.4226143 18.1770381,14.1328623 18.1770381,11.1173584 C18.1770381,7.89234961 16.5794707,6.25636816 13.4300654,6.25636816 L13.2045117,6.25636816 L13.204415,6.25636816 Z" id="形状" fill="#21A1E8"></path>
                        <path d="M29.6994199,24.0656367 C29.1172793,24.0651211 28.6456113,23.5931309 28.6456113,23.010958 C28.6456113,23.0099268 28.6456113,23.0088955 28.6456113,23.0078643 C28.6456113,22.1994287 25.6426758,20.2356709 22.1601445,19.8656455 C21.627085,19.8075732 21.2159062,19.3599141 21.2159062,18.816252 C21.2159062,18.8157363 21.2159062,18.8152207 21.2159062,18.8147051 L21.2159062,16.6151455 C21.2160029,16.2422197 21.4085566,15.9142822 21.6996592,15.7252412 C24.4297969,13.9825254 24.7236064,10.1124053 24.7236064,8.5295332 C24.7236064,4.87942383 22.2643975,4.11272168 20.2010596,4.11272168 C19.6189834,4.11172266 19.147541,3.63966797 19.147541,3.05746289 C19.147541,3.05675391 19.147541,3.0560127 19.147541,3.05530371 C19.147541,3.05478809 19.147541,3.0540791 19.147541,3.05333789 C19.147541,2.47113281 19.6190156,1.9990459 20.2009951,1.9980791 C24.2909326,1.9980791 26.8309658,4.50089062 26.8309658,8.53069336 C26.8309658,10.3714102 26.4770537,14.7650508 23.3232334,17.1673799 L23.3232334,17.9009531 C26.6900391,18.5173828 30.7529062,20.5435313 30.7529062,23.0082832 C30.7529062,23.0089277 30.7529062,23.0096045 30.7529062,23.0103135 C30.7529062,23.5925186 30.2814316,24.0646055 29.6994521,24.0656367 L29.6994199,24.0656367 Z" id="路径" fill="#21A1E8"></path>
                    </g>
                </g>
            </g>
        </g>
    </g>
</svg>