<?xml version="1.0" encoding="UTF-8"?>
<svg width="16px" height="16px" viewBox="0 0 16 16" version="1.1" xmlns="http://www.w3.org/2000/svg" xmlns:xlink="http://www.w3.org/1999/xlink">
    <title>AddUser</title>
    <desc>Created with Sketch.</desc>
    <g id="组件" stroke="none" stroke-width="1" fill="none" fill-rule="evenodd" fill-opacity="0.5">
        <g id="设置-新增成员" transform="translate(-20.000000, -12.000000)" fill="#000000" fill-rule="nonzero">
            <g id="添加用户" transform="translate(20.000000, 12.000000)">
                <rect id="矩形" opacity="0" x="0" y="0" width="16" height="16"></rect>
                <path d="M15.5789095,13.4736168 L13.4736568,13.4736168 L13.4736568,15.5788695 C13.4736568,15.8112894 13.2850262,15.99992 13.0526063,15.99992 C12.8201864,15.99992 12.6315558,15.8112894 12.6315558,15.5788695 L12.6315558,13.4736168 L10.5263032,13.4736168 C10.2938833,13.4736168 10.1052526,13.2849862 10.1052526,13.0525663 C10.1052526,12.8201464 10.2938833,12.6315158 10.5263032,12.6315158 L12.6315558,12.6315158 L12.6315558,10.5262632 C12.6315558,10.2938433 12.8201864,10.1052126 13.0526063,10.1052126 C13.2850262,10.1052126 13.4736568,10.2938433 13.4736568,10.5262632 L13.4736568,12.6315158 L15.5789095,12.6315158 C15.8113294,12.6315158 15.99996,12.8201464 15.99996,13.0525663 C15.99996,13.2849862 15.8113294,13.4736168 15.5789095,13.4736168 Z M8,10.1052126 L6.31579789,10.1052126 C3.38149678,10.1052126 0.993719234,12.4155169 0.855614672,15.3157129 L0.741931031,15.3157129 C0.801720188,15.3881336 0.842141063,15.4773963 0.842141063,15.5788695 C0.842141063,15.8112894 0.653510422,15.99992 0.421090516,15.99992 C0.188670641,15.99992 4e-05,15.8112894 4e-05,15.5788695 C4e-05,15.4773963 0.0404608438,15.3881336 0.100250031,15.3157129 L0.013513625,15.3157129 C0.152460281,11.9506771 2.916657,9.26311158 6.31579789,9.26311158 L8,9.26311158 C9.11746809,9.26311158 10.1637787,9.558268 11.0732478,10.0677391 C10.7911439,10.2155279 10.53304,10.4020533 10.3048306,10.6205785 C9.60420252,10.2934222 8.82525903,10.1052126 8,10.1052126 Z M7.16631997,8.42101052 L7.14947794,8.42101052 C5.06106731,8.42101052 3.3684442,6.72838741 3.3684442,4.6399768 L3.3684442,3.78103372 C3.3684442,1.69262311 5.06106731,0 7.14947794,0 L7.16631997,0 C9.25473056,0 10.9473537,1.69262311 10.9473537,3.78103372 L10.9473537,4.6399768 C10.9473537,6.72838741 9.25473056,8.42101052 7.16631997,8.42101052 Z M10.1052526,3.78945473 C10.1052526,2.16167339 8.78568028,0.842101062 7.15789894,0.842101062 C5.53011761,0.842101062 4.21054527,2.16167339 4.21054527,3.78945473 L4.21054527,4.6315558 C4.21054527,6.25933713 5.53011761,7.57890948 7.15789894,7.57890948 C8.78568028,7.57890948 10.1052526,6.25933713 10.1052526,4.6315558 L10.1052526,3.78945473 Z" id="形状"></path>
            </g>
        </g>
    </g>
</svg>