<?xml version="1.0" encoding="UTF-8"?>
<svg width="50px" height="50px" viewBox="0 0 50 50" version="1.1" xmlns="http://www.w3.org/2000/svg" xmlns:xlink="http://www.w3.org/1999/xlink">
    <title>AccountSecurity</title>
    <desc>Created with Sketch.</desc>
    <g id="账号安全" stroke="none" stroke-width="1" fill="none" fill-rule="evenodd">
        <g>
            <rect id="矩形备份-11" x="0" y="0" width="50" height="50"></rect>
            <g id="安全" transform="translate(4.500000, 1.000000)" fill="#333333" fill-rule="nonzero">
                <path d="M20.5260066,3.78374967 L36.3183837,8.48657986 C36.7263935,8.60922137 37,8.97242892 37,9.38752326 L37,29.2169811 C37,31.1273585 36.4623872,33 35.449563,34.6273585 C34.4367388,36.259434 32.9871042,37.5801887 31.2590629,38.4528302 L20.2475999,44 L9.2409371,38.4528302 C7.51289583,37.5801887 6.06326121,36.259434 5.05043703,34.6273585 C4.03761284,32.995283 3.5,31.1273585 3.5,29.2169811 L3.5,9.38752326 C3.5,8.96771194 3.77360653,8.60450439 4.18161628,8.48657986 L19.9739934,3.78374967 C20.0603955,3.75544779 20.1563978,3.74129684 20.2475999,3.74129684 C20.3436022,3.74129684 20.4348044,3.75544779 20.5260066,3.78374967 Z M20.497611,0 C20.0293672,0 19.5659014,0.0658113799 19.1119916,0.202134953 L3.39237851,4.88884536 C1.3760634,5.49054941 0,7.31446479 0,9.38752326 L0,29.3894819 C0,34.6778964 3.01013868,39.5244344 7.79291458,41.9359514 L19.1932176,47.6897464 C19.6041254,47.8965821 20.0532572,48 20.502389,48 C20.9515208,48 21.4006526,47.8965821 21.8115604,47.6897464 L33.2070854,41.9406522 C37.9898613,39.5291352 41,34.6825972 41,29.3941827 L41,9.38752326 C41,7.31446479 39.6239366,5.49054941 37.6076215,4.88884536 L21.8880084,0.202134953 C21.4340986,0.0658113799 20.9658548,0 20.497611,0 Z" id="形状"></path>
                <path d="M17.5368616,37 C16.9713648,37 16.4003238,36.7771781 15.967885,36.3315342 L9.14865817,29.3040728 C8.28378061,28.412785 8.28378061,26.9672991 9.14865817,26.0702979 C10.0135357,25.1732967 11.4161897,25.1790101 12.2866113,26.0702979 L17.5368616,31.4808718 L28.711308,20.6684658 C29.5761855,19.7771781 30.9788395,19.7771781 31.8492611,20.6684658 C32.7196828,21.5597536 32.7141387,23.0052396 31.8492611,23.9022407 L19.1058382,36.3315342 C18.6678553,36.7771781 18.1023585,37 17.5368616,37 Z M37.6388572,16.5 C37.462146,16.5 37.2807844,16.4711461 37.0994229,16.4182474 L21.3488694,11.4794283 C20.7954841,11.3063051 20.2048965,11.3063051 19.6515112,11.4794283 L3.90095777,16.4134384 C2.91974526,16.7212129 1.87807889,16.1489447 1.58045993,15.1294416 C1.28284097,14.1099386 1.83622623,13.0375367 2.82208904,12.7297622 L18.5726425,7.79575207 C19.8328728,7.40141598 21.1675078,7.40141598 22.4277381,7.79575207 L38.1782916,12.7297622 C39.1595041,13.0375367 39.7175397,14.1099386 39.4199207,15.1294416 C39.173455,15.9613946 38.4387082,16.5 37.6388572,16.5 L37.6388572,16.5 Z" id="形状"></path>
            </g>
        </g>
    </g>
</svg>