<?xml version="1.0" encoding="UTF-8"?>
<svg width="47px" height="44px" viewBox="0 0 47 44" version="1.1" xmlns="http://www.w3.org/2000/svg" xmlns:xlink="http://www.w3.org/1999/xlink">
    <title>SelectPicture</title>
    <desc>Created with Sketch.</desc>
    <g id="页面-1" stroke="none" stroke-width="1" fill="none" fill-rule="evenodd">
        <g id="all-icon" transform="translate(-1735.000000, -174.000000)" fill="#000000">
            <g id="相册" transform="translate(1733.000000, 171.000000)">
                <g>
                    <rect id="矩形" fill-rule="nonzero" opacity="0" x="0" y="0" width="50" height="50"></rect>
                    <path d="M14.4994129,20.1866474 C12.773583,20.1866474 11.3745816,18.7875959 11.3745816,17.0618161 C11.3745816,15.3360362 12.773633,13.9369847 14.4994129,13.9369847 C16.2252428,13.9369847 17.6242443,15.3360362 17.6242443,17.0618161 C17.6242443,18.7875959 16.2252428,20.1866474 14.4994129,20.1866474 Z M44.7753819,37.2955956 L32.9841994,25.4982262 L19.0868288,37.7330151 C18.4947859,38.2542605 17.5879174,38.232462 17.0229294,37.6834306 L11.9546832,32.7588942 L6.12486887,37.3464899 L6.12486887,41.0354833 C6.12486887,41.8433365 6.79644569,42.4982262 7.62488359,42.4982262 L43.2753672,42.4982262 C44.1038052,42.4982262 44.7753819,41.8433365 44.7753819,41.0354833 L44.7753819,37.2955956 Z M44.7753819,9.06242105 C44.7753819,8.19853728 44.1038051,7.49822617 43.2753672,7.49822617 L7.62488359,7.49822617 C6.79644564,7.49822617 6.12486887,8.19853728 6.12486887,9.06242105 L6.12486887,32.38123 L10.0706704,29.060805 C11.2624793,28.0579094 12.9873284,28.1521013 14.0721648,29.279302 L18.1325182,33.4982262 L30.9738342,21.4090558 C32.158016,20.2942605 33.9717051,20.3408812 35.101777,21.5151529 L44.7753819,31.9303297 L44.7753819,9.06242105 Z M2,36.8612075 C2,36.8518629 2,36.8425181 2,36.8331735 L2,8.07691891 C2,5.27302917 4.09861462,3 6.6873095,3 L44.1854858,3 C46.7741806,3 48.8727578,5.27302917 48.8727578,8.07691891 L48.8727578,41.9230811 C48.8727578,44.7269708 46.7741806,47 44.1854858,47 L6.6873095,47 C4.09861462,47 2,44.7269708 2,41.9230811 L2,36.8612075 Z" id="形状" fill-rule="nonzero"></path>
                </g>
            </g>
        </g>
    </g>
</svg>