<?xml version="1.0" encoding="UTF-8"?>
<svg width="44px" height="44px" viewBox="0 0 44 44" version="1.1" xmlns="http://www.w3.org/2000/svg" xmlns:xlink="http://www.w3.org/1999/xlink">
    <title>scan/Album</title>
    <desc>Created with Sketch.</desc>
    <g id="页面-1" stroke="none" stroke-width="1" fill="none" fill-rule="evenodd">
        <g id="all-icon" transform="translate(-1419.000000, -837.000000)">
            <g id="相册" transform="translate(1416.000000, 834.000000)">
                <g>
                    <rect id="矩形备份-9" x="0" y="0" width="50" height="50"></rect>
                    <path d="M25,5 C13.9736146,5 5,13.9739244 5,25 C5,36.0256805 13.9743195,45 25,45 C36.0256805,45 45,36.0256805 45,25 C45,13.9743195 36.0256805,5 25,5 Z" id="路径" stroke="#1A1919" stroke-width="4" fill-rule="nonzero"></path>
                    <path d="M35.45825,17.5180497 C35.098,17.1726832 34.669,17 34.163,17 L15.8315,17 C15.32825,17 14.8965,17.1726832 14.53625,17.5180497 C14.176,17.8660728 14,18.2831692 14,18.769339 L14,32.230661 C14,32.7168308 14.17875,33.1339272 14.53625,33.4819503 C14.8965,33.8273168 15.32825,34 15.8315,34 L34.1685,34 C34.67175,34 35.1035,33.8273168 35.46375,33.4819503 C35.82125,33.1339272 36,32.7168308 36,32.230661 L36,18.769339 C35.99725,18.2778559 35.8185,17.8634162 35.45825,17.5180497 Z M17.5695,20.4483513 C17.99575,20.0365682 18.5155,19.8293483 19.12875,19.8293483 C19.742,19.8293483 20.26175,20.0365682 20.688,20.4483513 C21.11425,20.8627911 21.32875,21.3622441 21.32875,21.9546804 C21.32875,22.5471167 21.11425,23.0465698 20.688,23.4610095 C20.259,23.8754493 19.742,24.0800125 19.12875,24.0800125 C18.5155,24.0800125 17.9985,23.8727926 17.5695,23.4610095 C17.1405,23.0492264 16.92875,22.5471167 16.92875,21.9546804 C16.92875,21.3622441 17.14325,20.8627911 17.5695,20.4483513 Z M33.063,31.1653383 L16.9315,31.1653383 L16.9315,29.0400063 L20.6,25.496015 L22.43425,27.2680106 L28.3,21.601344 L33.06575,26.2053446 L33.06575,31.1653383 L33.063,31.1653383 Z" id="形状" fill="#000000" fill-rule="nonzero"></path>
                </g>
            </g>
        </g>
    </g>
</svg>