<?xml version="1.0" encoding="UTF-8"?>
<svg width="36px" height="36px" viewBox="0 0 36 36" version="1.1" xmlns="http://www.w3.org/2000/svg" xmlns:xlink="http://www.w3.org/1999/xlink">
    <title>publicMale</title>
    <desc>Created with Sketch.</desc>
    <g id="页面-1" stroke="none" stroke-width="1" fill="none" fill-rule="evenodd">
        <g id="all-icon" transform="translate(-1902.000000, -346.000000)" fill="#000000">
            <g id="性别男" transform="translate(1897.000000, 337.000000)">
                <g>
                    <rect id="矩形" fill-rule="nonzero" opacity="0" x="0" y="0" width="50" height="50"></rect>
                    <path d="M20.1318359,41.1506508 C26.6552734,41.1506508 31.2797109,36.5527344 31.2797109,30.0292969 C31.2797109,23.5058594 26.6552734,18.8276126 20.1318359,18.8276126 C13.6083984,18.8276126 9.03176821,23.5058594 9.03176821,30.0292969 C9.03176821,36.5527344 13.6083984,41.1506508 20.1318359,41.1506508 Z M31.4892578,20.5908203 C33.6181641,23.1494141 34.8974609,26.4404297 34.8974609,30.0244141 C34.8974609,38.1787109 28.2861328,44.7900391 20.1318359,44.7900391 C11.9775391,44.7900391 5.37109375,38.1835938 5.37109375,30.0292969 C5.37109375,21.875 11.9824219,15.2636719 20.1367188,15.2636719 C23.6376953,15.2636719 26.8554688,16.484375 29.3896484,18.5205078 L35.5957031,12.3095703 L27.5146484,12.3095703 C26.6992187,12.3095703 26.0400391,11.6503906 26.0400391,10.8349609 C26.0400391,10.0195313 26.6992187,9.36035156 27.5146484,9.36035156 L39.3261719,9.36035156 C40.1416016,9.36035156 40.8007812,10.0195313 40.8007812,10.8349609 L40.8007812,22.6464844 C40.8007812,23.4619141 40.1416016,24.1210938 39.3261719,24.1210938 C38.5107422,24.1210938 37.8515625,23.4619141 37.8515625,22.6464844 L37.8515625,14.2333984 L31.4892578,20.5908203 Z" id="形状" fill-rule="nonzero"></path>
                </g>
            </g>
        </g>
    </g>
</svg>