<?xml version="1.0" encoding="UTF-8"?>
<svg width="48px" height="45px" viewBox="0 0 48 45" version="1.1" xmlns="http://www.w3.org/2000/svg" xmlns:xlink="http://www.w3.org/1999/xlink">
    <title>voice</title>
    <desc>Created with Sketch.</desc>
    <defs>
        <path d="M38.0909091,31.0021455 L38.0909091,20.2320895 C38.090909,13.0943243 32.2299094,7.30802242 25,7.30802242 C17.7700906,7.30802242 11.909091,13.0943243 11.9090909,20.2320895 L11.9090909,31.0021455 C11.9090909,32.5715027 11.4840977,34.0428625 10.7415372,35.3101679 L39.2584628,35.3101679 C38.5159023,34.0428625 38.0909091,32.5715027 38.0909091,31.0021455 Z M46.8181818,39.6181904 L3.18181818,39.6181904 C0.272727273,39.6181904 0.272727273,35.3101679 3.18181818,35.3101679 C5.591788,35.3101679 7.54545455,33.3814006 7.54545455,31.0021455 L7.54545455,20.2320894 C7.54545469,10.7150692 15.3601208,3 25,3 C34.6398792,3 42.4545453,10.7150692 42.4545455,20.2320895 L42.4545455,31.0021455 C42.4545455,33.3814006 44.408212,35.3101679 46.8181818,35.3101679 C49.7272727,35.3101679 49.7272727,39.6181904 46.8181818,39.6181904 Z M30.6618182,44.780433 C29.4908437,46.7733382 27.3336791,48 25,48 C22.6663209,48 20.5091563,46.7733382 19.3381818,44.780433 C18.4944273,43.34443 19.5439044,41.5455996 21.2254545,41.5455996 L28.7745455,41.5455996 C30.4560956,41.5455996 31.5055727,43.34443 30.6618182,44.780433 Z" id="path-1"></path>
    </defs>
    <g id="页面-1" stroke="none" stroke-width="1" fill="none" fill-rule="evenodd">
        <g id="好友主页icon" transform="translate(-936.000000, -179.000000)">
            <g id="声音" transform="translate(935.000000, 176.000000)">
                <g id="编组-10">
                    <g>
                        <g>
                            <rect id="矩形" opacity="0" fill-rule="nonzero" x="0" y="0" width="50" height="50"></rect>
                            <mask id="mask-2" fill="white">
                                <use xlink:href="#path-1"></use>
                            </mask>
                            <use id="Shape" fill="#000000" fill-rule="nonzero" xlink:href="#path-1"></use>
                        </g>
                    </g>
                </g>
            </g>
        </g>
    </g>
</svg>