<?xml version="1.0" encoding="UTF-8"?>
<svg width="40px" height="44px" viewBox="0 0 40 44" version="1.1" xmlns="http://www.w3.org/2000/svg" xmlns:xlink="http://www.w3.org/1999/xlink">
    <title>Voicetelepthony</title>
    <desc>Created with Sketch.</desc>
    <g id="页面-1" stroke="none" stroke-width="1" fill="none" fill-rule="evenodd">
        <g id="好友主页icon" transform="translate(-787.000000, -178.000000)">
            <g id="语音电话" transform="translate(781.000000, 176.000000)">
                <g>
                    <rect id="矩形备份-14" x="0" y="0" width="50" height="50"></rect>
                    <g id="操作-电话" transform="translate(6.000000, 2.000000)" fill-rule="nonzero">
                        <path d="M3.03999091,5.84427993 C0.424108625,11.0437439 1.97106551,20.3593366 7.04735207,28.4403924 C13.6326573,39.3651415 23.2003956,44.620814 28.8530537,41.1377329 L28.9743894,41.0693349 C30.0956194,40.4935976 30.9562491,39.5057713 31.6895598,37.9995885 L31.8155732,37.7407636 L32.0555218,37.4943425 C32.7354167,35.6084354 31.1998286,32.4431703 27.9380344,29.9861353 C25.772327,28.429247 23.2998786,27.628095 21.7932465,27.7970767 C21.3516094,27.9422421 20.8963023,28.3475308 20.5029622,28.9534561 L19.9738208,29.7685781 L18.7322662,29.7685781 C18.282666,29.7685781 18.023605,29.7446337 17.6261896,29.5977049 C17.2578639,29.4615309 16.9265271,29.2437553 16.6409579,28.9504831 L16.4914534,28.7757678 L16.5113351,28.8017777 C14.8880698,26.7179628 14.1789003,25.750712 13.4707415,24.551628 C12.5104871,23.3027969 11.8877187,22.1640275 10.6494784,19.6207453 L10.4689213,19.2498903 L10.4689213,17.5560618 L12.0426723,15.9398598 L12.7978843,15.9398598 C13.3620072,15.9398598 13.8098206,15.602605 14.0976183,14.8637029 L14.1642141,14.6927223 L14.2641239,14.5388151 C15.0318802,13.3561161 15.2843447,11.0874635 14.8253133,8.96610299 L14.8056178,8.85957777 C14.1318381,4.47719933 12.0624794,1.78947368 10.1004379,1.78947368 L9.56094867,1.78947368 C8.12955484,1.78947368 6.82756049,2.17946552 5.64428771,2.90858004 C4.72188608,3.47694976 3.83178686,4.49987277 3.03999091,5.84427993 Z" id="路径" stroke="#000000" stroke-width="3.57894737"></path>
                        <path d="M23.6225953,10.5 C23.9350953,9.875 24.5600953,9.5625 25.1850953,9.875 C29.8725953,11.4375 32.3725953,16.4375 30.8100953,21.125 C30.4975953,21.75 29.8725953,22.375 28.9350953,22.0625 C28.3100953,21.75 27.6850953,21.125 27.9975953,20.1875 C28.9350953,17.0625 27.3725953,13.625 24.2475953,12.6875 C23.6225953,12.375 23.3100953,11.4375 23.6225953,10.5 C23.6225953,10.8125 23.6225953,10.5 23.6225953,10.5 L23.6225953,10.5 Z" id="路径" fill="#000000"></path>
                        <path d="M27.6225953,3.24759526 C27.9350953,2.62259526 28.5600953,2.31009526 29.1850953,2.62259526 C32.9350953,3.87259526 36.0600953,6.68509526 37.9350953,10.1225953 C39.8100953,13.8725953 40.1225953,17.9350953 38.8725953,21.6850953 C38.5600953,22.3100953 37.9350953,22.9350953 36.9975953,22.6225953 C36.3725953,22.3100953 35.7475953,21.6850953 36.0600953,20.7475953 C36.9975953,17.6225953 36.9975953,14.1850953 35.4350953,11.3725953 C33.8725953,8.56009526 31.3725953,6.37259526 28.2475953,5.12259526 C27.6225953,5.12259526 27.3100953,4.18509526 27.6225953,3.24759526 C27.6225953,3.56009526 27.6225953,3.24759526 27.6225953,3.24759526 L27.6225953,3.24759526 Z" id="路径" fill="#000000"></path>
                    </g>
                </g>
            </g>
        </g>
    </g>
</svg>