<?xml version="1.0" encoding="UTF-8"?>
<svg width="44px" height="44px" viewBox="0 0 44 44" version="1.1" xmlns="http://www.w3.org/2000/svg" xmlns:xlink="http://www.w3.org/1999/xlink">
    <title>public/qr</title>
    <desc>Created with Sketch.</desc>
    <g id="页面-1" stroke="none" stroke-width="1" fill="none" fill-rule="evenodd">
        <g id="all-icon" transform="translate(-1102.000000, -837.000000)">
            <g id="二维码" transform="translate(1099.000000, 834.000000)">
                <g>
                    <rect id="矩形备份" x="0" y="0" width="50" height="50"></rect>
                    <g id="编组-3" transform="translate(3.000000, 3.000000)" fill-rule="nonzero">
                        <path d="M21.9988967,2.00000003 C10.9537087,2.00059627 2,10.9546728 2,22 C2,33.045695 10.954305,42 22,42 C33.045695,42 42,33.045695 42.0000012,22.0022066 C41.9878194,10.96071 33.0402538,2.01277712 21.9988967,2.00000003 Z" id="路径" stroke="#1A1919" stroke-width="4"></path>
                        <g id="二维码" transform="translate(11.000000, 11.000000)" fill="#000000">
                            <rect id="矩形" opacity="0" x="0" y="0" width="22" height="22"></rect>
                            <path d="M1.375,19.7505859 C1.375,20.2339844 1.76601563,20.625 2.24941406,20.625 L8.37460938,20.625 L8.37460938,13.6253906 L1.375,13.6253906 L1.375,19.7505859 L1.375,19.7505859 Z M4.01757812,16.2464844 L5.76855469,16.2464844 L5.76855469,17.9974609 L4.01757812,17.9974609 L4.01757812,16.2464844 Z M10.1255859,17.1251953 L11.8765625,17.1251953 L11.8765625,20.625 L10.1255859,20.625 L10.1255859,17.1251953 Z M1.375,10.1255859 L4.87480469,10.1255859 L4.87480469,11.8765625 L1.375,11.8765625 L1.375,10.1255859 Z M10.1255859,10.1255859 L6.62578125,10.1255859 L6.62578125,11.8744141 L10.1255859,11.8744141 L10.1255859,15.3742188 L11.8744141,15.3742188 L11.8744141,6.62578125 L10.1255859,6.62578125 L10.1255859,10.1255859 Z M13.6253906,13.6253906 L17.1251953,13.6253906 L17.1251953,17.1251953 L13.6253906,17.1251953 L13.6253906,13.6253906 Z M8.37460938,1.375 L2.24941406,1.375 C1.76601563,1.375 1.375,1.76601563 1.375,2.24941406 L1.375,8.37460938 L8.37460938,8.37460938 L8.37460938,1.375 Z M5.76855469,5.74707031 L4.01757812,5.74707031 L4.01757812,3.99609375 L5.76855469,3.99609375 L5.76855469,5.74707031 Z M19.7505859,1.375 L13.6253906,1.375 L13.6253906,8.37460938 L20.625,8.37460938 L20.625,2.24941406 C20.625,1.76601563 20.2339844,1.375 19.7505859,1.375 Z M18.0167969,5.74707031 L16.2658203,5.74707031 L16.2658203,3.99609375 L18.0167969,3.99609375 L18.0167969,5.74707031 Z M10.1255859,1.375 L11.8765625,1.375 L11.8765625,4.87480469 L10.1255859,4.87480469 L10.1255859,1.375 Z M15.3742187,10.1255859 L20.625,10.1255859 L20.625,11.8765625 L15.3742187,11.8765625 L15.3742187,10.1255859 Z" id="形状"></path>
                            <path d="M18.8740234,18.8740234 L13.6253906,18.8740234 L13.6253906,20.625 L19.7505859,20.625 C20.2339844,20.625 20.625,20.2339844 20.625,19.7505859 L20.625,13.6253906 L18.8740234,13.6253906 L18.8740234,18.8740234 L18.8740234,18.8740234 Z" id="路径"></path>
                        </g>
                        <g id="二维码" transform="translate(11.000000, 11.000000)" fill="#000000" opacity="0">
                            <rect id="矩形" x="0" y="0" width="22" height="22"></rect>
                        </g>
                    </g>
                </g>
            </g>
        </g>
    </g>
</svg>