<?xml version="1.0" encoding="UTF-8"?>
<svg width="44px" height="44px" viewBox="0 0 44 44" version="1.1" xmlns="http://www.w3.org/2000/svg" xmlns:xlink="http://www.w3.org/1999/xlink">
    <title>scan/Flashlight</title>
    <desc>Created with Sketch.</desc>
    <g id="页面-1" stroke="none" stroke-width="1" fill="none" fill-rule="evenodd">
        <g id="all-icon" transform="translate(-1259.000000, -837.000000)">
            <g id="手电筒" transform="translate(1256.000000, 834.000000)">
                <g>
                    <rect id="矩形备份-9" x="0" y="0" width="50" height="50"></rect>
                    <path d="M25,5 C13.9736146,5 5,13.9739244 5,25 C5,36.0256805 13.9743195,45 25,45 C36.0256805,45 45,36.0256805 45,25 C45,13.9743195 36.0256805,5 25,5 Z" id="路径" stroke="#1A1919" stroke-width="4" fill-rule="nonzero"></path>
                    <path d="M33.1157595,12.8911085 C32.5418179,12.313161 31.7731461,12 30.9634784,12 L19.0465027,12 C17.3682359,12 16,13.3570309 16,15.0272229 L16,18.5127301 C16,21.0765766 17.2119393,23.4749315 19.2591686,25.0152761 L19.2591686,34.9727771 C19.2591686,36.640423 20.6248422,38 22.3056713,38 L27.6940609,38 C29.3723277,38 30.7405636,36.6429691 30.7405636,34.9727771 L30.7405636,25.0127301 C32.7903551,23.4749315 33.9998684,21.0765766 33.9998684,18.5101841 L33.9998684,15.0323149 C34.0074189,14.2226792 33.6897012,13.463964 33.1157595,12.8911085 Z M20.7615187,14.5836271 L29.4855612,14.5836271 C29.7990011,14.5836271 30.0937591,14.7338425 30.3158655,15.0088132 C30.5379719,15.2812378 30.6583661,15.6427732 30.656392,16.0297689 L30.656392,17.16705 L19.5845623,17.16705 L19.5845623,16.0272229 C19.5845623,15.2303173 20.1118055,14.5836271 20.7615187,14.5836271 Z M27.4241157,24.1007402 C27.4241157,24.2655462 27.4241157,24.7611422 27.4241157,24.9965371 L27.4241157,33.7928893 C27.4241157,34.5082157 26.8526377,35.0864188 26.1506647,35.0864188 L23.899876,35.0864188 C23.1956531,35.0864188 22.626425,34.5059303 22.626425,33.7928893 L22.626425,24.9965371 C22.626425,24.7611422 22.6872737,23.7814317 22.4937811,23.6511646 C20.9120919,22.5656054 19.7041941,22.3734471 19.681695,20.4422944 L30.2527185,20.4422944 C30.2279695,22.3734471 29.0080548,22.56332 27.4241157,23.6511646 L27.4241157,24.1007402 Z" id="形状" fill="#000000" fill-rule="nonzero"></path>
                </g>
            </g>
        </g>
    </g>
</svg>