<?xml version="1.0" encoding="UTF-8"?>
<svg width="48px" height="46px" viewBox="0 0 48 46" version="1.1" xmlns="http://www.w3.org/2000/svg" xmlns:xlink="http://www.w3.org/1999/xlink">
    <title>chat</title>
    <desc>Created with Sketch.</desc>
    <g id="页面-1" stroke="none" stroke-width="1" fill="none" fill-rule="evenodd">
        <g id="好友主页icon" transform="translate(-628.000000, -178.000000)" fill="#000000">
            <g id="聊天" transform="translate(627.000000, 176.000000)">
                <g>
                    <rect id="矩形" fill-rule="nonzero" opacity="0" x="0" y="0" width="50" height="50"></rect>
                    <path d="M36.9999975,20.170815 C36.187,20.170815 35.484,20.4706335 34.891,21.0702704 C34.298,21.6699073 34.001,22.3795785 33.9999975,23.1992842 C33.999,24.0189899 34.296,24.7286611 34.891,25.328298 C35.486,25.9279349 36.189,26.2277534 36.9999975,26.2277534 C37.811,26.2277534 38.514,25.9279349 39.109,25.328298 C39.704,24.7286611 40.001,24.0189899 39.9999975,23.1992842 C39.999,22.3795785 39.702,21.6699073 39.109,21.0702704 C38.516,20.4706335 37.813,20.170815 36.9999975,20.170815 Z M20.2190806,40.0605173 L13.5362732,44.1352232 L13.6254906,37.4643966 C11.0292173,35.8826542 8.97155276,33.8605838 7.45249687,31.3981853 C5.93344099,28.9357868 5.17391304,26.2718498 5.17391304,23.4063745 C5.17391304,20.3021095 6.0590062,17.4289929 7.82919252,14.7870246 C9.59937884,12.1450563 12.0039999,10.0556472 15.0430558,8.51879725 C18.0821117,6.9819473 21.401093,6.21352232 24.9999998,6.21352232 C30.4880495,6.21352232 35.1641737,7.89269089 39.0283724,11.251028 C42.8925711,14.6093651 44.8251425,18.6611473 44.8260873,23.4063745 C44.8270307,28.1516017 42.8944593,32.2033838 39.0283724,35.561721 C35.1622855,38.9200581 30.4861613,40.5992267 24.9999998,40.5992267 C23.4351551,40.5977939 21.8419874,40.4187017 20.2190806,40.0605173 Z M25,2 C20.656,2 16.6405,2.94639662 12.9535,4.83918985 C9.2665,6.73198308 6.3525,9.30315341 4.2115,12.5527008 C2.0705,15.8022482 1,19.3511094 1,23.1992842 C1,26.4801258 1.8045,29.5636122 3.4135,32.4497433 C5.0225,35.3358744 7.218,37.7571355 10,39.7135266 L10,44.865219 C10,46.5941104 11.4015434,47.9956538 13.1304348,47.9956538 C13.7078371,47.9956538 14.27399,47.8359591 14.7662836,47.5342302 L20.5,44.0200097 L20.5,44.0200097 C22.031,44.2723822 23.531,44.3985684 25,44.3985684 C29.344,44.3985684 33.3595,43.4521718 37.0465,41.5593785 C40.7335,39.6665853 43.6475,37.095415 45.7885,33.8458676 C47.9295,30.5963201 49,27.047459 49,23.1992842 C49,19.3511094 47.9295,15.8022482 45.7885,12.5527008 C43.6475,9.30315341 40.7335,6.73198308 37.0465,4.83918985 C33.3595,2.94639662 29.344,2 25,2 Z M12.9999975,20.170815 C12.187,20.170815 11.484,20.4706335 10.891,21.0702704 C10.298,21.6699073 10.001,22.3795785 9.99999748,23.1992842 C9.999,24.0189899 10.296,24.7286611 10.891,25.328298 C11.486,25.9279349 12.189,26.2277534 12.9999975,26.2277534 C13.811,26.2277534 14.514,25.9279349 15.109,25.328298 C15.704,24.7286611 16.001,24.0189899 15.9999975,23.1992842 C15.999,22.3795785 15.702,21.6699073 15.109,21.0702704 C14.516,20.4706335 13.813,20.170815 12.9999975,20.170815 Z M24.9999975,20.170815 C24.187,20.170815 23.484,20.4706335 22.891,21.0702704 C22.298,21.6699073 22.001,22.3795785 21.9999975,23.1992842 C21.999,24.0189899 22.296,24.7286611 22.891,25.328298 C23.486,25.9279349 24.189,26.2277534 24.9999975,26.2277534 C25.811,26.2277534 26.514,25.9279349 27.109,25.328298 C27.704,24.7286611 28.001,24.0189899 27.9999975,23.1992842 C27.999,22.3795785 27.702,21.6699073 27.109,21.0702704 C26.516,20.4706335 25.813,20.170815 24.9999975,20.170815 Z" id="形状" fill-rule="nonzero"></path>
                </g>
            </g>
        </g>
    </g>
</svg>