<?xml version="1.0" encoding="UTF-8"?>
<svg width="44px" height="44px" viewBox="0 0 44 44" version="1.1" xmlns="http://www.w3.org/2000/svg" xmlns:xlink="http://www.w3.org/1999/xlink">
    <title>blacklist</title>
    <desc>Created with Sketch.</desc>
    <defs>
        <path d="M14,24 L30,24 C31.1045695,24 32,23.1045695 32,22 C32,20.8954305 31.1045695,20 30,20 L14,20 C12.8954305,20 12,20.8954305 12,22 C12,23.1045695 12.8954305,24 14,24 Z" id="path-1"></path>
    </defs>
    <g id="页面-1" stroke="none" stroke-width="1" fill="none" fill-rule="evenodd">
        <g id="好友主页icon" transform="translate(-2024.000000, -179.000000)">
            <g id="拉黑" transform="translate(2021.000000, 176.000000)">
                <g>
                    <rect id="矩形" fill="#000000" fill-rule="nonzero" opacity="0" x="0" y="0" width="50" height="50"></rect>
                    <g id="编组-9" transform="translate(3.000000, 3.000000)">
                        <path d="M22,42 C33.045695,42 42,33.045695 42,22 C42,10.954305 33.045695,2 22,2 C10.954305,2 2,10.954305 2,22 C2,33.045695 10.954305,42 22,42 Z" id="Oval" stroke="#000000" stroke-width="4" fill-rule="nonzero"></path>
                        <mask id="mask-2" fill="white">
                            <use xlink:href="#path-1"></use>
                        </mask>
                        <use id="Combined-Shape" fill="#000000" fill-rule="nonzero" xlink:href="#path-1"></use>
                    </g>
                </g>
            </g>
        </g>
    </g>
</svg>