<?xml version="1.0" encoding="UTF-8"?>
<svg width="40px" height="44px" viewBox="0 0 40 44" version="1.1" xmlns="http://www.w3.org/2000/svg" xmlns:xlink="http://www.w3.org/1999/xlink">
    <title>publick/delected</title>
    <desc>Created with Sketch.</desc>
    <defs>
        <path d="M29,3 C32.3137085,3 35,5.6862915 35,9 L35,9 L34.999,10.999 L43,11 C44.0543618,11 44.9181651,11.8158778 44.9945143,12.8507377 L45,13 C45,14.1045695 44.1045695,15 43,15 L43,15 L41,14.999 L41,41 C41,44.2383969 38.4344251,46.8775718 35.2249383,46.9958615 L35,47 L15,47 C11.6862915,47 9,44.3137085 9,41 L9,41 L9,14.999 L7,15 C5.9456382,15 5.08183488,14.1841222 5.00548574,13.1492623 L5,13 C5,11.8954305 5.8954305,11 7,11 L7,11 L14.999,10.999 L15,9 C15,5.76160306 17.5655749,3.12242824 20.7750617,3.00413847 L21,3 Z M16.9747645,14.9998441 L13,14.999 L13,41 C13,42.0543618 13.8158778,42.9181651 14.8507377,42.9945143 L15,43 L35,43 C36.1045695,43 37,42.1045695 37,41 L37,41 L37,14.999 L33.024,14.999 L33,15 C32.9915759,15 32.9831639,14.9999479 32.9747645,14.9998441 L17.024,14.999 L17,15 C16.9915759,15 16.9831639,14.9999479 16.9747645,14.9998441 Z M21,21 C22.1045695,21 23,21.8954305 23,23 L23,23 L23,35 C23,36.1045695 22.1045695,37 21,37 C19.8954305,37 19,36.1045695 19,35 L19,35 L19,23 C19,21.8954305 19.8954305,21 21,21 Z M29,21 C30.1045695,21 31,21.8954305 31,23 L31,23 L31,35 C31,36.1045695 30.1045695,37 29,37 C27.8954305,37 27,36.1045695 27,35 L27,35 L27,23 C27,21.8954305 27.8954305,21 29,21 Z M29,7 L21,7 C19.8954305,7 19,7.8954305 19,9 L19,9 L18.999,10.999 L30.999,10.999 L31,9 C31,7.9456382 30.1841222,7.08183488 29.1492623,7.00548574 L29,7 Z" id="path-1"></path>
    </defs>
    <g id="页面-1" stroke="none" stroke-width="1" fill="none" fill-rule="evenodd">
        <g id="all-icon" transform="translate(-1738.000000, -352.000000)">
            <g id="删除" transform="translate(1733.000000, 349.000000)">
                <g>
                    <rect id="矩形" fill="#000000" fill-rule="nonzero" opacity="0" x="0" y="0" width="50" height="50"></rect>
                    <mask id="mask-2" fill="white">
                        <use xlink:href="#path-1"></use>
                    </mask>
                    <use id="Combined-Shape" fill="#000000" fill-rule="nonzero" xlink:href="#path-1"></use>
                </g>
            </g>
        </g>
    </g>
</svg>