<?xml version="1.0" encoding="UTF-8"?>
<svg width="20px" height="22px" viewBox="0 0 20 22" version="1.1" xmlns="http://www.w3.org/2000/svg" xmlns:xlink="http://www.w3.org/1999/xlink">
    <title>user_1e</title>
    <desc>Created with Sketch.</desc>
    <g id="IM-群聊" stroke="none" stroke-width="1" fill="none" fill-rule="evenodd" fill-opacity="0.800000012">
        <g id="群对话框-搜索结果" transform="translate(-280.000000, -519.000000)" fill="#333333" fill-rule="nonzero">
            <g id="user_1e" transform="translate(278.000000, 518.000000)">
                <rect id="矩形" opacity="0" x="0" y="0" width="24" height="24"></rect>
                <path d="M18.9575268,8.80390296 C18.9575268,4.96022098 15.8041688,1.84487719 11.9136945,1.84487719 C8.0231723,1.84487719 4.86986224,4.96022098 4.86986224,8.80390296 C4.86986224,11.0233582 5.92497888,12.9951813 7.56220484,14.2692934 C4.62637934,15.747867 2.55991638,18.691799 2.33099161,22.1130074 L3.3845253,22.1130074 C3.63165375,18.9092835 5.71061222,16.0727507 8.61211699,14.9450832 C9.53400396,15.3831702 10.8221946,15.7629767 11.9136945,15.7629767 C13.0052185,15.7629767 14.0347684,15.5106198 14.9567273,15.0726048 L15.6793814,14.6537767 L16.2646326,14.2693174 C17.9024581,12.9951813 18.9575268,11.0233582 18.9575268,8.80390296 Z M11.9136705,14.6293133 C8.65684664,14.6293133 6.01702845,12.0212496 6.01702845,8.80344727 C6.01702845,5.58660429 8.65684664,2.97803688 11.9136705,2.97803688 C15.1704944,2.97803688 17.8108642,5.58660427 17.8108642,8.80344727 C17.8108642,12.0212016 15.3013017,14.6293133 11.9136705,14.6293133 Z M17.8727423,15.2915763 L17.8675618,15.2988913 C17.7525358,15.1891178 17.5991118,15.1199726 17.4274122,15.1199726 C17.0731005,15.1199726 16.7864468,15.2546653 16.7864468,15.6089531 C16.7864468,15.8534434 16.9279509,16.0584564 17.1287187,16.1664551 L17.1245696,16.1727389 C19.0505837,17.5492616 20.0219251,19.6334245 20.2133873,22.1130314 L21.4963255,22.1130314 C21.3121783,19.3586908 19.935056,16.9062096 17.8727423,15.2915763 Z" id="形状"></path>
            </g>
        </g>
    </g>
</svg>