<?xml version="1.0" encoding="UTF-8"?>
<svg width="23px" height="23px" viewBox="0 0 23 23" version="1.1" xmlns="http://www.w3.org/2000/svg" xmlns:xlink="http://www.w3.org/1999/xlink">
    <title>notice</title>
    <desc>Created with Sketch.</desc>
    <g id="组件" stroke="none" stroke-width="1" fill="none" fill-rule="evenodd">
        <g id="对话框-搜索-通知-呼叫-详细信息快捷键" transform="translate(-122.000000, -18.000000)" fill="#000000" fill-rule="nonzero">
            <g id="通知" transform="translate(121.000000, 17.000000)">
                <rect id="矩形" opacity="0" x="0" y="0" width="24" height="24"></rect>
                <path d="M10.74552,21.3816 C10.734,21.45516 10.72812,21.53076 10.72812,21.60756 C10.72812,22.4142 11.38212,23.0682 12.18888,23.0682 C12.99564,23.0682 13.64976,22.41444 13.64976,21.60756 C13.64976,21.53076 13.64364,21.45516 13.63224,21.3816 L10.74552,21.3816 L10.74552,21.3816 Z M22.8924,19.32576 L20.60916,19.32576 L20.60916,11.08776 C20.60916,6.65952 17.19084,3.02976 12.849,2.69316 L12.849,1.78008 C12.849,1.41552 12.55344,1.12008 12.189,1.12008 C11.82456,1.12008 11.529,1.41552 11.529,1.78008 L11.529,2.69316 C7.18716,3.02976 3.76884,6.65952 3.76884,11.08776 L3.76884,19.32576 L1.48548,19.32576 C1.21728,19.32576 0.99996,19.5432 0.99996,19.81152 C0.99996,20.0796 1.21728,20.29704 1.48548,20.29704 L3.78108,20.29704 L3.78108,20.29704 L20.59668,20.29704 L20.59668,20.29704 L22.8924,20.29704 C23.16048,20.29704 23.37792,20.0796 23.37792,19.81152 C23.37792,19.54308 23.16048,19.32576 22.8924,19.32576 L22.8924,19.32576 Z M4.73976,11.08776 C4.73976,10.08168 4.93668,9.1062 5.32476,8.18844 C5.69988,7.30152 6.23724,6.50472 6.9216,5.82036 C7.60596,5.136 8.40276,4.59876 9.28968,4.22352 C10.20732,3.83532 11.18292,3.63852 12.18888,3.63852 C13.19508,3.63852 14.17056,3.83532 15.0882,4.22352 C15.975,4.59876 16.7718,5.13588 17.45616,5.82036 C18.14064,6.50484 18.678,7.30152 19.05312,8.18844 C19.4412,9.1062 19.638,10.08168 19.638,11.08776 L19.638,19.32576 L4.73976,19.32576 L4.73976,11.08776 L4.73976,11.08776 Z" id="形状"></path>
            </g>
        </g>
    </g>
</svg>