<?xml version="1.0" encoding="UTF-8"?>
<svg width="12px" height="14px" viewBox="0 0 12 14" version="1.1" xmlns="http://www.w3.org/2000/svg" xmlns:xlink="http://www.w3.org/1999/xlink">
    <title>cancel</title>
    <desc>Created with Sketch.</desc>
    <g id="好友系统" stroke="none" stroke-width="1" fill="none" fill-rule="evenodd">
        <g id="查看好友信息-删除好友" transform="translate(-36.000000, -720.000000)" fill="#000000" fill-rule="nonzero">
            <g id="取消" transform="translate(34.000000, 719.000000)">
                <rect id="矩形" opacity="0" x="0" y="0" width="16" height="16"></rect>
                <path d="M7.5421875,3.9046875 L7.5421875,1.6578125 C7.5421875,1.0734375 6.834375,0.7796875 6.421875,1.19375 L2.1921875,5.421875 C1.9359375,5.678125 1.9359375,6.09375 2.1921875,6.35 L6.4203125,10.578125 C6.834375,10.9921875 7.540625,10.6984375 7.540625,10.1140625 L7.540625,7.6921875 C9.0421875,7.6875 11.7828125,7.525 11.7828125,11.25 C11.7828125,13.0953125 10.3328125,14.6375 8.4078125,14.99375 C11.503125,14.6125 13.5015629,11.30625 13.5015629,9.3390625 C13.503125,4.7671875 8.6671875,3.928125 7.5421875,3.9046875 Z" id="路径"></path>
            </g>
        </g>
    </g>
</svg>