<?xml version="1.0" encoding="UTF-8"?>
<svg width="22px" height="22px" viewBox="0 0 22 22" version="1.1" xmlns="http://www.w3.org/2000/svg" xmlns:xlink="http://www.w3.org/1999/xlink">
    <title>Telephone</title>
    <desc>Created with Sketch.</desc>
    <g id="组件" stroke="none" stroke-width="1" fill="none" fill-rule="evenodd">
        <g id="对话框-搜索-通知-呼叫-详细信息快捷键" transform="translate(-312.000000, -18.000000)" fill="#000000" fill-rule="nonzero">
            <g id="电话" transform="translate(311.000000, 17.000000)">
                <rect id="矩形" opacity="0" x="0" y="0" width="24" height="24"></rect>
                <path d="M22.4507812,17.64375 C22.3734375,17.4164062 22.2257812,17.2359375 22.040625,17.1117187 L18.8109375,14.9578125 C18.6492187,14.8523437 18.459375,14.7867187 18.253125,14.7820312 L18.2296875,14.7820312 C18.0328125,14.7820312 17.8476562,14.8359375 17.690625,14.9320312 L15.3703125,16.3242187 C15.0820312,16.4601562 14.7820312,16.5257812 14.465625,16.5257812 C13.2304687,16.5257812 11.7773437,15.5226562 10.1039062,13.8492187 C8.00625,11.7515625 6.9609375,9.9984375 7.63125,8.58515625 L9.0234375,6.2625 C9.121875,6.0984375 9.17578125,5.90390625 9.1734375,5.69765625 C9.16875,5.49140625 9.103125,5.3015625 8.99765625,5.13984375 L6.84375,1.91484375 C6.721875,1.7296875 6.5390625,1.58203125 6.31171875,1.5046875 C6.19921875,1.46484375 6.084375,1.4484375 5.971875,1.4484375 C5.85703125,1.4484375 5.746875,1.4671875 5.64140625,1.50234375 L4.1765625,1.9921875 C1.4109375,3.159375 -1.24453125,8.4328125 7.1390625,16.81875 C11.390625,21.0679687 14.8429687,22.48125 17.3648437,22.48125 C19.81875,22.48125 21.3914062,21.1429687 21.9679687,19.7789063 L22.4554687,18.3164062 C22.5234375,18.1054688 22.528125,17.8710938 22.4507812,17.64375 Z M21.5765625,18.0234375 L21.0960937,19.4625 C20.6625,20.4375 19.4367187,21.5578125 17.3625,21.5578125 C15.4570312,21.5578125 12.2507812,20.6226563 7.790625,16.1648437 C2.43046875,10.8 2.1703125,7.23515625 2.49375,5.58515625 C2.7421875,4.3171875 3.4875,3.30234375 4.49296875,2.85703125 L5.93203125,2.3765625 C5.94609375,2.371875 5.9578125,2.36953125 5.971875,2.36953125 L6.0140625,2.3765625 C6.03984375,2.38359375 6.05859375,2.4 6.075,2.4234375 L8.22890625,5.65546875 C8.24296875,5.67421875 8.24765625,5.6953125 8.24765625,5.71171875 C8.24765625,5.73984375 8.24296875,5.76328125 8.22890625,5.784375 L6.83671875,8.10703125 L6.81328125,8.146875 L6.79453125,8.18671875 C5.7515625,10.3851562 7.66640625,12.7171875 9.45,14.5007812 C11.4890625,16.5398437 13.0359375,17.446875 14.465625,17.446875 C14.9226562,17.446875 15.3609375,17.3484375 15.7664062,17.15625 L15.80625,17.1375 L15.84375,17.1140625 L18.1664062,15.721875 C18.1851562,15.7101563 18.20625,15.7054688 18.2320312,15.7054688 C18.2578125,15.7054688 18.2789062,15.7125 18.3,15.7265625 L21.5273437,17.878125 C21.5507812,17.8945312 21.5671875,17.915625 21.5765625,17.9414062 C21.5859375,17.9695312 21.5859375,17.9953125 21.5765625,18.0234375 Z" id="形状"></path>
            </g>
        </g>
    </g>
</svg>