<?xml version="1.0" encoding="UTF-8"?>
<svg width="16px" height="16px" viewBox="0 0 16 16" version="1.1" xmlns="http://www.w3.org/2000/svg" xmlns:xlink="http://www.w3.org/1999/xlink">
    <title>tubiaojujue</title>
    <desc>Created with Sketch.</desc>
    <g id="Symbols" stroke="none" stroke-width="1" fill="none" fill-rule="evenodd">
        <g id="搜索栏/组件/搜索框" transform="translate(-93.000000, -8.000000)">
            <g id="图标/原型/拒绝" transform="translate(93.000000, 8.000000)">
                <g id="编组">
                    <g id="颜色/图标/_背景色/深灰色" fill="#D8D8D8">
                        <circle id="Oval" cx="7.99360512" cy="7.99360512" r="7.99360512"></circle>
                    </g>
                    <path d="M6.00568542,4.87431458 L7.985,6.854 L9.9654834,4.87431458 C10.2779028,4.56189514 10.7844348,4.56189514 11.0968542,4.87431458 C11.4092737,5.18673401 11.4092737,5.69326599 11.0968542,6.00568542 L9.116,7.985 L11.0968542,9.9654834 C11.4092737,10.2779028 11.4092737,10.7844348 11.0968542,11.0968542 C10.7844348,11.4092737 10.2779028,11.4092737 9.9654834,11.0968542 L7.985,9.116 L6.00568542,11.0968542 C5.69326599,11.4092737 5.18673401,11.4092737 4.87431458,11.0968542 C4.56189514,10.7844348 4.56189514,10.2779028 4.87431458,9.9654834 L6.854,7.985 L4.87431458,6.00568542 C4.56189514,5.69326599 4.56189514,5.18673401 4.87431458,4.87431458 C5.18673401,4.56189514 5.69326599,4.56189514 6.00568542,4.87431458 Z" id="形状结合" fill="#4A4A4A"></path>
                </g>
            </g>
        </g>
    </g>
</svg>