<?xml version="1.0" encoding="UTF-8"?>
<svg width="50px" height="50px" viewBox="0 0 50 50" version="1.1" xmlns="http://www.w3.org/2000/svg" xmlns:xlink="http://www.w3.org/1999/xlink">
    <title>username</title>
    <desc>Created with Sketch.</desc>
    <g id="页面-1" stroke="none" stroke-width="1" fill="none" fill-rule="evenodd">
        <g id="输入框icon" transform="translate(-1089.000000, -176.000000)">
            <g id="用户名" transform="translate(1089.000000, 176.000000)">
                <g>
                    <rect id="矩形" fill="#000000" fill-rule="nonzero" opacity="0" x="0" y="0" width="50" height="50"></rect>
                    <circle id="椭圆形" fill="#FFFFFF" cx="25" cy="25" r="25"></circle>
                    <path d="M37.1875,10 C38.7408009,10 40,11.2591991 40,12.8125 L40,37.1875 C40,38.7408009 38.7408009,40 37.1875,40 L12.8125,40 C11.2591991,40 10,38.7408009 10,37.1875 L10,12.8125 C10,11.2591991 11.2591991,10 12.8125,10 L37.1875,10 Z M37.1875,12.8125 L12.8125,12.8125 L12.8125,37.1875 L37.1875,37.1875 L37.1875,12.8125 L37.1875,12.8125 Z M33.90625,32.5 L16.09375,32.5 C15.3170995,32.5 14.6875,31.8704005 14.6875,31.09375 C14.6875,30.3170996 15.3170995,29.6875 16.09375,29.6875 L33.90625,29.6875 C34.6829005,29.6875 35.3125,30.3170996 35.3125,31.09375 C35.3125,31.8704005 34.6829005,32.5 33.90625,32.5 Z M23.125,16.5625 C23.8709214,16.5625 24.5862917,16.8588161 25.1137378,17.3862622 C25.6411839,17.9137082 25.9375,18.6290786 25.9375,19.375 L25.9375,24.0625 C25.9375,25.6158009 24.6783008,26.875 23.125,26.875 L17.5,26.875 C15.9466991,26.875 14.6875,25.6158009 14.6875,24.0625 L14.6875,19.375 C14.6875,17.8216991 15.9466991,16.5625 17.5,16.5625 L23.125,16.5625 L23.125,16.5625 Z M35.3125,25.46875 C35.3125,26.2454004 34.6829004,26.875 33.90625,26.875 L29.21875,26.875 C28.4420996,26.875 27.8125,26.2454004 27.8125,25.46875 C27.8125,24.6920996 28.4420996,24.0625 29.21875,24.0625 L33.90625,24.0625 C34.6829004,24.0625 35.3125,24.6920996 35.3125,25.46875 Z M23.125,19.375 L17.5,19.375 L17.5,24.0625 L23.125,24.0625 L23.125,19.375 Z" id="形状" fill="#000000" fill-rule="nonzero"></path>
                </g>
            </g>
        </g>
    </g>
</svg>