<?xml version="1.0" encoding="UTF-8"?>
<svg width="44px" height="44px" viewBox="0 0 44 44" version="1.1" xmlns="http://www.w3.org/2000/svg" xmlns:xlink="http://www.w3.org/1999/xlink">
    <title>keybroad</title>
    <desc>Created with Sketch.</desc>
    <g id="页面-1" stroke="none" stroke-width="1" fill="none" fill-rule="evenodd">
        <g id="输入框icon" transform="translate(-1557.000000, -179.000000)">
            <g id="键盘" transform="translate(1554.000000, 176.000000)">
                <g id="相册">
                    <rect id="矩形" fill="#000000" fill-rule="nonzero" opacity="0" x="0" y="0" width="50" height="50"></rect>
                    <path d="M25,5 C13.9736146,5 5,13.9739244 5,25 C5,36.0256805 13.9743195,45 25,45 C36.0256805,45 45,36.0256805 45,25 C45,13.9743195 36.0256805,5 25,5 Z" id="路径" stroke="#1A1919" stroke-width="4" fill-rule="nonzero"></path>
                    <g id="编组-6" transform="translate(14.000000, 17.000000)" fill="#1A1919">
                        <path d="M7.45395422,4.96919086 L9.11031919,4.96919086 C9.5675452,4.96919086 9.93866958,4.59811444 9.93866958,4.14088847 L9.93866958,0.828062578 C9.93866958,0.371028469 9.5675452,1.4754864e-13 9.11031919,1.4754864e-13 L7.45395422,1.4754864e-13 C6.9967282,1.4754864e-13 6.62560383,0.371076422 6.62560383,0.828062578 L6.62560383,4.14088847 C6.62565183,4.59811444 6.9967282,4.96919086 7.45395422,4.96919086 Z" id="路径"></path>
                        <path d="M7.45395422,12.4230971 L9.11031919,12.4230971 C9.5675452,12.4230971 9.93866958,12.0520207 9.93866958,11.5947947 L9.93866958,8.2819688 C9.93866958,7.82474278 9.5675452,7.45390622 9.11031919,7.45390622 L7.45395422,7.45390622 C6.9967282,7.45390622 6.62560383,7.82474278 6.62560383,8.2819688 L6.62560383,11.5947947 C6.62565183,12.0520207 6.9967282,12.4230971 7.45395422,12.4230971 Z" id="路径"></path>
                        <path d="M14.0795101,4.96919086 L15.7359231,4.96919086 C16.1931491,4.96919086 16.5642255,4.59811444 16.5642255,4.14088847 L16.5642255,0.828062578 C16.5642255,0.371028469 16.193149,1.4754864e-13 15.7359231,1.4754864e-13 L14.0795101,1.4754864e-13 C13.622476,1.4754864e-13 13.2514475,0.371076422 13.2514475,0.828062578 L13.2514475,4.14088847 C13.2514475,4.59811444 13.6225239,4.96919086 14.0795101,4.96919086 Z" id="路径"></path>
                        <path d="M14.0795101,12.4230971 L15.7359231,12.4230971 C16.1931491,12.4230971 16.5642255,12.0520207 16.5642255,11.5947947 L16.5642255,8.2819688 C16.5642255,7.82474278 16.193149,7.45390622 15.7359231,7.45390622 L14.0795101,7.45390622 C13.622476,7.45390622 13.2514475,7.82474278 13.2514475,8.2819688 L13.2514475,11.5947947 C13.2514475,12.0520207 13.6225239,12.4230971 14.0795101,12.4230971 Z" id="路径"></path>
                        <path d="M0.828350391,4.96919086 L2.48471536,4.96919086 C2.94179747,4.96919086 3.31282589,4.59811444 3.31282589,4.14088847 L3.31282589,0.828062578 C3.31282589,0.371028469 2.94174947,1.4754864e-13 2.48471536,1.4754864e-13 L0.828350391,1.4754864e-13 C0.371124375,1.4754864e-13 -4.86277685e-14,0.371076422 -4.86277685e-14,0.828062578 L-4.86277685e-14,4.14088847 C4.7953125e-05,4.59811444 0.371124375,4.96919086 0.828350391,4.96919086 Z" id="路径"></path>
                        <path d="M22.3617668,1.47104551e-13 L20.7053538,1.47104551e-13 C20.2481278,1.47104551e-13 19.8770514,0.371076422 19.8770514,0.828062578 L19.8770514,4.14088847 C19.8770514,4.59811448 20.2481278,4.96919086 20.7053538,4.96919086 L22.3617668,4.96919086 C22.8189928,4.96919086 23.1898293,4.59811444 23.1898293,4.14088847 L23.1898293,0.828062578 C23.1898293,0.371028422 22.8189927,1.47104551e-13 22.3617668,1.47104551e-13 Z" id="路径"></path>
                        <path d="M3.31287389,11.5947947 L3.31287389,8.2819688 C3.31287389,7.82474278 2.94179747,7.45390622 2.48476336,7.45390622 L0.828398391,7.45390622 C0.371172375,7.45390622 4.79999997e-05,7.82474278 4.79999997e-05,8.2819688 L4.79999997e-05,11.5947947 C4.79999997e-05,12.0520207 0.371172375,12.4230971 0.828398391,12.4230971 L2.48476336,12.4230971 C2.94179747,12.4230971 3.31287389,12.0520207 3.31287389,11.5947947 Z" id="路径"></path>
                        <path d="M22.3617668,7.45390622 L20.7053538,7.45390622 C20.2481278,7.45390622 19.8770514,7.82474278 19.8770514,8.2819688 L19.8770514,11.5947947 C19.8770514,12.0520207 20.2481278,12.4230971 20.7053538,12.4230971 L22.3617668,12.4230971 C22.8189928,12.4230971 23.1898293,12.0520207 23.1898293,11.5947947 L23.1898293,8.2819688 C23.1898293,7.82474278 22.8189927,7.45390622 22.3617668,7.45390622 Z" id="路径"></path>
                        <path d="M20.7053538,15.735923 L2.48471536,15.735923 C2.02748934,15.735923 1.65641297,16.1069994 1.65641297,16.5642254 L1.65641297,17.392288 C1.65641297,17.849514 2.02748939,18.2206384 2.48471536,18.2206384 L20.7053538,18.2206384 C21.1623879,18.2206384 21.5334643,17.849514 21.5334643,17.392288 L21.5334643,16.5642254 C21.5334643,16.1069515 21.1623879,15.735923 20.7053538,15.735923 Z" id="路径"></path>
                    </g>
                </g>
            </g>
        </g>
    </g>
</svg>