<?xml version="1.0" encoding="UTF-8"?>
<svg width="46px" height="44px" viewBox="0 0 46 44" version="1.1" xmlns="http://www.w3.org/2000/svg" xmlns:xlink="http://www.w3.org/1999/xlink">
    <title>menu/selectedmessage</title>
    <desc>Created with Sketch.</desc>
    <g id="页面-1" stroke="none" stroke-width="1" fill="none" fill-rule="evenodd">
        <g id="all-icon" transform="translate(-173.000000, -1178.000000)" fill="#000000">
            <g id="消息" transform="translate(171.000000, 1175.000000)">
                <g id="消息备份">
                    <g id="消息" fill-rule="nonzero">
                        <rect id="矩形" opacity="0" x="0" y="0" width="50" height="50"></rect>
                        <path d="M25,3 C29.163,3 33.0111875,3.8984375 36.5445625,5.6953125 C40.0779375,7.4921875 42.8705208,9.9330625 44.9223125,13.0179375 C46.9741042,16.1028125 48,19.4718333 48,23.125 C48,26.7781667 46.9741042,30.1471875 44.9223125,33.2320625 C42.8705208,36.3169375 40.0779375,38.7578125 36.5445625,40.5546875 C33.0111875,42.3515625 29.163,43.25 25,43.25 C23.5922083,43.25 22.1547083,43.1302083 20.6875,42.890625 L20.6875,42.890625 L15.1819344,46.2332898 C14.7126004,46.5182426 14.1740651,46.6689273 13.625,46.6689273 C11.9681458,46.6689273 10.625,45.3257815 10.625,43.6689273 L10.625,43.6689273 L10.625,38.802375 C7.95891667,36.945125 5.85489583,34.6465625 4.3129375,31.9066875 C2.77097917,29.1668125 2,26.2395833 2,23.125 C2,19.4718333 3.02589583,16.1028125 5.0776875,13.0179375 C7.12947917,9.9330625 9.9220625,7.4921875 13.4554375,5.6953125 C16.9888125,3.8984375 20.837,3 25,3 Z M13.5,20.25 C12.720875,20.25 12.0471667,20.534625 11.478875,21.103875 C10.9105833,21.673125 10.6259583,22.3468333 10.6249976,23.125 C10.6240417,23.9031667 10.9086667,24.576875 11.478875,25.146125 C12.0490833,25.715375 12.7227917,26 13.5,26 C14.2772083,26 14.9509167,25.715375 15.521125,25.146125 C16.0913333,24.576875 16.3759583,23.9031667 16.3750024,23.125 C16.3740417,22.3468333 16.0894167,21.673125 15.521125,21.103875 C14.9528333,20.534625 14.279125,20.25 13.5,20.25 Z M36.5,20.25 C35.720875,20.25 35.0471667,20.534625 34.478875,21.103875 C33.9105833,21.673125 33.6259583,22.3468333 33.6249976,23.125 C33.6240417,23.9031667 33.9086667,24.576875 34.478875,25.146125 C35.0490833,25.715375 35.7227917,26 36.5,26 C37.2772083,26 37.9509167,25.715375 38.521125,25.146125 C39.0913333,24.576875 39.3759583,23.9031667 39.3750024,23.125 C39.3740417,22.3468333 39.0894167,21.673125 38.521125,21.103875 C37.9528333,20.534625 37.279125,20.25 36.5,20.25 Z M25,20.25 C24.220875,20.25 23.5471667,20.534625 22.978875,21.103875 C22.4105833,21.673125 22.1259583,22.3468333 22.1249976,23.125 C22.1240417,23.9031667 22.4086667,24.576875 22.978875,25.146125 C23.5490833,25.715375 24.2227917,26 25,26 C25.7772083,26 26.4509167,25.715375 27.021125,25.146125 C27.5913333,24.576875 27.8759583,23.9031667 27.8750024,23.125 C27.8740417,22.3468333 27.5894167,21.673125 27.021125,21.103875 C26.4528333,20.534625 25.779125,20.25 25,20.25 Z" id="形状结合"></path>
                    </g>
                </g>
            </g>
        </g>
    </g>
</svg>