<?xml version="1.0" encoding="UTF-8"?>
<svg width="38px" height="48px" viewBox="0 0 38 48" version="1.1" xmlns="http://www.w3.org/2000/svg" xmlns:xlink="http://www.w3.org/1999/xlink">
    <title>center/wodeshoucang</title>
    <desc>Created with Sketch.</desc>
    <g id="页面-1" stroke="none" stroke-width="1" fill="none" fill-rule="evenodd">
        <g id="all-icon" transform="translate(-320.000000, -172.000000)">
            <g id="我的收藏" transform="translate(314.000000, 171.000000)">
                <g>
                    <rect id="矩形备份" x="0" y="0" width="50" height="50"></rect>
                    <g id="编组-2" transform="translate(6.000000, 1.000000)" fill="#1A1919">
                        <path d="M18.744977,33.9646486 C19.2495388,33.9646486 19.7541005,34.1384447 20.1495679,34.4899277 L33.5,42.5 L33.5,7.25209445 C33.5,6.17040868 33.2136271,5.39610844 32.6272445,4.88509622 C31.6590313,4.03427385 29.9407939,3.96423664 29.3680481,4.01092811 C29.3135009,4.01481907 29.2453168,4.01871002 29.1907696,4.01871002 L7.09914548,4.01871002 C6.17184274,4.01871002 5.47636569,4.2508704 4.99907751,4.72945798 C4.08541157,5.63994168 3.97631713,7.3273196 4.00359074,7.73068204 L4.00359074,42.5 L17.3540229,34.4899277 C17.7494902,34.1384447 18.2404152,33.9646486 18.744977,33.9646486 Z M4,46 L4.015,46 L4,46 Z M34.068689,47.4751894 L18.7566331,38.3248502 L3.45813965,47.4751894 C2.86138991,48.0045033 1.99339028,48.1478054 1.24745311,47.8392541 C0.515078421,47.5319938 0.0268286315,46.8335575 0.0268286315,46.0628247 L0.0268286315,6.17821782 C0.0132661373,5.9109788 -0.330608116,4.10758992 1.89364093,1.87801609 C3.15495288,0.627027642 5.12632644,0.0189620513 7.17426305,0.0189620513 L29.0641286,0.0189620513 C29.7829408,-0.0326783386 33.1600019,-0.119175992 35.4656259,1.87801609 C36.4692504,2.74944767 37.5,3.43224009 37.5,6.17821782 C37.5,8.00886964 37.5,21.3037386 37.5,46.0628247 C37.5,46.8335575 37.0117502,47.5319938 36.265813,47.8392541 C36.0081256,47.9476989 35.7368758,47.9993393 35.4656259,47.9993393 C34.9502511,47.9993393 34.4484388,47.8185979 34.068689,47.4751894 Z" id="7E"></path>
                        <path d="M13.1176471,19.547597 L15.8640779,22.2405268 C15.9857508,22.3583641 16.0415894,22.5316543 16.0129807,22.6980129 L15.3642881,26.5 L18.7594116,24.7047135 C18.9100378,24.625 19.0899622,24.625 19.2405884,24.7047135 L22.6353672,26.5 L21.9873639,22.6980129 C21.9584106,22.5316543 22.0142492,22.3583641 22.1359221,22.2405268 L24.8823529,19.547597 L21.0867084,18.9930684 C20.9181586,18.9688078 20.7727025,18.8613678 20.697217,18.7088725 L19,15.25 L17.3024383,18.7088725 C17.2269528,18.8613678 17.0814967,18.9688078 16.9132916,18.9930684 L13.1176471,19.547597 Z M11.3004847,32.336137 C11.035455,32.1399548 10.9029401,31.8110611 10.9580112,31.4879375 L12.2556241,23.8772222 L6.75998695,18.4937519 C6.5253611,18.2629493 6.44103347,17.9167455 6.54199716,17.605162 C6.64353451,17.2878084 6.91257979,17.0627759 7.23669618,17.0166154 L14.8319192,15.9029929 L18.2285442,8.98468543 C18.3736795,8.68464207 18.6725549,8.5 19.0001133,8.5 C19.3276716,8.5 19.6265471,8.68464207 19.7716824,8.98468543 L23.1683074,15.9029929 L30.7629567,17.0166154 C31.0870731,17.0627759 31.356692,17.2878084 31.4576557,17.605162 C31.5591931,17.9167455 31.4748655,18.2629493 31.239666,18.4937519 L25.7446024,23.8772222 L27.0416417,31.4879375 C27.0967128,31.8110611 26.9641979,32.1399548 26.6991682,32.336137 C26.4341385,32.5265491 26.0836339,32.5553994 25.7927897,32.3996077 L19.0001133,28.8106275 L12.2068632,32.3996077 C12.0812323,32.4688484 11.9435545,32.4976988 11.8064504,32.4976988 C11.628043,32.4976988 11.4507829,32.4457682 11.3004847,32.336137 Z" id="4J"></path>
                    </g>
                </g>
            </g>
        </g>
    </g>
</svg>