<?xml version="1.0" encoding="UTF-8"?>
<svg width="50px" height="50px" viewBox="0 0 50 50" version="1.1" xmlns="http://www.w3.org/2000/svg" xmlns:xlink="http://www.w3.org/1999/xlink">
    <title>sendLocation</title>
    <desc>Created with Sketch.</desc>
    <g id="页面-1" stroke="none" stroke-width="1" fill="none" fill-rule="evenodd">
        <g id="输入框icon" transform="translate(-1243.000000, -176.000000)">
            <g id="发送定位" transform="translate(1243.000000, 176.000000)">
                <g>
                    <rect id="矩形" fill="#000000" fill-rule="nonzero" opacity="0" x="0" y="0" width="50" height="50"></rect>
                    <circle id="椭圆形" fill="#FFFFFF" cx="25" cy="25" r="25"></circle>
                    <path d="M25,9 C32.1797143,9 38,14.7543694 38,21.8540387 C38,22.0042513 37.9972143,22.1544639 37.9907143,22.3075106 C37.831,26.5550307 35.4557143,31.3316013 31.5575714,36.1761928 C29.7001207,38.4747727 27.6650184,40.6185886 25.4717143,42.5871517 L25,43 L24.5282857,42.5871517 L23.9618571,42.0722721 C21.9834142,40.2459068 20.1386993,38.2749911 18.4424286,36.175248 C14.5442857,31.3316013 12.169,26.5550307 12.0083571,22.3065659 C12.0027857,22.1554086 12,22.0042513 12,21.853094 C12,14.8526216 17.6615,9.15777044 24.7056428,9.0028342 L25,9 Z M25,11.8341993 C19.3412857,11.8341993 14.7857143,16.3386868 14.7857143,21.8540387 C14.7857143,21.9674067 14.7875714,22.0817194 14.7922143,22.1979216 C14.9203572,25.5904582 16.9056429,29.7935758 20.5976429,34.3802551 C21.7791469,35.8435137 23.0376556,37.2406144 24.3676429,38.5654228 L25,39.1861125 L25.6314286,38.5654228 C26.9617333,37.2406395 28.2205523,35.8435383 29.4023571,34.3802551 C33.0943571,29.7935758 35.0796428,25.5904582 35.2077857,22.1979216 C35.2124286,22.0817194 35.2142857,21.9674067 35.2142857,21.8540387 C35.2142857,16.3386868 30.6587143,11.8341993 25,11.8341993 Z M25,15.1407653 C28.5898509,15.1407653 31.5,18.1015652 31.5,21.753897 C31.5,25.4062289 28.5898509,28.3670288 25,28.3670288 C21.4101491,28.3670288 18.5,25.4062289 18.5,21.753897 C18.5,18.1015652 21.4101491,15.1407653 25,15.1407653 Z M25,17.9749646 C23.6730135,17.9749646 22.4468274,18.695225 21.7833342,19.8644308 C21.1198409,21.0336366 21.1198409,22.4741575 21.7833342,23.6433633 C22.4468274,24.812569 23.6730135,25.5328295 25,25.5328295 C27.0513433,25.5328295 28.7142856,23.8409438 28.7142856,21.753897 C28.7142856,19.6668503 27.0513433,17.9749646 25,17.9749646 L25,17.9749646 Z" id="形状" fill="#000000" fill-rule="nonzero"></path>
                </g>
            </g>
        </g>
    </g>
</svg>