<?xml version="1.0" encoding="UTF-8"?>
<svg width="48px" height="40px" viewBox="0 0 48 40" version="1.1" xmlns="http://www.w3.org/2000/svg" xmlns:xlink="http://www.w3.org/1999/xlink">
    <title>public/download</title>
    <desc>Created with Sketch.</desc>
    <defs>
        <path d="M25.0047498,23.0130891 C26.1087011,23.0130891 27.0036305,23.9079868 27.0036305,25.0118991 L27.0036305,25.0118991 L27.003,38.175 L31.5868504,33.5925774 C32.326377,32.8530769 33.5012033,32.8141558 34.286551,33.4758142 L34.4136945,33.5925774 C35.194306,34.3731613 35.194306,35.6387378 34.4136945,36.4193217 L34.4136945,36.4193217 L26.4181719,44.4145621 C26.3825725,44.4501602 26.3456365,44.4844219 26.3074457,44.5172653 C26.2862772,44.5355688 26.2648018,44.5532913 26.2430513,44.570497 C26.2253861,44.5843187 26.2073213,44.5981046 26.1890185,44.611586 C26.1671042,44.6279227 26.1448241,44.6436501 26.1223025,44.6588683 C26.096032,44.6763977 26.0698013,44.6932307 26.0431612,44.7094581 C26.0296964,44.7178609 26.0159631,44.7259984 26.0021551,44.7339574 C25.9630133,44.7563534 25.922933,44.7776979 25.88207,44.7976894 C25.8768773,44.800328 25.8718232,44.8027693 25.8667609,44.805188 C25.771587,44.8506613 25.6721689,44.8889376 25.5693061,44.9191645 C25.5556092,44.9230317 25.5420172,44.9268618 25.5283938,44.9305455 C25.4952768,44.9396863 25.461328,44.9479366 25.4270527,44.9553081 C25.4059258,44.9596672 25.3852978,44.9637594 25.3646218,44.9675242 C25.332756,44.9734915 25.3002966,44.9785783 25.2675882,44.9828743 C25.2473526,44.9854172 25.2270162,44.987784 25.2066543,44.9898391 C25.1404935,44.9965774 25.0730214,45 25.0047498,45 L25.1165801,44.9968888 C25.0959335,44.9980386 25.0752725,44.9988697 25.0546051,44.9993821 L25.0047498,45 C24.987911,45 24.9711209,44.9997918 24.9543818,44.9993778 C24.9342271,44.9988697 24.9135661,44.9980386 24.8929196,44.9968888 C24.8624341,44.995235 24.8326911,44.9929188 24.8031379,44.9899589 C24.7827672,44.9878231 24.761717,44.9853724 24.7407026,44.9825878 C24.7075091,44.9783254 24.6751224,44.9732221 24.6430037,44.9673512 C24.6240521,44.9637139 24.6050093,44.9599426 24.5860142,44.9558924 C24.5481264,44.9480019 24.5103627,44.9387832 24.4730362,44.9285092 C24.4625445,44.925462 24.4519486,44.9224556 24.4413731,44.91936 L24.4730362,44.9285092 C24.360352,44.8974933 24.2516527,44.8568604 24.1478765,44.8075486 C24.1368511,44.8024107 24.1250905,44.7966965 24.1133754,44.7908601 C24.0775125,44.7728304 24.0429587,44.7542703 24.0090322,44.7347428 C23.9907546,44.7244219 23.9723244,44.7134269 23.9540371,44.7021094 C23.9343151,44.6896909 23.9150423,44.6772919 23.8960001,44.6645747 C23.8708062,44.6479557 23.8458158,44.6304258 23.8211482,44.6122574 C23.800518,44.5968976 23.7800455,44.5812162 23.7598905,44.5651534 C23.7015697,44.5187524 23.6452899,44.4685223 23.5913277,44.4145621 L23.7031151,44.5181773 C23.6645472,44.4850563 23.6272568,44.4504899 23.5913277,44.4145621 L15.5958051,36.4193217 C14.8151936,35.6387378 14.8151936,34.3731613 15.5958051,33.5925774 C16.3764165,32.8119935 17.6420378,32.8119935 18.4226492,33.5925774 L18.4226492,33.5925774 L23.005,38.175 L23.0058691,25.0118991 C23.0058691,23.9581647 23.8212903,23.0948753 24.855571,23.0185715 Z M3.03754178,14.6744115 C6.48236376,8.06616456 13.6451213,4.26597105 21.0486128,5.11865665 C27.9285863,5.91104688 33.6926047,10.569078 35.9598309,17.0166592 L35.9598309,17.0166592 L36.9964702,17.0166594 C42.2281656,17.0125673 46.8588586,20.400072 48.4390125,25.3872565 C50.0191664,30.3744411 48.1841315,35.810421 43.9046018,38.8196798 C43.0015693,39.4546698 41.7547375,39.2374043 41.1197251,38.3344037 C40.4847127,37.4314031 40.7019859,36.1846153 41.6050184,35.5496253 C44.4580382,33.5434527 45.6813948,29.9194662 44.6279589,26.5946765 C43.5745229,23.2698867 40.4873942,21.0115503 36.9980338,21.014279 L36.9980338,21.014279 L34.4794442,21.014279 C33.5668386,21.014279 32.7701092,20.3961977 32.5432869,19.5122603 C31.1026441,13.898004 26.3494558,9.75322173 20.5911847,9.09002182 C14.8329136,8.42682191 9.26187989,11.382528 6.5825739,16.5222756 C3.90326791,21.6620232 4.67047263,27.9215648 8.51174414,32.2621701 C9.24333978,33.0888672 9.16622118,34.3520921 8.33949492,35.0836619 C7.51276865,35.8152317 6.24949915,35.7381158 5.51790352,34.9114187 C0.579125859,29.3306405 -0.407280213,21.2826584 3.03754178,14.6744115 Z" id="path-1"></path>
    </defs>
    <g id="页面-1" stroke="none" stroke-width="1" fill="none" fill-rule="evenodd">
        <g id="all-icon" transform="translate(-2396.000000, -178.000000)">
            <g id="下载" transform="translate(2395.000000, 173.000000)">
                <g id="编组-10">
                    <g>
                        <rect id="矩形" opacity="0" fill-rule="nonzero" x="0" y="0" width="50" height="50"></rect>
                        <mask id="mask-2" fill="white">
                            <use xlink:href="#path-1"></use>
                        </mask>
                        <use id="Combined-Shape" fill="#000000" fill-rule="nonzero" xlink:href="#path-1"></use>
                    </g>
                </g>
            </g>
        </g>
    </g>
</svg>