<?xml version="1.0" encoding="UTF-8"?>
<svg width="100px" height="100px" viewBox="0 0 100 100" version="1.1" xmlns="http://www.w3.org/2000/svg" xmlns:xlink="http://www.w3.org/1999/xlink">
    <title>call</title>
    <desc>Created with Sketch.</desc>
    <defs>
        <path d="M0.474376128,13.6491851 C-0.658500987,9.39732876 0.101219616,3.76469174 4.24440728,1.25586699 C8.38759495,-1.25295776 10.2821372,0.555256603 11.5209593,1.86599398 C12.7597814,3.17673136 15.076731,5.6801053 17.5745069,9.93718553 C20.0722829,14.1942658 18.7112323,16.634047 17.5745069,18.3735811 C16.4377816,20.1131153 16.9784631,20.6676441 17.5745069,21.3853337 C18.1705508,22.1030233 23.3224833,27.883059 24.7978536,28.7944339 C26.2732238,29.7058088 27.1525502,29.5277491 28.2400247,28.7944339 C29.3274991,28.0611186 32.1973531,26.5755921 36.442997,28.7944339 C40.6886409,31.0132757 47.4752003,35.0715832 46.9737038,39.5368842 C46.4722074,44.0021853 43.1105633,48.5978822 33.9542084,46.4590457 C24.7978536,44.3202092 15.9431174,36.8533304 11.0446293,31.0438604 C6.14614119,25.2343903 1.60725324,17.9010414 0.474376128,13.6491851 Z" id="path-1"></path>
    </defs>
    <g id="icon" stroke="none" stroke-width="1" fill="none" fill-rule="evenodd">
        <g id="图标/原型/语音">
            <g id="电话">
                <circle id="椭圆形" fill="#F2F2F2" cx="50" cy="50" r="50"></circle>
                <g transform="translate(27.000000, 27.000000)">
                    <mask id="mask-2" fill="white">
                        <use xlink:href="#path-1"></use>
                    </mask>
                    <use id="Mask" fill="#1890FF" xlink:href="#path-1"></use>
                </g>
            </g>
        </g>
    </g>
</svg>