<?xml version="1.0" encoding="UTF-8"?>
<svg width="22px" height="20px" viewBox="0 0 22 20" version="1.1" xmlns="http://www.w3.org/2000/svg" xmlns:xlink="http://www.w3.org/1999/xlink">
    <title>datetime</title>
    <desc>Created with Sketch.</desc>
    <g id="IM-群聊" stroke="none" stroke-width="1" fill="none" fill-rule="evenodd" fill-opacity="0.800000012">
        <g id="群对话框-搜索-点击通过用户搜索" transform="translate(-321.000000, -520.000000)" fill="#333333" fill-rule="nonzero">
            <g id="日期" transform="translate(320.000000, 518.000000)">
                <rect id="矩形" opacity="0" x="0" y="0" width="24" height="24"></rect>
                <path d="M2.99999999,4.99999999 C2.44771525,4.99999999 1.99999999,5.44771525 1.99999999,5.99999999 L1.99999999,20 C1.99999999,20.5522847 2.44771525,21 2.99999999,21 L21,21 C21.5522848,21 22,20.5522847 22,20 L22,5.99999999 C22,5.44771525 21.5522848,4.99999999 21,4.99999999 L2.99999999,4.99999999 Z M3.00000001,4.00000001 L21,4.00000001 C22.1045695,4.00000001 23,4.8954305 23,6.00000001 L23,20 C23,20.530433 22.7892863,21.0391408 22.4142136,21.4142136 C22.0391408,21.7892863 21.530433,22 21,22 L3.00000001,22 C2.46956702,22 1.96085919,21.7892863 1.58578643,21.4142136 C1.21071368,21.0391408 1,20.530433 1.00000001,20 L1.00000001,6.00000001 C1.00000001,4.8954305 1.8954305,4.00000001 3.00000001,4.00000001 Z M1.50000001,9 L22.5,9 C22.8333333,9 23,9.16666666 23,9.5 L23,9.5 C23,9.83333332 22.8333333,9.99999999 22.5,10 L1.50000001,10 C1.16666667,10 1.00000001,9.83333334 1.00000001,9.5 L1.00000001,9.5 C1.00000001,9.16666666 1.16666667,9 1.50000001,9 Z M4.50000001,13 L7.50000001,13 C7.83333333,13 7.99999999,13.1666667 8.00000001,13.5 L8.00000001,13.5 C7.99999999,13.8333333 7.83333333,14 7.50000001,14 L4.50000001,14 C4.16666667,14 4.00000001,13.8333333 4.00000001,13.5 L4.00000001,13.5 C4.00000001,13.1666667 4.16666667,13 4.50000001,13 Z M10.5,13 L13.5,13 C13.8333333,13 14,13.1666667 14,13.5 L14,13.5 C14,13.8333333 13.8333333,14 13.5,14 L10.5,14 C10.1666667,14 10,13.8333333 10,13.5 L10,13.5 C10,13.1666667 10.1666667,13 10.5,13 Z M16.5,13 L19.5,13 C19.8333333,13 20,13.1666667 20,13.5 L20,13.5 C20,13.8333333 19.8333333,14 19.5,14 L16.5,14 C16.1666667,14 16,13.8333333 16,13.5 L16,13.5 C16,13.1666667 16.1666667,13 16.5,13 Z M4.50000001,17 L7.50000001,17 C7.83333333,17 7.99999999,17.1666667 8.00000001,17.5 L8.00000001,17.5 C7.99999999,17.8333333 7.83333333,18 7.50000001,18 L4.50000001,18 C4.16666667,18 4.00000001,17.8333333 4.00000001,17.5 L4.00000001,17.5 C4.00000001,17.1666667 4.16666667,17 4.50000001,17 Z M10.5,17 L13.5,17 C13.8333333,17 14,17.1666667 14,17.5 L14,17.5 C14,17.8333333 13.8333333,18 13.5,18 L10.5,18 C10.1666667,18 10,17.8333333 10,17.5 L10,17.5 C10,17.1666667 10.1666667,17 10.5,17 Z M16.5,17 L19.5,17 C19.8333333,17 20,17.1666667 20,17.5 L20,17.5 C20,17.8333333 19.8333333,18 19.5,18 L16.5,18 C16.1666667,18 16,17.8333333 16,17.5 L16,17.5 C16,17.1666667 16.1666667,17 16.5,17 Z M6.5,1.99999999 L6.5,1.99999999 C6.83333332,1.99999999 6.99999999,2.16666666 7,2.49999999 L7,6.49999999 C7.00000001,6.83333332 6.83333334,6.99999999 6.5,6.99999999 L6.5,6.99999999 C6.16666666,7.00000001 6,6.83333334 6,6.49999999 L6,2.49999999 C6,2.16666668 6.16666666,2.00000001 6.5,1.99999999 Z M17.5,1.99999999 L17.5,1.99999999 C17.8333333,1.99999999 18,2.16666666 18,2.49999999 L18,6.49999999 C18,6.83333332 17.8333333,6.99999999 17.5,6.99999999 L17.5,6.99999999 C17.1666667,7.00000001 17,6.83333334 17,6.49999999 L17,2.49999999 C17,2.16666668 17.1666667,2.00000001 17.5,1.99999999 Z" id="形状"></path>
            </g>
        </g>
    </g>
</svg>