<?xml version="1.0" encoding="UTF-8"?>
<svg width="46px" height="45px" viewBox="0 0 46 45" version="1.1" xmlns="http://www.w3.org/2000/svg" xmlns:xlink="http://www.w3.org/1999/xlink">
    <title>weidu</title>
    <desc>Created with Sketch.</desc>
    <g id="页面-1" stroke="none" stroke-width="1" fill="none" fill-rule="evenodd">
        <g id="消息（首页）icon" transform="translate(-1100.000000, -176.000000)">
            <g id="未读" transform="translate(1098.000000, 172.000000)">
                <g stroke-width="1" fill-rule="evenodd" id="关闭声音">
                    <g>
                        <g id="搜索">
                            <g id="播视web_表情"></g>
                        </g>
                    </g>
                </g>
                <path d="M25,5 C26.2371212,5 27.4464412,5.07934134 28.62796,5.23802403 C27.9129038,6.39899268 27.4076774,7.70173449 27.1644404,9.09452983 C26.4593904,9.03133123 25.7373418,9 25,9 C21.5510475,9 18.370357,9.72948466 15.4579285,11.188454 C12.5454999,12.6474233 10.2410714,14.6309506 8.54464283,17.1390358 C6.84821428,19.6471211 6,22.3746411 6,25.3215959 C6,28.0418619 6.72788095,30.5708025 8.18364284,32.9084177 C9.63940473,35.2460329 11.6113333,37.165634 14.0994285,38.6672208 L14.0994285,38.6672208 L14.0139285,45 L20.4182856,41.1317818 C21.9735713,41.471815 23.500357,41.6418316 25,41.6431918 C30.2575712,41.6431918 34.7388569,40.0491159 38.4438569,36.8609642 C42.1488568,33.6728125 44.0009044,29.8263564 44,25.3215959 C43.9996703,23.680876 43.7537763,22.1274839 43.262318,20.6614195 C44.5190203,19.9760305 45.6269444,19.05228 46.5257864,17.951148 C47.5088897,20.2058357 48,22.5974056 48,25.125 C48,28.7781667 46.9741042,32.1471875 44.9223125,35.2320625 C42.8705208,38.3169375 40.0779375,40.7578125 36.5445625,42.5546875 C33.0111875,44.3515625 29.163,45.25 25,45.25 C23.5922083,45.25 22.1547083,45.1302083 20.6875,44.890625 L20.6875,44.890625 L15.1819344,48.2332898 C14.7126004,48.5182426 14.1740651,48.6689273 13.625,48.6689273 C11.9681458,48.6689273 10.625,47.3257815 10.625,45.6689273 L10.625,45.6689273 L10.625,40.802375 C7.95891667,38.945125 5.85489583,36.6465625 4.3129375,33.9066875 C2.77097917,31.1668125 2,28.2395833 2,25.125 C2,21.4718333 3.02589583,18.1028125 5.0776875,15.0179375 C7.12947917,11.9330625 9.9220625,9.4921875 13.4554375,7.6953125 C16.9888125,5.8984375 20.837,5 25,5 Z" id="形状结合" fill="#000000" fill-rule="nonzero"></path>
                <circle id="椭圆形" fill="#000000" fill-rule="evenodd" cx="39" cy="11" r="7"></circle>
            </g>
        </g>
    </g>
</svg>