<?xml version="1.0" encoding="UTF-8"?>
<svg width="22px" height="22px" viewBox="0 0 22 22" version="1.1" xmlns="http://www.w3.org/2000/svg" xmlns:xlink="http://www.w3.org/1999/xlink">
    <title>search</title>
    <desc>Created with Sketch.</desc>
    <g id="组件" stroke="none" stroke-width="1" fill="none" fill-rule="evenodd">
        <g id="对话框-搜索-通知-呼叫-详细信息快捷键" transform="translate(-27.000000, -18.000000)" fill="#000000" fill-rule="nonzero">
            <g id="搜索" transform="translate(26.000000, 17.000000)">
                <rect id="矩形" opacity="0" x="0" y="0" width="24" height="24"></rect>
                <path d="M18.9667126,18.0920376 L18.2282293,18.8310485 L21.6788897,22.2812773 L22.417421,21.542746 L18.9667126,18.0920376 Z M10.6612157,1.64732311 C5.61364594,1.64732311 1.52185219,5.73861321 1.52185219,10.7866866 C1.52185219,15.8337527 5.61364596,19.9260262 10.6611917,19.9260262 C15.7087615,19.9260262 19.8005792,15.8337527 19.8005792,10.7866866 C19.8006032,5.73861321 15.7087854,1.64732311 10.6612157,1.64732311 Z M10.6612157,18.8815103 C6.19050284,18.8815103 2.566344,15.2574475 2.566344,10.7866866 C2.566344,6.31594978 6.19047884,2.69183895 10.6612157,2.69183895 C15.1319765,2.69183895 18.7561114,6.3159498 18.7561114,10.7866866 C18.7560874,15.2574235 15.1319765,18.8815103 10.6612157,18.8815103 Z" id="形状"></path>
            </g>
        </g>
    </g>
</svg>