<?xml version="1.0" encoding="UTF-8"?>
<svg width="12px" height="12px" viewBox="0 0 12 12" version="1.1" xmlns="http://www.w3.org/2000/svg" xmlns:xlink="http://www.w3.org/1999/xlink">
    <title>addFriends</title>
    <desc>Created with Sketch.</desc>
    <g id="IM-好友系统" stroke="none" stroke-width="1" fill="none" fill-rule="evenodd">
        <g id="陌生人消息-聊天界面" transform="translate(-226.000000, -89.000000)" fill="#000000" fill-rule="nonzero">
            <g id="添加好友" transform="translate(223.000000, 87.000000)">
                <rect id="矩形" opacity="0" x="0" y="0" width="17" height="17"></rect>
                <path d="M14.6470588,11.1764706 L12.8823529,11.1764706 L12.8823529,9.4117647 C12.8823529,9.21764706 12.7235294,9.05882353 12.5294118,9.05882353 C12.3352941,9.05882353 12.1764706,9.21764706 12.1764706,9.4117647 L12.1764706,11.1764706 L10.4117647,11.1764706 C10.2176471,11.1764706 10.0588235,11.3352941 10.0588235,11.5294118 C10.0588235,11.7235294 10.2176471,11.8823529 10.4117647,11.8823529 L12.1764706,11.8823529 L12.1764706,13.6470588 C12.1764706,13.8411765 12.3352941,14 12.5294118,14 C12.7235294,14 12.8823529,13.8411765 12.8823529,13.6470588 L12.8823529,11.8823529 L14.6470588,11.8823529 C14.8411765,11.8823529 15,11.7235294 15,11.5294118 C15,11.3352941 14.8411765,11.1764706 14.6470588,11.1764706 Z M10.7258824,8.66705882 C10.8134503,8.49356529 10.7439582,8.28193008 10.5705882,8.19411764 C10.3517647,8.08470588 10.1258823,7.99647058 9.89647059,7.91882352 C10.8388235,7.36470588 11.4705882,6.34470589 11.4705882,5.17647059 C11.4705882,3.42215432 10.0484339,2 8.29411764,2 C6.53980138,2 5.11764706,3.42215432 5.11764706,5.17647059 C5.11764706,6.34470587 5.74941177,7.36117646 6.6882353,7.91176471 C4.55294118,8.63882352 3,10.7635294 3,13.2694118 C3,13.4035294 3.00352941,13.5376471 3.01411766,13.6682353 C3.0282353,13.8552941 3.18000002,13.9964706 3.36705883,13.9964706 L3.39176471,13.9964706 C3.58588235,13.9823529 3.73411764,13.8164706 3.72,13.6223529 C3.70941176,13.5058823 3.70588236,13.3894118 3.70588236,13.2694118 C3.70588236,10.5588235 5.76352941,8.35294117 8.29411764,8.35294117 C8.97882353,8.35294117 9.63882352,8.5117647 10.2529412,8.82235295 C10.4258823,8.91058823 10.637647,8.84000001 10.7258824,8.66705882 Z M5.82352941,5.17647059 C5.82352941,3.81411764 6.93176471,2.70588236 8.29411764,2.70588236 C9.65647057,2.70588236 10.7647059,3.81411766 10.7647059,5.17647059 C10.7647059,6.53882351 9.65647059,7.64705883 8.29411764,7.64705883 C6.9317647,7.64705883 5.82352941,6.53882353 5.82352941,5.17647059 L5.82352941,5.17647059 Z" id="形状"></path>
            </g>
        </g>
    </g>
</svg>