<?xml version="1.0" encoding="UTF-8"?>
<svg width="50px" height="50px" viewBox="0 0 50 50" version="1.1" xmlns="http://www.w3.org/2000/svg" xmlns:xlink="http://www.w3.org/1999/xlink">
    <title>PiCture</title>
    <desc>Created with Sketch.</desc>
    <g id="页面-1" stroke="none" stroke-width="1" fill="none" fill-rule="evenodd">
        <g id="输入框icon" transform="translate(-1403.000000, -176.000000)">
            <g id="相册" transform="translate(1403.000000, 176.000000)">
                <g>
                    <rect id="矩形" fill="#000000" fill-rule="nonzero" opacity="0" x="0" y="0" width="50" height="50"></rect>
                    <circle id="椭圆形" fill="#FFFFFF" cx="25" cy="25" r="25"></circle>
                    <path d="M18.0000069,22.9369574 C16.895423,22.9369574 16.0000192,22.046652 16.0000192,20.9484284 C16.0000192,19.8502048 16.895455,18.9598994 18.0000069,18.9598994 C19.1045909,18.9598994 19.9999947,19.8502048 19.9999947,20.9484284 C19.9999947,22.046652 19.1045909,22.9369574 18.0000069,22.9369574 Z M37.377554,33.8244699 L29.8308362,26.317053 L20.9360936,34.1028278 C20.557168,34.4345294 19.9767444,34.4206577 19.6151348,34.071274 L16.371302,30.9374782 L12.6400424,33.8568572 L12.6400424,36.2043985 C12.6400424,36.7184869 13.0698721,37.1352348 13.6000977,37.1352348 L36.4174987,37.1352348 C36.9477243,37.1352348 37.377554,36.7184869 37.377554,36.2043985 L37.377554,33.8244699 Z M37.377554,15.8579043 C37.377554,15.3081601 36.9477243,14.8625076 36.4174987,14.8625076 L13.6000977,14.8625076 C13.0698721,14.8625076 12.6400424,15.3081601 12.6400424,15.8579043 L12.6400424,30.6971464 L15.1654761,28.5841486 C15.9282703,27.9459424 17.0322266,28.0058826 17.7265551,28.7231922 L20.3253055,31.4079621 L28.5441409,23.7148537 C29.3020535,23.0054385 30.4628701,23.0351062 31.1861507,23.78237 L37.377554,30.4102098 L37.377554,15.8579043 Z M10,33.5480411 C10,33.5420946 10,33.5361479 10,33.5302013 L10,15.2307666 C10,13.4464731 11.3431776,12 13.0000216,12 L37,12 C38.6568464,12 40,13.4464731 40,15.2307666 L40,36.7692334 C40,38.5535269 38.6568464,40 37,40 L13.0000216,40 C11.3431776,40 10,38.5535269 10,36.7692334 L10,33.5480411 Z" id="形状" fill="#000000" fill-rule="nonzero"></path>
                </g>
            </g>
        </g>
    </g>
</svg>