<?xml version="1.0" encoding="UTF-8"?>
<svg width="13px" height="10px" viewBox="0 0 13 10" version="1.1" xmlns="http://www.w3.org/2000/svg" xmlns:xlink="http://www.w3.org/1999/xlink">
    <title>group</title>
    <desc>Created with Sketch.</desc>
    <g id="IM-对话列表" stroke="none" stroke-width="1" fill="none" fill-rule="evenodd">
        <g id="对话列表" transform="translate(-67.000000, -623.000000)" fill="#000000" fill-rule="nonzero">
            <g id="群组" transform="translate(65.000000, 620.000000)">
                <rect id="矩形" opacity="0" x="0" y="0" width="16" height="16"></rect>
                <path d="M9,9.13126081 C7.66157407,9.47861369 6.19837963,10.5716174 6.19837963,11.6368329 L6.19837963,13 L2.41967593,13 C2.18796296,13 2,12.8209203 2,12.6001582 L2,11.6661649 C2,9.89389335 5.70092593,9 7.55462963,9 C7.9662037,8.99849482 8.46851852,9.04326475 9,9.13126081 L9,9.13126081 Z M6.5,8 C5.11897106,8 4,6.88102894 4,5.5 C4,4.11897106 5.11897106,3 6.5,3 C7.88102894,3 9,4.11897106 9,5.5 C9,6.88102894 7.88102894,8 6.5,8 L6.5,8 Z M11.0516267,8.99936155 C12.0841904,8.97311091 12.9500622,8.12382564 12.9979089,7.09233008 C13.0488426,5.9650969 12.162906,5.02161817 11.0408226,5 L10.9605635,5 C9.85700147,5.02161817 8.97878214,5.93575795 9.00039035,7.0398288 C9.02199855,8.14389966 9.93571709,9.02715634 11.0516267,8.99936155 Z M11.5,10 C10.3323328,10 8,10.6700434 8,12 L8,12.6251809 C8,12.8321274 8.17409949,13 8.38872213,13 L14.6112779,13 C14.8259005,13 15,12.8321274 15,12.6251809 L15,12 C15,10.6685962 12.6676672,10 11.5,10 L11.5,10 Z" id="形状"></path>
            </g>
        </g>
    </g>
</svg>