<?xml version="1.0" encoding="UTF-8"?>
<svg width="48px" height="48px" viewBox="0 0 48 48" version="1.1" xmlns="http://www.w3.org/2000/svg" xmlns:xlink="http://www.w3.org/1999/xlink">
    <title>public/editportrait</title>
    <desc>Created with Sketch.</desc>
    <g id="页面-1" stroke="none" stroke-width="1" fill="none" fill-rule="evenodd">
        <g id="all-icon" transform="translate(-470.000000, -999.000000)">
            <g id="编辑头像" transform="translate(469.000000, 998.000000)">
                <g id="版本更新">
                    <g fill-rule="nonzero">
                        <rect id="矩形" opacity="0" x="0" y="0" width="50" height="50"></rect>
                        <path d="M25,1 C11.7658,1 1,11.767 1,25 C1,38.233 11.767,49 25,49 C38.233,49 49,38.233 49,25 C49,11.767 38.233,1 25,1 Z" id="形状结合" fill="#DADADA"></path>
                        <path d="M25,31.1599654 C22.5837545,31.1599654 20.6249912,29.1900106 20.6249912,26.7599597 C20.6249912,24.3299088 22.5837545,22.359954 25,22.359954 C27.4162455,22.359954 29.3750088,24.3299088 29.3750088,26.7599597 C29.3750088,29.1900105 27.4162455,31.1599654 25,31.1599654 Z M13.1875044,15.7599739 L16.6875115,15.7599739 C17.1707606,15.7599739 17.5625132,16.1539649 17.5625132,16.639975 C17.5625132,17.1259852 17.1707606,17.5199762 16.6875115,17.5199762 L13.1875044,17.5199762 C12.7042553,17.5199762 12.3125026,17.1259852 12.3125026,16.639975 C12.3125026,16.1539649 12.7042553,15.7599739 13.1875044,15.7599739 Z M25,32.9199676 C28.3827437,32.9199676 31.1250124,30.1620309 31.1250124,26.7599597 C31.1250124,23.3578884 28.3827437,20.5999518 25,20.5999518 C21.6172563,20.5999518 18.8749876,23.3578885 18.8749876,26.7599597 C18.8749876,30.1620309 21.6172563,32.9199676 25,32.9199676 Z M18.524129,17.675177 L20.6576443,14.7248287 C20.9869561,14.2694389 21.5130425,14 22.0729323,14 L27.9270113,14 C28.4869044,14 29.0129966,14.2694281 29.3422993,14.7248287 L31.4758428,17.675177 C31.8051485,18.130574 32.3312388,18.400007 32.8911308,18.4000057 L37.2499965,18.4000057 C38.2164947,18.4000057 39,19.1879876 39,20.160008 L39,34.2399977 C39,35.2120181 38.2164947,36 37.2499965,36 L12.7500035,36 C11.7835053,36 11,35.2120181 11,34.2399977 L11,20.1599796 C11,19.1879592 11.7835053,18.3999773 12.7500035,18.3999773 L17.1088692,18.3999773 C17.6687473,18.3999808 18.1948261,18.1305588 18.524129,17.675177 Z" id="形状" fill="#000000"></path>
                    </g>
                </g>
            </g>
        </g>
    </g>
</svg>