<?xml version="1.0" encoding="UTF-8"?>
<svg width="44px" height="44px" viewBox="0 0 44 44" version="1.1" xmlns="http://www.w3.org/2000/svg" xmlns:xlink="http://www.w3.org/1999/xlink">
    <title>insert/add</title>
    <desc>Created with Sketch.</desc>
    <g id="页面-1" stroke="none" stroke-width="1" fill="none" fill-rule="evenodd">
        <g id="all-icon" transform="translate(-629.000000, -678.000000)">
            <g id="添加" transform="translate(626.000000, 675.000000)">
                <g>
                    <rect id="矩形备份" x="0" y="0" width="50" height="50"></rect>
                    <g id="编组-3" transform="translate(3.000000, 3.000000)" fill-rule="nonzero">
                        <path d="M21.9988967,2.00000003 C10.9537087,2.00059627 2,10.9546728 2,22 C2,33.045695 10.954305,42 22,42 C33.045695,42 42,33.045695 42.0000012,22.0022066 C41.9878194,10.96071 33.0402538,2.01277712 21.9988967,2.00000003 Z" id="路径" stroke="#1A1919" stroke-width="4"></path>
                        <path d="M32.0799999,23.9199999 L11.92,23.9199999 C10.8596133,23.9199999 10,23.0603867 10,21.9999999 C10,20.9396132 10.8596133,20.08 11.92,20.08 L32.0799999,20.08 C32.7659499,20.08 33.3997938,20.4459498 33.7427688,21.0399999 C34.0857437,21.63405 34.0857437,22.3659499 33.7427688,22.96 C33.3997938,23.5540501 32.7659499,23.9199999 32.0799999,23.9199999 Z M21.9999999,34 C20.9396132,34 20.08,33.1403866 20.08,32.0799999 L20.08,11.92 C20.08,10.8596133 20.9396132,10 21.9999999,10 C23.0603867,10 23.9199999,10.8596133 23.9199999,11.92 L23.9199999,32.0799999 C23.9199999,33.1403866 23.0603867,34 21.9999999,34 L21.9999999,34 Z" id="形状" fill="#000000"></path>
                    </g>
                </g>
            </g>
        </g>
    </g>
</svg>