<?xml version="1.0" encoding="UTF-8"?>
<svg width="50px" height="50px" viewBox="0 0 50 50" version="1.1" xmlns="http://www.w3.org/2000/svg" xmlns:xlink="http://www.w3.org/1999/xlink">
    <title>voicePcall</title>
    <desc>Created with Sketch.</desc>
    <g id="页面-1" stroke="none" stroke-width="1" fill="none" fill-rule="evenodd">
        <g id="输入框icon" transform="translate(-935.000000, -176.000000)">
            <g id="语音电话" transform="translate(935.000000, 176.000000)">
                <g>
                    <rect id="矩形备份-14" x="0" y="0" width="50" height="50"></rect>
                    <circle id="椭圆形" fill="#FFFFFF" cx="25" cy="25" r="25"></circle>
                    <g id="操作-电话" transform="translate(13.000000, 10.000000)" fill-rule="nonzero" stroke="#000000" stroke-width="2.66666667">
                        <path d="M2.19804916,4.05610653 C0.381917991,7.54892705 1.46482976,13.8424541 5.02392598,19.3151487 C9.65270639,26.7323215 16.3809983,30.3022546 20.3475753,27.9414338 L20.4370611,27.8927046 C21.2132623,27.5077227 21.8064125,26.8501176 22.3141726,25.8427581 L22.411808,25.6490565 L22.5757577,25.4864244 C23.0039513,24.2703812 21.9489482,22.1875667 19.697803,20.5496135 C18.1799843,19.4956785 16.4452045,18.9522428 15.3893311,19.0653048 C15.0917153,19.1610008 14.7856815,19.424805 14.5198183,19.8203949 L14.123567,20.4099954 L13.2227761,20.4099954 C12.9226462,20.4099954 12.7519368,20.396172 12.4855024,20.3098721 C12.197665,20.2166397 11.9369499,20.0569814 11.7125543,19.8343891 L11.6103938,19.720711 L11.613683,19.724806 C11.033643,19.0055825 10.7781083,18.6837016 10.4693485,18.2753301 C10.0731799,17.7513502 9.7445684,17.2797365 9.46304219,16.8215286 C8.78097433,15.9639122 8.33852938,15.1821089 7.46235047,13.4438332 L7.31965138,13.1607285 L7.31965138,11.9104993 L8.48466422,10.7548486 L9.03380066,10.7548486 C9.41383064,10.7548486 9.7041401,10.5436658 9.89170607,10.0785191 L9.94386218,9.94917667 L10.0216542,9.83342636 C10.5408849,9.06083915 10.714221,7.55633638 10.3827555,6.0648064 C9.91480637,3.1249446 8.48670719,1.33333333 7.1297209,1.33333333 L6.74890495,1.33333333 C5.74406251,1.33333333 4.83140394,1.59738627 4.0034893,2.09014314 C3.36543397,2.46989987 2.74835343,3.15445243 2.19804916,4.05610653 Z" id="路径"></path>
                    </g>
                </g>
            </g>
        </g>
    </g>
</svg>