<?xml version="1.0" encoding="UTF-8"?>
<svg width="50px" height="50px" viewBox="0 0 50 50" version="1.1" xmlns="http://www.w3.org/2000/svg" xmlns:xlink="http://www.w3.org/1999/xlink">
    <title>Visualtelephone</title>
    <desc>Created with Sketch.</desc>
    <defs>
        <path d="M28.560946,12 C30.8759201,12 32.7525773,14.1826118 32.7525773,16.875 L32.752,21.845 L39.0872995,16.8398631 C39.8879102,16.2071947 41,16.8403461 41,17.9288299 L41,31.3111829 C41,32.3996667 39.8879102,33.0328181 39.0872995,32.4001497 L32.752,27.394 L32.7525773,33.125 C32.7525773,35.8173882 30.8759201,38 28.560946,38 L13.1916313,38 C10.8766573,38 9,35.8173882 9,33.125 L9,16.875 C9,14.1826118 10.8766573,12 13.1916313,12 L28.560946,12 Z M28.6923077,15.0588235 L13.0602696,15.0588235 C12.2754209,15.0588235 11.6391753,15.8006262 11.6391753,16.7156863 L11.6391753,33.2843137 C11.6391753,34.1993738 12.2754209,34.9411765 13.0602696,34.9411765 L28.6923077,34.9411765 C29.4771564,34.9411765 30.1134021,34.1993738 30.1134021,33.2843137 L30.1134021,16.7156863 C30.1134021,15.8006262 29.4771564,15.0588235 28.6923077,15.0588235 Z M38.580756,20.5292745 L33.9621993,24.6200064 L38.580756,28.7107383 L38.580756,20.5292745 Z" id="path-1"></path>
    </defs>
    <g id="页面-1" stroke="none" stroke-width="1" fill="none" fill-rule="evenodd">
        <g id="输入框icon" transform="translate(-781.000000, -176.000000)">
            <g id="视频电话" transform="translate(781.000000, 176.000000)">
                <g>
                    <rect id="矩形备份-14" x="0" y="0" width="50" height="50"></rect>
                    <circle id="椭圆形" fill="#FFFFFF" cx="25" cy="25" r="25"></circle>
                    <mask id="mask-2" fill="white">
                        <use xlink:href="#path-1"></use>
                    </mask>
                    <use id="Combined-Shape" fill="#000000" fill-rule="nonzero" xlink:href="#path-1"></use>
                </g>
            </g>
        </g>
    </g>
</svg>