<?xml version="1.0" encoding="UTF-8"?>
<svg width="14px" height="14px" viewBox="0 0 14 14" version="1.1" xmlns="http://www.w3.org/2000/svg" xmlns:xlink="http://www.w3.org/1999/xlink">
    <title>Shield</title>
    <desc>Created with Sketch.</desc>
    <g id="IM-好友系统" stroke="none" stroke-width="1" fill="none" fill-rule="evenodd">
        <g id="陌生人消息-聊天界面" transform="translate(-46.000000, -89.000000)" fill="#000000" fill-rule="nonzero">
            <g id="屏蔽1" transform="translate(45.000000, 88.000000)">
                <rect id="矩形" opacity="0" x="0" y="0" width="16" height="16"></rect>
                <path d="M7.99996952,1.03233433 C4.15194722,1.03233433 1.03236542,4.15191612 1.03236542,7.9999353 C1.03236542,11.8479545 4.15194409,14.9676143 7.99996952,14.9676143 C11.8483509,14.9676143 14.9675705,11.8479576 14.9675705,7.9999353 C14.9675705,4.15191302 11.8483509,1.03233433 7.99996952,1.03233433 Z M7.99996952,14.3765651 C4.47816355,14.3765651 1.62333975,11.5217288 1.62333975,7.9999353 C1.62333975,4.47812933 4.47816355,1.62328991 7.99996952,1.62328991 C11.5220565,1.62328991 14.3769272,4.47812933 14.3769272,7.9999353 C14.3769272,11.5220379 11.5220565,14.3765651 7.99996952,14.3765651 Z M12.7525473,12.5539445 L3.64332333,3.06875987 L3.24743548,3.43804075 L12.3660905,12.9311107 L12.7525473,12.5539445 Z" id="形状"></path>
            </g>
        </g>
    </g>
</svg>