<?xml version="1.0" encoding="UTF-8"?>
<svg width="36px" height="36px" viewBox="0 0 36 36" version="1.1" xmlns="http://www.w3.org/2000/svg" xmlns:xlink="http://www.w3.org/1999/xlink">
    <title>publick/cancel</title>
    <desc>Created with Sketch.</desc>
    <defs>
        <path d="M7.75315399,7.75315399 C8.75735931,6.74894867 10.3854978,6.74894867 11.3897032,7.75315399 L11.3897032,7.75315399 L25,21.364 L38.6102968,7.75315399 C39.5708411,6.79260977 41.1022429,6.75084698 42.1124269,7.62786561 L42.246846,7.75315399 C43.2510513,8.75735931 43.2510513,10.3854978 42.246846,11.3897032 L42.246846,11.3897032 L28.636,25 L42.246846,38.6102968 C43.2073902,39.5708411 43.249153,41.1022429 42.3721344,42.1124269 L42.246846,42.246846 C41.2426407,43.2510513 39.6145022,43.2510513 38.6102968,42.246846 L38.6102968,42.246846 L25,28.636 L11.3897032,42.246846 C10.4291589,43.2073902 8.89775712,43.249153 7.88757311,42.3721344 L7.75315399,42.246846 C6.74894867,41.2426407 6.74894867,39.6145022 7.75315399,38.6102968 L7.75315399,38.6102968 L21.364,25 L7.75315399,11.3897032 C6.79260977,10.4291589 6.75084698,8.89775712 7.62786561,7.88757311 Z" id="path-1"></path>
    </defs>
    <g id="页面-1" stroke="none" stroke-width="1" fill="none" fill-rule="evenodd">
        <g id="all-icon" transform="translate(-2072.000000, -178.000000)">
            <g id="取消" transform="translate(2065.000000, 171.000000)">
                <g>
                    <rect id="矩形" fill="#000000" fill-rule="nonzero" opacity="0" x="0" y="0" width="50" height="50"></rect>
                    <mask id="mask-2" fill="white">
                        <use xlink:href="#path-1"></use>
                    </mask>
                    <use id="Combined-Shape" fill="#000000" fill-rule="nonzero" xlink:href="#path-1"></use>
                </g>
            </g>
        </g>
    </g>
</svg>