<?xml version="1.0" encoding="UTF-8"?>
<svg width="22px" height="20px" viewBox="0 0 22 20" version="1.1" xmlns="http://www.w3.org/2000/svg" xmlns:xlink="http://www.w3.org/1999/xlink">
    <title>shoucang</title>
    <desc>Created with Sketch.</desc>
    <g id="组件" stroke="none" stroke-width="1" fill="none" fill-rule="evenodd">
        <g id="矩形(表情下滑栏)备份2" transform="translate(-101.000000, -12.000000)" fill-rule="nonzero">
            <g id="收-藏-产品详情" transform="translate(100.000000, 10.000000)">
                <rect id="矩形" fill="#000000" opacity="0" x="0" y="0" width="24" height="24"></rect>
                <path d="M16.584,2.184 C14.772,2.184 13.092,3.096 11.976,4.596 C10.872,3.096 9.18,2.184 7.368,2.184 C4.104,2.184 1.452,5.088 1.452,8.652 C1.452,10.776 2.4,12.276 3.168,13.476 C5.388,16.968 10.98,21.3 11.22,21.48 C11.448,21.66 11.712,21.744 11.976,21.744 C12.24,21.744 12.504,21.66 12.732,21.48 C12.972,21.3 18.552,16.956 20.784,13.476 C21.552,12.276 22.5,10.776 22.5,8.652 C22.5,5.088 19.848,2.184 16.584,2.184 Z M19.26,13.44 C17.208,16.32 12.864,19.608 12.648,19.764 C12.444,19.92 12.204,20.004 11.976,20.004 C11.736,20.004 11.508,19.932 11.304,19.764 C11.088,19.608 6.828,16.284 4.692,13.32 C4.008,12.24 2.916,10.896 2.916,9 C2.916,5.808 4.692,3.564 7.608,3.564 C9.228,3.564 10.992,5.112 11.976,6.456 C12.972,5.112 14.724,3.564 16.344,3.564 C19.272,3.564 21.168,5.808 21.168,9 C21.168,10.896 19.956,12.372 19.26,13.44 Z" id="形状" fill="#979797"></path>
            </g>
        </g>
    </g>
</svg>