<?xml version="1.0" encoding="UTF-8"?>
<svg width="44px" height="44px" viewBox="0 0 44 44" version="1.1" xmlns="http://www.w3.org/2000/svg" xmlns:xlink="http://www.w3.org/1999/xlink">
    <title>DocumentMark</title>
    <desc>Created with Sketch.</desc>
    <g id="页面-1" stroke="none" stroke-width="1" fill="none" fill-rule="evenodd">
        <g id="all-icon" transform="translate(-770.000000, -2171.000000)">
            <g id="文件标示" transform="translate(767.000000, 2168.000000)">
                <g>
                    <rect id="矩形备份-9" x="0" y="0" width="50" height="50"></rect>
                    <path d="M25,5 C13.9736146,5 5,13.9739244 5,25 C5,36.0256805 13.9743195,45 25,45 C36.0256805,45 45,36.0256805 45,25 C45,13.9743195 36.0256805,5 25,5 Z" id="路径" stroke="#1A1919" stroke-width="4" fill-rule="nonzero"></path>
                    <path d="M27.25,15 L34,21.7499897 L28.000008,21.7499897 C27.5857887,21.7499897 27.25,21.4142015 27.25,20.9999829 L27.25,15 Z M19.749992,30.75 C19.3357727,30.75 18.999984,31.0857882 18.999984,31.5000069 C18.999984,31.9142255 19.3357727,32.2500137 19.749992,32.2500137 L28.749992,32.2500137 C29.1642113,32.2500137 29.5,31.9142255 29.5,31.5000069 C29.5,31.0857882 29.1642113,30.75 28.749992,30.75 L19.749992,30.75 Z M19.749992,26.9999897 C19.3357727,26.9999897 18.999984,27.3357779 18.999984,27.7499966 C18.999984,28.1642153 19.3357727,28.5000034 19.749992,28.5000034 L24.249992,28.5000034 C24.6642113,28.5000034 25,28.1642153 25,27.7499966 C25,27.3357779 24.6642113,26.9999897 24.249992,26.9999897 L19.749992,26.9999897 Z M34,23.2500034 L34,33.7500034 C34,34.9926355 32.992634,36 31.75,36 L18.25,36 C17.007366,36 16,34.9926355 16,33.7500034 L16,17.2499966 C16,16.0073645 17.007366,15 18.25,15 L25.750008,15 L25.750008,21.416672 C25.750008,22.4291932 26.5708194,23.2500034 27.5833422,23.2500034 L34,23.2500034 L34,23.2500034 Z" id="形状" fill="#000000" fill-rule="nonzero"></path>
                </g>
            </g>
        </g>
    </g>
</svg>