<?xml version="1.0" encoding="UTF-8"?>
<svg width="39px" height="39px" viewBox="0 0 39 39" version="1.1" xmlns="http://www.w3.org/2000/svg" xmlns:xlink="http://www.w3.org/1999/xlink">
    <title>zhidingxiaoxi</title>
    <desc>Created with Sketch.</desc>
    <g id="页面-1" stroke="none" stroke-width="1" fill="none" fill-rule="evenodd">
        <g id="好友（通讯录）icon" transform="translate(-940.000000, -181.000000)" fill="#000000" fill-rule="nonzero">
            <g id="置顶消息" transform="translate(935.000000, 176.000000)">
                <rect id="矩形" opacity="0" x="0" y="0" width="50" height="50"></rect>
                <path d="M31.658246,5.31427698 C32.1015615,5.50534598 32.5045283,5.77807467 32.8458952,6.11808013 L42.8796147,16.1053026 C43.771884,16.9937021 44.1666178,18.2622273 43.9348585,19.4964579 C43.7030992,20.7306886 42.8746125,21.7721086 41.7200605,22.2804917 L38.1647754,23.8461936 L31.4947847,30.486141 L30.9660893,37.79021 C30.8581849,39.2774918 29.8875229,40.5654353 28.4822415,41.0859564 C27.0769601,41.6064776 25.4954558,41.2638653 24.4352961,40.2092385 L17.9581388,33.7623055 L8.27219255,43.4381333 C7.52457011,44.1849748 6.31409192,44.1876558 5.56316853,43.4441335 C4.81753883,42.7058526 4.8115814,41.5029055 5.54986224,40.7572758 C5.55230241,40.7548113 5.55474933,40.7523535 5.55720296,40.7499025 L15.2495326,31.0677236 L15.2495326,31.0677236 L8.54889285,24.39984 C7.49056014,23.3464937 7.14640447,21.7765782 7.6678453,20.3808151 C8.18928613,18.985052 9.48073792,18.0192993 10.9739957,17.9084629 L18.5289766,17.3471975 L25.0802024,10.8253444 L26.6190381,7.29521366 C27.0229969,6.36797179 27.7809026,5.63831208 28.7259737,5.2668001 C29.6710449,4.89528813 30.7258401,4.91236648 31.658246,5.31427698 Z M30.1347349,8.81012231 L28.3060106,13.0043748 L20.2351048,21.0424063 L11.2574991,21.706528 L27.1451794,37.5159265 L27.7760382,28.7972654 L35.9593237,20.6500285 L40.1697314,18.7960749 L30.1347349,8.81012231 Z" id="形状"></path>
            </g>
        </g>
    </g>
</svg>