<?xml version="1.0" encoding="UTF-8"?>
<svg width="44px" height="44px" viewBox="0 0 44 44" version="1.1" xmlns="http://www.w3.org/2000/svg" xmlns:xlink="http://www.w3.org/1999/xlink">
    <title>suspend</title>
    <desc>Created with Sketch.</desc>
    <g id="页面-1" stroke="none" stroke-width="1" fill="none" fill-rule="evenodd">
        <g id="消息类型标示icon" transform="translate(-1862.000000, -175.000000)">
            <g id="暂停" transform="translate(1859.000000, 172.000000)">
                <g>
                    <rect id="矩形备份-9" x="0" y="0" width="50" height="50"></rect>
                    <path d="M25,5 C13.9736146,5 5,13.9739244 5,25 C5,36.0256805 13.9743195,45 25,45 C36.0256805,45 45,36.0256805 45,25 C45,13.9743195 36.0256805,5 25,5 Z" id="路径" stroke="#1A1919" stroke-width="4" fill-rule="nonzero"></path>
                    <g id="编组" transform="translate(18.000000, 15.000000)" fill="#000000" fill-rule="nonzero">
                        <path d="M4.79018969,16.7656639 L4.79018969,2.39509485 C4.79018969,1.07232049 3.7178692,7.35411732e-13 2.39509485,7.35411732e-13 C1.07232049,7.35411732e-13 -8.8817842e-16,1.07232049 -8.8817842e-16,2.39509485 L-8.8817842e-16,16.7656639 C-8.8817842e-16,18.0884383 1.07232049,19.1607588 2.39509485,19.1607588 C3.7178692,19.1607588 4.79018969,18.0884383 4.79018969,16.7656639 Z" id="Shape"></path>
                        <path d="M14.3705691,16.7656639 L14.3705691,2.39509485 C14.3705691,1.07232049 13.2982486,7.35411732e-13 11.9754742,7.35411732e-13 C10.6526999,7.35411732e-13 9.58037938,1.07232049 9.58037938,2.39509485 L9.58037938,16.7656639 C9.58037938,18.0884383 10.6526999,19.1607588 11.9754742,19.1607588 C13.2982486,19.1607588 14.3705691,18.0884383 14.3705691,16.7656639 Z" id="Shape"></path>
                    </g>
                </g>
            </g>
        </g>
    </g>
</svg>