<?xml version="1.0" encoding="UTF-8"?>
<svg width="38px" height="50px" viewBox="0 0 38 50" version="1.1" xmlns="http://www.w3.org/2000/svg" xmlns:xlink="http://www.w3.org/1999/xlink">
    <title>deleteallmessage</title>
    <desc>Created with Sketch.</desc>
    <defs>
        <path d="M42.8597334,29.0186894 C43.5555909,35.6446919 41.6623561,40.8638121 37.180029,44.6760499 C30.4565383,50.3944065 18.9075283,49.3421794 17.8645729,47.7012009 C16.8216176,46.0602223 19.5601178,44.2881935 20.3521078,43.5069442 C21.1440978,42.7256948 21.4066356,42.3095495 20.8747579,42.3095495 C20.3428801,42.3095495 19.3761271,43.8834826 15.249724,45.9282144 C11.1233209,47.9729462 8.11875181,45.6787563 9.23474678,43.5069442 C9.97874343,42.0590694 11.8037173,37.2296512 14.7096684,29.0186894 L14.7096684,29.0186894 Z M28.9203688,3 C31.6114742,3 33.7930462,5.18157196 33.7930462,7.87267734 L33.794041,18.033192 C39.1053647,19.4286513 42.8887106,23.1577225 42.8887106,28.4596237 C42.8887106,28.6290379 42.8848477,28.7984635 42.8771955,28.9677955 L14.9530271,28.9673249 L14.9520271,28.8583969 C14.9520271,23.6651785 18.5818544,19.7495144 23.7220144,18.1790205 L23.7228463,7.87267734 C23.7228463,5.18157196 25.9044183,3 28.5955237,3 L28.9203688,3 Z" id="path-1"></path>
    </defs>
    <g id="页面-1" stroke="none" stroke-width="1" fill="none" fill-rule="evenodd">
        <g id="消息（首页）icon" transform="translate(-1430.000000, -173.000000)">
            <g id="删除双方对话" transform="translate(1423.000000, 172.000000)">
                <g>
                    <g id="已读">
                        <g id="开启声音">
                            <g id="播视web_表情"></g>
                        </g>
                    </g>
                    <mask id="mask-2" fill="white">
                        <use xlink:href="#path-1"></use>
                    </mask>
                    <use id="清理" stroke="#000000" stroke-width="3.76541228" xlink:href="#path-1"></use>
                </g>
            </g>
        </g>
    </g>
</svg>