<?xml version="1.0" encoding="UTF-8"?>
<svg width="10px" height="14px" viewBox="0 0 10 14" version="1.1" xmlns="http://www.w3.org/2000/svg" xmlns:xlink="http://www.w3.org/1999/xlink">
    <title>shanchu</title>
    <desc>Created with Sketch.</desc>
    <g id="好友系统" stroke="none" stroke-width="1" fill="none" fill-rule="evenodd">
        <g id="查看好友信息-删除好友" transform="translate(-36.000000, -667.000000)" fill="#000000" fill-rule="nonzero">
            <g id="删-除" transform="translate(33.000000, 666.000000)">
                <rect id="矩形" opacity="0" x="0" y="0" width="16" height="16"></rect>
                <path d="M11.6653125,2.85334375 L4.35473437,2.85334375 C3.6816875,2.85334375 3.13629687,3.39867187 3.13629687,4.07171875 L3.13629687,4.47785937 L12.8837031,4.47785937 L12.8837031,4.07171875 C12.8837031,3.39867187 12.3383594,2.85334375 11.6652812,2.85334375 M9.53703125,2.04109375 L9.7163125,3.32292187 L6.30376562,3.32292187 L6.48301562,2.04109375 L9.53703125,2.04109375 M9.63460937,1.22884375 L6.38546875,1.22884375 C6.0503125,1.22884375 5.73859375,1.500125 5.69178125,1.83246875 L5.45420312,3.53195312 C5.40779687,3.86389062 5.64420312,4.1351875 5.97934375,4.1351875 L10.04075,4.1351875 C10.375875,4.1351875 10.6122969,3.86390625 10.5654844,3.53154687 L10.3279062,1.83207812 C10.2814531,1.500125 9.96973437,1.22884375 9.63460937,1.22884375 M11.8683594,5.29009375 L4.15167187,5.29009375 C3.70507812,5.29009375 3.37229687,5.6541875 3.41276562,6.09915625 L4.0783125,13.41575 C4.11835937,13.86075 4.517375,14.2248281 4.96396875,14.2248281 L11.0560937,14.2248281 C11.5026875,14.2248281 11.9016875,13.8607344 11.9417656,13.4157656 L12.6072969,6.09917187 C12.6477344,5.65417187 12.3149531,5.29009375 11.8683594,5.29009375 M6.38546875,12.6003125 L5.16703125,12.6003125 L4.76089062,6.91457813 L6.38546875,6.91457813 L6.38546875,12.6003125 L6.38546875,12.6003125 Z M8.8223125,12.6003125 L7.19775,12.6003125 L7.19775,6.91459375 L8.8223125,6.91459375 L8.8223125,12.6003125 Z M10.8530156,12.6003125 L9.63457812,12.6003125 L9.63457812,6.91459375 L11.2591562,6.91459375 L10.8530156,12.6003125 L10.8530156,12.6003125 Z" id="形状"></path>
            </g>
        </g>
    </g>
</svg>