<?xml version="1.0" encoding="UTF-8"?>
<svg width="44px" height="44px" viewBox="0 0 44 44" version="1.1" xmlns="http://www.w3.org/2000/svg" xmlns:xlink="http://www.w3.org/1999/xlink">
    <title>caidanweixuanzhong</title>
    <desc>Created with Sketch.</desc>
    <g id="页面-1" stroke="none" stroke-width="1" fill="none" fill-rule="evenodd">
        <g id="all-icon" transform="translate(-472.000000, -1178.000000)">
            <g id="发现" transform="translate(469.000000, 1175.000000)">
                <g id="发现备份">
                    <g id="发现">
                        <g id="播视web_表情" transform="translate(1.000000, 1.000000)">
                            <rect id="矩形" fill="#000000" fill-rule="nonzero" opacity="0" x="0" y="0" width="48" height="48"></rect>
                            <path d="M23.9943284,4 C18.6494276,4 13.6337036,6.07914492 9.84540355,9.86549272 C2.05153215,17.6553477 2.05153215,30.3559896 9.84540355,38.1458446 C13.6509492,41.9494291 18.7136194,44 23.9943284,44 C29.2820589,44 34.3633038,41.9452057 38.1545964,38.1458446 C45.9484679,30.3559896 45.9484679,17.6553477 38.1545964,9.86549272 C34.3653412,6.07819022 29.3492234,4 23.9943284,4 Z M33.4136426,13.0700058 C34.9314017,12.6323755 36.5540525,13.2093925 37.4907199,14.5259277 C38.3707208,15.820817 38.3496462,17.5340038 37.4298389,18.8011847 L29.8057788,29.2561834 C29.3250783,29.9136451 28.6417554,30.4014813 27.8914801,30.6118483 L15.4839281,34.4060962 C15.1108017,34.5304075 14.7395053,34.5879928 14.3526682,34.5879928 C13.1832121,34.5879928 12.0794484,34.0363953 11.3615936,33.0712703 C10.4440146,31.807151 10.4085836,30.086092 11.2918784,28.8110201 L18.4851709,18.2249112 C18.9809308,17.4816545 19.7182068,16.9487208 20.5433209,16.7307738 L33.4136426,13.0700058 Z" id="形状结合" stroke="#1A1919" stroke-width="4" fill="#1A1919"></path>
                        </g>
                    </g>
                </g>
            </g>
        </g>
    </g>
</svg>