<?xml version="1.0" encoding="UTF-8"?>
<svg width="40px" height="49px" viewBox="0 0 40 49" version="1.1" xmlns="http://www.w3.org/2000/svg" xmlns:xlink="http://www.w3.org/1999/xlink">
    <title>center/dataStorage</title>
    <desc>Created with Sketch.</desc>
    <g id="页面-1" stroke="none" stroke-width="1" fill="none" fill-rule="evenodd">
        <g id="all-icon" transform="translate(-1106.000000, -172.000000)">
            <g id="数据存储" transform="translate(1101.000000, 171.000000)">
                <g>
                    <rect id="矩形备份-13" x="0" y="0" width="50" height="50"></rect>
                    <g id="数据1" transform="translate(5.000000, 1.000000)" fill="#000000" fill-rule="nonzero">
                        <path d="M28.0031226,15.0709973 L28.0031226,18.2917192 L32,18.2917192 L32,8.79237427 C32,3.08150266 23.7562089,0 15.9998318,0 C8.2434546,0 0,3.08150266 0,8.79237427 L0,34.708179 C0,40.4187739 8.24355069,43.5 15.9999279,43.5 L15.9999279,40.2149486 C7.85489797,40.2149486 3.79703357,37.007466 3.79703357,34.708179 L3.79703361,26.9134091 C6.87761192,29.2927545 11.0642263,30.5424849 15.9999279,30.5424849 L15.9999279,27.2571569 C7.85489802,27.2571569 3.79703357,24.0496742 3.79703357,21.7501106 L3.79703357,15.0712739 C6.87703515,17.4502874 11.0636496,18.2917192 15.9998318,18.2917192 C20.9357737,18.2917192 24.9228326,17.4503427 28.0031226,15.0709973 Z M28,9.00030394 C28,11.2967759 24.3409064,14.5 16.1164937,14.5 C7.89232372,14.5 3.5,11.2967759 3.5,9.00030394 C3.5,6.70361098 7.89232372,3.5 16.1164937,3.5 C24.3409549,3.5 28,6.70361098 28,9.00030394 Z M18.5,25.7098317 L18.5,42.2905539 C18.5,45.37619 22.1927393,48.5 29.2501436,48.5 C36.2547439,48.5 39.9426481,45.4225164 39.9973191,42.3592999 L40,42.3592999 L40,25.7095012 C40,22.62381 36.3077394,19.5 29.2501436,19.5 C22.1927393,19.5 18.5,22.6241405 18.5,25.7098317 Z M36,25.4998875 C36,26.3974191 33.9860937,28.5 28.8296248,28.5 C23.6728247,28.5 22,26.3974191 22,25.4998875 C22,24.6025809 23.6733451,22.5 28.8296248,22.5 C33.9860937,22.5 36,24.6025809 36,25.4998875 Z M22.5,42.0172834 L22.5,38 C24.3257918,39.1439776 25.6586958,39.9056602 29.1571569,39.9056602 C32.655618,39.9056602 34.6742082,39.1439776 36.5,38 L36.5,42.0172834 C36.5,42.909398 34.4376535,45 29.1571569,45 C23.876321,45 22.5,42.9093421 22.5,42.0172834 Z M22.5,34.0278734 L22.5,30.5 C24.3257918,31.6399717 25.7601596,32.2133808 29.2586207,32.2133808 C32.7570818,32.2133808 34.6742082,31.6404731 36.5,30.5005571 L36.5,34.0284305 C36.5,34.9168206 34.4376535,37 29.1571569,37 C23.876321,37 22.5,34.9168763 22.5,34.0278734 Z" id="形状"></path>
                    </g>
                </g>
            </g>
        </g>
    </g>
</svg>