<?xml version="1.0" encoding="UTF-8"?>
<svg width="44px" height="44px" viewBox="0 0 44 44" version="1.1" xmlns="http://www.w3.org/2000/svg" xmlns:xlink="http://www.w3.org/1999/xlink">
    <title>faxianwiexianzhog</title>
    <desc>Created with Sketch.</desc>
    <g id="页面-1" stroke="none" stroke-width="1" fill="none" fill-rule="evenodd">
        <g id="all-icon" transform="translate(-1103.000000, -1178.000000)">
            <g id="发现未选中" transform="translate(1100.000000, 1175.000000)">
                <g id="发现备份">
                    <g id="发现">
                        <g>
                            <g id="播视web_表情" transform="translate(1.000000, 1.000000)">
                                <rect id="矩形" fill="#000000" fill-rule="nonzero" opacity="0" x="0" y="0" width="48" height="48"></rect>
                                <path d="M23.9943284,2 C29.8814127,2 35.4055169,4.29013141 39.5684455,8.45091471 C48.1438515,17.0219016 48.1438515,30.9894357 39.5684455,39.5604226 C35.2807425,43.8572533 29.6318639,46 23.9943284,46 C18.356793,46 12.7306007,43.8572533 8.43155452,39.5604226 C-0.143851508,30.9894357 -0.143851508,17.0219016 8.43155452,8.45091471 C12.5944831,4.29013141 18.1185873,2 23.9943284,2 Z M33.9649394,14.9925277 L21.0904872,18.6544705 C20.7048208,18.7565061 20.3758701,18.994589 20.1490075,19.3347075 L12.9461201,29.9350683 C12.5377675,30.5246071 12.5604537,31.318217 12.9801495,31.8964184 C13.3091003,32.3385725 13.8195411,32.5879928 14.3526682,32.5879928 C14.5228152,32.5879928 14.681619,32.5653182 14.8517659,32.5086318 L27.3065223,28.6993043 C27.6695024,28.5972687 27.975767,28.3705231 28.1912864,28.0757537 L35.8138696,17.6227776 C36.2335654,17.0445761 36.2449085,16.2509662 35.8365558,15.6500902 C35.41686,15.0605514 34.6682135,14.7884566 33.9649394,14.9925277 Z" id="形状结合" fill="#DADADA"></path>
                            </g>
                        </g>
                    </g>
                </g>
            </g>
        </g>
    </g>
</svg>