<?xml version="1.0" encoding="UTF-8"?>
<svg width="22px" height="22px" viewBox="0 0 22 22" version="1.1" xmlns="http://www.w3.org/2000/svg" xmlns:xlink="http://www.w3.org/1999/xlink">
    <title>sahnchuduihua</title>
    <desc>Created with Sketch.</desc>
    <g id="icon" stroke="none" stroke-width="1" fill="none" fill-rule="evenodd">
        <g id="消息（首页）icon" transform="translate(-1592.000000, -187.000000)">
            <g id="删除对话" transform="translate(1578.000000, 172.000000)">
                <g stroke-width="1" id="未读">
                    <g>
                        <g id="关闭声音">
                            <g id="搜索">
                                <g id="播视web_表情"></g>
                            </g>
                        </g>
                    </g>
                </g>
                <path d="M16.8208781,15.4839862 L25,23.663 L33.1791219,15.4839862 C33.8244368,14.8386713 34.8706989,14.8386713 35.5160138,15.4839862 C36.1613287,16.1293011 36.1613287,17.1755632 35.5160138,17.8208781 L27.337,26 L35.5160138,34.1791219 C36.1613287,34.8244368 36.1613287,35.8706989 35.5160138,36.5160138 C34.8706989,37.1613287 33.8244368,37.1613287 33.1791219,36.5160138 L25,28.337 L16.8208781,36.5160138 C16.1755632,37.1613287 15.1293011,37.1613287 14.4839862,36.5160138 C13.8386713,35.8706989 13.8386713,34.8244368 14.4839862,34.1791219 L22.663,26 L14.4839862,17.8208781 C13.8386713,17.1755632 13.8386713,16.1293011 14.4839862,15.4839862 C15.1293011,14.8386713 16.1755632,14.8386713 16.8208781,15.4839862 Z" id="形状结合" fill="#333333"></path>
            </g>
        </g>
    </g>
</svg>