<?xml version="1.0" encoding="UTF-8"?>
<svg width="20px" height="10px" viewBox="0 0 20 10" version="1.1" xmlns="http://www.w3.org/2000/svg" xmlns:xlink="http://www.w3.org/1999/xlink">
    <title>icon/Invisible</title>
    <desc>Created with Sketch.</desc>
    <g id="IM-启登注找" stroke="none" stroke-width="1" fill="none" fill-rule="evenodd">
        <g id="注册" transform="translate(-282.000000, -352.000000)">
            <g id="图标/不可见" transform="translate(282.000000, 347.000000)">
                <g id="不可见">
                    <rect id="矩形" fill="#000000" fill-rule="nonzero" opacity="0" x="0" y="0" width="20" height="20"></rect>
                    <path d="M10.0014545,10.075 C4.73645449,10.075 0.526454492,7.425 0.346454492,7.31 C-0.00354550781,7.085 -0.103545508,6.625 0.116454492,6.275 C0.341454492,5.925 0.801454492,5.825 1.15145449,6.045 C1.19145449,6.07 5.18145449,8.575 9.99645449,8.575 C14.8314545,8.575 18.8014545,6.07 18.8414545,6.045 C19.1914545,5.82 19.6564545,5.925 19.8764545,6.275 C20.1014545,6.625 19.9964545,7.09 19.6464545,7.31 C19.4764545,7.42 15.2664545,10.075 10.0014545,10.075 Z" id="路径" fill="#999999" fill-rule="nonzero"></path>
                    <path d="M2.91645449,12.74 C2.68645449,12.74 2.46145449,12.635 2.31645449,12.44 C2.06645449,12.11 2.13645449,11.64 2.46645449,11.39 C3.80145449,10.39 3.83145449,8.67 3.83145449,8.655 C3.83645449,8.245 4.17145449,7.91 4.58145449,7.91 L4.58645449,7.91 C5.00145449,7.91 5.33145449,8.245 5.33145449,8.66 C5.33145449,8.76 5.31145449,11.135 3.36645449,12.595 C3.23145449,12.69 3.07645449,12.74 2.91645449,12.74 L2.91645449,12.74 Z" id="路径" fill="#999999" fill-rule="nonzero"></path>
                    <path d="M17.9164545,12.74 C17.7614545,12.74 17.6014545,12.69 17.4664545,12.59 C15.5214545,11.13 15.5014545,8.755 15.5014545,8.655 C15.5014545,8.24 15.8364545,7.905 16.2514545,7.905 C16.6664545,7.905 17.0014545,8.24 17.0014545,8.65 C17.0014545,8.675 17.0364545,10.39 18.3664545,11.385 C18.6964545,11.635 18.7664545,12.105 18.5164545,12.435 C18.3714545,12.635 18.1464545,12.74 17.9164545,12.74 L17.9164545,12.74 Z" id="路径" fill="#999999" fill-rule="nonzero"></path>
                    <path d="M10.0014545,14.075 C9.58645449,14.075 9.25145449,13.74 9.25145449,13.325 L9.25145449,9.69 C9.25145449,9.275 9.58645449,8.94 10.0014545,8.94 C10.4164545,8.94 10.7514545,9.275 10.7514545,9.69 L10.7514545,13.325 C10.7514545,13.735 10.4164545,14.075 10.0014545,14.075 Z" id="路径" fill="#999999" fill-rule="nonzero"></path>
                </g>
            </g>
        </g>
    </g>
</svg>