<?xml version="1.0" encoding="UTF-8"?>
<svg width="46px" height="46px" viewBox="0 0 46 46" version="1.1" xmlns="http://www.w3.org/2000/svg" xmlns:xlink="http://www.w3.org/1999/xlink">
    <title>public/editerr</title>
    <desc>Created with Sketch.</desc>
    <defs>
        <path d="M19.4381818,6.18181818 C20.592959,6.18181818 21.5290909,7.11795007 21.5290909,8.27272727 C21.5290909,9.42750448 20.592959,10.3636364 19.4381818,10.3636364 L19.4381818,10.3636364 L8.27272727,10.3636364 C7.11795007,10.3636364 6.18181818,11.2997683 6.18181818,12.4545455 L6.18181818,12.4545455 L6.18181818,41.7272727 C6.18181818,42.8820499 7.11795007,43.8181818 8.27272727,43.8181818 L8.27272727,43.8181818 L37.5454545,43.8181818 C38.7002317,43.8181818 39.6363636,42.8820499 39.6363636,41.7272727 L39.6363636,41.7272727 L39.6363636,30.5618182 C39.6363636,29.407041 40.5724955,28.4709091 41.7272727,28.4709091 C42.8820499,28.4709091 43.8181818,29.407041 43.8181818,30.5618182 L43.8181818,30.5618182 L43.8181818,41.7272727 C43.8181818,45.1916043 41.0097862,48 37.5454545,48 L37.5454545,48 L8.27272727,48 C4.80839566,48 2,45.1916043 2,41.7272727 L2,41.7272727 L2,12.4545455 C2,8.99021384 4.80839566,6.18181818 8.27272727,6.18181818 L8.27272727,6.18181818 Z M39.0239505,2.61241309 L47.3875869,10.9760495 C48.2041377,11.7926002 48.2041377,13.1164907 47.3875869,13.9330415 L26.478496,34.8421324 C26.0863745,35.2342539 25.5545436,35.4545455 25,35.4545455 L16.6363636,35.4545455 C15.4815864,35.4545455 14.5454545,34.5184136 14.5454545,33.3636364 L14.5454545,25 C14.5454545,24.4454564 14.7657461,23.9136255 15.1578676,23.521504 L36.0669585,2.61241309 C36.8835093,1.7958623 38.2073998,1.7958623 39.0239505,2.61241309 Z M37.5454545,7.04790108 L18.7272727,25.8660829 L18.7272727,31.2727273 L24.1339171,31.2727273 L42.9520989,12.4545455 L37.5454545,7.04790108 Z" id="path-1"></path>
    </defs>
    <g id="页面-1" stroke="none" stroke-width="1" fill="none" fill-rule="evenodd">
        <g id="all-icon" transform="translate(-2233.000000, -173.000000)">
            <g id="编辑" transform="translate(2231.000000, 171.000000)">
                <g id="版本更新">
                    <g>
                        <rect id="矩形" opacity="0" fill-rule="nonzero" x="0" y="0" width="50" height="50"></rect>
                        <mask id="mask-2" fill="white">
                            <use xlink:href="#path-1"></use>
                        </mask>
                        <use id="Combined-Shape" fill="#000000" fill-rule="nonzero" xlink:href="#path-1"></use>
                    </g>
                </g>
            </g>
        </g>
    </g>
</svg>