<?xml version="1.0" encoding="UTF-8"?>
<svg width="44px" height="44px" viewBox="0 0 44 44" version="1.1" xmlns="http://www.w3.org/2000/svg" xmlns:xlink="http://www.w3.org/1999/xlink">
    <title>insert/biaoqingb</title>
    <desc>Created with Sketch.</desc>
    <g id="页面-1" stroke="none" stroke-width="1" fill="none" fill-rule="evenodd">
        <g id="all-icon" transform="translate(-788.000000, -678.000000)">
            <g id="表情" transform="translate(785.000000, 675.000000)">
                <g>
                    <path d="M25,5 C13.9736146,5 5,13.9739244 5,25 C5,36.0256805 13.9743195,45 25,45 C36.0256805,45 45,36.0256805 45,25 C45,13.9743195 36.0256805,5 25,5 Z" id="路径" stroke="#1A1919" stroke-width="4" fill-rule="nonzero"></path>
                    <g id="播视web_表情" transform="translate(1.000000, 1.000000)" fill-rule="nonzero">
                        <rect id="矩形" opacity="0" x="0" y="0" width="48" height="48"></rect>
                        <path d="M33.0066,28.7676 C32.1082492,28.204296 30.923346,28.4758755 30.36,29.3742 C27.588,33.7944 24.504,33.7818 22.1274,33.2742 C19.398,32.6946 17.7474,29.5632 17.7228,29.5182 C17.2200713,28.617165 16.0951001,28.2745667 15.1754843,28.7424415 C14.2558684,29.2103162 13.8704648,30.3213508 14.3028,31.2582 C14.4012,31.4532 16.7808,36.063 21.3306,37.0302 C22.2222992,37.2243428 23.1318264,37.3248875 24.0444,37.3302 C27.9336,37.3302 31.1442,35.3502 33.6144,31.413 C34.1766658,30.514586 33.9046143,29.330504 33.0066,28.7676 L33.0066,28.7676 Z M16.32,21.5202 C17.9106,21.5202 19.2,19.2708 19.2,17.6802 C19.2,16.0896 17.9106,13.8402 16.32,13.8402 C14.7294,13.8402 13.44,16.0896 13.44,17.6802 C13.44,19.2708 14.7294,21.5202 16.32,21.5202 Z M31.68,13.8408 C30.0894,13.8408 28.8,16.0902 28.8,17.6808 C28.8,19.2714 30.0894,21.5208 31.68,21.5208 C33.2706,21.5208 34.56,19.2714 34.56,17.6808 C34.56,16.0902 33.2706,13.8408 31.68,13.8408 Z" id="形状" fill="#000000"></path>
                    </g>
                </g>
            </g>
        </g>
    </g>
</svg>