<?xml version="1.0" encoding="UTF-8"?>
<svg width="44px" height="44px" viewBox="0 0 44 44" version="1.1" xmlns="http://www.w3.org/2000/svg" xmlns:xlink="http://www.w3.org/1999/xlink">
    <title>insert/biaoqignguanli</title>
    <desc>Created with Sketch.</desc>
    <g id="页面-1" stroke="none" stroke-width="1" fill="none" fill-rule="evenodd">
        <g id="all-icon" transform="translate(-1902.000000, -837.000000)">
            <g id="管理" transform="translate(1899.000000, 834.000000)">
                <g>
                    <rect id="矩形备份-9" x="0" y="0" width="50" height="50"></rect>
                    <path d="M30.0769231,25 C30.0769231,22.1960928 27.8039072,19.9230769 25,19.9230769 C22.1960928,19.9230769 19.9230769,22.1960928 19.9230769,25 C19.9230769,27.8039072 22.1960928,30.0769231 25,30.0769231 C27.8039072,30.0769231 30.0769231,27.8039072 30.0769231,25 Z M33.4615385,25 C33.4615385,29.6731787 29.6731787,33.4615385 25,33.4615385 C20.3268213,33.4615385 16.5384615,29.6731787 16.5384615,25 C16.5384615,20.3268213 20.3268213,16.5384615 25,16.5384615 C29.6731787,16.5384615 33.4615385,20.3268213 33.4615385,25 Z M43.6153846,19.9230769 C45.4846561,19.9230769 47,21.4384208 47,23.3076923 L47,26.6923077 C47,28.5615792 45.4846561,30.0769231 43.6153846,30.0769231 L42.9046154,30.0769231 C42.5041367,31.4717565 41.9358809,32.8128402 41.2123077,34.0707692 L41.72,34.5615385 C42.3607505,35.1970562 42.7211636,36.0621499 42.7211636,36.9646154 C42.7211636,37.8670809 42.3607505,38.7321746 41.72,39.3676923 L39.3676923,41.7538462 C38.7321746,42.3945967 37.8670809,42.7550097 36.9646154,42.7550097 C36.0621499,42.7550097 35.1970562,42.3945967 34.5615385,41.7538462 L34.0707692,41.2461538 C32.8113824,41.9667907 31.4706609,42.534893 30.0769231,42.9384615 L30.0769231,43.6153846 C30.0769231,45.4846561 28.5615792,47 26.6923077,47 L23.3076923,47 C21.4384208,47 19.9230769,45.4846561 19.9230769,43.6153846 L19.9230769,42.9046154 C18.5293391,42.5010468 17.1886176,41.9329445 15.9292308,41.2123077 L15.4384615,41.72 C14.8029438,42.3607505 13.9378501,42.7211636 13.0353846,42.7211636 C12.1329191,42.7211636 11.2678254,42.3607505 10.6323077,41.72 L8.24615385,39.3676923 C7.60540334,38.7321746 7.24499029,37.8670809 7.24499029,36.9646154 C7.24499029,36.0621499 7.60540334,35.1970562 8.24615385,34.5615385 L8.75384615,34.0707692 C8.03320935,32.8113824 7.46510703,31.4706609 7.06153846,30.0769231 L6.38461538,30.0769231 C4.51534392,30.0769231 3,28.5615792 3,26.6923077 L3,23.3076923 C3,21.4384208 4.51534392,19.9230769 6.38461538,19.9230769 L7.09538462,19.9230769 C7.49895318,18.5293391 8.0670555,17.1886176 8.78769231,15.9292308 L8.28,15.4384615 C7.63924949,14.8029438 7.27883644,13.9378501 7.27883644,13.0353846 C7.27883644,12.1329191 7.63924949,11.2678254 8.28,10.6323077 L10.6323077,8.24615385 C11.2678254,7.60540334 12.1329191,7.24499029 13.0353846,7.24499029 C13.9378501,7.24499029 14.8029438,7.60540334 15.4384615,8.24615385 L15.9292308,8.75384615 C17.1886176,8.03320935 18.5293391,7.46510703 19.9230769,7.06153846 L19.9230769,6.38461538 C19.9230769,4.51534392 21.4384208,3 23.3076923,3 L26.6923077,3 C28.5615792,3 30.0769231,4.51534392 30.0769231,6.38461538 L30.0769231,7.09538462 C31.4706609,7.49895318 32.8113824,8.0670555 34.0707692,8.78769231 L34.5615385,8.28 C35.1970562,7.63924949 36.0621499,7.27883644 36.9646154,7.27883644 C37.8670809,7.27883644 38.7321746,7.63924949 39.3676923,8.28 L41.7538462,10.6323077 C42.3945967,11.2678254 42.7550097,12.1329191 42.7550097,13.0353846 C42.7550097,13.9378501 42.3945967,14.8029438 41.7538462,15.4384615 L41.2461538,15.9292308 C41.969727,17.1871598 42.5379828,18.5282435 42.9384615,19.9230769 L43.6153846,19.9230769 Z M41.5846154,23.3076923 C40.7676356,23.3241681 40.0555708,22.7545162 39.8923077,21.9538462 C39.5182215,20.0255439 38.7770929,18.1870853 37.7092308,16.5384615 C37.2612746,15.8698284 37.3461908,14.9782086 37.9123077,14.4061538 L39.3507692,12.9676923 L36.9646154,10.6492308 L35.5261538,12.0876923 C34.9649895,12.6187346 34.1154148,12.7022994 33.4615385,12.2907692 C31.8154725,11.2109886 29.9768656,10.4583089 28.0461538,10.0738462 C27.2454838,9.91058309 26.6758319,9.19851822 26.6923077,8.38153846 L26.6923077,6.38461538 L23.3076923,6.38461538 L23.3076923,8.41538462 C23.3241681,9.23236437 22.7545162,9.94442925 21.9538462,10.1076923 C20.0255439,10.4817785 18.1870853,11.2229071 16.5384615,12.2907692 C15.8698284,12.7387254 14.9782086,12.6538092 14.4061538,12.0876923 L12.9676923,10.6492308 L10.6492308,13.0353846 L12.0876923,14.4738462 C12.6187346,15.0350105 12.7022994,15.8845852 12.2907692,16.5384615 C11.2109886,18.1845275 10.4583089,20.0231344 10.0738462,21.9538462 C9.91058309,22.7545162 9.19851822,23.3241681 8.38153846,23.3076923 L6.38461538,23.3076923 L6.38461538,26.6923077 L8.41538462,26.6923077 C9.23236437,26.6758319 9.94442925,27.2454838 10.1076923,28.0461538 C10.4817785,29.9744561 11.2229071,31.8129147 12.2907692,33.4615385 C12.7387254,34.1301716 12.6538092,35.0217914 12.0876923,35.5938462 L10.6492308,37.0323077 L13.0353846,39.4184615 L14.4738462,37.98 C15.0185044,37.4269168 15.8696044,37.3152972 16.5384615,37.7092308 C18.1640812,38.7810744 19.9789892,39.5334571 21.8861538,39.9261538 C22.6868239,40.0894169 23.2564758,40.8014818 23.24,41.6184615 L23.24,43.6153846 L26.6246154,43.6153846 L26.6246154,41.5846154 C26.6081396,40.7676356 27.1777915,40.0555708 27.9784615,39.8923077 C29.9302809,39.5265572 31.7924644,38.7851323 33.4615385,37.7092308 C34.1301716,37.2612746 35.0217914,37.3461908 35.5938462,37.9123077 L37.0323077,39.3507692 L39.4184615,36.9646154 L37.98,35.5261538 C37.4269168,34.9814956 37.3152972,34.1303956 37.7092308,33.4615385 C38.7810744,31.8359188 39.5334571,30.0210108 39.9261538,28.1138462 C40.0894169,27.3131761 40.8014818,26.7435242 41.6184615,26.76 L43.6153846,26.76 L43.6153846,23.3076923 L41.5846154,23.3076923 Z" id="形状" fill="#000000" fill-rule="nonzero"></path>
                </g>
            </g>
        </g>
    </g>
</svg>