<?xml version="1.0" encoding="UTF-8"?>
<svg width="42px" height="42px" viewBox="0 0 42 42" version="1.1" xmlns="http://www.w3.org/2000/svg" xmlns:xlink="http://www.w3.org/1999/xlink">
    <title>insert/addemioji</title>
    <desc>Created with Sketch.</desc>
    <defs>
        <path d="M25,4 C26.4497475,4 27.625,5.17525253 27.625,6.625 L27.625,6.625 L27.625,22.375 L43.375,22.375 C44.768988,22.375 45.9091899,23.461587 45.9948356,24.8339909 L46,25 C46,26.4497475 44.8247475,27.625 43.375,27.625 L43.375,27.625 L27.625,27.625 L27.625,43.375 C27.625,44.768988 26.538413,45.9091899 25.1660091,45.9948356 L25,46 C23.5502525,46 22.375,44.8247475 22.375,43.375 L22.375,43.375 L22.375,27.625 L6.625,27.625 C5.23101205,27.625 4.0908101,26.538413 4.00516437,25.1660091 L4,25 C4,23.5502525 5.17525253,22.375 6.625,22.375 L6.625,22.375 L22.375,22.375 L22.375,6.625 C22.375,5.23101205 23.461587,4.0908101 24.8339909,4.00516437 Z" id="path-1"></path>
    </defs>
    <g id="页面-1" stroke="none" stroke-width="1" fill="none" fill-rule="evenodd">
        <g id="all-icon" transform="translate(-1737.000000, -838.000000)">
            <g id="添加" transform="translate(1733.000000, 834.000000)">
                <g>
                    <rect id="矩形备份-9" x="0" y="0" width="50" height="50"></rect>
                    <mask id="mask-2" fill="white">
                        <use xlink:href="#path-1"></use>
                    </mask>
                    <use id="Combined-Shape" fill="#000000" fill-rule="nonzero" xlink:href="#path-1"></use>
                </g>
            </g>
        </g>
    </g>
</svg>