<?xml version="1.0" encoding="UTF-8"?>
<svg width="104px" height="93px" viewBox="0 0 104 93" version="1.1" xmlns="http://www.w3.org/2000/svg" xmlns:xlink="http://www.w3.org/1999/xlink">
    <title>EmptyStateEmpty</title>
    <desc>Created with Sketch.</desc>
    <g id="页面-1" stroke="none" stroke-width="1" fill="none" fill-rule="evenodd">
        <g id="状态icon" transform="translate(-248.000000, -153.000000)" stroke="#B1B1B1" stroke-width="2.27272727">
            <g id="EmptyState" transform="translate(187.000000, 155.000000)">
                <g id="编组-7" transform="translate(63.000000, 0.000000)">
                    <path d="M85.069754,70.0679863 C82.8574969,71.8493003 80.4434699,73.4633661 77.8582809,74.8851408 L78.0078569,87.6882122 C78.0195874,88.6922978 77.2151247,89.5157795 76.2110392,89.5276342 C75.8027422,89.5322801 75.4047249,89.3994738 75.0811001,89.1504837 L63.5695001,80.2937024 C59.2545019,81.2869053 54.7030814,81.8181818 50,81.8181818 C22.3857625,81.8181818 0,63.5025579 0,40.9090909 C0,18.3156239 22.3857625,2.13162821e-14 50,2.13162821e-14 C77.6142375,2.13162821e-14 100,18.3156239 100,40.9090909 C100,47.1624941 98.2850993,53.0881855 95.2190865,58.3885199 C94.6536204,59.366063 94.0421968,60.3223348 93.3870978,61.2554681 M91.0844748,64.2310278 C90.2537065,65.2088867 89.3721249,66.155675 88.4428581,67.0688332" id="Shape" fill="#FFFFFF" stroke-linecap="round"></path>
                    <path d="M31.8181818,35.4545455 C34.8306441,35.4545455 37.2727273,37.8966286 37.2727273,40.9090909 C37.2727273,43.9215532 34.8306441,46.3636364 31.8181818,46.3636364 C28.8057195,46.3636364 26.3636364,43.9215532 26.3636364,40.9090909 C26.3636364,37.8966286 28.8057195,35.4545455 31.8181818,35.4545455 Z M49.0909091,35.4545455 C52.1033714,35.4545455 54.5454545,37.8966286 54.5454545,40.9090909 C54.5454545,43.9215532 52.1033714,46.3636364 49.0909091,46.3636364 C46.0784468,46.3636364 43.6363636,43.9215532 43.6363636,40.9090909 C43.6363636,37.8966286 46.0784468,35.4545455 49.0909091,35.4545455 Z M66.3636364,35.4545455 C69.3760986,35.4545455 71.8181818,37.8966286 71.8181818,40.9090909 C71.8181818,43.9215532 69.3760986,46.3636364 66.3636364,46.3636364 C63.3511741,46.3636364 60.9090909,43.9215532 60.9090909,40.9090909 C60.9090909,37.8966286 63.3511741,35.4545455 66.3636364,35.4545455 Z" id="Shape" fill="#F5F5F5"></path>
                    <path d="M13.3291931,27.5555624 C12.5037431,28.9482293 11.7883945,30.3935373 11.1925169,31.8837462" id="Line" stroke-linecap="round"></path>
                    <path d="M30.0200003,12.7938336 C24.0629875,15.6368535 19.0337342,19.6585219 15.3993423,24.4729718" id="Line" stroke-linecap="round"></path>
                </g>
            </g>
        </g>
    </g>
</svg>