<?xml version="1.0" encoding="UTF-8"?>
<svg width="45px" height="41px" viewBox="0 0 45 41" version="1.1" xmlns="http://www.w3.org/2000/svg" xmlns:xlink="http://www.w3.org/1999/xlink">
    <title>xinjianduihua</title>
    <desc>Created with Sketch.</desc>
    <g id="页面-1" stroke="none" stroke-width="1" fill="none" fill-rule="evenodd">
        <g id="all-icon" transform="translate(-317.000000, -349.000000)" fill="#000000">
            <g id="新建对话" transform="translate(314.000000, 344.000000)">
                <g>
                    <rect id="矩形" fill-rule="nonzero" opacity="0" x="0" y="0" width="50" height="50"></rect>
                    <path d="M34.9910043,25.4132686 C34.9910043,24.6079756 35.6587387,23.4562836 37.0723598,23.4562836 C38.4859809,23.4562836 39.0871955,24.6079756 39.0871955,25.4132686 L39.0871955,31.1724783 L45.5333177,31.1724783 C46.3433466,31.1724783 47.3532926,31.8958451 47.3532926,33.1253979 C47.3532926,34.3549507 46.3433466,35.0525074 45.5333177,35.0525074 L39.0871486,35.0525074 L39.0871486,42.9103693 C39.0871486,43.7156623 38.0299043,44.4971295 37.0723598,44.4971295 C36.1148152,44.4971295 34.9909574,43.7156623 34.9909574,42.9103693 L34.9909574,35.0525074 L27.9333177,35.0525074 C27.1232888,35.0525074 26.1477081,34.5131624 26.1477081,33.1253979 C26.1477081,31.7376334 27.1232888,31.1724783 27.9333177,31.1724783 L34.9910043,31.1724783 L34.9910043,25.4132686 Z M47,19.5808862 C47,20.3861792 46.1540724,21.5478875 44.8062702,21.5478875 C43.4584679,21.5478875 42.4780073,20.3861792 42.4780073,19.5808862 L42.4780073,10.386523 C42.4780073,9.58122999 41.8213539,8.92841573 41.011325,8.92841573 L8.73158174,8.92841573 C7.92155286,8.92841573 7.26489943,9.58122999 7.26489948,10.386523 L7.26489948,31.8248018 C7.26489948,32.6300948 7.9215529,33.2829091 8.73158174,33.282909 L13.8839834,33.282909 C15.5040412,33.282909 16.8173011,34.5885375 16.8173011,36.199077 L16.8173011,41.3221189 C19.0750006,39.2581689 20.3359003,38.1240907 20.6,37.9198842 C20.9961496,37.6135744 22.469872,37.5237192 22.9972044,38.0783781 C23.3487592,38.4481508 23.5102623,38.9513756 23.4817135,39.5880526 C23.272757,40.462777 22.9796623,40.6418398 22.622396,40.9180735 L17.4189509,45.4200626 C16.4598617,46.1616596 14.6299417,46.0193465 13.8839834,45.0658647 C13.1380251,44.1123828 13.266614,43.2991006 13.2666354,42.812727 L13.2666354,37.0780335 L7.39999999,37.0780335 C4.96996022,37.0780335 3,35.1195908 3,32.7037584 L3,9.37427517 C3,6.95844275 4.96996022,5 7.39999999,5 L42.6,5 C45.0300398,5 47,6.95844275 47,9.37427517 L47,19.5808862 Z" id="形状" fill-rule="nonzero"></path>
                </g>
            </g>
        </g>
    </g>
</svg>