<?xml version="1.0" encoding="UTF-8"?>
<svg width="16px" height="14px" viewBox="0 0 16 14" version="1.1" xmlns="http://www.w3.org/2000/svg" xmlns:xlink="http://www.w3.org/1999/xlink">
    <title>menuMune</title>
    <desc>Created with Sketch.</desc>
    <g id="IM-设置" stroke="none" stroke-width="1" fill="none" fill-rule="evenodd">
        <g id="表情管理-删除" transform="translate(-328.000000, -368.000000)" fill-rule="nonzero">
            <g id="表情包组件(编辑)备份" transform="translate(0.000000, 350.000000)">
                <g id="menu" transform="translate(326.000000, 15.000000)">
                    <rect id="矩形" fill="#000000" opacity="0" x="0" y="0" width="20" height="20"></rect>
                    <path d="M17.65625,3.125 L2.34375,3.125 C2.2578125,3.125 2.1875,3.1953125 2.1875,3.28125 L2.1875,4.53125 C2.1875,4.6171875 2.2578125,4.6875 2.34375,4.6875 L17.65625,4.6875 C17.7421875,4.6875 17.8125,4.6171875 17.8125,4.53125 L17.8125,3.28125 C17.8125,3.1953125 17.7421875,3.125 17.65625,3.125 Z M17.65625,15.3125 L2.34375,15.3125 C2.2578125,15.3125 2.1875,15.3828125 2.1875,15.46875 L2.1875,16.71875 C2.1875,16.8046875 2.2578125,16.875 2.34375,16.875 L17.65625,16.875 C17.7421875,16.875 17.8125,16.8046875 17.8125,16.71875 L17.8125,15.46875 C17.8125,15.3828125 17.7421875,15.3125 17.65625,15.3125 Z M17.65625,9.21875 L2.34375,9.21875 C2.2578125,9.21875 2.1875,9.2890625 2.1875,9.375 L2.1875,10.625 C2.1875,10.7109375 2.2578125,10.78125 2.34375,10.78125 L17.65625,10.78125 C17.7421875,10.78125 17.8125,10.7109375 17.8125,10.625 L17.8125,9.375 C17.8125,9.2890625 17.7421875,9.21875 17.65625,9.21875 Z" id="形状" fill="#CACACA"></path>
                </g>
            </g>
        </g>
    </g>
</svg>