<?xml version="1.0" encoding="UTF-8"?>
<svg width="18px" height="10px" viewBox="0 0 18 10" version="1.1" xmlns="http://www.w3.org/2000/svg" xmlns:xlink="http://www.w3.org/1999/xlink">
    <title>icoun/visible</title>
    <desc>Created with Sketch.</desc>
    <g id="IM-启登注找" stroke="none" stroke-width="1" fill="none" fill-rule="evenodd">
        <g id="注册" transform="translate(-307.000000, -352.000000)">
            <g id="图标/可见" transform="translate(306.000000, 347.000000)">
                <g id="可见">
                    <rect id="矩形" fill="#000000" fill-rule="nonzero" opacity="0" x="0" y="0" width="20" height="20"></rect>
                    <path d="M12.4,5.25 C11.34,5 10.66,5 10,5 C9.34,5 8.66,5 7.6,5.25 C4.7,5.95 1.28,8.44 1.28,10 C1.28,11.51 4.52,14.07 7.61,14.74 C8.6,14.98 9.35,15 10.01,15 C10.67,15 11.41,14.98 12.41,14.74 C15.49,14.07 18.74,11.51 18.74,10 C18.73,8.44 15.3,5.95 12.4,5.25 L12.4,5.25 Z M10,13.6 C8.01,13.6 6.4,11.99 6.4,10 C6.4,8.01 8.01,6.4 10,6.4 C11.99,6.4 13.6,8.01 13.6,10 C13.6,11.99 11.99,13.6 10,13.6 L10,13.6 Z" id="形状" fill="#999999" fill-rule="nonzero"></path>
                    <path d="M7.6,10 C7.6,11.3254834 8.6745166,12.4 10,12.4 C11.3254834,12.4 12.4,11.3254834 12.4,10 C12.4,8.6745166 11.3254834,7.6 10,7.6 C8.6745166,7.6 7.6,8.6745166 7.6,10 Z" id="路径" fill="#999999" fill-rule="nonzero"></path>
                </g>
            </g>
        </g>
    </g>
</svg>