<?xml version="1.0" encoding="UTF-8"?>
<svg width="100px" height="110px" viewBox="0 0 100 110" version="1.1" xmlns="http://www.w3.org/2000/svg" xmlns:xlink="http://www.w3.org/1999/xlink">
    <title>EmptyState</title>
    <desc>Created with Sketch.</desc>
    <g id="页面-1" stroke="none" stroke-width="1" fill="none" fill-rule="evenodd">
        <g id="状态icon" transform="translate(-599.000000, -128.000000)">
            <g id="EmptyState" transform="translate(566.000000, 130.000000)">
                <g id="编组-6" transform="translate(33.000000, 0.000000)">
                    <path d="M35.5104282,71.1056436 C35.4151372,71.7803115 35.3658537,72.4697662 35.3658537,73.1707317 C35.3658537,81.2529476 41.9177841,87.804878 50,87.804878 C58.0822159,87.804878 64.6341463,81.2529476 64.6341463,73.1707317 C64.6341463,72.4697662 64.5848628,71.7803115 64.4895718,71.1056436 L100,71.1056436 L100,103.658537 C100,105.679091 98.3620174,107.317073 96.3414634,107.317073 L3.65853659,107.317073 C1.63798262,107.317073 0,105.679091 0,103.658537 L0,71.1056436 L35.5104282,71.1056436 Z" id="Path" fill="#FFFFFF"></path>
                    <path d="M65.8536585,70.7317073 C65.8536585,79.4874412 58.7557338,86.5853659 50,86.5853659 C41.2442662,86.5853659 34.1463415,79.4874412 34.1463415,70.7317073 C34.1463415,70.448047 34.1537912,70.1661267 34.1685058,69.8861314 L2.19699814e-11,69.8861314 L11.6590729,35.4132357 C12.1617033,33.9270861 13.5559159,32.9268293 15.1247619,32.9268293 L84.8752381,32.9268293 C86.4440841,32.9268293 87.8382967,33.9270861 88.3409271,35.4132357 L100,69.8861314 L65.8314942,69.8861314 C65.8462088,70.1661267 65.8536585,70.448047 65.8536585,70.7317073 Z" id="Path" fill="#FFFFFF"></path>
                    <path d="M63.5336109,71.8957871 C63.5336109,78.6615815 57.4744069,85.3658537 50,85.3658537 C42.5255931,85.3658537 36.4663891,78.6615815 36.4663891,71.8957871 C36.4663891,71.6765951 36.4727486,70.2392354 36.4853098,70.0228754 L10.9756098,70.0228754 L20.9284768,45.8237531 C21.3575516,44.6753647 22.547733,43.902439 23.8869919,43.902439 L76.1130081,43.902439 C77.452267,43.902439 78.6424484,44.6753647 79.0715232,45.8237531 L89.0243902,70.0228754 L63.5146902,70.0228754 C63.5272514,70.2392354 63.5336109,71.6765951 63.5336109,71.8957871 Z" id="Path" fill="#F5F5F5"></path>
                    <path d="M1.52439024,70.1369353 L1.52439024,102.439024 C1.52439024,103.617681 2.47988011,104.573171 3.65853659,104.573171 L96.3414634,104.573171 C97.5201199,104.573171 98.4756098,103.617681 98.4756098,102.439024 L98.4756098,70.1369353 L86.89689,35.9016232 C86.6036889,35.0347026 85.7903983,34.4512195 84.8752381,34.4512195 L15.1247619,34.4512195 C14.2096017,34.4512195 13.3963111,35.0347026 13.10311,35.9016232 L1.52439024,70.1369353 Z" id="Rectangle" stroke="#B1B1B1" stroke-width="3.04878049"></path>
                    <path d="M8.01674447,69.5121951 L10.9756098,69.5121951 L8.01674447,69.5121951 Z M17.0731707,69.5121951 C21.8738655,69.5121951 27.0547237,69.5121951 32.6157453,69.5121951 C34.9038917,69.5121951 34.9038917,71.1202141 34.9038917,71.9512195 C34.9038917,80.0334354 41.606563,86.5853659 49.874727,86.5853659 C58.1428911,86.5853659 64.8455624,80.0334354 64.8455624,71.9512195 C64.8455624,71.1202141 64.8455624,69.5121951 67.1337087,69.5121951 L97.5609756,69.5121951" id="Shape" stroke="#B1B1B1" stroke-width="3.04878049" stroke-linecap="round" stroke-linejoin="round"></path>
                    <path d="M48.9019627,0 L48.9019627,20.4339748 M17.0731707,5.24723704 L30.6092797,20.4339748 M80.6092797,5.24723704 L67.0731707,20.4339748" id="lines" stroke="#A4C3FE" stroke-width="3.04878049" stroke-linecap="round" stroke-linejoin="round"></path>
                </g>
            </g>
        </g>
    </g>
</svg>