<?xml version="1.0" encoding="UTF-8"?>
<svg width="50px" height="44px" viewBox="0 0 50 44" version="1.1" xmlns="http://www.w3.org/2000/svg" xmlns:xlink="http://www.w3.org/1999/xlink">
    <title>friendsayhi</title>
    <desc>Created with Sketch.</desc>
    <g id="页面-1" stroke="none" stroke-width="1" fill="none" fill-rule="evenodd">
        <g id="all-icon" transform="translate(-629.000000, -350.000000)" fill="#000000">
            <g id="打招呼" transform="translate(629.000000, 347.000000)">
                <g>
                    <rect id="矩形" fill-rule="nonzero" opacity="0" x="0" y="0" width="50" height="50"></rect>
                    <path d="M48.154851,18.3711943 L37.1068915,7.32308496 C35.2762827,5.49257603 32.3085947,5.49257603 30.4780359,7.32308496 L27.1635831,10.6375377 L21.6394285,5.11353301 C19.8092193,3.28302407 16.8415314,3.28302407 15.0109226,5.11353301 L1.75321133,18.3711943 C-0.0773975098,20.2017033 -0.0773975098,23.1694911 1.75321133,24.99995 L21.6394285,44.886467 C23.4700373,46.7169759 26.438075,46.7169759 28.2682841,44.886467 L44.8404482,28.3144028 L48.154901,24.99995 C49.9854599,23.1694411 49.9854599,20.2016533 48.154851,18.3711943 Z M39.3166433,29.4191538 L38.2115925,30.5240047 L36.0018408,28.3143529 C35.3919043,27.7042166 34.402775,27.7042166 33.7924887,28.3143529 C33.1821525,28.9244892 33.1821525,29.9137685 33.7924887,30.5240047 L36.0018408,32.7335566 L33.7924887,34.9431086 L29.3733849,30.5240047 C28.7630487,29.9137685 27.7739693,29.9137685 27.1636331,30.5240047 C26.5532969,31.1341411 26.5532969,32.1234203 27.1636331,32.7335566 L31.5827369,37.1527604 L29.3733849,39.3623124 L22.7444792,32.7336066 C22.1341431,32.1234703 21.1450637,32.1234703 20.5347274,32.7336066 C19.9243913,33.3437429 19.9243913,34.3330222 20.5347274,34.9431585 L27.1635831,41.5720142 L26.0588821,42.6768151 C25.4485459,43.2869515 24.4594665,43.2869515 23.8491303,42.6768151 L3.96296313,22.7903981 C3.35262695,22.1801618 3.35262695,21.1909825 3.96296313,20.5807462 L17.2203246,7.32313491 C17.8306608,6.71299858 18.8197402,6.71299858 19.4300764,7.32313491 L24.954281,12.8472396 L22.7445292,15.0567915 C20.9139204,16.8873004 20.9139204,19.8551882 22.7445292,21.6856471 L24.954281,23.8951991 C26.7844901,25.725708 29.752178,25.725708 31.5827369,23.8951991 L33.7924887,21.6856471 L39.3166433,27.2096519 C39.9265798,27.8197382 39.9265798,28.8090175 39.3166433,29.4191538 Z M45.9450992,22.7903981 L42.6306464,26.1048509 L39.3165934,22.7903981 L34.8970898,18.3711943 C34.2871533,17.761058 33.298024,17.7609581 32.6877377,18.3710944 L31.5826869,19.4759453 L29.3733349,21.6855972 C28.7629987,22.2957335 27.7739193,22.2957335 27.1635831,21.6855972 L24.9542311,19.4759453 C24.3438949,18.865809 24.3438949,17.8765297 24.9542311,17.2663934 L27.1635831,15.0567416 L32.6877377,9.53273682 C33.2976742,8.92260049 34.2871533,8.92260049 34.8970898,9.53273682 L37.1068416,11.7422887 L45.9450493,20.5806963 C46.5554354,21.1909825 46.5554354,22.1801619 45.9450992,22.7903981 L45.9450992,22.7903981 Z" id="形状" fill-rule="nonzero"></path>
                </g>
            </g>
        </g>
    </g>
</svg>