<?xml version="1.0" encoding="UTF-8"?>
<svg width="25px" height="25px" viewBox="0 0 25 25" version="1.1" xmlns="http://www.w3.org/2000/svg" xmlns:xlink="http://www.w3.org/1999/xlink">
    <title>rigthtwo</title>
    <desc>Created with Sketch.</desc>
    <defs>
        <path d="M11.7627101,19.4795207 C12.3662513,19.685826 13.0145039,19.7242783 13.6382018,19.5907689 L14.1702333,19.4768816 C14.824547,19.3368185 15.4297121,19.0249078 15.9234301,18.5732588 C16.4208841,18.1181921 16.8206338,17.5667461 17.0983945,16.952421 L17.3077615,16.4893626 C17.4718887,16.1263616 17.595304,15.7462982 17.6757503,15.356124 L18.0171187,13.7004465 C18.023124,13.6713199 18.0288884,13.6421442 18.0344113,13.6129223 L18.7542718,9.8040874 C18.7994172,9.56521968 18.772468,9.31832078 18.6768542,9.09481706 L18.6347472,8.99638885 C18.5684701,8.84146172 18.4369979,8.72383068 18.2756819,8.67512538 C18.1236399,8.6292201 17.9592698,8.68559051 17.8674012,8.81514453 L17.8355801,8.86001896 C17.7124575,9.03364755 17.6143359,9.22371106 17.5440914,9.4246383 L16.461351,12.5217063 C16.4434567,12.5728912 16.4047086,12.6140948 16.3547183,12.6350964 C16.3054817,12.6557815 16.2492623,12.6512376 16.2039868,12.6229138 L16.1925244,12.6157431 C16.1410556,12.5835447 16.1116189,12.5255185 16.1160367,12.4649688 L16.5178353,6.9580041 C16.5365892,6.70096618 16.4370881,6.44940877 16.2475795,6.27474714 L16.2290335,6.25765418 C16.059559,6.1014571 15.8113057,6.06596786 15.6048552,6.16842428 C15.3892826,6.27540777 15.237304,6.47838291 15.1953381,6.71535521 L14.4374593,10.9949302 C14.4175933,11.107109 14.3941791,11.2186304 14.3672518,11.3293266 L14.1698658,12.1407678 C14.1515952,12.215877 14.0927812,12.2744164 14.0175873,12.2923352 L14.0004779,12.2964124 C13.9333107,12.3124185 13.8625094,12.2995238 13.8052979,12.2608654 C13.7489676,12.2228025 13.7145256,12.159845 13.712852,12.0918811 L13.5582394,5.81312622 C13.5518378,5.55316017 13.430427,5.30943262 13.2267755,5.14772488 C13.0361503,4.99636056 12.7686915,4.98834082 12.5693396,5.1280117 L12.541203,5.14772488 C12.3120396,5.30828244 12.172269,5.56772637 12.1642536,5.84742323 L11.9835621,12.1525817 C11.9817259,12.2166563 11.952913,12.2769751 11.9042256,12.3186701 C11.8558471,12.3601004 11.7913986,12.3775717 11.7287191,12.3662481 L11.7137074,12.363536 C11.6444016,12.3510153 11.5890593,12.2986937 11.5726723,12.230199 L10.2611949,6.74846232 C10.1994023,6.49018063 10.0204678,6.27561065 9.77748876,6.16842428 L9.76505405,6.16293891 C9.53841421,6.06296033 9.27406503,6.10686875 9.09191624,6.27474714 C8.90382967,6.44809812 8.81167985,6.70201697 8.84480956,6.95564966 L9.77365314,14.0666413 C9.78084041,14.1216653 9.7719977,14.1775944 9.74818611,14.2277172 C9.72516731,14.2761713 9.68109124,14.3113038 9.62872436,14.3229387 L9.60186923,14.3289054 C9.53372672,14.3440454 9.46263753,14.3223166 9.41460408,14.2716667 L7.76974468,12.5372101 C7.57095249,12.3275896 7.2974998,12.2048423 7.00875419,12.1956173 C6.73632606,12.1869135 6.48583986,12.3443062 6.37548197,12.5935329 L6.37290773,12.5993465 C6.25652758,12.8621736 6.27239115,13.1647334 6.41561833,13.413949 L7.80822423,15.8370867 C7.87410477,15.951719 7.94417696,16.0638907 8.01829885,16.1733748 L8.51471087,16.9066156 C8.77913282,17.2971882 9.09363116,17.6513994 9.4501623,17.9601898 L10.1035573,18.526093 C10.590199,18.9475717 11.1535278,19.271287 11.7627101,19.4795207 Z" id="path-1"></path>
    </defs>
    <g id="组件" stroke="none" stroke-width="1" fill="none" fill-rule="evenodd">
        <g id="推荐好友(111)" transform="translate(-292.000000, -10.000000)">
            <g id="图标/原型/挥手" transform="translate(292.000000, 10.000000)">
                <g id="颜色/图标/_背景色/浅灰色" transform="translate(0.240000, 0.000000)" fill="#F2F2F2">
                    <circle id="Oval" cx="12.0481928" cy="12.0481928" r="12.0481928"></circle>
                </g>
                <g id="挥手" stroke-width="1">
                    <circle id="椭圆形" fill="#F2F2F2" cx="12" cy="12" r="12"></circle>
                    <mask id="mask-2" fill="white">
                        <use xlink:href="#path-1"></use>
                    </mask>
                    <use id="Mask" fill="#4A4A4A" transform="translate(12.505642, 12.343675) scale(-1, 1) rotate(23.000000) translate(-12.505642, -12.343675) " xlink:href="#path-1"></use>
                </g>
                <g id="Group" stroke-width="1" transform="translate(3.840000, 3.120000)"></g>
            </g>
        </g>
    </g>
</svg>