<?xml version="1.0" encoding="UTF-8"?>
<svg width="44px" height="43px" viewBox="0 0 44 43" version="1.1" xmlns="http://www.w3.org/2000/svg" xmlns:xlink="http://www.w3.org/1999/xlink">
    <title>frindAddFriend</title>
    <desc>Created with Sketch.</desc>
    <g id="页面-1" stroke="none" stroke-width="1" fill="none" fill-rule="evenodd">
        <g id="all-icon" transform="translate(-789.000000, -351.000000)" fill="#000000">
            <g id="添加好友" transform="translate(786.000000, 347.000000)">
                <g>
                    <rect id="矩形" fill-rule="nonzero" opacity="0" x="0" y="0" width="50" height="50"></rect>
                    <path d="M36.7038811,30.6936958 C36.7038811,29.8746555 37.5945115,29.204108 38.4068628,29.204108 C39.2192142,29.204108 40.1447042,29.8746555 40.1447042,30.6936958 L40.1447042,36.625644 L45.5291124,36.625644 C46.3414638,36.625644 47,37.2896026 47,38.1086429 C47,38.9276831 46.3414638,39.5916418 45.5291124,39.5916418 L40.1447042,39.5916418 L40.1447042,45.52359 C40.1447042,46.3426303 39.2192142,47 38.4068628,47 C37.5945114,47 36.7038811,46.3426303 36.7038811,45.52359 L36.7038811,39.5915944 L30.8204249,39.5915944 C30.0080735,39.5915944 29.3495373,38.9276358 29.3495373,38.1085955 C29.3495373,37.2895551 30.0080735,36.6255965 30.8204249,36.6255965 L36.7038811,36.6255965 L36.7038811,30.6936958 Z M28.7706735,33.673447 C27.8185243,32.5963639 27.1141325,31.0055192 27.1141325,29.2106494 C27.1141325,27.8820209 27.5300451,26.7276815 28.2761666,25.561296 C28.5121107,25.192467 28.7621663,24.8473508 29.114295,24.3899308 C28.9388892,24.6178108 29.7390107,23.5861615 29.9098067,23.3568112 C31.0470516,21.8298013 31.5267482,20.6468169 31.5267482,18.8297519 L31.5267482,14.3808026 C31.5267482,10.0657358 29.5753829,7.2230781 25.2908525,7.22307814 C21.0063221,7.22307814 18.3470951,10.0657359 18.3470951,14.3808026 L18.3470951,18.8297519 C18.3470951,20.6468169 18.8267917,21.8298013 19.9640366,23.3568112 C20.1330922,23.5837902 20.9184437,24.5965641 20.7675918,24.4003644 C21.1155341,24.8525676 21.36352,25.1952651 21.5976767,25.561296 C22.3437981,26.7276341 22.7597108,27.8820209 22.7597108,29.2106494 C22.7597108,33.3211695 20.416498,34.9546025 15.0145258,36.8212746 C14.7188683,36.9231974 14.4230913,37.0247673 14.1271954,37.1259842 C13.8381103,37.2249342 13.5495266,37.3253672 13.2614555,37.4272791 C11.5716517,38.0267863 10.4711907,38.5191115 9.61048393,39.095807 C8.9339321,39.549101 8.25451091,40.3246047 7.57226745,41.4222704 C7.35654983,41.7692836 7.46073964,42.2574392 7.80491885,42.4748857 C7.9219692,42.5488257 8.05730413,42.5880413 8.19543079,42.5880432 L26.4077622,42.5880432 C27.2201136,42.5880432 27.8786498,43.2214559 27.8786497,44.0404962 C27.8786497,44.8595366 27.2201136,45.5234952 26.4077622,45.5234952 L5.20628432,45.5234952 C3.98775722,45.5234952 3,44.5275573 3,43.2990442 C3,43.1492267 3.01500523,42.999836 3.04478048,42.8531011 C3.58219302,40.2053766 4.97316254,38.1295576 7.21773602,36.625644 C11.6444162,33.6596936 19.0534184,33.6596936 19.0534184,29.2107443 C19.0534184,26.2447939 14.6407557,24.7759752 14.6407557,18.8298468 L14.6407557,14.3808975 C14.6407557,8.43676089 19.0187041,4 24.9368276,4 C30.854951,4 35.2329465,8.43676089 35.2329465,14.3808975 L35.2329465,18.8298468 C35.2329465,24.7759753 30.8203779,26.2447465 30.8203779,29.2107443 C30.8203779,30.2764927 31.2426877,31.0869015 31.9461454,31.7439834 C31.9577168,31.7547965 31.967689,31.763997 31.9777081,31.7731976 C32.1072045,31.9044242 32.2000111,32.0034489 32.2548107,32.0710304 C32.5274447,32.4073254 32.2436626,33.311305 31.755264,33.673447 C31.2668654,34.035589 29.5595595,34.2025271 28.8357813,33.7108184 C28.8171541,33.6981716 28.7954515,33.6857144 28.7706735,33.673447 Z" id="形状" fill-rule="nonzero"></path>
                </g>
            </g>
        </g>
    </g>
</svg>