<?xml version="1.0" encoding="UTF-8"?>
<svg width="44px" height="44px" viewBox="0 0 44 44" version="1.1" xmlns="http://www.w3.org/2000/svg" xmlns:xlink="http://www.w3.org/1999/xlink">
    <title>publick/guanbi</title>
    <desc>Created with Sketch.</desc>
    <defs>
        <path d="M31.6640747,16.376577 C32.1661774,15.8744743 33.1386381,15.7470233 33.8094539,16.376577 C34.4802697,17.0061307 34.1255257,18.3990904 33.623423,18.901193 L33.623423,18.901193 L27.1654193,25.3468686 L33.623423,31.8051484 C34.0941442,32.2758697 34.0103818,33.1501161 33.584353,33.6996745 L33.4946465,33.8050413 C32.9925438,34.3416068 31.6143515,34.1255257 31.1122488,33.623423 L31.1122488,33.623423 L24.9924193,27.5148686 L18.56748,33.9282149 C18.0988508,34.396844 17.0338634,34.428086 16.4857198,34.0219407 L16.376577,33.9282149 C15.8744743,33.4261122 15.8744743,32.3072511 16.376577,31.8051484 L16.376577,31.8051484 L22.7974193,25.3248686 L15.8371992,18.3777566 C15.3664779,17.9070353 15.5015774,17.0013683 15.9340234,16.4762789 L16.0243858,16.376577 C16.5264885,15.8744743 17.6927489,15.8744743 18.1948516,16.376577 L18.1948516,16.376577 L24.9604193,23.1418686 Z" id="path-1"></path>
    </defs>
    <g id="页面-1" stroke="none" stroke-width="1" fill="none" fill-rule="evenodd">
        <g id="all-icon" transform="translate(-2225.000000, -837.000000)">
            <g id="关闭" transform="translate(2222.000000, 834.000000)">
                <g>
                    <rect id="矩形备份-9" x="0" y="0" width="50" height="50"></rect>
                    <path d="M25,5 C13.9736146,5 5,13.9739244 5,25 C5,36.0256805 13.9743195,45 25,45 C36.0256805,45 45,36.0256805 45,25 C45,13.9743195 36.0256805,5 25,5 Z" id="路径" stroke="#1A1919" stroke-width="4" fill-rule="nonzero"></path>
                    <mask id="mask-2" fill="white">
                        <use xlink:href="#path-1"></use>
                    </mask>
                    <use id="Combined-Shape" fill="#000000" fill-rule="nonzero" xlink:href="#path-1"></use>
                </g>
            </g>
        </g>
    </g>
</svg>