<?xml version="1.0" encoding="UTF-8"?>
<svg width="56px" height="47px" viewBox="0 0 56 47" version="1.1" xmlns="http://www.w3.org/2000/svg" xmlns:xlink="http://www.w3.org/1999/xlink">
    <title>Mask</title>
    <desc>Created with Sketch.</desc>
    <defs>
        <path d="M56.8707828,57.5497091 C55.8382303,57.5561103 54.8138136,57.5988076 53.7986164,57.6766592 L53.6871395,57.5497131 L53.6871395,57.6853521 C42.5217817,58.570467 32.4779044,66.1365186 25,74 C25.6972543,52.2728431 39.6661367,37.3262227 56.8707828,37.0695378 L56.8707828,29.7194849 C56.8707828,28.2175549 58.1162995,27 59.6527223,27 C60.3534101,27 61.0282924,27.2584734 61.5424985,27.7237661 L79.5130397,43.9848748 C81.3922361,45.6853142 81.5054897,48.5529823 79.7659987,50.3899907 C79.6849645,50.4755677 79.600582,50.5580558 79.5130397,50.6372707 L61.5424985,66.8983794 C60.4149807,67.918643 58.6548653,67.8522164 57.6111707,66.7500114 C57.1351922,66.2473491 56.8707828,65.587618 56.8707828,64.9026606 L56.8707828,61.1948664 L56.8880098,61.194756 L56.8707828,61.1751384 L56.8707828,57.5497091 Z" id="path-1"></path>
    </defs>
    <g id="icon" stroke="none" stroke-width="1" fill="none" fill-rule="evenodd">
        <g id="图标/原型/分享" transform="translate(-25.000000, -27.000000)">
            <g id="分享">
                <mask id="mask-2" fill="white">
                    <use xlink:href="#path-1"></use>
                </mask>
                <use id="Mask" fill="#34363A" xlink:href="#path-1"></use>
            </g>
        </g>
    </g>
</svg>