<?xml version="1.0" encoding="UTF-8"?>
<svg width="46px" height="41px" viewBox="0 0 46 41" version="1.1" xmlns="http://www.w3.org/2000/svg" xmlns:xlink="http://www.w3.org/1999/xlink">
    <title>menu/xuanzhonghaoyou</title>
    <desc>Created with Sketch.</desc>
    <g id="页面-1" stroke="none" stroke-width="1" fill="none" fill-rule="evenodd">
        <g id="all-icon" transform="translate(-318.000000, -1180.000000)" fill="#000000">
            <g id="好友" transform="translate(316.000000, 1175.000000)">
                <g id="好友备份-2">
                    <g id="好友" fill-rule="nonzero">
                        <rect id="矩形" opacity="0" x="0" y="0" width="50" height="50"></rect>
                        <path d="M12.6624098,16.7188786 C12.6023607,12.2556003 13.2083922,8.9223416 17.4014344,6.67347366 C18.2596406,6.21320023 20.2927091,5.97042379 21.263415,5.97042384 C22.3268857,5.86233092 21.2740212,5 23.6201577,5 C25.9662941,5 29.2291029,6.02738108 30.7886382,9.20739015 C32.3482264,12.3873992 32.4801973,15.8775264 32.4801973,16.7142632 C32.4801973,17.5510001 33.3418333,17.1326317 33.3418333,18.3877369 C33.3418333,19.6428421 32.970141,22.1261999 31.6481109,23.8130475 C30.3260808,25.4999475 29.8952891,25.9183159 29.0336003,27.1734212 C28.1719642,28.4285265 27.7411198,29.7969693 27.7411198,30.938737 C27.7411198,35.1224211 34.9425271,35.4315428 39.1168897,38.0736571 C41.3764352,39.5037774 42.7106018,41.5145367 43.1194422,44.10583 L43.119495,44.10583 C43.2606473,45.0006779 42.6452759,45.8398274 41.7449615,45.9801751 C41.6604053,45.9933542 41.5749466,46 41.489357,46 L3.6500312,46 C2.73874119,46 2,45.2657443 2,44.3599874 C2,44.2729781 2.00696525,44.1861261 2.02084306,44.1002182 C2.43860119,41.5116521 3.77012942,39.5027809 6.01532214,38.0737095 C10.1662033,35.4316477 17.4013816,35.1224736 17.4013817,30.9387894 C17.4013817,29.8246088 16.9705373,28.4285789 16.1089012,27.1734736 C15.2472652,25.9183684 14.8164208,25.5 13.5239931,23.8130999 C12.2315126,22.1261999 11.8007209,19.6428422 11.8007209,18.3877893 C11.8007737,17.1326316 12.6624098,17.5510001 12.6624098,16.7188786 Z M34.3777595,11.5689663 C36.0314316,11.6593846 38.1601143,12.4439893 39.2122401,14.5892748 C40.3351267,16.8788938 40.4301605,19.3917791 40.4301605,19.9942359 C40.4301605,20.5966927 41.0505447,20.2954381 41.0505447,21.1991496 C41.0505447,22.1028086 40.7829621,23.8908262 39.8310414,25.10539 C38.8791733,26.3199538 38.5690076,26.621156 37.9486233,27.5248675 C37.328239,28.4285789 37.0180732,29.4138452 37.0180733,30.2358969 C37.0180733,33.2481285 42.2030866,33.4707129 45.208655,35.3730121 C46.6285156,36.2716887 47.5408609,37.4887175 47.9457439,39.0242036 L47.9456911,39.0242036 C48.176706,39.900328 47.6494559,40.7966968 46.7679266,41.0263615 C46.6313777,41.0619329 46.4908018,41.0799622 46.3496408,41.0799622 L44.8749023,41.0799622 C44.2857034,39.4229569 43.1870898,38.0855625 41.5790085,37.0677792 C37.738557,34.6370781 31.1132622,34.3526065 31.1132622,30.503638 C31.1132622,29.4532327 31.5095969,28.1942464 32.3023189,27.0395769 C33.095041,25.8848549 33.4913756,25.5 34.7076602,23.9480457 C35.9239448,22.3960913 36.2658764,20.1114022 36.2658764,18.9567326 C36.2658764,17.8020631 35.4731544,18.1869704 35.4731544,17.4171558 C35.4731544,16.7394377 35.3790704,14.1701196 34.3777595,11.5689663 L34.3777595,11.5689663 Z" id="形状"></path>
                    </g>
                </g>
            </g>
        </g>
    </g>
</svg>