<?xml version="1.0" encoding="UTF-8"?>
<svg width="36px" height="36px" viewBox="0 0 36 36" version="1.1" xmlns="http://www.w3.org/2000/svg" xmlns:xlink="http://www.w3.org/1999/xlink">
    <title>publick/femal</title>
    <desc>Created with Sketch.</desc>
    <g id="页面-1" stroke="none" stroke-width="1" fill="none" fill-rule="evenodd">
        <g id="all-icon" transform="translate(-2071.000000, -342.000000)" fill="#000000">
            <g id="性别女" transform="translate(2066.000000, 337.000000)">
                <g>
                    <rect id="矩形" fill-rule="nonzero" opacity="0" x="0" y="0" width="50" height="50"></rect>
                    <path d="M20.1611328,31.5961943 C26.6308594,31.5961943 31.4677325,26.7358398 31.4677325,20.2709961 C31.4677325,13.8061523 26.6259766,9.06947752 20.1611328,9.06947752 C13.6962891,9.06947752 9.21460328,13.8061523 9.21460328,20.2709961 C9.21460328,26.7358398 13.6914062,31.5961943 20.1611328,31.5961943 Z M35.0488281,33.0908203 L37.1191406,31.0205078 C37.6904297,30.4492187 38.6181641,30.4492187 39.1894531,31.0205078 C39.7607422,31.5917969 39.7607422,32.5195312 39.1894531,33.0908203 L37.1191406,35.15625 L40.2246094,38.2617188 C40.7958984,38.8330078 40.7958984,39.7607422 40.2246094,40.3320312 C39.6533203,40.9033203 38.7255859,40.9033203 38.1542969,40.3320312 L35.0488281,37.2265625 L32.9785156,39.296875 C32.4072266,39.8681641 31.4794922,39.8681641 30.9082031,39.296875 C30.3369141,38.7255859 30.3369141,37.7978516 30.9082031,37.2265625 L32.9785156,35.15625 L29.4238281,31.6015625 C26.8994141,33.6669922 23.671875,34.9072266 20.1611328,34.9072266 C12.0751953,34.9072266 5.52246094,28.3544922 5.52246094,20.2685547 C5.52246094,12.1826172 12.0751953,5.62988281 20.1611328,5.62988281 C28.2470703,5.62988281 34.7998047,12.1826172 34.7998047,20.2685547 C34.7949219,23.7841797 33.5595703,27.0117188 31.4941406,29.5361328 L35.0488281,33.0908203 Z" id="形状" fill-rule="nonzero"></path>
                </g>
            </g>
        </g>
    </g>
</svg>