<?xml version="1.0" encoding="UTF-8"?>
<svg width="44px" height="44px" viewBox="0 0 44 44" version="1.1" xmlns="http://www.w3.org/2000/svg" xmlns:xlink="http://www.w3.org/1999/xlink">
    <title>lingshengbeiren</title>
    <desc>Created with Sketch.</desc>
    <g id="按钮(铃声)备份" stroke="none" stroke-width="1" fill="none" fill-rule="evenodd">
        <circle id="椭圆形" fill="#F3F2F2" cx="22" cy="22" r="22"></circle>
        <g id="silent-铃声" transform="translate(10.000000, 10.000000)" fill="#505050" fill-rule="nonzero">
            <rect id="矩形" opacity="0" x="0" y="0" width="24" height="24"></rect>
            <path d="M2.07490521,21.5135578 C1.87454505,21.3131977 1.87454505,21.1130534 2.07490521,20.9126932 L19.6969815,3.29064094 C19.8971258,3.09049664 20.0974859,3.09049664 20.2976302,3.29064094 C20.4979904,3.49100109 20.4979904,3.69114539 20.2976302,3.89150555 L2.67552998,21.5135578 C2.5420365,21.5812639 2.44207226,21.613522 2.37520561,21.613522 C2.30857877,21.613522 2.2083987,21.5812879 2.07490521,21.5135578 Z M16.4929698,4.8926348 C16.6931141,5.09299495 16.6931141,5.29313925 16.4929698,5.49349941 C16.2592962,5.66138557 16.0591519,5.66138557 15.8921051,5.49349941 C14.9576027,4.49213034 13.7896426,3.99144579 12.3877691,3.99144579 C10.7191244,3.99144579 9.34224195,4.72580388 8.25757734,6.19430426 C7.17291274,7.66388388 6.54705708,9.61618423 6.38025016,12.051661 L6.07992579,15.6561771 C6.07992579,15.8896348 5.9464323,16.0064836 5.67942134,16.0064836 C5.41241037,16.0064836 5.27891688,15.8563214 5.27891688,15.555997 L5.57924126,11.9514809 C5.74604817,9.51621998 6.37190384,7.5136977 7.45656844,5.94396199 C8.54123304,4.37528156 9.9181155,3.47409255 11.5867602,3.24063485 L11.5867602,1.98892352 C11.5867602,1.72191255 11.7202777,1.58841907 11.9872646,1.58841907 L12.7882735,1.58841907 C13.0552845,1.58841907 13.188778,1.72191255 13.188778,1.98892352 L13.188778,3.24063485 C14.4571341,3.44080313 15.5584434,3.99144579 16.4929698,4.8926348 Z M21.5993237,20.0115282 L6.3302441,20.0115282 C6.06323313,20.0115282 5.92973965,19.87909 5.92973965,19.6110237 C5.92973965,19.3440128 6.06323313,19.2105193 6.3302441,19.2105193 L19.6467595,19.2105193 C19.0794242,18.7100506 18.7957685,18.0425592 18.7957685,17.208021 L18.395264,12.051685 C18.2950839,10.6498114 18.028073,9.34814196 17.5942551,8.14662858 C17.4607376,7.87961761 17.5276043,7.71386599 17.7946153,7.64615991 C18.028073,7.5137217 18.2117884,7.57929323 18.3452819,7.8463042 C18.8124372,9.08113099 19.0960929,10.4496671 19.1962729,11.9515049 L19.5967774,17.1580388 C19.5967774,17.7264295 19.7885993,18.20939 20.1724351,18.6098945 C20.5562708,19.0103989 21.0319643,19.2105432 21.5992997,19.2105432 C21.8663107,19.2105432 21.9998041,19.3440367 21.9998041,19.6110477 C21.9998041,19.87909 21.8663106,20.0115282 21.5993237,20.0115282 Z M12.3877691,22.4145309 C11.5534468,22.4145309 10.80242,22.1142066 10.1349285,21.5135578 C9.96809763,21.346511 9.96809763,21.1463667 10.1349285,20.9126932 C10.3017594,20.7125489 10.4854509,20.7125489 10.6855952,20.9126932 C11.1529423,21.3809037 11.7202777,21.613522 12.3877931,21.613522 C13.0553085,21.613522 13.6226199,21.3809037 14.089967,20.9126932 C14.2901113,20.7125489 14.4738028,20.7125489 14.6406337,20.9126932 C14.8074645,21.1463667 14.8074645,21.3465111 14.6406337,21.5135578 C14.039745,22.1142066 13.2889341,22.4145309 12.3877691,22.4145309 Z" id="形状"></path>
        </g>
    </g>
</svg>