<?xml version="1.0" encoding="UTF-8"?>
<svg width="14px" height="15px" viewBox="0 0 14 15" version="1.1" xmlns="http://www.w3.org/2000/svg" xmlns:xlink="http://www.w3.org/1999/xlink">
    <title>ecittuichu</title>
    <desc>Created with Sketch.</desc>
    <g id="IM-群聊" stroke="none" stroke-width="1" fill="none" fill-rule="evenodd">
        <g id="自定义预设-4" transform="translate(-18.000000, -559.000000)" fill-rule="nonzero">
            <g id="群-资料-删除并退出" transform="translate(14.000000, 554.000000)">
                <g id="退出2" transform="translate(0.000000, 2.000000)">
                    <rect id="矩形" fill="#000000" opacity="0" x="0" y="0" width="20" height="20"></rect>
                    <path d="M17.083334,9.25 L15.3333398,7.5 C15.1666732,7.3333334 14.9166738,7.3333334 14.7500059,7.5 C14.583334,7.6666666 14.583334,7.91666602 14.7500059,8.08333398 L15.8333398,9.16666016 L12.5,9.16666016 C12.25,9.16666016 12.083334,9.33332676 12.083334,9.58332617 C12.083334,9.83332559 12.2500006,9.99999219 12.5,9.99999219 L15.75,9.99999219 L14.666666,11.0833262 C14.4999994,11.2499928 14.4999994,11.4999922 14.666666,11.6666602 C14.7499994,11.7499936 14.8333326,11.7499936 15,11.7499936 C15.1666674,11.7499936 15.25,11.7499936 15.333334,11.6666602 L17.083334,9.91666016 C17.2500006,9.74999355 17.2500006,9.41666016 17.083334,9.24999414 L17.083334,9.25 Z" id="路径" fill="#6D7278"></path>
                    <path d="M14.1666602,14.1666602 L10.8333203,14.1666602 L10.8333203,5.83333984 L6.33333984,4.16666016 L14.1666602,4.16666016 L14.1666602,5.83332617 L14.9999941,5.83332617 L14.9999941,3.33333984 L4.16666016,3.33333984 L4.16666016,15 L10.8333203,17.4166602 L10.8333203,14.9166602 L14.9999941,14.9166602 L14.9999941,13.2499941 L14.1666465,13.2499941 L14.1666465,14.1666602 L14.1666602,14.1666602 Z M10,16.2500137 L6.5,15 L5,14.4166602 L5,4.58333984 L10,6.41667383 L10,16.2500137 L10,16.2500137 Z" id="形状" fill="#6D7278"></path>
                </g>
            </g>
        </g>
    </g>
</svg>