<?xml version="1.0" encoding="UTF-8"?>
<svg width="44px" height="44px" viewBox="0 0 44 44" version="1.1" xmlns="http://www.w3.org/2000/svg" xmlns:xlink="http://www.w3.org/1999/xlink">
    <title>buttuncall</title>
    <desc>Created with Sketch.</desc>
    <g id="组件" stroke="none" stroke-width="1" fill="none" fill-rule="evenodd">
        <g id="矩形(按钮)" transform="translate(-113.000000, -16.000000)">
            <g id="按钮(电话)" transform="translate(113.000000, 16.000000)">
                <circle id="椭圆形" fill="#F3F2F2" cx="22" cy="22" r="22"></circle>
                <g id="电话" stroke-width="1" transform="translate(11.000000, 10.000000)">
                    <rect id="矩形" fill="#FA6400" fill-rule="nonzero" opacity="0" x="0" y="0" width="24" height="24"></rect>
                    <path d="M9.64255434,7.76279283 L7.4187341,10.0337651 C8.57678895,12.6140077 11.0334433,15.488123 13.8839827,16.4538523 L15.808246,14.5306202 C15.808246,14.5306202 20.368658,15.3286312 21.3933633,15.8281885 C22.2816491,16.261023 22.5760734,17.2190535 22.43656,18.4007323 C22.2868055,19.6716306 20.6281861,22.4724037 17.6381333,22.5031748 C14.6491599,22.533946 10.247712,20.2747497 7.09255523,16.9405783 C3.93943706,13.6064069 1.12688796,9.38090374 1.57821396,5.79286444 C2.02747737,2.20379384 5.14366059,1.56220484 5.92322805,1.50526744 C6.71099794,1.44679507 7.33670972,1.67914955 7.81264303,2.26996498 C8.42396456,3.03106493 9.64255434,7.76279283 9.64255434,7.76279283 L9.64255434,7.76279283 L9.64255434,7.76279283 Z M7.11615525,3.0120938 C6.74587031,2.52486415 6.10785488,2.44432673 5.47087076,2.59460885 C4.90569394,2.72798243 2.8418932,3.58650434 2.55058671,5.88620916 C2.22644648,8.44285174 4.1261265,12.7688947 7.53771743,16.0794421 C10.9493324,19.3895339 14.2347448,21.3219997 17.0586382,21.5527952 C19.8844983,21.7835907 21.2620763,19.2889941 21.4621007,18.5402217 C21.6631564,17.7909218 21.4969971,17.0334194 21.0918158,16.7323515 C20.573815,16.3481799 16.131355,15.550169 16.131355,15.550169 L14.1157855,17.5437214 C10.8016405,16.4620547 7.68032475,13.433604 6.35200936,9.73324887 L8.55323693,7.5084213 C8.55321293,7.50789366 7.48747148,3.49829215 7.11615525,3.0120938 L7.11615525,3.0120938 L7.11615525,3.0120938 Z" id="形状" fill="#000000" fill-rule="nonzero"></path>
                </g>
            </g>
        </g>
    </g>
</svg>