<?xml version="1.0" encoding="UTF-8"?>
<svg width="50px" height="38px" viewBox="0 0 50 38" version="1.1" xmlns="http://www.w3.org/2000/svg" xmlns:xlink="http://www.w3.org/1999/xlink">
    <title>shipingdiahua</title>
    <desc>Created with Sketch.</desc>
    <g id="icon" stroke="none" stroke-width="1" fill="none" fill-rule="evenodd">
        <g id="好友主页icon" transform="translate(-2960.000000, -182.000000)">
            <g id="视频电话" transform="translate(2960.000000, 176.000000)">
                <g id="昵称">
                    <g fill-rule="nonzero">
                        <g id="举报">
                            <rect id="矩形" fill="#000000" opacity="0" x="0" y="0" width="50" height="50"></rect>
                            <path d="M31.1509158,44.0000008 L7.15114357,44.0000008 C5.25455468,44.000598 3.43545525,43.2534428 2.09425768,41.9229944 C0.753060113,40.592546 3.62241124e-07,38.7878577 3.62241124e-07,36.9061699 L3.62241124e-07,13.093831 C-0.000603043483,11.2120513 0.752661207,9.40718899 2.09392426,8.07667561 C3.43518732,6.74616223 5.25446221,5.9991033 7.15114357,6.00000081 L31.1520531,6.00000081 C33.0485374,5.99940277 34.86752,6.74659391 36.208537,8.07707481 C37.549554,9.40755571 38.3026622,11.2122469 38.302059,13.093831 L38.302059,36.9061699 C38.302059,38.7877659 37.5486006,40.5922802 36.2074684,41.9226637 C34.8663363,43.2530472 33.0474122,44.0000008 31.1509158,44.0000008 Z M7.15114357,9.52152877 C5.19333569,9.52895214 3.6080742,11.1017586 3.60059207,13.0441843 L3.60059207,36.8565232 C3.6086971,38.7985083 5.19377734,40.3706312 7.15114357,40.3780504 L31.1520531,40.3780504 C33.1092328,40.3706271 34.6939852,38.7983258 34.7014673,36.8565232 L34.7014673,13.093831 C34.6939937,11.1516582 33.1096007,9.5787062 31.1520531,9.57004712 L7.15114357,9.57004712 L7.15114357,9.52152877 Z M46.3004663,40.725577 C45.2007279,40.725577 44.1510293,40.2787571 43.2503129,39.3862458 L35.2496306,31.49807 C34.5490733,30.8030169 34.5490733,29.6634005 35.2496306,28.9683475 C35.9501878,28.2732944 37.099966,28.2732944 37.8005233,28.9683475 L45.8000683,36.8565232 C46.1003071,37.1544031 46.299329,37.1544031 46.3493688,37.1544031 C46.3994087,37.1544031 46.4494485,37.0551098 46.4494485,36.8565232 L46.4494485,13.7392374 C46.4494485,13.5406508 46.3994087,13.4413575 46.3493688,13.4413575 C46.299329,13.4413575 46.04913,13.4413575 45.8000683,13.7392374 L37.8005233,21.6759315 C37.0945772,22.3711166 35.9555767,22.3711166 35.2496306,21.6759315 C34.5490727,20.9759178 34.5490727,19.8462227 35.2496306,19.146209 L43.2503129,11.2083866 C44.5001707,9.96834867 46.2492893,9.52152882 47.7004435,10.1669352 C49.0992835,10.762695 50,12.100898 50,13.7392374 L50,36.9061699 C50,38.543381 49.0992835,39.8827123 47.7004435,40.4773437 C47.2512226,40.6759303 46.7508246,40.725577 46.3004663,40.725577 L46.3004663,40.725577 Z" id="形状" fill="#333333"></path>
                        </g>
                    </g>
                </g>
            </g>
        </g>
    </g>
</svg>