<?xml version="1.0" encoding="UTF-8"?>
<svg width="36px" height="36px" viewBox="0 0 36 36" version="1.1" xmlns="http://www.w3.org/2000/svg" xmlns:xlink="http://www.w3.org/1999/xlink">
    <title>xiangji</title>
    <desc>Created with Sketch.</desc>
    <g id="IM-群聊" stroke="none" stroke-width="1" fill="none" fill-rule="evenodd">
        <g id="自定义预设-4" transform="translate(-163.000000, -164.000000)">
            <g id="A-相机-36" transform="translate(163.000000, 164.000000)">
                <g id="编组-2">
                    <circle id="椭圆形" fill="#000000" opacity="0.7" cx="18" cy="18" r="18"></circle>
                    <g id="3.0-相机" transform="translate(6.000000, 6.000000)" fill="#FFFFFF" fill-rule="nonzero">
                        <rect id="矩形" opacity="0" x="0" y="0" width="24" height="24"></rect>
                        <path d="M21.75,4.5 L17.4,4.5 L16.05,2.25 C15.9,1.8 15.3,1.5 14.85,1.5 L9.15,1.5 C8.7,1.5 8.1,1.8 7.95,2.25 L6.6,4.5 L2.25,4.5 C1.05,4.5 0,5.55 0,6.75 L0,20.25 C0,21.45 1.05,22.5 2.25,22.5 L21.75,22.5 C22.95,22.5 24,21.45 24,20.25 L24,6.75 C24,5.55 22.95,4.5 21.75,4.5 Z M12,19.5 C8.25,19.5 5.25,16.5 5.25,12.75 C5.25,9 8.25,6 12,6 C15.75,6 18.75,9 18.75,12.75 C18.75,16.5 15.75,19.5 12,19.5 Z M7.5,12.75 C7.5,15.2352814 9.51471863,17.25 12,17.25 C14.4852814,17.25 16.5,15.2352814 16.5,12.75 C16.5,10.2647186 14.4852814,8.25 12,8.25 C9.51471863,8.25 7.5,10.2647186 7.5,12.75 Z" id="形状"></path>
                    </g>
                </g>
            </g>
        </g>
    </g>
</svg>