<?xml version="1.0" encoding="UTF-8"?>
<svg width="36px" height="36px" viewBox="0 0 36 36" version="1.1" xmlns="http://www.w3.org/2000/svg" xmlns:xlink="http://www.w3.org/1999/xlink">
    <title>qrcodeerweima</title>
    <desc>Created with Sketch.</desc>
    <g id="组件" stroke="none" stroke-width="1" fill="none" fill-rule="evenodd">
        <g id="导航栏顶部(二维码)" transform="translate(-308.000000, -4.000000)">
            <g id="二维码" transform="translate(308.000000, 4.000000)">
                <circle id="椭圆形" fill="#EEEEEE" cx="18" cy="18" r="18"></circle>
                <g stroke-width="1" transform="translate(10.000000, 10.000000)">
                    <rect id="矩形" fill="#000000" fill-rule="nonzero" opacity="0" x="0" y="0" width="16" height="16"></rect>
                    <path d="M0,0 L0,7.2 L7.19995313,7.2 L7.19995313,0 L0,0 Z M6.39996875,6.4 L0.799921875,6.4 L0.799921875,0.79996875 L6.39996875,0.79996875 L6.39996875,6.4 L6.39996875,6.4 Z M8.8,0 L8.8,7.2 L16,7.2 L16,0 L8.8,0 Z M15.2,6.4 L9.5999375,6.4 L9.5999375,0.79996875 L15.2,0.79996875 L15.2,6.4 L15.2,6.4 Z M0,8.8 L0,16 L7.2,16 L7.2,8.8 L0,8.8 Z M6.4,15.2 L0.799921875,15.2 L0.799921875,9.6 L6.4,9.6 L6.4,15.2 L6.4,15.2 Z M10.5333594,10.4 L8.93335938,10.4 L8.93335938,8.8 L10.5333594,8.8 L10.5333594,10.4 L10.5333594,10.4 Z M10.5333594,16 L8.93335938,16 L8.93335938,14.4 L10.5333594,14.4 L10.5333594,16 L10.5333594,16 Z M16,10.4 L14.4,10.4 L14.4,8.8 L16,8.8 L16,10.4 Z M11.9998438,12.8 L11.9998438,14.4 L10.3998438,14.4 L10.3998438,12.8 L10.3997656,12.8 L10.3997656,11.2 L11.9997656,11.2 L11.9997656,12.8 L11.9998438,12.8 L11.9998438,12.8 Z M16,11.6 L16,16 L12,16 L12,14.4 L14.4,14.4 L14.4,11.6 L16,11.6 Z" id="形状" fill="#231815" fill-rule="nonzero"></path>
                    <polygon id="路径" fill="#231815" fill-rule="nonzero" points="8.8 14.4 10.3999844 14.4 10.3999844 16 8.8 16"></polygon>
                </g>
            </g>
        </g>
    </g>
</svg>