<?xml version="1.0" encoding="UTF-8"?>
<svg width="150px" height="150px" viewBox="0 0 150 150" version="1.1" xmlns="http://www.w3.org/2000/svg" xmlns:xlink="http://www.w3.org/1999/xlink">
    <!-- Generator: Sketch 61.2 (89653) - https://sketch.com -->
    <title>默认群头像@1x</title>
    <desc>Created with Sketch.</desc>
    <g id="图标汇总" stroke="none" stroke-width="1" fill="none" fill-rule="evenodd">
        <g id="画板" transform="translate(-182.000000, -112.000000)">
            <g id="默认群头像" transform="translate(182.000000, 112.000000)">
                <circle id="椭圆形" fill="#C2E3F6" cx="75" cy="75" r="75"></circle>
                <g id="群组1" transform="translate(26.000000, 26.000000)" fill-rule="nonzero">
                    <rect id="矩形" fill="#000000" opacity="0" x="0" y="0" width="99" height="99"></rect>
                    <path d="M39.2564004,92.2745742 C16.8715723,92.2745742 5.99414062,87.0151992 5.99414062,76.1914248 C5.99414062,68.5783828 17.295126,63.5949316 28.719958,61.8539238 L28.719958,61.2096504 C20.1909727,54.6556377 19.0528594,42.9661934 19.0528594,33.3518818 C19.0528594,20.2473369 26.7380244,12.4250801 39.6130518,12.4250801 L40.2863291,12.4250801 C53.1622266,12.4250801 60.8500986,20.2473369 60.8500986,33.3518818 C60.8500986,42.9671602 59.7118887,54.6566045 51.1795195,61.2096504 L51.1795195,61.8539238 C62.6008711,63.5949316 73.9027274,68.5749023 73.9027274,76.1914248 C73.9053369,83.528543 67.8963076,92.2745742 39.2563037,92.2745742 L39.2564004,92.2745742 Z M39.6132451,18.7691045 C30.1650293,18.7691045 25.3749375,23.673375 25.3749375,33.3518818 C25.3749375,42.3984902 26.348792,52.2703564 33.5786924,56.8864248 C34.4642783,57.4610889 35.0419395,58.444998 35.0421328,59.5637754 L35.0421328,64.6453564 C35.0421328,64.6468066 35.0421328,64.6484502 35.0421328,64.6501904 C35.0421328,66.2800166 33.8104336,67.6223174 32.2271104,67.7968242 C20.2510107,69.0637148 12.3162188,73.6884844 12.3162188,76.1916182 C12.3162188,82.6533018 21.3794561,85.929873 39.2564971,85.929873 C57.2565146,85.929873 67.5836455,82.3807617 67.5836455,76.1916182 C67.5836455,73.6884844 59.6488535,69.0637148 47.690543,67.7980811 C46.0925244,67.6227041 44.8604385,66.2803066 44.8604385,64.6500938 C44.8604385,64.6484502 44.8604385,64.64671 44.8604385,64.6451631 L44.8604385,59.563582 C44.8609219,58.4445146 45.4389697,57.4606055 46.3127607,56.8937725 C53.5546494,52.2678428 54.5311143,42.3985869 54.5311143,33.3520752 C54.5311143,23.6770488 49.7384121,18.7691045 40.2901963,18.7691045 L39.6135352,18.7691045 L39.6132451,18.7691045 Z" id="形状" fill="#21A1E8"></path>
                    <path d="M89.0982598,72.1969102 C87.3518379,72.1953633 85.936834,70.7793926 85.936834,69.032874 C85.936834,69.0297803 85.936834,69.0266865 85.936834,69.0235928 C85.936834,66.5982861 76.9280273,60.7070127 66.4804336,59.5969365 C64.8812549,59.4227197 63.6477188,58.0797422 63.6477188,56.4487559 C63.6477188,56.447209 63.6477188,56.4456621 63.6477188,56.4441152 L63.6477188,49.8454365 C63.6480088,48.7266592 64.2256699,47.7428467 65.0989775,47.1757236 C73.2893906,41.9475762 74.1708193,30.3372158 74.1708193,25.5885996 C74.1708193,14.6382715 66.7931924,12.338165 60.6031787,12.338165 C58.8569502,12.335168 57.442623,10.9190039 57.442623,9.17238867 C57.442623,9.17026172 57.442623,9.16803809 57.442623,9.16591113 C57.442623,9.16436426 57.442623,9.1622373 57.442623,9.16001367 C57.442623,7.41339844 58.8570469,5.9971377 60.6029854,5.9942373 C72.8727979,5.9942373 80.4928975,13.5026719 80.4928975,25.5920801 C80.4928975,31.1142305 79.4311611,44.2951523 69.9697002,51.5021396 L69.9697002,53.7028594 C80.0701172,55.5521484 92.2587187,61.6305938 92.2587187,69.0248496 C92.2587187,69.0267832 92.2587187,69.0288135 92.2587187,69.0309404 C92.2587187,70.7775557 90.8442949,72.1938164 89.0983564,72.1969102 L89.0982598,72.1969102 Z" id="路径" fill="#21A1E8"></path>
                </g>
            </g>
        </g>
    </g>
</svg>