<?xml version="1.0" encoding="UTF-8"?>
<svg width="17px" height="17px" viewBox="0 0 17 17" version="1.1" xmlns="http://www.w3.org/2000/svg" xmlns:xlink="http://www.w3.org/1999/xlink">
    <title>groupedit</title>
    <desc>Created with Sketch.</desc>
    <g id="IM-群聊" stroke="none" stroke-width="1" fill="none" fill-rule="evenodd">
        <g id="自定义预设-4" transform="translate(-218.000000, -210.000000)" fill-rule="nonzero">
            <g id="编辑" transform="translate(216.000000, 209.000000)">
                <rect id="矩形" fill="#000000" opacity="0" x="0" y="0" width="20" height="20"></rect>
                <path d="M16.75,8.5 C16.4166667,8.5 16.1666667,8.75 16.1666667,9 L16.1666667,14.6666667 C16.1666667,15.6666667 15.3333333,16.5 14.3333333,16.5 L6,16.5 C4.83333334,16.5 3.83333334,15.5 3.83333334,14.3333333 L3.83333334,6 C3.83333334,5.5 4,5.08333334 4.33333334,4.66666666 C4.75,4.41666666 5.16666668,4.16666666 5.66666666,4.16666666 L10.9166667,4.16666666 C11.25,4.16666666 11.5,3.91666666 11.5,3.66666666 C11.5,3.41666666 11.25,3.16666666 10.9166667,3.16666666 L5.66666666,3.16666666 C4.08333332,3.16666666 2.75,4.5 2.75,6.08333334 L2.75,14.4166667 C2.75,16.1666667 4.16666666,17.6666667 6,17.6666667 L14.3333333,17.6666667 C15.9166667,17.6666667 17.25,16.3333333 17.25,14.75 L17.25,9.08333334 C17.25,8.75 17,8.5 16.75,8.5 Z" id="路径" fill="#1A1311"></path>
                <path d="M17.75,2.33333334 C17.6666667,2.33333334 17.6666667,2.33333334 17.75,2.33333334 C16.5833333,1.41666668 15,1.5 14.1666667,2.58333334 L6.66666666,10.0833333 C6.58333332,10.1666667 6.58333332,10.25 6.5,10.3333333 L5.66666666,13.6666667 C5.58333332,13.8333333 5.66666666,14.0833333 5.83333334,14.1666667 C5.91666668,14.25 6.08333334,14.3333333 6.25,14.3333333 L6.41666666,14.3333333 L9.83333334,13.4166667 C9.91666668,13.4166667 10,13.3333333 10.0833333,13.25 L17.5,5.83333334 C18.4166667,5 18.5833333,3.41666668 17.75,2.33333334 Z M16.6666667,5.08333334 L9.33333334,12.5 L6.91666666,13.1666667 L7.5,10.75 L15,3.25 C15.5,2.66666666 16.4166667,2.58333334 17,3 C17.4166667,3.66666666 17.25,4.58333334 16.6666667,5.08333334 L16.6666667,5.08333334 Z" id="形状" fill="#1A1311"></path>
            </g>
        </g>
    </g>
</svg>