<?xml version="1.0" encoding="UTF-8"?>
<svg width="50px" height="37px" viewBox="0 0 50 37" version="1.1" xmlns="http://www.w3.org/2000/svg" xmlns:xlink="http://www.w3.org/1999/xlink">
    <title>deletegropumenmber</title>
    <desc>Created with Sketch.</desc>
    <defs>
        <path d="M23.8333333,29.2 C28.8959435,29.2 33,33.3413661 33,38.45 L33,38.45 L33,42.15 C33,43.1717268 32.1791887,44 31.1666667,44 C30.1541446,44 29.3333333,43.1717268 29.3333333,42.15 L29.3333333,42.15 L29.3333333,38.45 C29.3333333,35.3848196 26.8708995,32.9 23.8333333,32.9 L23.8333333,32.9 L9.16666667,32.9 C6.12910054,32.9 3.66666667,35.3848196 3.66666667,38.45 L3.66666667,38.45 L3.66666667,42.15 C3.66666667,43.1717268 2.84585537,44 1.83333333,44 C0.820811292,44 9.23705556e-14,43.1717268 9.23705556e-14,42.15 L9.23705556e-14,42.15 L9.23705556e-14,38.45 C9.23705556e-14,33.3413661 4.10405646,29.2 9.16666667,29.2 L9.16666667,29.2 Z M35.8915492,30.8280005 C36.1446794,29.8387177 37.1446292,29.2438137 38.1249995,29.4992451 C42.1697884,30.553098 44.9968835,34.2332048 45,38.45 L45,38.45 L45,42.15 C45,43.1717268 44.1791887,44 43.1666667,44 C42.1541446,44 41.3333333,43.1717268 41.3333333,42.15 L41.3333333,42.15 L41.3333338,38.4513799 C41.3314643,35.9221308 39.6352072,33.7140667 37.2083338,33.0817549 C36.2279635,32.8263235 35.6384189,31.8172833 35.8915492,30.8280005 Z M16.5,7 C21.5626102,7 25.6666667,11.1413661 25.6666667,16.25 C25.6666667,21.3586339 21.5626102,25.5 16.5,25.5 C11.4373898,25.5 7.33333333,21.3586339 7.33333333,16.25 C7.33333333,11.1413661 11.4373898,7 16.5,7 Z M28.5572917,8.63162751 C28.8084368,7.64182968 29.8071911,7.04488422 30.7880718,7.2983125 C34.8441267,8.34626763 37.681046,12.034292 37.681046,16.25925 C37.681046,20.484208 34.8441267,24.1722324 30.7880718,25.2201875 C29.8071911,25.4736158 28.8084368,24.8766703 28.5572917,23.8868725 C28.3061465,22.8970747 28.8977141,21.8892408 29.8785948,21.6358125 C32.3122277,21.0070394 34.0143793,18.7942248 34.0143793,16.25925 C34.0143793,13.7242752 32.3122277,11.5114606 29.8785948,10.8826875 C28.8977141,10.6292592 28.3061465,9.62142533 28.5572917,8.63162751 Z M16.5,10.7 C13.4624339,10.7 11,13.1848196 11,16.25 C11,19.3151804 13.4624339,21.8 16.5,21.8 C19.5375661,21.8 22,19.3151804 22,16.25 C22,13.1848196 19.5375661,10.7 16.5,10.7 Z" id="path-1"></path>
    </defs>
    <g id="页面-1" stroke="none" stroke-width="1" fill="none" fill-rule="evenodd">
        <g id="好友主页icon" transform="translate(-2806.000000, -183.000000)">
            <g id="删除群成员" transform="translate(2806.000000, 176.000000)">
                <g id="举报">
                    <rect id="矩形" fill="#000000" fill-rule="nonzero" opacity="0" x="0" y="0" width="50" height="50"></rect>
                    <mask id="mask-2" fill="white">
                        <use xlink:href="#path-1"></use>
                    </mask>
                    <use id="Combined-Shape" fill="#000000" fill-rule="nonzero" transform="translate(22.500000, 25.500000) scale(-1, 1) translate(-22.500000, -25.500000) " xlink:href="#path-1"></use>
                    <path d="M48.5,23.1428571 L39.5,23.1428571 C38.6715729,23.1428571 38,23.8464097 38,24.7142857 C38,25.5821617 38.6715729,26.2857143 39.5,26.2857143 L48.5,26.2857143 C49.3284271,26.2857143 50,25.5821617 50,24.7142857 C50,23.8464097 49.3284271,23.1428571 48.5,23.1428571 Z" id="Shape" fill="#000000" fill-rule="nonzero"></path>
                </g>
            </g>
        </g>
    </g>
</svg>