<?xml version="1.0" encoding="UTF-8"?>
<svg width="16px" height="14px" viewBox="0 0 16 14" version="1.1" xmlns="http://www.w3.org/2000/svg" xmlns:xlink="http://www.w3.org/1999/xlink">
    <title>wenjianfeil</title>
    <desc>Created with Sketch.</desc>
    <g id="IM-群聊" stroke="none" stroke-width="1" fill="none" fill-rule="evenodd">
        <g id="自定义预设-4" transform="translate(-15.000000, -412.000000)" fill-rule="nonzero">
            <g id="群-资料-分享的媒体文件" transform="translate(15.000000, 407.000000)">
                <g id="文件" transform="translate(0.000000, 4.000000)">
                    <rect id="矩形" fill="#21A1E8" opacity="0" x="0" y="0" width="16" height="16"></rect>
                    <path d="M14.8753333,3.49999913 L7.64,3.49999913 L7.24933333,2.28266667 C7.10106947,1.81609464 6.66756232,1.49939433 6.178,1.49999913 L1.12466667,1.49999913 C0.503333328,1.49999913 0,2.00333333 0,2.62533333 L0,13.3753333 C0,13.9966667 0.503333328,14.4999991 1.12533333,14.4999991 L14.8753333,14.4999991 C15.4966667,14.4999991 16,13.9966667 16,13.3746667 L16,4.62533333 C16,4.004 15.4966667,3.50066666 14.8746667,3.50066667 L14.8753333,3.49999913 Z M1.12533333,2.62466667 L6.17866667,2.62466667 L6.458,3.5 L1.12466667,3.5 L1.12466667,2.62466667 L1.12533333,2.62466667 Z M14.8753333,13.3746667 L1.12533333,13.3746667 L1.12533333,4.62533333 L14.8753333,4.62533333 L14.8753333,13.3753333 L14.8753333,13.3746667 Z" id="形状" fill="#6D7278"></path>
                </g>
            </g>
        </g>
    </g>
</svg>