<?xml version="1.0" encoding="UTF-8"?>
<svg width="44px" height="44px" viewBox="0 0 44 44" version="1.1" xmlns="http://www.w3.org/2000/svg" xmlns:xlink="http://www.w3.org/1999/xlink">
    <title>anniulingsheng</title>
    <desc>Created with Sketch.</desc>
    <g id="组件" stroke="none" stroke-width="1" fill="none" fill-rule="evenodd">
        <g id="矩形(按钮)" transform="translate(-285.000000, -16.000000)">
            <g id="编组" transform="translate(285.000000, 16.000000)">
                <g id="按钮(铃声)">
                    <circle id="椭圆形" fill="#F3F2F2" cx="22" cy="22" r="22"></circle>
                    <g id="ring-铃声" stroke-width="1" transform="translate(11.000000, 10.000000)" fill="#000000">
                        <rect id="矩形" fill-rule="nonzero" opacity="0" x="0" y="0" width="24" height="24"></rect>
                        <path d="M21.1844529,19.2383884 C21.4528789,19.2383884 21.5870919,19.3726014 21.5870919,19.6410274 C21.5870919,19.9103168 21.4528789,20.0436664 21.1844529,20.0436664 L2.66296252,20.0436664 C2.39453651,20.0436664 2.26032352,19.9103168 2.26032352,19.6410274 C2.26032352,19.3726014 2.39453651,19.2383884 2.66296252,19.2383884 C3.19981453,19.2383884 3.66965597,19.036949 4.07231897,18.63431 C4.47498197,18.231671 4.67618154,17.7620214 4.67618154,17.2251694 L5.07882054,11.9403765 C5.24653882,9.49209239 5.87572823,7.47889734 6.96617292,5.90076731 C8.05664159,4.32369258 9.44086308,3.41792269 11.1184297,3.18300197 L11.1184297,1.92481498 C11.1184297,1.65638897 11.2526427,1.52217598 11.5210687,1.52217598 L12.3263467,1.52217598 C12.5947727,1.52217598 12.7289857,1.65638897 12.7289857,1.92481498 L12.7289857,3.18297795 C14.4067682,3.41789866 15.7907738,4.31532223 16.8812425,5.87563233 C17.9717112,7.43594243 18.6009006,9.4575318 18.7686189,11.9403764 L19.1712579,17.1747075 C19.1712579,17.7461441 19.3640871,18.2316709 19.7499855,18.6343099 C20.1358599,19.0369489 20.6140956,19.2383884 21.1844529,19.2383884 Z M19.2214798,19.2383884 C18.6511225,18.7350416 18.3659559,18.0639526 18.3659559,17.2251933 L17.9633169,12.0411081 C17.7955986,9.59282407 17.1664092,7.62987495 16.0759405,6.15245264 C14.9854719,4.67610961 13.6014662,3.93803402 11.9236838,3.93803402 C10.2461171,3.93803402 8.86189563,4.67610961 7.77142697,6.15245264 C6.6809583,7.62987495 6.05176889,9.59282407 5.88407459,12.0411081 L5.48143559,17.2754392 C5.48143559,18.0807173 5.19626892,18.7350416 4.62591164,19.2383884 L19.2214798,19.2383884 Z M11.9237077,22.4595244 C11.0849244,22.4595244 10.3298923,22.1573773 9.6588273,21.5535387 C9.49110902,21.3858204 9.49110902,21.184405 9.6588273,20.9494603 C9.82654559,20.7482367 10.0112204,20.7482367 10.212444,20.9494603 C10.6823094,21.420381 11.2526667,21.6542464 11.9237317,21.6542464 C12.5947967,21.6542464 13.165154,21.420381 13.6350195,20.9494603 C13.836243,20.7482367 14.0209178,20.7482367 14.1886361,20.9494603 C14.3563544,21.184381 14.3563544,21.3858204 14.1886361,21.5535387 C13.5845097,22.1573773 12.8296935,22.4595244 11.9237077,22.4595244 Z" id="形状" fill-rule="nonzero"></path>
                    </g>
                </g>
            </g>
        </g>
    </g>
</svg>