<?xml version="1.0" encoding="UTF-8"?>
<svg width="50px" height="42px" viewBox="0 0 50 42" version="1.1" xmlns="http://www.w3.org/2000/svg" xmlns:xlink="http://www.w3.org/1999/xlink">
    <title>inviete</title>
    <desc>Created with Sketch.</desc>
    <defs>
        <path d="M25,29.2 C30.7529661,29.2 35.4166667,33.9010101 35.4166667,39.7 L35.4166667,39.7 L35.4166667,43.9 C35.4166667,45.059798 34.4839266,46 33.3333333,46 C32.1827401,46 31.25,45.059798 31.25,43.9 L31.25,43.9 L31.25,39.7 C31.25,36.2206061 28.4517797,33.4 25,33.4 L25,33.4 L10.4166667,33.4 C6.96488698,33.4 4.16666667,36.2206061 4.16666667,39.7 L4.16666667,39.7 L4.16666667,43.9 C4.16666667,45.059798 3.23392656,46 2.08333333,46 C0.932740105,46 0,45.059798 0,43.9 L0,43.9 L0,39.7 C0,33.9010101 4.66370052,29.2 10.4166667,29.2 L10.4166667,29.2 Z M41.6666667,14.5 C42.8172599,14.5 43.75,15.440202 43.75,16.6 L43.75,16.6 L43.749,20.799 L47.9166667,20.8 C49.0172341,20.8 49.9184803,21.6602226 49.9947691,22.7500266 L50,22.9 C50,24.059798 49.0672599,25 47.9166667,25 L47.9166667,25 L43.749,24.999 L43.75,29.2 C43.75,30.309372 42.8966045,31.2178282 41.8154498,31.2947273 L41.6666667,31.3 C40.5160734,31.3 39.5833333,30.359798 39.5833333,29.2 L39.5833333,29.2 L39.583,24.999 L35.4166667,25 C34.3160992,25 33.414853,24.1397774 33.3385642,23.0499734 L33.3333333,22.9 C33.3333333,21.740202 34.2660734,20.8 35.4166667,20.8 L35.4166667,20.8 L39.583,20.799 L39.5833333,16.6 C39.5833333,15.490628 40.4367288,14.5821718 41.5178835,14.5052727 Z M17.7083333,4 C23.4612995,4 28.125,8.70101013 28.125,14.5 C28.125,20.2989899 23.4612995,25 17.7083333,25 C11.9553672,25 7.29166667,20.2989899 7.29166667,14.5 C7.29166667,8.70101013 11.9553672,4 17.7083333,4 Z M17.7083333,8.2 C14.2565536,8.2 11.4583333,11.0206061 11.4583333,14.5 C11.4583333,17.9793939 14.2565536,20.8 17.7083333,20.8 C21.160113,20.8 23.9583333,17.9793939 23.9583333,14.5 C23.9583333,11.0206061 21.160113,8.2 17.7083333,8.2 Z" id="path-1"></path>
    </defs>
    <g id="页面-1" stroke="none" stroke-width="1" fill="none" fill-rule="evenodd">
        <g id="好友主页icon" transform="translate(-2637.000000, -180.000000)">
            <g id="邀请" transform="translate(2637.000000, 176.000000)">
                <g id="删除">
                    <g>
                        <rect id="矩形" fill="#000000" fill-rule="nonzero" opacity="0" x="0" y="0" width="50" height="50"></rect>
                        <mask id="mask-2" fill="white">
                            <use xlink:href="#path-1"></use>
                        </mask>
                        <use id="Combined-Shape" fill="#000000" fill-rule="nonzero" xlink:href="#path-1"></use>
                    </g>
                </g>
            </g>
        </g>
    </g>
</svg>