<?xml version="1.0" encoding="UTF-8"?>
<svg width="150px" height="150px" viewBox="0 0 150 150" version="1.1" xmlns="http://www.w3.org/2000/svg" xmlns:xlink="http://www.w3.org/1999/xlink">
    <!-- Generator: Sketch 61.2 (89653) - https://sketch.com -->
    <title>编组 7@1x</title>
    <desc>Created with Sketch.</desc>
    <g id="Symbols" stroke="none" stroke-width="1" fill="none" fill-rule="evenodd">
        <g id="编组-7">
            <g id="默认群头像备份" fill="#C2E3F6">
                <circle id="椭圆形" cx="75" cy="75" r="75"></circle>
            </g>
            <g id="头像更换" fill-rule="nonzero">
                <rect id="矩形" fill="#53A6FB" opacity="0" x="0" y="0" width="150" height="150"></rect>
                <path d="M149.999949,74.9779658 C150.043852,112.780976 121.897095,144.696132 84.3566978,149.409739 C46.8163003,154.123347 11.6411359,130.158949 2.3220114,93.5205383 C-6.99711312,56.8821275 12.4588553,19.0460463 47.6967609,5.28012446 C65.2209651,-1.76004149 84.7904952,-1.76004149 102.314699,5.28012446 C131.056201,16.4873772 149.983388,44.1518125 149.999949,74.9779658 M47.0841688,60.8209449 C46.8477126,72.7877432 52.7084759,83.9806355 62.464999,90.1952717 C70.0769255,94.849161 79.4677961,94.9390045 87.1594517,90.4315263 C97.1616322,84.299977 103.208545,72.9661756 102.957559,60.8209449 C104.130449,49.5835728 99.0729669,38.6322208 89.9377194,32.6280946 C80.8024719,26.6239685 69.1975281,26.6239685 60.0622806,32.6280946 C50.9270331,38.6322208 45.8695507,49.5835728 47.0424411,60.8209449 M76.0471026,150 C97.4725286,150.019077 117.75992,140.2342 131.25,123.374848 C129.707824,110.559306 117.379177,99.6430196 99.9245463,94.2026266 C86.1061705,107.206182 64.6642731,107.007474 51.0831256,93.75 C34.1016628,98.6578913 21.6678674,108.668924 18.75,120.667964 C32.1421915,139.135499 53.4242002,150.030348 76.0471026,150" id="形状" fill="#FFFFFF" opacity="0.825613839"></path>
            </g>
        </g>
    </g>
</svg>