<?xml version="1.0" encoding="UTF-8"?>
<svg width="93px" height="90px" viewBox="0 0 93 90" version="1.1" xmlns="http://www.w3.org/2000/svg" xmlns:xlink="http://www.w3.org/1999/xlink">
    <title>dddd</title>
    <desc>Created with Sketch.</desc>
    <g id="IM-发现" stroke="none" stroke-width="1" fill="none" fill-rule="evenodd">
        <g id="发现" transform="translate(-136.000000, -222.000000)">
            <g id=":D" transform="translate(115.000000, 217.000000)">
                <g id="Group" transform="translate(57.000000, 57.000000) rotate(-45.000000) translate(-57.000000, -57.000000) translate(27.000000, 7.000000)" fill="#979797">
                    <path d="M13.2724978,67.7685617 C15.5833605,70.9754309 19.6211715,71.8326655 26.605752,72.0044775 C26.3290763,72.7721463 26.7431268,73.5161318 26.7431268,73.5161318 C26.7431268,73.5161318 26.7431268,73.960077 26.9342433,74.4823172 C23.4915852,74.410963 21.0618448,74.1995505 18.9778373,73.7645216 C15.9336791,73.1290647 13.6556075,71.9740099 11.9639244,70.0790412 C12.1491171,69.9234272 12.3484127,69.6920093 12.6090455,69.4118727 C13.0064915,68.9846848 13.2171699,68.5460304 13.2724978,67.7685617 Z M46.8676506,67.7164789 C46.9535362,68.5998083 47.1263826,69.3128044 47.3904951,69.8512087 C47.5340535,70.1438582 47.6552726,70.346188 47.7728134,70.4684484 C46.1226599,72.134114 43.9548634,73.1738144 41.1250787,73.7645216 C39.130071,74.1809721 36.8182296,74.3924979 33.6042509,74.4724026 C34.3176598,73.5441292 33.7282756,72.8557493 33.2469205,72.0103148 C40.4235799,71.8518668 44.5357773,71.0045748 46.8676506,67.7164789 Z M30.051458,7.40994854 C35.6066864,7.40994854 41.2411939,11.5769087 45.3983816,18.5256124 C49.7715882,25.83539 52.2813036,35.720721 52.2813036,46.9296741 C52.2813036,50.3256468 52.2326999,53.2172103 52.1109431,55.7033241 C51.549047,55.4164859 51.0343825,55.4898552 51.0343825,55.4898552 C51.0343825,55.4898552 50.0094547,55.0412805 49.6657749,55.5914809 C49.6589336,55.6024333 49.6515485,55.614037 49.6436402,55.6262916 C49.7691307,53.1234462 49.8113208,50.2432695 49.8113208,46.9296741 C49.8113208,23.9667541 38.9778087,9.87993139 30.051458,9.87993139 C21.1251072,9.87993139 10.2915952,23.9667541 10.2915952,46.9296741 C10.2915952,50.1166648 10.3306229,52.902724 10.4452537,55.3377433 C9.74283425,54.4875012 9.16059229,54.2615338 9.16059229,54.2615338 C9.16059229,54.2615338 8.56389081,53.9220045 7.92931274,54.2133293 C7.85322084,52.078878 7.82161235,49.6682926 7.82161235,46.9296741 C7.82161235,35.720721 10.3313277,25.83539 14.7045344,18.5256124 C18.861722,11.5769087 24.4962296,7.40994854 30.051458,7.40994854 Z" id="Shape" fill-rule="nonzero"></path>
                    <path d="M30.051458,25.9348199 C34.3712152,25.9348199 37.8730703,29.436675 37.8730703,33.7564322 C37.8730703,37.9931172 34.5046069,41.4430554 30.2997482,41.5741785 L30.051458,41.5780446 C25.7317008,41.5780446 22.2298456,38.0761895 22.2298456,33.7564322 C22.2298456,29.436675 25.7317008,25.9348199 30.051458,25.9348199 Z M30.051458,28.4048027 C27.0958346,28.4048027 24.6998285,30.8008089 24.6998285,33.7564322 C24.6998285,36.7120556 27.0958346,39.1080617 30.051458,39.1080617 C33.0070813,39.1080617 35.4030875,36.7120556 35.4030875,33.7564322 C35.4030875,30.8008089 33.0070813,28.4048027 30.051458,28.4048027 Z" id="Shape" fill-rule="nonzero"></path>
                    <path d="M30.051458,84.8027444 C30.7335249,84.8027444 31.2864494,85.3656053 31.2864494,86.0407903 L31.2864494,98.3845956 C31.2864494,99.0256149 30.80466,99.5528493 30.1785123,99.6162496 L30.051458,99.6226415 C29.369391,99.6226415 28.8164666,99.0597806 28.8164666,98.3845956 L28.8164666,86.0407903 C28.8164666,85.3997711 29.2982559,84.8725366 29.9244036,84.8091363 L30.051458,84.8027444 Z M20.9948542,82.7444254 C21.6769211,82.7444254 22.2298456,83.2899165 22.2298456,83.9722253 L22.2298456,92.2198845 C22.2298456,92.8555987 21.7480562,93.3784698 21.1219085,93.4413454 L20.9948542,93.4476844 C20.3127873,93.4476844 19.7598628,92.9021933 19.7598628,92.2198845 L19.7598628,83.9722253 C19.7598628,83.3365111 20.2416522,82.81364 20.8677999,82.7507644 L20.9948542,82.7444254 Z M39.1080617,82.7444254 C39.7901287,82.7444254 40.3430532,83.2899165 40.3430532,83.9722253 L40.3430532,92.2198845 C40.3430532,92.8555987 39.8612638,93.3784698 39.2351161,93.4413454 L39.1080617,93.4476844 C38.4259948,93.4476844 37.8730703,92.9021933 37.8730703,92.2198845 L37.8730703,83.9722253 C37.8730703,83.3365111 38.3548597,82.81364 38.9810074,82.7507644 L39.1080617,82.7444254 Z" id="Rectangle-602"></path>
                    <rect id="Rectangle-601" x="28.8164666" y="-1.70530257e-13" width="2.46998285" height="9.87993139" rx="1.23499142"></rect>
                    <path d="M30.051458,81.9210978 L30.051458,81.9210978 C28.7621873,81.9210978 27.7023027,81.2558396 27.0023724,80.204425 C26.5366941,79.5048968 26.2279455,78.6466142 26.0079266,77.5957525 C25.6664535,75.9647969 25.5231561,73.760849 25.5231561,70.806175 C25.5231561,67.833641 25.6677143,65.4477242 25.9963808,63.6636119 C26.203635,62.5385668 26.4870368,61.6206148 26.9019447,60.8776616 C27.5717395,59.6782964 28.6323666,58.8679245 30.051458,58.8679245 C31.4705494,58.8679245 32.5311765,59.6782964 33.2009713,60.8776616 C33.6158792,61.6206148 33.899281,62.5385668 34.1065351,63.6636119 C34.4352016,65.4477242 34.5797599,67.833641 34.5797599,70.806175 C34.5797599,73.760849 34.4364625,75.9647969 34.0949893,77.5957525 C33.8749704,78.6466142 33.5662219,79.5048968 33.1005435,80.204425 C32.4006132,81.2558396 31.3407286,81.9210978 30.051458,81.9210978 L30.051458,81.9210978 Z M30.051458,79.4511149 C31.6429475,79.4511149 32.109777,76.0353547 32.109777,70.806175 C32.109777,65.5769952 31.6429475,61.3379074 30.051458,61.3379074 C28.4599685,61.3379074 27.9931389,65.5769952 27.9931389,70.806175 C27.9931389,76.0353547 28.4599685,79.4511149 30.051458,79.4511149 L30.051458,79.4511149 Z" id="Shape" fill-rule="nonzero"></path>
                    <path d="M10.3275649,73.437703 L10.3275649,73.437703 C7.7589101,75.8279703 6.17115801,76.8614447 4.18968242,76.6051757 C2.62312221,76.4025688 1.53474508,75.3194412 0.976546406,73.7577556 C0.575280617,72.6351247 0.398799314,71.1651193 0.398799314,69.2391188 C0.398799314,65.73457 1.3678158,61.9266986 2.9220389,58.5982427 C4.58512209,55.0366568 6.4204401,52.6929674 8.64493997,52.6929674 C10.5563522,52.6929674 12.0914754,53.7572055 12.9496107,55.7413526 C13.6693194,57.4054352 13.9965695,59.8551969 13.9965695,63.3962264 C13.9965695,64.1873162 14.0204236,66.678755 14.0150405,67.1519192 C14.0017288,68.3220108 13.9220631,69.0384113 13.6517094,69.7666842 C13.3456661,70.5910973 12.8943129,71.1619396 12.1557164,71.8277868 C12.1587546,71.8250478 10.8477401,72.9536528 10.3275649,73.437703 L10.3275649,73.437703 Z M8.64493997,71.6295026 C11.979256,68.5267474 11.5265866,70.2168957 11.5265866,63.3962264 C11.5265866,56.5755571 10.2364295,55.1629503 8.64493997,55.1629503 C7.05345046,55.1629503 2.86878216,62.4184495 2.86878216,69.2391188 C2.86878216,76.0597881 5.31062393,74.7322577 8.64493997,71.6295026 L8.64493997,71.6295026 Z" id="Shape" fill-rule="nonzero"></path>
                    <path d="M49.6625546,74.8931543 L49.6625546,74.8931543 C49.1423794,74.4091041 47.8313648,73.2804992 47.8344031,73.2832381 C47.0958066,72.617391 46.6444534,72.0465487 46.33841,71.2221356 C46.0680564,70.4938626 45.9883907,69.7774621 45.9750789,68.6073705 C45.9696959,68.1342063 45.99355,65.6427676 45.99355,64.8516778 C45.99355,61.3106483 46.3208001,58.8608866 47.0405088,57.196804 C47.8986441,55.2126569 49.4337672,54.1484188 51.3451795,54.1484188 C53.5696794,54.1484188 55.4049974,56.4921081 57.0680806,60.053694 C58.6223037,63.38215 59.5913202,67.1900213 59.5913202,70.6945701 C59.5913202,72.6205707 59.4148389,74.0905761 59.0135731,75.2132069 C58.4553744,76.7748926 57.3669973,77.8580201 55.800437,78.0606271 C53.8189615,78.316896 52.2312094,77.2834217 49.6625546,74.8931543 L49.6625546,74.8931543 Z M51.3451795,73.0849539 L51.3451795,73.0849539 C54.6794955,76.1877091 57.1213373,77.5152394 57.1213373,70.6945701 C57.1213373,63.8739008 52.936669,56.6184016 51.3451795,56.6184016 C49.75369,56.6184016 48.4635329,58.0310085 48.4635329,64.8516778 C48.4635329,71.6723471 48.0108635,69.9821988 51.3451795,73.0849539 L51.3451795,73.0849539 Z" id="Shape" fill-rule="nonzero"></path>
                </g>
                <path d="M99.3638425,5.36363636 C107.291262,5.36363636 113.737456,11.7038913 113.90572,19.5927231 L113.909091,19.9090909 C113.909091,27.2408886 108.490498,33.3056981 101.431565,34.3089168 L99.0852513,36.6544837 C98.2348451,37.5048899 96.8546436,37.5034695 96.0056578,36.6544837 L93.6589024,34.3086691 C86.6053372,33.3048332 81.1818182,27.2418074 81.1818182,19.9090909 C81.1818182,11.8758582 87.6868034,5.36363636 95.7270665,5.36363636 L99.3638425,5.36363636 Z M104.818182,18.0909091 C103.814028,18.0909091 103,18.9049368 103,19.9090909 C103,20.913245 103.814028,21.7272727 104.818182,21.7272727 C105.822336,21.7272727 106.636364,20.913245 106.636364,19.9090909 C106.636364,18.9049368 105.822336,18.0909091 104.818182,18.0909091 Z M97.5454545,18.0909091 C96.5413005,18.0909091 95.7272727,18.9049368 95.7272727,19.9090909 C95.7272727,20.913245 96.5413005,21.7272727 97.5454545,21.7272727 C98.5496086,21.7272727 99.3636364,20.913245 99.3636364,19.9090909 C99.3636364,18.9049368 98.5496086,18.0909091 97.5454545,18.0909091 Z M90.2727273,18.0909091 C89.2685732,18.0909091 88.4545455,18.9049368 88.4545455,19.9090909 C88.4545455,20.913245 89.2685732,21.7272727 90.2727273,21.7272727 C91.2768814,21.7272727 92.0909091,20.913245 92.0909091,19.9090909 C92.0909091,18.9049368 91.2768814,18.0909091 90.2727273,18.0909091 Z" id="Rectangle-20" fill="#E5E5E5"></path>
            </g>
        </g>
    </g>
</svg>