<?xml version="1.0" encoding="UTF-8"?>
<svg width="1024px" height="1024px" viewBox="0 0 1024 1024" version="1.1" xmlns="http://www.w3.org/2000/svg" xmlns:xlink="http://www.w3.org/1999/xlink">
    <title>1024x1024</title>
    <desc>Created with Sketch.</desc>
    <defs>
        <path d="M718.077664,2.45357791 C730.9893,3.69589315 752.422113,7.59659081 782.3761,14.1556709 C795.13784,17.1356023 797.707546,24.7379852 790.085217,36.9628197 C778.651725,55.3000714 740.706862,115.329234 736.595087,167.805976 C732.483313,220.282718 731.043045,321.379342 723.704051,352.122055 C716.365056,382.864769 708.489923,445.377003 604.290531,538.184519 C500.091139,630.992036 364.17641,641.971626 264.670685,621.851225 C165.164961,601.730823 99.2195639,542.795777 68.3329858,511.943596 C47.7419337,491.375475 24.9642718,459.92505 2.95585778e-12,417.592319 C111.349565,403.297972 188.445463,381.47455 231.287696,352.122055 C274.129928,322.769561 312.389314,281.845366 346.065853,229.349473 C394.509146,149.721019 429.75043,98.3637761 451.789706,75.2777441 C476.333281,49.5684705 504.33882,34.8252271 524.376649,26.7708166 C604.290531,-5.35138594 680.214651,-1.18947671 718.077664,2.45357791 Z M657.876649,71.1153244 C646.27867,71.1153244 636.876649,80.5173447 636.876649,92.1153244 C636.876649,103.713304 646.27867,113.115324 657.876649,113.115324 C669.474629,113.115324 678.876649,103.713304 678.876649,92.1153244 C678.876649,80.5173447 669.474629,71.1153244 657.876649,71.1153244 Z" id="path-1"></path>
        <path d="M64.6197739,2.0053664 C117.356957,-4.40168903 177.213132,14.655532 244.188299,59.1770296 C311.163466,103.698527 359.804817,157.729164 390.112353,221.268941 C345.452315,287.374893 298.367456,332.747751 248.857775,357.387516 C199.348094,382.027281 131.077669,399.402038 44.0464998,409.511787 C14.6821666,335.018473 -1.8189894e-12,274.359515 -1.8189894e-12,227.534913 C-1.8189894e-12,197.783103 0.961271843,160.548396 15.6921552,111.082945 C22.8799938,86.9466009 39.1892,50.5874079 64.6197739,2.0053664 Z" id="path-3"></path>
        <linearGradient x1="50%" y1="15.409852%" x2="50%" y2="84.1361091%" id="linearGradient-5">
            <stop stop-color="#3892EC" offset="0%"></stop>
            <stop stop-color="#177CD6" offset="100%"></stop>
        </linearGradient>
    </defs>
    <g id="1024x1024" stroke="none" stroke-width="1" fill="none" fill-rule="evenodd">
        <g id="编组-3" transform="translate(93.076851, 221.884676)">
            <g id="路径-4" transform="translate(44.046500, 0.000000)">
                <mask id="mask-2" fill="white">
                    <use xlink:href="#path-1"></use>
                </mask>
                <use id="蒙版" fill="#7F12FF" xlink:href="#path-1"></use>
                <path d="M364.494911,168.594853 C409.439133,236.266914 445.428874,281.735578 472.464134,305.000846 C513.017024,339.898747 592.967533,392.418793 700.831118,420.977995 C772.740175,440.017462 767.846127,471.198169 686.148975,514.520116 C560.316742,496.928816 497.400625,488.133166 497.400625,488.133166 C497.400625,488.133166 424.928666,449.131627 279.984749,371.128549 L295.551044,235.831377 L364.494911,168.594853 Z" fill="#4F06CF" mask="url(#mask-2)"></path>
            </g>
            <g id="路径-9" transform="translate(0.000000, 8.080532)">
                <mask id="mask-4" fill="white">
                    <use xlink:href="#path-3"></use>
                </mask>
                <use id="蒙版" fill="#65D1F7" xlink:href="#path-3"></use>
                <path d="M0.0249202362,191.417368 C26.9742041,186.818284 62.9580493,189.997286 107.976456,200.954373 C175.504066,217.390003 249.564607,230.561234 325.499078,303.813939 C376.122059,352.649076 290.417117,400.349248 68.3842522,446.914457 L-22.3805085,386.268944 L-40,212.231012 L0.0249202362,191.417368 Z" fill="#23A4EC" mask="url(#mask-4)"></path>
            </g>
            <path d="M390.112353,229.349473 C418.844259,280.190601 452.541466,319.693655 491.203975,347.858634 C549.197738,390.106103 587.682695,406.913721 635.933027,414.313063 C668.099916,419.245958 704.414779,421.467602 744.877618,420.977995 C720.310158,469.118219 689.160899,508.354703 651.429842,538.687446 C594.833257,584.18656 552.109221,606.63179 474.880937,623.004558 C397.652652,639.377325 320.539568,634.763651 233.980844,599.448827 C198.278578,584.882771 174.528602,571.383804 112.379486,511.943596 C94.535148,494.877044 71.7574861,463.426618 44.0464998,417.592319 C139.803292,403.136759 207.30843,384.10025 246.561913,360.482793 C270.538553,346.056881 300.344944,326.644983 330.16529,295.985377 C342.832084,282.962091 362.814438,260.750123 390.112353,229.349473 Z" id="路径-8" fill="url(#linearGradient-5)"></path>
        </g>
    </g>
</svg>