<?xml version="1.0" encoding="UTF-8"?>
<svg width="44px" height="58px" viewBox="0 0 44 58" version="1.1" xmlns="http://www.w3.org/2000/svg" xmlns:xlink="http://www.w3.org/1999/xlink">
    <title>Maskmack</title>
    <desc>Created with Sketch.</desc>
    <defs>
        <path d="M33.9966585,48.9158879 L34,48.9158879 L34,50 C34,58.3823405 41.163444,65.1775701 50,65.1775701 C58.836556,65.1775701 66,58.3823405 66,50 L66,48.9158879 L66.0033415,48.9158879 C66.0011221,48.8709808 66,48.8258016 66,48.7803738 C66,47.208685 67.3431458,45.9345794 69,45.9345794 C70.6568542,45.9345794 72,47.208685 72,48.7803738 C72,48.8258016 71.9988779,48.8709808 71.9966585,48.9158879 L72,48.9158879 L72,50.1976558 C72,61.7638964 62.1502645,71.1401869 50,71.1401869 C37.8497355,71.1401869 28,61.7638964 28,50.1976558 L28,48.9158879 L28.0033415,48.9158879 C28.0779062,47.4071244 29.3910352,46.2056075 31,46.2056075 C32.6089648,46.2056075 33.9220938,47.4071244 33.9966585,48.9158879 Z M50,21 C57.3319929,21 63.2757475,26.6400147 63.2757475,33.5973254 L63.2757475,49.7896597 C63.2757475,56.7469704 57.3319929,62.3869851 50,62.3869851 C42.6680071,62.3869851 36.7242525,56.7469704 36.7242525,49.7896597 L36.7242525,33.5973254 C36.7242525,26.6400147 42.6680071,21 50,21 Z M39.2670227,73.0373832 L61.0186916,73.0373832 C62.6652228,73.0373832 64,74.3721604 64,76.0186916 C64,77.6652228 62.6652228,79 61.0186916,79 L39.2670227,79 C37.6204915,79 36.2857143,77.6652228 36.2857143,76.0186916 C36.2857143,74.3721604 37.6204915,73.0373832 39.2670227,73.0373832 Z" id="path-1"></path>
    </defs>
    <g id="icon" stroke="none" stroke-width="1" fill="none" fill-rule="evenodd">
        <g id="图标/原型/录音" transform="translate(-28.000000, -21.000000)">
            <g id="录音">
                <mask id="mask-2" fill="white">
                    <use xlink:href="#path-1"></use>
                </mask>
                <use id="Mask" fill="#34363A" xlink:href="#path-1"></use>
            </g>
        </g>
    </g>
</svg>