<?xml version="1.0" encoding="UTF-8"?>
<svg width="43px" height="46px" viewBox="0 0 43 46" version="1.1" xmlns="http://www.w3.org/2000/svg" xmlns:xlink="http://www.w3.org/1999/xlink">
    <title>langadd</title>
    <desc>Created with Sketch.</desc>
    <defs>
        <path d="M22.8181818,20.8181818 C21.7136123,20.8181818 20.8181818,21.7543137 20.8181818,22.9090909 L20.8181818,41.7272727 C20.8181818,42.8820499 21.7136123,43.8181818 22.8181818,43.8181818 L40.8181818,43.8181818 C41.9227513,43.8181818 42.8181818,42.8820499 42.8181818,41.7272727 L42.8181818,22.9090909 C42.8181818,21.7543137 41.9227513,20.8181818 40.8181818,20.8181818 L22.8181818,20.8181818 Z M40.7272727,16.6363636 C44.1916043,16.6363636 47,19.4447593 47,22.9090909 L47,41.7272727 C47,45.1916043 44.1916043,48 40.7272727,48 L21.9090909,48 C18.4447593,48 15.6363636,45.1916043 15.6363636,41.7272727 L15.6363636,22.9090909 C15.6363636,19.4447593 18.4447593,16.6363636 21.9090909,16.6363636 L40.7272727,16.6363636 Z M29.0909091,2 C32.5552407,2 35.3636364,4.80839566 35.3636364,8.27272727 L35.3636364,8.27272727 L35.3636364,10.3636364 C35.3636364,11.5184136 34.4275045,12.4545455 33.2727273,12.4545455 C32.1179501,12.4545455 31.1818182,11.5184136 31.1818182,10.3636364 L31.1818182,10.3636364 L31.1818182,8.27272727 C31.1818182,7.11795007 30.2456863,6.18181818 29.0909091,6.18181818 L29.0909091,6.18181818 L10.2727273,6.18181818 C9.11795007,6.18181818 8.18181818,7.11795007 8.18181818,8.27272727 L8.18181818,8.27272727 L8.18181818,27.0909091 C8.18181818,28.2456863 9.11795007,29.1818182 10.2727273,29.1818182 L10.2727273,29.1818182 L12.3636364,29.1818182 C13.5184136,29.1818182 14.4545455,30.1179501 14.4545455,31.2727273 C14.4545455,32.4275045 13.5184136,33.3636364 12.3636364,33.3636364 L12.3636364,33.3636364 L10.2727273,33.3636364 C6.80839566,33.3636364 4,30.5552407 4,27.0909091 L4,27.0909091 L4,8.27272727 C4,4.80839566 6.80839566,2 10.2727273,2 L10.2727273,2 Z" id="path-1"></path>
    </defs>
    <g id="页面-1" stroke="none" stroke-width="1" fill="none" fill-rule="evenodd">
        <g id="all-icon" transform="translate(-1903.000000, -515.000000)">
            <g id="复制" transform="translate(1899.000000, 513.000000)">
                <g>
                    <rect id="矩形" fill="#000000" fill-rule="nonzero" opacity="0" x="0" y="0" width="50" height="50"></rect>
                    <mask id="mask-2" fill="white">
                        <use xlink:href="#path-1"></use>
                    </mask>
                    <use id="Combined-Shape" fill="#000000" fill-rule="nonzero" xlink:href="#path-1"></use>
                </g>
            </g>
        </g>
    </g>
</svg>