<?xml version="1.0" encoding="UTF-8"?>
<svg width="50px" height="50px" viewBox="0 0 50 50" version="1.1" xmlns="http://www.w3.org/2000/svg" xmlns:xlink="http://www.w3.org/1999/xlink">
    <title>lanuagesettings</title>
    <desc>Created with Sketch.</desc>
    <g id="语言设置" stroke="none" stroke-width="1" fill="none" fill-rule="evenodd">
        <g>
            <rect id="矩形备份-15" x="0" y="0" width="50" height="50"></rect>
            <g id="编组-3" transform="translate(2.500000, 0.500000)">
                <g id="语言切换" fill="#333333">
                    <path d="M41,41.6087676 C41,43.4793714 39.6265467,45 37.9397208,45 L7.06027923,45 C5.37345332,45 4,43.4793714 4,41.6087676 L4,7.39123242 C4,5.52062862 5.37345332,4 7.06027923,4 L37.9397208,4 C39.6265467,4 41,5.52062862 41,7.39123242 L41,41.6087676 Z M38.1678905,0 L6.83210953,0 C3.06575388,0 0,3.33700483 0,7.43961353 L0,41.5603865 C0,45.6616425 3.06575388,49 6.83210953,49 L38.1678905,49 C41.9342461,49 45,45.6616425 45,41.5603865 L45,7.43961353 C45,3.33700483 41.9342461,0 38.1678905,0 L38.1678905,0 Z" id="6C"></path>
                </g>
                <g id="A" transform="translate(8.500000, 9.500000)" fill-rule="nonzero">
                    <rect id="矩形" fill="#000000" opacity="0" x="0" y="0" width="27.5" height="30"></rect>
                    <path d="M1.10851078,27.2488602 L10.5576003,2.40889964 C10.9947719,1.25965412 12.0965034,0.5 13.3260904,0.5 C14.5605074,0.5 15.6714866,1.24894072 16.1345081,2.39322931 L26.0846809,26.9835955 C26.4637837,27.9204764 26.0116092,28.9872895 25.0747262,29.3663871 C24.8566366,29.4546342 24.6235765,29.5 24.3883093,29.5 C24.3883093,29.5 24.3883093,29.5 24.3883093,29.5 C24.3883093,29.5 24.3883093,29.5 24.3883093,29.5 C23.4446993,29.5 22.5995348,28.9161279 22.2656169,28.0335755 L19.3813547,20.4100894 L19.3813547,20.4100894 L7.49331502,20.4100894 L4.76147763,28.0219751 C4.44327914,28.9085995 3.60269663,29.5 2.66070242,29.5 C2.66070242,29.5 2.66070242,29.5 2.66070242,29.5 C2.66070242,29.5 2.66070242,29.5 2.66070242,29.5 C1.74352974,29.5 1.00001437,28.7564846 1.00001437,27.8393119 C1.00001437,27.6375387 1.03678497,27.4374546 1.10851078,27.2488602 Z M17.9221312,17 L15.0098262,9.32001199 C14.4103106,7.76604827 13.7977456,6.15937761 13.1721312,4.5 C12.4911011,6.23241181 11.9368684,7.68404102 11.5094332,8.85488764 L8.4221312,17 L17.9221312,17 Z" id="形状" stroke="#333333" stroke-width="0.570171112" fill="#333333"></path>
                </g>
            </g>
        </g>
    </g>
</svg>