<?xml version="1.0" encoding="UTF-8"?>
<svg width="44px" height="44px" viewBox="0 0 44 44" version="1.1" xmlns="http://www.w3.org/2000/svg" xmlns:xlink="http://www.w3.org/1999/xlink">
    <title>chagnanzhuangfa</title>
    <desc>Created with Sketch.</desc>
    <defs>
        <path d="M34.5,23.3 L34.5,37.1 C34.5,38.3702549 33.4702549,39.4 32.2,39.4 L6.9,39.4 C5.62974508,39.4 4.6,38.3702549 4.6,37.1 L4.6,11.8 C4.6,10.5297451 5.62974508,9.5 6.9,9.5 L20.7,9.5 C21.9702549,9.5 23,8.47025492 23,7.2 C23,5.92974508 21.9702549,4.9 20.7,4.9 L6.9,4.9 C3.08923523,4.9 -4.61852778e-14,7.98923523 -4.61852778e-14,11.8 L-4.61852778e-14,37.1 C-4.61852778e-14,40.9107648 3.08923523,44 6.9,44 L32.2,44 C36.0107648,44 39.1,40.9107648 39.1,37.1 L39.1,23.3 C39.1,22.0297451 38.0702549,21 36.8,21 C35.5297451,21 34.5,22.0297451 34.5,23.3 Z" id="path-1"></path>
    </defs>
    <g id="页面-1" stroke="none" stroke-width="1" fill="none" fill-rule="evenodd">
        <g id="all-icon" transform="translate(-2066.000000, -516.000000)">
            <g id="转发" transform="translate(2066.000000, 516.000000)">
                <g>
                    <mask id="mask-2" fill="white">
                        <use xlink:href="#path-1"></use>
                    </mask>
                    <use id="Combined-Shape" fill="#000000" fill-rule="nonzero" xlink:href="#path-1"></use>
                    <g id="编组-6" transform="translate(18.000000, 0.000000)" fill="#000000" fill-rule="nonzero">
                        <path d="M21.9266667,3.98666667 L21.9266667,13.9533333 C21.9266667,15.0542209 22.8191124,15.9466667 23.92,15.9466667 C25.0208876,15.9466667 25.9133333,15.0542209 25.9133333,13.9533333 L25.9133333,1.99333333 C25.9133333,0.892445732 25.0208876,-1.82964754e-13 23.92,-1.82964754e-13 L11.96,-1.82964754e-13 C10.8591124,-1.82964754e-13 9.96666667,0.892445732 9.96666667,1.99333333 C9.96666667,3.09422093 10.8591124,3.98666667 11.96,3.98666667 L21.9266667,3.98666667 Z" id="Shape"></path>
                        <path d="M3.40283285,25.3294995 L25.3294995,3.40283285 C26.1079446,2.62438776 26.1079446,1.3622789 25.3294995,0.583833816 C24.5510544,-0.194611272 23.2889456,-0.194611272 22.5105005,0.583833816 L0.583833816,22.5105005 C-0.194611272,23.2889456 -0.194611272,24.5510544 0.583833816,25.3294995 C1.3622789,26.1079446 2.62438776,26.1079446 3.40283285,25.3294995 Z" id="Shape"></path>
                    </g>
                </g>
            </g>
        </g>
    </g>
</svg>