<?xml version="1.0" encoding="UTF-8"?>
<svg width="40px" height="43px" viewBox="0 0 40 43" version="1.1" xmlns="http://www.w3.org/2000/svg" xmlns:xlink="http://www.w3.org/1999/xlink">
    <title>changanxiaoxizhiding</title>
    <desc>Created with Sketch.</desc>
    <defs>
        <path d="M18.4388552,8.65087382 C19.3010516,7.78304206 20.6989484,7.78304206 21.5611448,8.65087382 L21.5611448,8.65087382 L34.8078981,21.9842072 C35.6700946,22.8520389 35.6700946,24.2590722 34.8078981,25.126904 C33.9457016,25.9947357 32.5478049,25.9947357 31.6856084,25.126904 L31.6856084,25.126904 L22.2074545,15.586 L22.2077922,40.4747475 C22.2077922,41.4705336 21.3071479,42.2863479 20.1647701,42.3584554 L20,42.3636364 C18.78067,42.3636364 17.7922078,41.517952 17.7922078,40.4747475 L17.7922078,40.4747475 L17.7914545,15.586 L8.31439159,25.126904 C7.49325208,25.9534104 6.18621668,25.9927678 5.31880137,25.2449763 L5.19210191,25.126904 C4.32990542,24.2590722 4.32990542,22.8520389 5.19210191,21.9842072 L5.19210191,21.9842072 Z" id="path-1"></path>
        <path d="M2.46767348,4.93534695 L37.0151022,4.93534695 C38.3779606,4.93534695 39.4827756,3.83053191 39.4827756,2.46767348 C39.4827756,1.10481505 38.3779606,-2.04725126e-13 37.0151022,-2.04725126e-13 L2.46767348,-2.04725126e-13 C1.10481505,-2.04725126e-13 1.81188398e-13,1.10481505 1.81188398e-13,2.46767348 C1.81188398e-13,3.83053191 1.10481505,4.93534695 2.46767348,4.93534695 Z" id="path-3"></path>
    </defs>
    <g id="页面-1" stroke="none" stroke-width="1" fill="none" fill-rule="evenodd">
        <g id="all-icon" transform="translate(-2394.000000, -519.000000)">
            <g id="置顶" transform="translate(2389.000000, 515.000000)">
                <g>
                    <rect id="矩形备份-14" x="0" y="0" width="50" height="50"></rect>
                    <g id="编组-9" transform="translate(5.000000, 4.000000)">
                        <mask id="mask-2" fill="white">
                            <use xlink:href="#path-1"></use>
                        </mask>
                        <use id="Combined-Shape" fill="#000000" fill-rule="nonzero" xlink:href="#path-1"></use>
                        <mask id="mask-4" fill="white">
                            <use xlink:href="#path-3"></use>
                        </mask>
                        <use id="Shape" fill="#000000" fill-rule="nonzero" xlink:href="#path-3"></use>
                    </g>
                </g>
            </g>
        </g>
    </g>
</svg>