<?xml version="1.0" encoding="UTF-8"?>
<svg width="44px" height="44px" viewBox="0 0 44 44" version="1.1" xmlns="http://www.w3.org/2000/svg" xmlns:xlink="http://www.w3.org/1999/xlink">
    <title>changangengduo</title>
    <desc>Created with Sketch.</desc>
    <g id="页面-1" stroke="none" stroke-width="1" fill="none" fill-rule="evenodd">
        <g id="对话界面-消息-icon" transform="translate(-1716.000000, -179.000000)">
            <g id="更多" transform="translate(1713.000000, 176.000000)">
                <g id="删除">
                    <g fill-rule="nonzero">
                        <rect id="矩形" fill="#000000" opacity="0" x="0" y="0" width="50" height="50"></rect>
                        <path d="M25,5 C13.9736146,5 5,13.9739244 5,25 C5,36.0256805 13.9743195,45 25,45 C36.0256805,45 45,36.0256805 45,25 C45,13.9743195 36.0256805,5 25,5 Z" id="路径" stroke="#1A1919" stroke-width="4"></path>
                        <path d="M14.5303463,23 C15.927818,23 17.0606926,24.1192881 17.0606926,25.5 C17.0606926,26.8807119 15.927818,28 14.5303463,28 C13.1328746,28 12,26.8807119 12,25.5 C12,24.1192881 13.1328746,23 14.5303463,23 L14.5303463,23 Z M25.5,23 C26.8974717,23 28.0303463,24.1192881 28.0303463,25.5 C28.0303463,26.8807119 26.8974717,28 25.5,28 C24.1025283,28 22.9696537,26.8807119 22.9696537,25.5 C22.9696537,24.1192881 24.1025283,23 25.5,23 Z M36.4696537,23 C37.8671254,23 39,24.1192881 39,25.5 C39,26.8807119 37.8671254,28 36.4696537,28 C35.072182,28 33.9393074,26.8807119 33.9393074,25.5 C33.9393074,24.1192881 35.072182,23 36.4696537,23 L36.4696537,23 Z" id="形状" fill="#000000"></path>
                    </g>
                </g>
            </g>
        </g>
    </g>
</svg>