<?xml version="1.0" encoding="UTF-8"?>
<svg width="46px" height="44px" viewBox="0 0 46 44" version="1.1" xmlns="http://www.w3.org/2000/svg" xmlns:xlink="http://www.w3.org/1999/xlink">
    <title>changanshouchang</title>
    <desc>Created with Sketch.</desc>
    <defs>
        <path d="M20.4144781,19.1217717 C20.1101979,19.7388944 19.5223233,20.1668324 18.8421046,20.2663669 L8.58466669,21.7673096 L16.0052403,29.0029725 C16.4983821,29.4838258 16.7234726,30.176891 16.607103,30.8561384 L14.8562907,41.0755971 L24.02688,36.247522 C24.6360748,35.9267969 25.3639252,35.9267969 25.97312,36.247522 L35.1437093,41.0755971 L33.392897,30.8561384 C33.2765274,30.176891 33.5016179,29.4838258 33.9947597,29.0029725 L41.4153333,21.7673096 L31.1578954,20.2663669 C30.4776767,20.1668324 29.8898021,19.7388944 29.5855219,19.1217717 L25,9.82169541 L20.4144781,19.1217717 Z M17.1509574,16.2833017 L23.1252519,4.16660116 C23.8921955,2.61113295 26.1078045,2.61113295 26.8747481,4.16660116 L32.8490426,16.2833017 L46.2093969,18.2382856 C47.9235944,18.4891194 48.6068012,20.5985547 47.3657739,21.8086573 L37.7000163,31.2335572 L39.981154,44.5485157 C40.2741001,46.2584367 38.4812208,47.5623129 36.9474198,46.7548068 L25,40.4648032 L13.0525802,46.7548068 C11.5187792,47.5623129 9.72589992,46.2584367 10.018846,44.5485157 L12.2999837,31.2335572 L2.6342261,21.8086573 C1.39319878,20.5985547 2.07640565,18.4891194 3.7906031,18.2382856 L17.1509574,16.2833017 Z" id="path-1"></path>
    </defs>
    <g id="页面-1" stroke="none" stroke-width="1" fill="none" fill-rule="evenodd">
        <g id="all-icon" transform="translate(-2225.000000, -518.000000)">
            <g id="收藏" transform="translate(2223.000000, 515.000000)">
                <g>
                    <rect id="矩形" fill="#000000" fill-rule="nonzero" opacity="0" x="0" y="0" width="50" height="50"></rect>
                    <mask id="mask-2" fill="white">
                        <use xlink:href="#path-1"></use>
                    </mask>
                    <use id="Shape" fill="#000000" fill-rule="nonzero" xlink:href="#path-1"></use>
                </g>
            </g>
        </g>
    </g>
</svg>