<?xml version="1.0" encoding="UTF-8"?>
<svg width="18px" height="15px" viewBox="0 0 18 15" version="1.1" xmlns="http://www.w3.org/2000/svg" xmlns:xlink="http://www.w3.org/1999/xlink">
    <title>changangmore</title>
    <desc>Created with Sketch.</desc>
    <g id="组件" stroke="none" stroke-width="1" fill="none" fill-rule="evenodd">
        <g id="整套表情(排序)" transform="translate(-326.000000, -18.000000)" fill-rule="nonzero">
            <g id="更多" transform="translate(326.000000, 18.000000)">
                <rect id="矩形" fill="#000000" opacity="0" x="0" y="0" width="15" height="15"></rect>
                <path d="M0.562412804,1.07142857 L17.4375872,1.07142857 C17.7482143,1.07137965 18,0.831546524 18,0.535714285 C18,0.239882045 17.7482143,4.89186577e-05 17.4375872,0 L0.562412804,0 C0.251785747,4.89186577e-05 9.82094406e-11,0.239882045 9.82094406e-11,0.535714285 C9.82094406e-11,0.831546524 0.251785747,1.07137965 0.562412804,1.07142857 Z M17.4375872,6.9 L0.562412804,6.9 C0.251785747,6.90004892 1.96425987e-10,7.13988205 1.96425987e-10,7.43571428 C1.96425987e-10,7.73154652 0.251785747,7.97137965 0.562412804,7.97142857 L17.4375872,7.97142857 C17.7482143,7.97137965 18,7.73154652 18,7.43571428 C18,7.13988205 17.7482143,6.90004892 17.4375872,6.9 L17.4375872,6.9 Z M17.4375872,13.9285714 L0.562412804,13.9285714 C0.251785747,13.9286203 0,14.1684535 0,14.4642857 C0,14.760118 0.251785747,14.9999511 0.562412804,15 L17.4375872,15 C17.7482143,14.9999511 18,14.760118 18,14.4642857 C18,14.1684535 17.7482143,13.9286203 17.4375872,13.9285714 L17.4375872,13.9285714 Z" id="形状" fill="#BDBFC2"></path>
            </g>
        </g>
    </g>
</svg>