<?xml version="1.0" encoding="UTF-8"?>
<svg width="100px" height="100px" viewBox="0 0 100 100" version="1.1" xmlns="http://www.w3.org/2000/svg" xmlns:xlink="http://www.w3.org/1999/xlink">
    <title>jingyin</title>
    <desc>Created with Sketch.</desc>
    <defs>
        <path d="M60.7564228,65.7532351 L25.8918818,65.7532351 C24.2947396,65.7532351 23,64.4584955 23,62.8613533 L23,62.050705 C23,60.4535627 24.2947396,59.1588232 25.8918818,59.1588232 L26.6923547,59.1588232 L26.6923547,43.4982654 C26.6923547,40.0708441 27.4716382,36.8243655 28.8636708,33.9243864 L60.7564228,65.7532351 Z M40.0229476,23.1378567 C42.7924004,21.9183797 45.8571809,21.2409548 49.0811169,21.2409548 L50.2793635,21.2409548 C62.6443355,21.2409548 72.6681258,31.2058922 72.6681258,43.4982654 L72.6681258,55.7176238 L40.0229476,23.1378567 Z M33.4089834,58.9536069 L33.4089834,59.0760419 L33.4894208,59.0760419 C33.4622951,59.0354553 33.4354815,58.9946426 33.4089834,58.9536069 Z M40.9853405,69.050441 L58.8515728,69.050441 C58.8515728,73.993146 54.8520805,78 49.9184567,78 C44.9848328,78 40.9853405,73.993146 40.9853405,69.050441 Z M26.1583335,20.3004383 C27.9056333,18.5633974 30.7277007,18.5633974 32.4750005,20.3004383 L76.6916695,64.257497 C78.4257276,65.9813738 78.4339811,68.784584 76.7101043,70.518642 C76.7039775,70.524805 76.6978325,70.53095 76.6916695,70.5370768 C74.9443698,72.2741176 72.1223023,72.2741176 70.3750025,70.5370768 L26.1583335,26.5800181 C24.4242754,24.8561412 24.4160219,22.0529311 26.1398988,20.318873 C26.1460256,20.31271 26.1521705,20.3065651 26.1583335,20.3004383 Z" id="path-1"></path>
    </defs>
    <g id="icon" stroke="none" stroke-width="1" fill="none" fill-rule="evenodd">
        <g id="图标/原型/静音">
            <g id="静音">
                <circle id="椭圆形" fill="#F2F2F2" cx="50" cy="50" r="50"></circle>
                <mask id="mask-2" fill="white">
                    <use xlink:href="#path-1"></use>
                </mask>
                <use id="Combined-Shape" fill="#34363A" xlink:href="#path-1"></use>
            </g>
        </g>
    </g>
</svg>