<?xml version="1.0" encoding="UTF-8"?>
<svg width="45px" height="50px" viewBox="0 0 45 50" version="1.1" xmlns="http://www.w3.org/2000/svg" xmlns:xlink="http://www.w3.org/1999/xlink">
    <title>centertongzhiyushengyin</title>
    <desc>Created with Sketch.</desc>
    <g id="页面-1" stroke="none" stroke-width="1" fill="none" fill-rule="evenodd">
        <g id="all-icon" transform="translate(-947.000000, -171.000000)">
            <g id="通知与声音" transform="translate(944.000000, 171.000000)">
                <g id="编组-10">
                    <g fill-rule="nonzero">
                        <rect id="矩形" opacity="0" x="0" y="0" width="50" height="50"></rect>
                        <path d="M45.6550986,38.3823 C43.3483598,38.3823 40.7787659,34.5114 40.7787658,28.955025 L40.7787658,19.931175 C40.7787658,12.070575 35.3497966,5.57864997 27.7933232,4.65794998 L27.7933232,2.31286281 C27.7933232,1.28768424 26.9229158,0 25.2512369,0 C23.5795579,0 22.6026572,1.28768424 22.6026572,2.31286281 L22.6026572,4.65794998 C15.0412706,5.57864997 10.2163193,12.070575 10.2163193,19.931175 L10.2163193,28.955025 C10.2163193,34.508925 7.64672535,38.3822999 5.34244312,38.3823 C4.32488988,38.3823 3.5,39.2133714 3.5,40.23855 C3.5,41.2637286 4.32488988,42.0948 5.34244312,42.0948 L15.5752695,42.0948 C16.1711364,46.3336741 21.0019225,49.4881703 25.2512369,49.5 C29.555184,49.5 33.9145623,46.175325 34.5090574,42 L45.6600118,42.0948 C46.677565,42.0934331 47.5013551,41.2612536 47.5,40.236075 C47.4986416,39.2108965 46.6726519,38.3809331 45.6550986,38.3823 Z M13.9772717,28.6176084 L13.9772717,19.6318988 C13.9772717,13.2159987 18.6115678,8 25.1128698,8 C31.6141719,8 36.9900456,13.2184626 36.9900456,19.6318988 L36.9900456,28.6151445 C36.9900456,32.338042 37.8381627,35.6396189 39.4466293,38 L11.5875693,38 C13.1935382,35.6396189 13.9772717,32.338042 13.9772717,28.6176084 Z M20.5,42 L30,42 C29.442706,44.0534415 27.4905065,45.4919043 25.25,45.5 C23.0091926,45.4927286 21.0565231,44.0539196 20.5,42 Z" id="形状" fill="#000000"></path>
                    </g>
                </g>
            </g>
        </g>
    </g>
</svg>