<?xml version="1.0" encoding="UTF-8"?>
<svg width="44px" height="44px" viewBox="0 0 44 44" version="1.1" xmlns="http://www.w3.org/2000/svg" xmlns:xlink="http://www.w3.org/1999/xlink">
    <title>nicheng</title>
    <desc>Created with Sketch.</desc>
    <g id="页面-1" stroke="none" stroke-width="1" fill="none" fill-rule="evenodd">
        <g id="好友主页icon" transform="translate(-2486.000000, -179.000000)" fill="#000000">
            <g id="昵称" transform="translate(2483.000000, 176.000000)">
                <g id="举报">
                    <g fill-rule="nonzero">
                        <rect id="矩形" opacity="0" x="0" y="0" width="50" height="50"></rect>
                        <path d="M42.875,3 C45.1531746,3 47,4.84682541 47,7.125 L47,42.875 C47,45.1531746 45.1531746,47 42.875,47 L7.125,47 C4.84682541,47 3,45.1531746 3,42.875 L3,7.125 C3,4.84682541 4.84682541,3 7.125,3 L42.875,3 Z M42.875,7.125 L7.125,7.125 L7.125,42.875 L42.875,42.875 L42.875,7.125 L42.875,7.125 Z M38.0625,36 L11.9375,36 C10.7984127,36 9.87499996,35.0765873 9.87499996,33.9375 C9.87499996,32.7984127 10.7984127,31.875 11.9375,31.875 L38.0625,31.875 C39.2015873,31.875 40.125,32.7984127 40.125,33.9375 C40.125,35.0765873 39.2015873,36 38.0625,36 Z M22.25,12.625 C23.344018,12.625 24.3932279,13.059597 25.1668155,13.8331845 C25.940403,14.6067721 26.375,15.655982 26.375,16.75 L26.375,23.625 C26.375,25.9031746 24.5281746,27.75 22.25,27.75 L14,27.75 C11.7218254,27.75 9.87499996,25.9031746 9.87499996,23.625 L9.87499996,16.75 C9.87499996,14.4718254 11.7218254,12.625 14,12.625 L22.25,12.625 L22.25,12.625 Z M40.125,25.6875 C40.125,26.8265873 39.2015873,27.75 38.0625,27.75 L31.1875,27.75 C30.0484127,27.75 29.125,26.8265873 29.125,25.6875 C29.125,24.5484127 30.0484127,23.625 31.1875,23.625 L38.0625,23.625 C39.2015873,23.625 40.125,24.5484127 40.125,25.6875 Z M22.25,16.75 L14,16.75 L14,23.625 L22.25,23.625 L22.25,16.75 Z" id="形状"></path>
                    </g>
                </g>
            </g>
        </g>
    </g>
</svg>