<?xml version="1.0" encoding="UTF-8"?>
<svg width="46px" height="46px" viewBox="0 0 46 46" version="1.1" xmlns="http://www.w3.org/2000/svg" xmlns:xlink="http://www.w3.org/1999/xlink">
    <title>xiaoxizhidingxiaoxi</title>
    <desc>Created with Sketch.</desc>
    <defs>
        <path d="M24.2373093,11.5303416 C24.9346741,10.8232195 26.0653259,10.8232195 26.7626907,11.5303416 L26.7626907,11.5303416 L37.4769764,22.3945392 C38.1743412,23.1016613 38.1743412,24.2481329 37.4769764,24.9552551 C36.7796116,25.6623773 35.6489598,25.6623773 34.951595,24.9552551 L34.951595,24.9552551 L27.285,17.181 L27.2857143,37.4609053 C27.2857143,38.266186 26.5681651,38.9270198 25.6540783,38.9943506 L25.5,39 C24.5137772,39 23.7142857,38.3109239 23.7142857,37.4609053 L23.7142857,37.4609053 L23.714,17.182 L16.048405,24.9552551 C15.3897826,25.6230927 14.3446791,25.6601948 13.6431144,25.0665613 L13.5230236,24.9552551 C12.8256588,24.2481329 12.8256588,23.1016613 13.5230236,22.3945392 L13.5230236,22.3945392 Z" id="path-1"></path>
    </defs>
    <g id="页面-1" stroke="none" stroke-width="1" fill="none" fill-rule="evenodd">
        <g id="all-icon" transform="translate(-1418.000000, -351.000000)">
            <g id="消息/置顶消息" transform="translate(1416.000000, 349.000000)">
                <g id="置顶消息">
                    <rect id="矩形" fill="#000000" fill-rule="nonzero" opacity="0" x="0" y="0" width="50" height="50"></rect>
                    <path d="M25,4.09090909 C13.4731149,4.09090909 4.09090909,13.4731149 4.09090909,25 C4.09090909,36.5268851 13.4731149,45.9090909 25,45.9090909 C36.5268851,45.9090909 45.9090909,36.5268851 45.9090909,25 C45.9090909,13.4731149 36.5268851,4.09090909 25,4.09090909 Z" id="Path" stroke="#1A1919" stroke-width="4.18181818"></path>
                    <mask id="mask-2" fill="white">
                        <use xlink:href="#path-1"></use>
                    </mask>
                    <use id="Combined-Shape" fill="#000000" fill-rule="nonzero" xlink:href="#path-1"></use>
                </g>
            </g>
        </g>
    </g>
</svg>