<?xml version="1.0" encoding="UTF-8"?>
<svg width="50px" height="50px" viewBox="0 0 50 50" version="1.1" xmlns="http://www.w3.org/2000/svg" xmlns:xlink="http://www.w3.org/1999/xlink">
    <title>gernziliaox</title>
    <desc>Created with Sketch.</desc>
    <defs>
        <path d="M33.4303351,28.1459391 C39.4694276,28.1459391 44.3650794,33.6156282 44.3650794,40.3628317 L44.3650794,40.3628317 L44.3650794,45.2495887 C44.3650794,46.5990294 43.3288081,47.6929672 42.1209896,47.6929672 C40.9131711,47.6929672 39.8709896,46.5990294 39.8709896,45.2495887 L39.8709896,45.2495887 L39.8709896,40.3628317 C39.8709896,36.3145096 36.2801992,32.1139462 32.6567437,32.1139462 L32.6567437,32.1139462 L16.5988209,32.1139462 C12.9753654,32.1139462 9.65642411,36.3145096 9.65642411,40.3628317 L9.65642411,40.3628317 L9.65642411,45.2495887 C9.65642411,46.5990294 8.63944481,47.6929672 7.43162631,47.6929672 C6.22380781,47.6929672 5,46.5990294 5,45.2495887 L5,45.2495887 L5,40.3628317 C5,33.6156282 9.89565177,28.1459391 15.9347443,28.1459391 L15.9347443,28.1459391 Z M24.4507241,2 C31.1979276,2 36.6676167,7.46968913 36.6676167,14.2168926 C36.6676167,20.9640961 31.1979276,26.4337852 24.4507241,26.4337852 C17.7035207,26.4337852 12.2338315,20.9640961 12.2338315,14.2168926 C12.2338315,7.46968913 17.7035207,2 24.4507241,2 Z M24.5,6.5 C20.081722,6.5 16.5,10.081722 16.5,14.5 C16.5,18.918278 20.081722,22.5 24.5,22.5 C28.918278,22.5 32.5,18.918278 32.5,14.5 C32.5,10.081722 28.918278,6.5 24.5,6.5 Z" id="path-1"></path>
    </defs>
    <g id="个人资料" stroke="none" stroke-width="1" fill="none" fill-rule="evenodd">
        <g>
            <rect id="矩形" x="0" y="0" width="50" height="50"></rect>
            <mask id="mask-2" fill="white">
                <use xlink:href="#path-1"></use>
            </mask>
            <use id="Combined-Shape" fill="#333333" fill-rule="nonzero" xlink:href="#path-1"></use>
        </g>
    </g>
</svg>