<?xml version="1.0" encoding="UTF-8"?>
<svg width="42px" height="36px" viewBox="0 0 42 36" version="1.1" xmlns="http://www.w3.org/2000/svg" xmlns:xlink="http://www.w3.org/1999/xlink">
    <!-- Generator: Sketch 61.2 (89653) - https://sketch.com -->
    <title>始终允许</title>
    <desc>Created with Sketch.</desc>
    <g id="icon" stroke="none" stroke-width="1" fill="none" fill-rule="evenodd">
        <g id="基础icon" transform="translate(-1311.000000, -179.000000)">
            <g id="始终允许" transform="translate(1307.000000, 172.000000)">
                <g id="断网">
                    <g>
                        <rect id="矩形备份-9" x="0" y="0" width="50" height="50"></rect>
                        <path d="M37.6512049,8.92857143 C37.6512049,9.99369201 36.787754,10.8571429 35.7226335,10.8571429 L7.88283134,10.8571429 L7.88283134,10.8571429 L7.88283134,39.1428571 L38.945482,39.1428571 L38.945482,26.9401301 C38.945482,25.8682707 39.8143957,24.999357 40.8862551,24.999357 C40.8864693,24.999357 40.8866835,24.9993571 40.8868977,24.9993572 C41.9592159,24.9997122 42.8283134,25.8690975 42.8283134,26.9414158 L42.8283134,39.1428571 L42.8283134,39.1428571 C42.8283134,41.2730983 41.0899106,43 38.945482,43 L7.88283134,43 C5.7384028,43 4,41.2730983 4,39.1428571 L4,10.8571429 C4,8.72690168 5.7384028,7 7.88283134,7 L35.7226335,7 C36.787754,7 37.6512049,7.86345084 37.6512049,8.92857143 Z M45.4168676,10.8571429 C46.1775435,11.5979697 46.1936344,12.8151782 45.4528075,13.5758542 C45.4499453,13.5787931 45.4470737,13.5817229 45.4441927,13.5846434 L29.1886876,30.063312 C28.3560967,30.9073331 26.9969341,30.9165991 26.152913,30.0840082 C26.1438906,30.0751079 26.1349471,30.0661279 26.1260837,30.0570693 L19.4923346,23.2771853 C18.7497991,22.5182926 18.7630593,21.3011445 19.5219521,20.558609 C19.5250662,20.5555621 19.5281906,20.5525257 19.5313253,20.5495 C20.3019706,19.8056532 21.5285041,19.8232313 22.2775163,20.5888571 L27.665857,26.0967143 L27.665857,26.0967143 L42.6718539,10.8846462 C43.4237246,10.1224503 44.6498758,10.1101651 45.4168676,10.8571429 Z" id="形状" fill="#000000" fill-rule="nonzero"></path>
                    </g>
                </g>
            </g>
        </g>
    </g>
</svg>