<?xml version="1.0" encoding="UTF-8"?>
<svg width="44px" height="44px" viewBox="0 0 44 44" version="1.1" xmlns="http://www.w3.org/2000/svg" xmlns:xlink="http://www.w3.org/1999/xlink">
    <title>dianhuahaoma</title>
    <desc>Created with Sketch.</desc>
    <g id="页面-1" stroke="none" stroke-width="1" fill="none" fill-rule="evenodd">
        <g id="好友主页icon" transform="translate(-1554.000000, -179.000000)" fill="#000000">
            <g id="电话号码" transform="translate(1551.000000, 176.000000)">
                <g>
                    <rect id="矩形" fill-rule="nonzero" opacity="0" x="0" y="0" width="50" height="50"></rect>
                    <path d="M42.2856712,3 L10.8571644,3 C8.25350409,3 6.14288588,5.11066845 6.14288583,7.71427853 L6.14288583,15.5713927 L4.57144294,15.5713927 C3.70360641,15.5713927 3,16.2748985 3,17.1428356 C3,18.0107727 3.70360641,18.7142785 4.57144294,18.7142785 L6.14288583,18.7142785 L6.14288583,31.2857215 L4.57144294,31.2857215 C3.70360641,31.2857215 3,31.9892273 3,32.8571644 C3,33.7251015 3.70360641,34.4286073 4.57144294,34.4286073 L6.14288583,34.4286073 L6.14288583,42.2857215 C6.14288583,44.8893818 8.25355428,47 10.8571644,47 L42.2857215,47 C44.8893818,47 47,44.8893315 47,42.2857215 L47,7.71427853 C47,5.11066845 44.8893315,3 42.2856712,3 Z M42.8095238,41.2316175 C42.8095238,42.0995547 42.1485133,42.8030607 41.3332733,42.8030607 L11.8095367,42.8030607 C10.9942967,42.8030607 10.3333333,42.0995547 10.3333333,41.2316175 L10.3333333,34.5016737 L13.2856928,34.5016737 C14.1009329,34.5016737 14.7618962,33.7981677 14.7618962,32.9302305 C14.7618962,32.0623435 14.1009329,31.3587872 13.2856928,31.3587872 L10.3333333,31.3587872 L10.3333333,18.7873922 L13.2856928,18.7873922 C14.1009329,18.7873922 14.7618962,18.0838861 14.7618962,17.2159489 C14.7618962,16.3480117 14.1009329,15.6445057 13.2856928,15.6445057 L10.3333333,15.6445057 L10.3333333,8.82954038 C10.3333333,7.96165345 10.9942967,7.25809714 11.8095367,7.25809714 L41.3333204,7.25809714 C42.1485605,7.25809714 42.8095238,7.96160316 42.8095238,8.82954038 L42.8095238,42.3587893 L42.8095238,41.2316175 Z M33.8465512,28.0462051 C33.7019196,27.9894134 33.5599514,27.9613366 33.4241646,27.9613365 C32.9666502,27.9613365 32.5567267,28.252609 32.0721755,28.8454129 C32.0004125,28.9335702 31.9376953,29.014512 31.8151253,29.1761992 C31.1128729,30.1022435 30.7485802,30.3697096 30.0231104,30.1457331 C29.0586316,29.8496993 28.1850124,29.2913534 26.9132291,28.028878 C25.691097,26.8154389 25.2953954,26.276089 24.9527622,25.5348019 C24.9239169,25.470906 24.8939949,25.4074791 24.8630082,25.344547 C24.4920316,24.5918231 24.7964213,24.1193765 25.8694995,23.228919 C25.9265161,23.1816256 25.983354,23.134127 26.040012,23.0864242 C26.0672676,23.0635413 26.0943719,23.040487 26.1213233,23.017263 C26.8786542,22.3676674 27.1615854,21.5931986 26.9139327,21.1182487 C26.2820865,19.9066748 24.3396608,17.1274127 23.6743956,16.5336271 C23.2481394,16.1526266 22.5944326,16.2257638 21.6968924,16.8767829 C21.428535,17.0716518 21.0726849,17.4084264 20.7283431,17.8796458 C20.1860499,18.6219637 19.8394466,19.4896455 19.7768801,20.4842131 C19.578175,23.644083 21.3703908,27.6122906 24.3496111,30.5550069 C27.1562083,33.3260226 30.307901,34.7209302 33.7344843,34.7209302 C33.9838456,34.7209302 34.2347649,34.7131748 34.4875939,34.6978601 C35.5433846,34.6331165 36.4610767,34.2394519 37.2410723,33.6231362 C37.5188273,33.4035283 37.759746,33.1702747 37.9621197,32.9382973 C38.0852927,32.797226 38.1729361,32.6814336 38.2237934,32.605155 C38.3454085,32.4391483 38.4827533,32.1948505 38.5612001,31.9370051 C38.6655278,31.5934567 38.6310032,31.3428759 38.4391829,31.164058 C37.7125573,30.4884962 34.5178972,28.3114133 33.8465512,28.0462051 L33.8465512,28.0462051 Z" id="形状" fill-rule="nonzero"></path>
                </g>
            </g>
        </g>
    </g>
</svg>