<?xml version="1.0" encoding="UTF-8"?>
<svg width="50px" height="50px" viewBox="0 0 50 50" version="1.1" xmlns="http://www.w3.org/2000/svg" xmlns:xlink="http://www.w3.org/1999/xlink">
    <title>yinsiyuanquanx</title>
    <desc>Created with Sketch.</desc>
    <g id="隐私安全" stroke="none" stroke-width="1" fill="none" fill-rule="evenodd">
        <g>
            <rect id="矩形备份-10" x="0" y="0" width="50" height="50"></rect>
            <path d="M22.2937654,35.8385301 L22.2937654,38.9109131 C22.2937654,40.3435412 23.504758,41.5 25.0009024,41.5 C26.495242,41.5 27.7080394,40.3435412 27.7080394,38.9109131 L27.7080394,35.8212695 C29.366612,34.9064588 30.5,33.214922 30.5,31.2644766 C30.5,28.3646993 28.0328958,26 25.0009024,26 C21.9671042,26 19.5,28.3646993 19.5,31.2644766 C19.5,33.1804009 20.5828548,34.9064588 22.2937654,35.8385301 M42,41.6030285 C42,41.9750891 41.8991651,45.2926292 38.4011538,45.4166494 C33.1805461,45.5923447 12.4265596,45.4373194 12.1684703,45.4269844 C11.8479593,45.4269844 9.0365858,45.2926292 8.5,40.9622576 L8.5,23 L42,23 L42,41.6030285 Z M25,4.5 C34.429211,4.5 34.9697818,10.9862621 35,11.7649577 L35,19.5 L15.0011192,19.5 L15,12.1906445 C15.0100727,11.8376359 15.3346391,4.5 25,4.5 Z M43.6862152,19.5910574 L39.3778718,19.5910574 L39.3766626,11.5241514 C39.2629988,7.53916449 36.0997582,0 24.9461911,0 C13.7914148,0 10.6293833,7.79765013 10.5157195,11.9657311 L10.5157195,19.5910574 L6.31378476,19.5910574 C5.31257557,19.5910574 4.5,20.3126632 4.5,21.2065927 L4.5,41.6269582 C4.5,41.6808094 4.50362757,41.7346606 4.50967352,41.7885117 C5.20979444,48.0029373 9.67775091,49.5430809 11.837364,49.4246084 C12.3875453,49.4353786 20.8204353,49.5 28.2617896,49.5 C32.5169287,49.5 36.449214,49.4784595 38.3948005,49.4138381 C44.0139057,49.2092037 45.5,44.6103133 45.5,42.2085509 L45.5,21.2065927 C45.5,20.3126632 44.6874244,19.5910574 43.6862152,19.5910574 L43.6862152,19.5910574 Z" id="3F" fill="#333333"></path>
        </g>
    </g>
</svg>