<?xml version="1.0" encoding="UTF-8"?>
<svg width="204px" height="204px" viewBox="0 0 204 204" version="1.1" xmlns="http://www.w3.org/2000/svg" xmlns:xlink="http://www.w3.org/1999/xlink">
    <title>saomakuang</title>
    <desc>Created with Sketch.</desc>
    <g id="icon" stroke="none" stroke-width="1" fill="none" fill-rule="evenodd">
        <g id="扫一扫icon" transform="translate(-646.000000, -85.000000)">
            <g id="扫码框" transform="translate(646.000000, 85.000000)">
                <rect id="矩形" stroke="#333333" x="2.5" y="2.5" width="199" height="199"></rect>
                <path d="M28,0 L28,5 L5,5 L5,24 L0,24 L0,0 L28,0 Z" id="形状结合" fill="#333333"></path>
                <path d="M28,180 L28,185 L5,185 L5,204 L0,204 L0,180 L28,180 Z" id="形状结合备份-2" fill="#333333" transform="translate(14.000000, 192.000000) scale(1, -1) translate(-14.000000, -192.000000) "></path>
                <path d="M204,0 L204,5 L181,5 L181,24 L176,24 L176,0 L204,0 Z" id="形状结合备份" fill="#333333" transform="translate(190.000000, 12.000000) scale(-1, 1) translate(-190.000000, -12.000000) "></path>
                <path d="M204,180 L204,185 L181,185 L181,204 L176,204 L176,180 L204,180 Z" id="形状结合备份-3" fill="#333333" transform="translate(190.000000, 192.000000) scale(-1, -1) translate(-190.000000, -192.000000) "></path>
            </g>
        </g>
    </g>
</svg>