<?xml version="1.0" encoding="UTF-8"?>
<svg width="20px" height="19px" viewBox="0 0 20 19" version="1.1" xmlns="http://www.w3.org/2000/svg" xmlns:xlink="http://www.w3.org/1999/xlink">
    <title>erqiweima</title>
    <desc>Created with Sketch.</desc>
    <g id="IM-设置" stroke="none" stroke-width="1" fill="none" fill-rule="evenodd" fill-opacity="0.800000012">
        <g id="设置-个人资料" transform="translate(-303.000000, -380.000000)" fill="#333333" fill-rule="nonzero">
            <g id="编组-2" transform="translate(180.000000, 378.000000)">
                <g id="二维码" transform="translate(121.000000, 0.000000)">
                    <rect id="矩形" opacity="0" x="0" y="0" width="24" height="24"></rect>
                    <path d="M17.409375,2.84765625 C17.3554687,2.8546875 17.2992187,2.85 17.2453125,2.85 C16.3546875,2.85 15.4640625,2.84765625 14.5734375,2.85234375 C14.315625,2.85234375 14.0601562,2.88515625 13.8140625,2.971875 C13.378125,3.12421875 13.115625,3.42890625 13.0078125,3.871875 C12.9679687,4.0359375 12.9515625,4.20234375 12.9515625,4.37109375 C12.9515625,5.94609375 12.9492187,7.51875 12.9539062,9.09375 C12.9539062,9.4171875 12.975,9.740625 13.0992187,10.05 C13.2609375,10.4507813 13.5609375,10.6875 13.9734375,10.7929688 C14.1210937,10.8304688 14.2734375,10.8445312 14.4257812,10.8445312 L19.5351562,10.8445312 C19.7296875,10.8445312 19.9242187,10.828125 20.1164062,10.790625 C20.6882812,10.6851562 21.0632812,10.3054687 21.16875,9.7359375 C21.178125,9.684375 21.159375,9.6140625 21.2367187,9.590625 L21.2367187,4.153125 C21.2273437,4.14375 21.225,4.13203125 21.225,4.11796875 C21.1898437,4.00546875 21.1851562,3.88828125 21.1476562,3.7734375 C20.98125,3.28125 20.6390625,2.990625 20.1445312,2.8640625 C19.9945312,2.8265625 19.8445312,2.8078125 19.6875,2.81484375 C19.6570312,2.8171875 19.6171875,2.83828125 19.5960937,2.79375 L17.5101562,2.79375 C17.5007812,2.8546875 17.446875,2.84296875 17.409375,2.84765625 L17.409375,2.84765625 Z M19.7226562,3.8015625 C19.8164062,3.8015625 19.9125,3.82265625 20.0015625,3.85078125 C20.1632812,3.90234375 20.2523438,4.02890625 20.2523438,4.2046875 C20.2523438,5.9578125 20.2546875,7.7109375 20.25,9.4640625 C20.25,9.7265625 20.0484375,9.8859375 19.7554687,9.88828125 C18.8601562,9.8953125 17.9671875,9.890625 17.071875,9.890625 L14.4234375,9.890625 C14.3179687,9.890625 14.221875,9.86015625 14.1257812,9.82734375 C13.9265625,9.7546875 13.9007812,9.58125 13.8984375,9.4078125 C13.89375,8.52890625 13.8960937,7.65 13.8960937,6.77109375 L13.8960937,4.2984375 C13.8960937,4.14609375 13.93125,4.00546875 14.0578125,3.9 C14.165625,3.8109375 14.2992187,3.79921875 14.4234375,3.79921875 C16.190625,3.796875 17.9578125,3.79921875 19.7226562,3.8015625 L19.7226562,3.8015625 Z" id="形状"></path>
                    <path d="M17.390625,2.8125 C16.4648438,2.81484375 15.5390625,2.81484375 14.615625,2.81484375 C14.3953125,2.81484375 14.1796875,2.83828125 13.9664063,2.8875 C13.6945313,2.95078125 13.4484375,3.06796875 13.2632813,3.27890625 C13.0148438,3.5625 12.9164063,3.909375 12.9164063,4.27734375 C12.9117188,5.90859375 12.9117188,7.5421875 12.9164063,9.1734375 C12.9164063,9.38671875 12.9328125,9.60234375 12.9820313,9.8109375 C13.0476563,10.0851562 13.1601563,10.3382812 13.3734375,10.5257812 C13.6476563,10.7671875 13.9804688,10.8773437 14.3460938,10.8773437 C16.0828125,10.8796875 17.821875,10.8796875 19.5585938,10.8773437 C19.7765625,10.8773437 19.996875,10.865625 20.2078125,10.8070312 C20.653125,10.6804687 20.9953125,10.434375 21.1453125,9.96796875 C21.1851563,9.84375 21.1875,9.7125 21.234375,9.590625 C21.159375,9.6140625 21.1757812,9.684375 21.1664063,9.7359375 C21.0609375,10.3078125 20.6859375,10.6851562 20.1140625,10.790625 C19.921875,10.8257812 19.7273438,10.8445312 19.5328125,10.8445312 L14.4234375,10.8445312 C14.2710938,10.8445312 14.11875,10.8304687 13.9710938,10.7929687 C13.5609375,10.6875 13.2585938,10.4507812 13.096875,10.05 C12.9726563,9.74296875 12.9515625,9.4171875 12.9515625,9.09375 C12.946875,7.51875 12.9492188,5.94609375 12.9492188,4.37109375 C12.9492188,4.20234375 12.965625,4.0359375 13.0054688,3.871875 C13.1132813,3.42890625 13.3757813,3.12421875 13.8117188,2.971875 C14.0578125,2.88515625 14.3132813,2.8546875 14.5710938,2.85234375 C15.4617188,2.84765625 16.3523438,2.85 17.2429688,2.85 C17.296875,2.85 17.353125,2.8546875 17.4070313,2.84765625 C17.446875,2.84296875 17.4984375,2.85234375 17.5054688,2.79140625 C17.4773438,2.840625 17.4304688,2.8125 17.390625,2.8125 L17.390625,2.8125 Z M2.8265625,9.61640625 C2.8734375,9.909375 2.95546875,10.1882812 3.16171875,10.4132813 C3.43125,10.7109375 3.7828125,10.8351563 4.16953125,10.8375 C5.9296875,10.8445313 7.68984375,10.8445313 9.45234375,10.8375 C9.67265625,10.8375 9.8953125,10.8140625 10.1109375,10.7460938 C10.6851563,10.565625 11.0273438,10.10625 11.0273438,9.5015625 C11.0273438,7.7671875 11.0273438,6.03515625 11.0296875,4.30078125 C11.0296875,4.15078125 11.0109375,4.00546875 10.9734375,3.86015625 C10.8375,3.33515625 10.3992188,2.94375 9.86015625,2.86875 C9.7640625,2.8546875 9.66796875,2.84296875 9.56953125,2.84296875 C9.52265625,2.84296875 9.4640625,2.85703125 9.44765625,2.78671875 L7.36171875,2.78671875 C7.33125,2.8359375 7.284375,2.8078125 7.246875,2.8078125 C6.28359375,2.81015625 5.3203125,2.803125 4.35703125,2.8125 C4.01015625,2.81484375 3.67265625,2.8734375 3.36796875,3.06328125 C3.075,3.24609375 2.90390625,3.5109375 2.8125,3.83671875 C2.79375,3.9 2.8078125,3.9703125 2.76796875,4.02890625 L2.76796875,9.48984375 C2.8359375,9.5109375 2.81953125,9.571875 2.8265625,9.61640625 L2.8265625,9.61640625 Z M3.75234375,4.20234375 C3.75234375,4.0125 3.89765625,3.86015625 4.0921875,3.8203125 C4.1953125,3.79921875 4.2984375,3.796875 4.4015625,3.796875 L9.534375,3.796875 C9.63515625,3.796875 9.73125,3.815625 9.825,3.84375 C10.0007812,3.9 10.078125,4.00546875 10.078125,4.1859375 L10.078125,9.47109375 C10.078125,9.66328125 9.9890625,9.7828125 9.80625,9.84375 C9.7125,9.87421875 9.61640625,9.89296875 9.515625,9.890625 C8.64375,9.88828125 7.77421875,9.88828125 6.90234375,9.88828125 C6.01875,9.88828125 5.1375,9.890625 4.25390625,9.8859375 C4.10625,9.8859375 3.95859375,9.86484375 3.8484375,9.74296875 C3.78515625,9.67265625 3.75234375,9.5953125 3.75234375,9.50625 C3.75,7.74140625 3.75,5.971875 3.75234375,4.20234375 L3.75234375,4.20234375 Z" id="形状"></path>
                    <path d="M2.7890625,9.55078125 C2.79140625,9.759375 2.85,9.95625 2.9390625,10.1390625 C3.1828125,10.640625 3.61640625,10.865625 4.1484375,10.8703125 C5.89453125,10.884375 7.640625,10.875 9.384375,10.875 C9.60234375,10.875 9.8203125,10.85625 10.0335938,10.8046875 C10.66875,10.6476563 11.0554688,10.1859375 11.0601563,9.5296875 C11.071875,7.8 11.0648438,6.0703125 11.0648438,4.340625 C11.0648438,4.22578125 11.0648438,4.1109375 11.04375,3.99609375 C10.9734375,3.61640625 10.7929688,3.30703125 10.4765625,3.08203125 C10.21875,2.89921875 9.92578125,2.82421875 9.61171875,2.81484375 C9.5578125,2.8125 9.496875,2.84296875 9.45,2.79375 C9.46640625,2.8640625 9.52734375,2.85 9.571875,2.85 C9.6703125,2.85 9.76640625,2.8640625 9.8625,2.87578125 C10.4015625,2.95078125 10.8398438,3.3421875 10.9757813,3.8671875 C11.0132813,4.0125 11.0320313,4.1578125 11.0320313,4.3078125 C11.0296875,6.0421875 11.0320313,7.77421875 11.0296875,9.50859375 C11.0296875,10.1109375 10.6875,10.5703125 10.1132812,10.753125 C9.89765625,10.8210938 9.675,10.8445313 9.4546875,10.8445313 C7.69453125,10.8492188 5.934375,10.8515625 4.171875,10.8445313 C3.78515625,10.8421875 3.4359375,10.7179688 3.1640625,10.4203125 C2.9578125,10.1929688 2.87578125,9.91640625 2.82890625,9.6234375 C2.821875,9.57890625 2.83828125,9.515625 2.76796875,9.5015625 C2.7984375,9.50390625 2.7890625,9.53203125 2.7890625,9.55078125 L2.7890625,9.55078125 Z M4.4953125,20.6882813 C4.54453125,20.68125 4.59609375,20.6859375 4.64765625,20.6859375 L9.47578125,20.6859375 C9.67265625,20.6859375 9.86484375,20.6625 10.0546875,20.6132812 C10.6523438,20.4585937 11.025,19.9828125 11.0273438,19.3664063 C11.0296875,18.7734375 11.0273438,18.178125 11.0273438,17.5851563 L11.0273438,14.1164063 C11.0273438,13.359375 10.5257813,12.7992187 9.77109375,12.7171875 C9.50390625,12.6890625 9.234375,12.6773437 8.96484375,12.6703125 C8.15625,12.6539062 7.34765625,12.6820312 6.54140625,12.7007812 C5.76796875,12.7195312 4.99453125,12.7054687 4.2234375,12.7171875 C3.95390625,12.721875 3.69375,12.7804688 3.45703125,12.9070313 C3.13828125,13.0757813 2.94375,13.340625 2.8546875,13.6898437 C2.83828125,13.7554687 2.85234375,13.8421875 2.76796875,13.8773437 L2.76796875,19.3617188 C2.81484375,19.490625 2.81953125,19.6289062 2.859375,19.7625 C2.99765625,20.2476562 3.3140625,20.5429688 3.7921875,20.6742188 C3.94453125,20.7164062 4.1015625,20.728125 4.25859375,20.7234375 C4.29140625,20.7234375 4.3359375,20.6976563 4.36171875,20.7445313 L4.40859375,20.7445313 C4.41328125,20.690625 4.4578125,20.6929687 4.4953125,20.6882813 L4.4953125,20.6882813 Z M4.228125,19.7367188 C3.9421875,19.7367188 3.74296875,19.5820312 3.7453125,19.25625 C3.7546875,17.5382813 3.75,15.8203125 3.74765625,14.1 C3.74765625,13.8234375 3.91171875,13.6757812 4.1765625,13.6664062 C5.925,13.6101562 7.67109375,13.6546875 9.41953125,13.6476563 C9.56953125,13.6476563 9.73359375,13.6382813 9.87890625,13.7179688 C10.0054688,13.7882813 10.078125,13.8867188 10.078125,14.0390625 C10.0757813,14.9179688 10.078125,15.796875 10.078125,16.6757812 C10.078125,17.5476563 10.0734375,18.4171875 10.0804688,19.2890625 C10.0828125,19.5726563 9.89765625,19.7015625 9.6421875,19.7414063 C9.440625,19.771875 9.24375,19.7414063 9.04453125,19.7390625 C7.4390625,19.734375 5.83359375,19.7367188 4.228125,19.7367188 Z" id="形状"></path>
                    <path d="M4.53515625,20.7234375 C6.12421875,20.7210938 7.715625,20.7210938 9.3046875,20.7234375 C9.525,20.7234375 9.74296875,20.71875 9.9609375,20.6742188 C10.2539062,20.615625 10.51875,20.4914063 10.7226562,20.2734375 C10.95,20.0296875 11.0625,19.725 11.0625,19.3921875 C11.0671875,17.6507813 11.0648437,15.9070313 11.0648437,14.165625 C11.0648437,14.0179688 11.0554688,13.875 11.0179688,13.7320313 C10.89375,13.265625 10.6125,12.9421875 10.1578125,12.7640625 C9.84609375,12.6421875 9.51796875,12.646875 9.196875,12.6398438 C8.65546875,12.628125 8.1140625,12.61875 7.57265625,12.6515625 C7.12734375,12.6796875 6.67734375,12.6585938 6.2296875,12.675 C5.5828125,12.6960938 4.93359375,12.6820313 4.284375,12.6796875 C4.134375,12.6796875 3.98671875,12.69375 3.8390625,12.7265625 C3.4078125,12.825 3.07734375,13.05 2.8875,13.4601563 C2.8265625,13.59375 2.821875,13.7414063 2.765625,13.875 C2.85234375,13.8398438 2.8359375,13.753125 2.85234375,13.6875 C2.94140625,13.3382813 3.13828125,13.0734375 3.4546875,12.9046875 C3.69375,12.778125 3.9515625,12.7195313 4.22109375,12.7148438 C4.99453125,12.703125 5.765625,12.7171875 6.5390625,12.6984375 C7.34765625,12.6796875 8.15390625,12.6515625 8.9625,12.6679688 C9.23203125,12.6726563 9.5015625,12.684375 9.76875,12.7148438 C10.5234375,12.796875 11.0226562,13.3570313 11.025,14.1140625 L11.025,17.5828125 C11.025,18.1757813 11.0273438,18.7710938 11.025,19.3640625 C11.0203125,19.9828125 10.65,20.45625 10.0523437,20.6109375 C9.8625,20.6601563 9.6703125,20.6835938 9.4734375,20.6835938 L4.6453125,20.6835938 C4.59375,20.6835938 4.54453125,20.68125 4.49296875,20.6859375 C4.45546875,20.690625 4.4109375,20.6859375 4.40625,20.7421875 C4.44140625,20.6976563 4.49296875,20.7234375 4.53515625,20.7234375 L4.53515625,20.7234375 Z" id="路径"></path>
                    <path d="M3.365625,3.06796875 C3.6703125,2.88046875 4.0078125,2.81953125 4.3546875,2.8171875 C5.31796875,2.8078125 6.28125,2.81484375 7.24453125,2.8125 C7.28203125,2.8125 7.32890625,2.840625 7.359375,2.79140625 C7.31953125,2.81484375 7.275,2.803125 7.2328125,2.803125 C6.1828125,2.81015625 5.1328125,2.784375 4.0828125,2.8171875 C3.63984375,2.83125 3.26484375,3.00703125 2.99296875,3.3703125 C2.8453125,3.5671875 2.7796875,3.7921875 2.765625,4.03359375 C2.8078125,3.97734375 2.79375,3.90703125 2.81015625,3.84140625 C2.90390625,3.515625 3.07265625,3.25078125 3.365625,3.06796875 Z M19.6875,2.8125 C19.8421875,2.80546875 19.9945313,2.82421875 20.1445313,2.86171875 C20.6367188,2.98828125 20.98125,3.27890625 21.1476563,3.77109375 C21.1851563,3.88359375 21.1898438,4.003125 21.225,4.115625 L21.225,4.10625 C21.234375,3.44765625 20.653125,2.859375 19.9898438,2.81015625 C19.8585938,2.80078125 19.7273437,2.821875 19.5960938,2.7890625 C19.6148438,2.83828125 19.6570313,2.81484375 19.6875,2.8125 L19.6875,2.8125 Z M4.25625,20.7234375 C4.09921875,20.728125 3.9421875,20.7164063 3.78984375,20.6742188 C3.31171875,20.5429688 2.9953125,20.2476562 2.85703125,19.7625 C2.81953125,19.6289062 2.81484375,19.490625 2.765625,19.3617188 C2.79140625,19.4859375 2.784375,19.6148437 2.81484375,19.7390625 C2.94375,20.2734375 3.4125,20.690625 3.95390625,20.7234375 C4.08984375,20.7328125 4.22578125,20.709375 4.359375,20.7421875 C4.33359375,20.6976563 4.2890625,20.7210938 4.25625,20.7234375 Z" id="形状"></path>
                    <path d="M14.259375,15.6375 C13.9710938,15.6421875 13.78125,15.8320313 13.78125,16.10625 L13.78125,20.1328125 C13.78125,20.4210938 13.9804688,20.6039063 14.26875,20.5992188 C14.5710937,20.5945313 14.7609375,20.4375 14.7632813,20.1375 C14.7679688,18.7921875 14.765625,17.4445313 14.7632813,16.0992188 C14.7632813,15.8179688 14.5664062,15.6328125 14.259375,15.6375 L14.259375,15.6375 Z M20.1890625,15.6421875 C19.9570313,15.6 19.6429688,15.7570313 19.6429688,16.06875 C19.6382813,16.753125 19.6429688,17.4351563 19.6429688,18.1195313 L19.6429688,20.1585938 C19.6429688,20.1960938 19.640625,20.2382813 19.6523438,20.2734375 C19.7296875,20.49375 19.9898438,20.653125 20.203125,20.6015625 C20.4703125,20.5382813 20.6226563,20.4328125 20.625,20.1 C20.6296875,18.7992188 20.6273438,17.4984375 20.6273438,16.1976563 C20.625,15.8601563 20.5195313,15.703125 20.1890625,15.6421875 Z M18.0164062,17.0460937 C17.9554687,16.8257812 17.7117187,16.6523438 17.4984375,16.6921875 C17.2078125,16.7484375 17.04375,16.846875 17.0414062,17.1820312 C17.034375,18.1453125 17.0390625,19.1109375 17.0390625,20.0742188 C17.0390625,20.3976562 17.1726562,20.5429688 17.4492187,20.5945313 C17.709375,20.64375 18.0210937,20.4890625 18.0234375,20.146875 L18.0234375,18.6585937 L18.0234375,17.146875 C18.0234375,17.1164062 18.0234375,17.0789062 18.0164062,17.0460937 Z M17.3671875,12.76875 C17.1632812,12.8132813 17.0390625,13.0078125 17.0390625,13.2328125 L17.0390625,15.3046875 C17.0390625,15.6117188 17.1328125,15.796875 17.4632813,15.8601563 C17.7046875,15.9046875 18.0257813,15.7382813 18.0234375,15.4265625 C18.0210937,15.05625 18.0234375,14.6859375 18.0234375,14.3132813 C18.0234375,13.9546875 18.01875,13.5960938 18.0234375,13.2351563 C18.0304687,12.7898438 17.68125,12.7007813 17.3671875,12.76875 L17.3671875,12.76875 Z M14.578125,12.8296875 C14.4632813,12.75 14.3414063,12.7523438 14.2171875,12.7523438 C13.9710937,12.7523438 13.7835937,12.9375 13.7835937,13.18125 L13.7835937,13.790625 C13.7835937,14.0015625 13.78125,14.2125 13.7835937,14.4234375 C13.7859375,14.53125 13.8140625,14.6273438 13.8984375,14.7117188 C14.0203125,14.8335938 14.1609375,14.86875 14.325,14.8640625 C14.5570313,14.8570313 14.765625,14.6554688 14.765625,14.4257812 C14.7679688,14.0109375 14.7703125,13.5984375 14.7632813,13.1835938 C14.7632813,13.040625 14.7070312,12.91875 14.578125,12.8296875 L14.578125,12.8296875 Z M20.5851562,13.0289063 C20.5335937,12.8835938 20.3554687,12.7523438 20.165625,12.7476563 C19.8304687,12.7359375 19.6125,12.9328125 19.6382812,13.2820313 C19.65,13.4460938 19.640625,13.6101563 19.640625,13.7742188 L19.640625,14.3601563 C19.640625,14.3953125 19.640625,14.4304688 19.65,14.4632813 C19.725,14.7046875 19.9523437,14.8265625 20.2101562,14.7914063 C20.4679687,14.7539063 20.6179687,14.5945313 20.6226562,14.3296875 C20.6296875,13.959375 20.625,13.5867187 20.625,13.2164062 C20.625,13.1484375 20.60625,13.0875 20.5851562,13.0289062 L20.5851562,13.0289063 Z M8.25,6.0421875 C8.20546875,5.87109375 8.06484375,5.74453125 7.8890625,5.72109375 C7.85859375,5.71640625 7.82578125,5.71171875 7.7953125,5.71171875 C7.78125,5.71171875 7.76015625,5.71640625 7.75546875,5.69296875 L7.08046875,5.69296875 C7.07109375,5.709375 7.0546875,5.7 7.04296875,5.7 C6.73125,5.7 6.41953125,5.69765625 6.1078125,5.70234375 C5.9953125,5.70234375 5.88515625,5.7234375 5.78671875,5.784375 C5.690625,5.84296875 5.63671875,5.9296875 5.60625,6.03515625 C5.6015625,6.05625 5.60625,6.0796875 5.5921875,6.09609375 L5.5921875,7.865625 C5.615625,7.8703125 5.60859375,7.89140625 5.6109375,7.90546875 C5.62734375,8.0015625 5.653125,8.090625 5.71875,8.16328125 C5.80546875,8.259375 5.9203125,8.29921875 6.04453125,8.3015625 C6.6140625,8.30390625 7.1859375,8.30390625 7.75546875,8.3015625 C7.828125,8.3015625 7.8984375,8.29453125 7.96875,8.27109375 C8.15390625,8.2125 8.26640625,8.0625 8.26640625,7.86796875 L8.26640625,6.1828125 C8.26875,6.1359375 8.26171875,6.0890625 8.25,6.0421875 L8.25,6.0421875 Z M18.4101562,5.86171875 C18.365625,5.690625 18.225,5.5640625 18.0492188,5.540625 C18.01875,5.5359375 17.9859375,5.53125 17.9554688,5.53125 C17.9414062,5.53125 17.9203125,5.5359375 17.915625,5.5125 L17.240625,5.5125 C17.23125,5.52890625 17.2148438,5.51953125 17.203125,5.51953125 C16.8914063,5.51953125 16.5796875,5.5171875 16.2679688,5.521875 C16.1554688,5.521875 16.0453125,5.54296875 15.946875,5.60390625 C15.8507813,5.6625 15.796875,5.74921875 15.7664062,5.8546875 C15.7617188,5.87578125 15.7664062,5.89921875 15.7523437,5.915625 L15.7523437,7.68515625 C15.7757812,7.68984375 15.76875,7.7109375 15.7710937,7.725 C15.7875,7.82109375 15.8132812,7.91015625 15.8789062,7.9828125 C15.965625,8.07890625 16.0804688,8.11875 16.2046875,8.12109375 C16.7742187,8.1234375 17.3460938,8.1234375 17.915625,8.12109375 C17.9882812,8.12109375 18.0585938,8.1140625 18.1289062,8.090625 C18.3140625,8.03203125 18.4265625,7.88203125 18.4265625,7.6875 L18.4265625,6.00234375 C18.43125,5.95546875 18.421875,5.90625 18.4101562,5.86171875 L18.4101562,5.86171875 Z M8.2359375,15.8578125 C8.19140625,15.6867188 8.05078125,15.5601563 7.875,15.5367188 C7.84453125,15.5320313 7.81171875,15.5273438 7.78125,15.5273438 C7.7671875,15.5273438 7.74609375,15.5320313 7.74140625,15.5085938 L7.06640625,15.5085938 C7.05703125,15.525 7.040625,15.515625 7.02890625,15.515625 C6.7171875,15.515625 6.40546875,15.5132813 6.09375,15.5179688 C5.98125,15.5179688 5.87109375,15.5390625 5.77265625,15.6 C5.6765625,15.6585938 5.62265625,15.7453125 5.5921875,15.8507813 C5.5875,15.871875 5.5921875,15.8953125 5.578125,15.9117188 L5.578125,17.68125 C5.6015625,17.6859375 5.59453125,17.7070313 5.596875,17.7210938 C5.61328125,17.8171875 5.6390625,17.90625 5.7046875,17.9789063 C5.79140625,18.075 5.90625,18.1148438 6.03046875,18.1171875 C6.6,18.1195313 7.171875,18.1195313 7.74140625,18.1171875 C7.8140625,18.1171875 7.884375,18.1101563 7.9546875,18.0867188 C8.13984375,18.028125 8.25234375,17.878125 8.25234375,17.6835938 L8.25234375,15.9984375 C8.2546875,15.9515625 8.24765625,15.9046875 8.2359375,15.8578125 L8.2359375,15.8578125 Z" id="形状"></path>
                </g>
            </g>
        </g>
    </g>
</svg>