<?xml version="1.0" encoding="UTF-8"?>
<svg width="22px" height="22px" viewBox="0 0 22 22" version="1.1" xmlns="http://www.w3.org/2000/svg" xmlns:xlink="http://www.w3.org/1999/xlink">
    <title>xiazai</title>
    <desc>Created with Sketch.</desc>
    <g id="IM-设置" stroke="none" stroke-width="1" fill="none" fill-rule="evenodd" fill-opacity="0.75">
        <g id="设置-点击名片二维码" transform="translate(-107.000000, -554.000000)" fill="#333333" fill-rule="nonzero">
            <g id="下载" transform="translate(88.000000, 553.000000)">
                <g transform="translate(18.000000, 0.000000)">
                    <rect id="矩形" opacity="0" x="0" y="0" width="24" height="24"></rect>
                    <path d="M2.25,21 L21.75,21 C22.1642109,21 22.5,21.3357891 22.5,21.75 C22.5,22.1642109 22.1642109,22.5 21.75,22.5 L2.25,22.5 C1.83578906,22.5 1.5,22.1642109 1.5,21.75 C1.5,21.3357891 1.83578906,21 2.25,21 Z M12.7712344,17.90175 L19.2505313,11.4224531 C19.5434297,11.1295781 20.0182969,11.1295781 20.3111953,11.4224531 C20.6040937,11.7153516 20.6040937,12.1902422 20.3111953,12.4831172 L12.5530547,20.2412578 C12.2601562,20.5341562 11.7852891,20.5341562 11.4923906,20.2412578 L3.48154687,12.2925703 C3.18864844,11.9996953 3.18864844,11.5248047 3.48154687,11.2319297 C3.77442187,10.9390312 4.2493125,10.9390312 4.5421875,11.2319297 L11.2712344,17.8987969 L11.2719844,2.25597656 C11.2719844,1.84176562 11.6077734,1.50597656 12.0219844,1.50597656 C12.4361953,1.50597656 12.7719844,1.84176562 12.7719844,2.25597656 L12.7712344,17.90175 L12.7712344,17.90175 Z" id="形状"></path>
                </g>
            </g>
        </g>
    </g>
</svg>