<?xml version="1.0" encoding="UTF-8"?>
<svg width="22px" height="24px" viewBox="0 0 22 24" version="1.1" xmlns="http://www.w3.org/2000/svg" xmlns:xlink="http://www.w3.org/1999/xlink">
    <title>share</title>
    <desc>Created with Sketch.</desc>
    <g id="IM-设置" stroke="none" stroke-width="1" fill="none" fill-rule="evenodd" fill-opacity="0.75">
        <g id="设置-点击名片二维码" transform="translate(-220.000000, -553.000000)" fill="#333333" fill-rule="nonzero">
            <g id="分享" transform="translate(219.000000, 553.000000)">
                <rect id="矩形" opacity="0" x="0" y="0" width="24" height="24"></rect>
                <path d="M18.7992874,15.8834142 C17.5437391,15.8834142 16.4352566,16.4740903 15.6961882,17.3778491 L8.91428571,13.4363114 C9.08903745,12.9851093 9.19453195,12.4999559 9.19453195,11.9884712 C9.19453195,11.474376 9.08903745,10.9867814 8.91177394,10.5343235 L15.6396028,6.61170867 C16.3773446,7.51285697 17.4846418,8.10102129 18.7378195,8.10102129 C20.9574233,8.10102129 22.7621611,6.29624116 22.7621611,4.07663733 C22.7621611,1.85835994 20.9560969,0.0534951328 18.7378195,0.0534951328 C16.519401,0.0534951328 14.7158485,1.85835994 14.7158485,4.07663733 C14.7158485,4.59073254 14.8214418,5.07835535 14.997393,5.53082745 L8.26955004,9.45342811 C7.53179405,8.55229392 6.42452508,7.96401673 5.17134743,7.96401673 C2.95185649,7.96401673 1.14699169,9.76888153 1.14699169,11.987173 C1.14699169,14.2055915 2.95305593,16.0103152 5.17134743,16.0103152 C6.4256963,16.0103152 7.53431993,15.4208385 8.27326125,14.5172067 L15.0551779,18.4599298 C14.8805391,18.9110895 14.7749458,19.3963135 14.7749458,19.9078687 C14.7749458,22.1273596 16.5810241,23.9322386 18.798102,23.9322386 C21.0151941,23.9322386 22.8212725,22.1261743 22.8212725,19.9078687 C22.8212725,17.6894925 21.0163794,15.8834142 18.7992874,15.8834142 Z M18.7390048,1.31034166 C20.264851,1.31034166 21.5066269,2.55080522 21.5066269,4.07662322 C21.5066269,5.60248355 20.264851,6.84425944 18.7390048,6.84425944 C17.214485,6.84425944 15.9740356,5.60248355 15.9740356,4.07662322 C15.9740356,2.55080522 17.214485,1.31034166 18.7390048,1.31034166 Z M5.17134743,14.7547528 C3.6456423,14.7547528 2.40386644,13.5142187 2.40386644,11.9884712 C2.40386644,10.4626109 3.64564233,9.22218968 5.17134743,9.22218968 C6.69599421,9.22218968 7.93778421,10.4626109 7.93778421,11.9884712 C7.93778421,13.5142187 6.69719367,14.7547528 5.17134743,14.7547528 Z M18.7992874,22.6766761 C17.2735682,22.6766761 16.0330058,21.4349144 16.0330058,19.9090964 C16.0330058,18.3832219 17.2735682,17.1414742 18.7992874,17.1414742 C20.3251477,17.1414742 21.5657101,18.3832219 21.56571,19.9090964 C21.56571,21.4349144 20.3251477,22.6766761 18.7992874,22.6766761 Z" id="形状"></path>
            </g>
        </g>
    </g>
</svg>