<?xml version="1.0" encoding="UTF-8"?>
<svg width="50px" height="50px" viewBox="0 0 50 50" version="1.1" xmlns="http://www.w3.org/2000/svg" xmlns:xlink="http://www.w3.org/1999/xlink">
    <title>broken netx</title>
    <desc>Created with Sketch.</desc>
    <g id="断网" stroke="none" stroke-width="1" fill="none" fill-rule="evenodd">
        <g>
            <rect id="矩形备份-9" x="0" y="0" width="50" height="50"></rect>
            <g id="编组-6" transform="translate(4.000000, 4.000000)" fill="#333333" fill-rule="nonzero">
                <path d="M19.0909091,1.90909091 L19.0909091,9.54545455 C19.0909091,10.5998163 19.9456382,11.4545455 21,11.4545455 C22.0543618,11.4545455 22.9090909,10.5998163 22.9090909,9.54545455 L22.9090909,1.90909091 C22.9090909,0.854729114 22.0543618,2.47801779e-13 21,2.47801779e-13 C19.9456382,2.47801779e-13 19.0909091,0.854729114 19.0909091,1.90909091 Z" id="Shape" opacity="0.7"></path>
                <path d="M19.0909091,32.4545455 L19.0909091,40.0909091 C19.0909091,41.1452709 19.9456382,42 21,42 C22.0543618,42 22.9090909,41.1452709 22.9090909,40.0909091 L22.9090909,32.4545455 C22.9090909,31.4001837 22.0543618,30.5454545 21,30.5454545 C19.9456382,30.5454545 19.0909091,31.4001837 19.0909091,32.4545455 Z" id="Shape" opacity="0.200613839"></path>
                <path d="M6.15279615,8.8526584 L11.5555234,14.2553857 C12.3010698,15.000932 13.5098393,15.000932 14.2553857,14.2553857 C15.000932,13.5098393 15.000932,12.3010698 14.2553857,11.5555234 L8.8526584,6.15279615 C8.10711203,5.40724977 6.89834252,5.40724977 6.15279615,6.15279615 C5.40724977,6.89834252 5.40724977,8.10711203 6.15279615,8.8526584 Z" id="Shape" opacity="0.6"></path>
                <path d="M27.7446143,30.4444766 L33.1473416,35.8472039 C33.892888,36.5927502 35.1016575,36.5927502 35.8472039,35.8472039 C36.5927502,35.1016575 36.5927502,33.892888 35.8472039,33.1473416 L30.4444766,27.7446143 C29.6989302,26.999068 28.4901607,26.999068 27.7446143,27.7446143 C26.999068,28.4901607 26.999068,29.6989302 27.7446143,30.4444766 Z" id="Shape"></path>
                <path d="M1.90909091,22.9090909 L9.54545455,22.9090909 C10.5998163,22.9090909 11.4545455,22.0543618 11.4545455,21 C11.4545455,19.9456382 10.5998163,19.0909091 9.54545455,19.0909091 L1.90909091,19.0909091 C0.854729114,19.0909091 2.04281037e-14,19.9456382 2.04281037e-14,21 C2.04281037e-14,22.0543618 0.854729114,22.9090909 1.90909091,22.9090909 Z" id="Shape" opacity="0.5"></path>
                <path d="M32.4545455,22.9090909 L40.0909091,22.9090909 C41.1452709,22.9090909 42,22.0543618 42,21 C42,19.9456382 41.1452709,19.0909091 40.0909091,19.0909091 L32.4545455,19.0909091 C31.4001837,19.0909091 30.5454545,19.9456382 30.5454545,21 C30.5454545,22.0543618 31.4001837,22.9090909 32.4545455,22.9090909 Z" id="Shape" opacity="0.9"></path>
                <path d="M8.8526584,35.8472039 L14.2553857,30.4444766 C15.000932,29.6989302 15.000932,28.4901607 14.2553857,27.7446143 C13.5098393,26.999068 12.3010698,26.999068 11.5555234,27.7446143 L6.15279615,33.1473416 C5.40724977,33.892888 5.40724977,35.1016575 6.15279615,35.8472039 C6.89834252,36.5927502 8.10711203,36.5927502 8.8526584,35.8472039 Z" id="Shape" opacity="0.4"></path>
                <path d="M30.4444766,14.2553857 L35.8472039,8.8526584 C36.5927502,8.10711203 36.5927502,6.89834252 35.8472039,6.15279615 C35.1016575,5.40724977 33.892888,5.40724977 33.1473416,6.15279615 L27.7446143,11.5555234 C26.999068,12.3010698 26.999068,13.5098393 27.7446143,14.2553857 C28.4901607,15.000932 29.6989302,15.000932 30.4444766,14.2553857 Z" id="Shape" opacity="0.8"></path>
            </g>
        </g>
    </g>
</svg>