<?xml version="1.0" encoding="UTF-8"?>
<svg width="44px" height="50px" viewBox="0 0 44 50" version="1.1" xmlns="http://www.w3.org/2000/svg" xmlns:xlink="http://www.w3.org/1999/xlink">
    <title>diqu</title>
    <desc>Created with Sketch.</desc>
    <g id="icon" stroke="none" stroke-width="1" fill="none" fill-rule="evenodd">
        <g id="好友主页icon" transform="translate(-1866.000000, -176.000000)">
            <g id="地区" transform="translate(1863.000000, 176.000000)">
                <g stroke-width="1" fill-rule="evenodd" fill="#000000" id="矩形" opacity="0">
                    <rect fill-rule="nonzero" x="0" y="0" width="50" height="50"></rect>
                </g>
                <path d="M25.0000276,31.555633 C31.0747403,31.555633 35.9999862,26.580624 35.9999862,20.4444785 C35.9999862,14.3077756 31.0747403,9.33337979 25.0000276,9.33337979 C18.9252597,9.33337979 14.0000138,14.3077756 14.0000138,20.4444785 C14.0000138,26.580624 18.9253149,31.555633 25.0000276,31.555633 Z M25.0000276,12.9280585 C29.1093661,12.9280585 32.4412085,16.2929516 32.4412085,20.4444785 C32.4412085,24.595448 29.1094213,27.9608428 25.0000276,27.9608428 C20.8894197,27.9608428 17.5587915,24.595448 17.5587915,20.4444785 C17.5587915,16.2930073 20.8894749,12.9280585 25.0000276,12.9280585 Z M25.0000276,44.4445621 C25.0000276,44.4445621 45.6249224,33.2073099 45.6249224,20.833338 C45.6249224,9.32755655 36.3907211,0 25.0000276,0 C13.6092789,0 4.37502242,9.3275008 4.37502242,20.833338 C4.37502242,33.1204574 25.0000276,44.4445621 25.0000276,44.4445621 Z M25.0511618,4.23454897 C34.1983144,4.23454897 41,11.8786622 41,21.2705555 C41,30.6625538 25.0511618,40 25.0511618,40 C25.0511618,40 9,30.6625538 9,21.2705555 C9,11.8786622 15.9039581,4.23454897 25.0511618,4.23454897 Z M35.9999862,38.8890128 L33.907568,41.9455182 C40.5745089,42.262212 42.8703521,43.3523279 42.8703521,44.2772679 C42.8703521,45.4817192 34.8720429,46.6091292 25.0000276,46.6091292 C15.1279571,46.6091292 7.1576285,45.3135888 7.1576285,44.1090818 C7.1576285,43.1678639 8.63320443,42.3621649 15.4854133,42.0569547 L13.8344482,38.8332109 C5.36289725,39.2942872 3,41.8783441 3,44.4444506 C3,48.860716 12.8505469,50 25.0000276,50 C37.1493979,50 47,48.4734476 47,44.4444506 C47,42.154399 45.6249776,39.3224948 35.9999862,38.8890128 Z" id="形状" fill="#333333" fill-rule="nonzero"></path>
            </g>
        </g>
    </g>
</svg>