<?xml version="1.0" encoding="UTF-8"?>
<svg width="41px" height="40px" viewBox="0 0 41 40" version="1.1" xmlns="http://www.w3.org/2000/svg" xmlns:xlink="http://www.w3.org/1999/xlink">
    <title>markmark</title>
    <desc>Created with Sketch.</desc>
    <g id="页面-1" stroke="none" stroke-width="1" fill="none" fill-rule="evenodd">
        <g id="好友主页icon" transform="translate(-1248.000000, -181.000000)" fill="#000000">
            <g id="备注" transform="translate(1243.000000, 176.000000)">
                <g>
                    <rect id="矩形" fill-rule="nonzero" opacity="0" x="0" y="0" width="50" height="50"></rect>
                    <path d="M13.714274,31 L21.5713881,31 C22.4392749,31 23.142831,31.7195104 23.142831,32.6070777 C23.142831,33.4946451 22.4392749,34.2141555 21.5713881,34.2141555 L13.714274,34.2141555 C12.8463872,34.2141555 12.142831,33.4946451 12.142831,32.6070777 C12.142831,31.7195103 12.8464374,31 13.714274,31 Z M45.1146335,7.94555398 L32.9928178,20.0670374 C32.4349069,20.624933 30.9946183,20.624933 30.4367074,20.0670374 C29.8788422,19.5091875 29.8788422,18.0978007 30.4367074,17.5399051 L42.5585231,5.41842169 C43.116434,4.8605261 44.5567226,4.8605261 45.1146335,5.41842169 C45.6725444,5.97631728 45.6725444,7.3877041 45.1146335,7.94555398 Z M13.6761774,22.9997259 L33.6094846,22.9997259 C34.4563312,22.9997259 35.142831,23.6712961 35.142831,24.4997259 C35.142831,25.3281556 34.4563312,25.9997259 33.6094846,25.9997259 L13.6761774,25.9997259 C12.8293309,25.9997259 12.142831,25.3281557 12.142831,24.4997259 C12.142831,23.671344 12.8293799,22.9997259 13.6761774,22.9997259 Z M13.6983976,14.9997259 L24.5872644,14.9997259 C25.4463829,14.9997259 26.142831,15.7192362 26.142831,16.6068036 C26.142831,17.494371 25.4463829,18.2138814 24.5872644,18.2138814 L13.6983976,18.2138814 C12.8392791,18.2138814 12.142831,17.494371 12.142831,16.6068036 C12.142831,15.7192362 12.8393289,14.9997259 13.6983976,14.9997259 Z M41.0124545,22.1435032 C41.0124545,21.3545369 42.2618978,20.6383175 43.0508857,20.6383176 C43.8398736,20.6383176 45,21.3545369 45,22.1435032 L45,40.7144097 C45,43.0812631 43.0812105,45 40.7142922,45 L9.28570775,45 C6.9187895,45 5,43.0812631 5,40.7144097 L5,9.28673237 C5,6.919879 6.9187895,5.00114209 9.28570775,5.00114209 L27.8571233,5.00114209 C28.6461112,5.00114209 29.3662794,5.87623229 29.3662794,6.95874438 C29.3662794,8.04125647 28.6461112,8.98320337 27.8571233,8.98320333 L10.4892615,8.98320333 C9.70027353,8.98320333 9.06067701,9.62278231 9.06067701,10.4117487 L9.06067701,39.8881634 C9.06067701,40.6771297 9.70027353,41.3167087 10.4892615,41.3167087 L39.58387,41.3167087 C40.3728579,41.3167087 41.0124545,40.6771297 41.0124545,39.8881634 L41.0124545,22.1435032 Z" id="形状" fill-rule="nonzero"></path>
                </g>
            </g>
        </g>
    </g>
</svg>