<?xml version="1.0" encoding="UTF-8"?>
<svg width="42px" height="50px" viewBox="0 0 42 50" version="1.1" xmlns="http://www.w3.org/2000/svg" xmlns:xlink="http://www.w3.org/1999/xlink">
    <title>center/zuijintonghua</title>
    <desc>Created with Sketch.</desc>
    <g id="页面-1" stroke="none" stroke-width="1" fill="none" fill-rule="evenodd">
        <g id="all-icon" transform="translate(-1262.000000, -171.000000)">
            <g id="最近通话" transform="translate(1258.000000, 171.000000)">
                <g>
                    <rect id="矩形备份-14" x="0" y="0" width="50" height="50"></rect>
                    <g id="操作-电话" transform="translate(4.000000, 0.000000)" fill-rule="nonzero">
                        <path d="M3.71405227,6.57700621 C0.78410583,12.4538594 2.51505639,22.9757403 8.19338513,32.0995255 C15.554364,44.4250112 26.2429962,50.3511803 32.5531807,46.4266667 L32.6891333,46.3493162 C33.9424849,45.699732 34.9062035,44.5832611 35.727282,42.8810742 L35.8666212,42.5922086 L36.1357123,42.3132808 C36.9060872,40.1703332 35.1840658,36.5841409 31.530433,33.8062678 C29.1120931,32.0515475 26.3529704,31.148873 24.6736419,31.3381905 C24.1821281,31.5018165 23.6727745,31.9596418 23.2323872,32.6443707 L22.6418869,33.5625 L21.2487795,33.5625 C20.7443875,33.5625 20.4532071,33.5353358 20.0068936,33.3687895 C19.5942444,33.2148053 19.223718,32.9689998 18.9049753,32.6386053 L18.782604,32.4993901 L18.7610516,32.4719627 C16.9468567,30.1213206 16.1545756,29.0305912 15.3634972,27.6784711 C14.2909342,26.2707193 13.5954456,24.9871756 12.2118969,22.1189258 L12.0132764,21.7071634 L12.0132764,19.8175226 L13.7667018,18 L14.616235,18 C15.2418002,18 15.7427611,17.6191993 16.0666162,16.7799648 L16.1400471,16.5896768 L16.2503789,16.4181293 C17.1129444,15.0769838 17.3961836,12.5080444 16.8813802,10.1067443 L16.8597523,9.98867863 C16.1055329,5.03734066 13.7886108,2 11.601442,2 L10.9984834,2 C9.40188588,2 7.94923901,2.43917679 6.62810606,3.26083331 C5.59653622,3.90240089 4.60022219,5.05815866 3.71405227,6.57700621 Z" id="路径" stroke="#000000" stroke-width="4"></path>
                        <path d="M25.6225953,12.5 C25.9350953,11.875 26.5600953,11.5625 27.1850953,11.875 C31.8725953,13.4375 34.3725953,18.4375 32.8100953,23.125 C32.4975953,23.75 31.8725953,24.375 30.9350953,24.0625 C30.3100953,23.75 29.6850953,23.125 29.9975953,22.1875 C30.9350953,19.0625 29.3725953,15.625 26.2475953,14.6875 C25.6225953,14.375 25.3100953,13.4375 25.6225953,12.5 C25.6225953,12.8125 25.6225953,12.5 25.6225953,12.5 L25.6225953,12.5 Z" id="路径" fill="#000000"></path>
                        <path d="M29.6225953,5.24759526 C29.9350953,4.62259526 30.5600953,4.31009526 31.1850953,4.62259526 C34.9350953,5.87259526 38.0600953,8.68509526 39.9350953,12.1225953 C41.8100953,15.8725953 42.1225953,19.9350953 40.8725953,23.6850953 C40.5600953,24.3100953 39.9350953,24.9350953 38.9975953,24.6225953 C38.3725953,24.3100953 37.7475953,23.6850953 38.0600953,22.7475953 C38.9975953,19.6225953 38.9975953,16.1850953 37.4350953,13.3725953 C35.8725953,10.5600953 33.3725953,8.37259526 30.2475953,7.12259526 C29.6225953,7.12259526 29.3100953,6.18509526 29.6225953,5.24759526 C29.6225953,5.56009526 29.6225953,5.24759526 29.6225953,5.24759526 L29.6225953,5.24759526 Z" id="路径" fill="#000000"></path>
                    </g>
                </g>
            </g>
        </g>
    </g>
</svg>