<?xml version="1.0" encoding="UTF-8"?>
<svg width="38px" height="40px" viewBox="0 0 38 40" version="1.1" xmlns="http://www.w3.org/2000/svg" xmlns:xlink="http://www.w3.org/1999/xlink">
    <title>sousuosernch</title>
    <desc>Created with Sketch.</desc>
    <g id="页面-1" stroke="none" stroke-width="1" fill="none" fill-rule="evenodd">
        <g id="消息（首页）icon" transform="translate(-479.000000, -178.000000)" fill="#1A1919">
            <g id="搜索" transform="translate(498.000000, 197.000000) scale(-1, 1) translate(-498.000000, -197.000000) translate(473.000000, 172.000000)">
                <g id="播视web_表情">
                    <g transform="translate(0.000000, 1.000000)">
                        <path d="M27.9738654,33 C24.7070509,33 21.7437595,31.689117 19.5777087,29.5601643 C19.5747523,29.5601643 19.5737669,29.550308 19.5708105,29.550308 C19.5658832,29.550308 19.5589849,29.5404517 19.5540576,29.5404517 C17.3466173,27.3622177 15.9738654,24.336345 15.9738654,21.0049281 C15.9738654,14.3815195 21.3574574,9.31280763 27.9738654,9.31280763 C34.5902734,9.31280763 39.9738654,14.3815195 39.9738654,21.0049281 C39.9738654,27.6184805 34.5902734,33 27.9738654,33 Z M11.3892481,21.2124253 C11.3892481,25.1427102 12.8073241,28.7525915 15.1571866,31.5614636 L6.68052692,40.2336769 C5.74648778,41.26099 5.8879618,42.5854294 6.4230381,43.3945026 C6.95811439,44.2035757 8.2768758,44.0709759 8.68909472,44.0709759 C9.10131364,44.0709759 10.0559475,43.7042261 10.3704791,43.3945026 L18.8664616,34.700929 C21.6650416,36.9544347 23.80949,37.4141704 27.6815567,37.4141704 C36.6655675,37.4141704 43.9738654,30.1410073 43.9738654,21.2124253 C43.9738654,12.2731631 36.6655675,5 27.6815567,5 C18.6986195,5 11.3892481,12.2731631 11.3892481,21.2124253 Z" id="6F"></path>
                    </g>
                </g>
            </g>
        </g>
    </g>
</svg>