<?xml version="1.0" encoding="UTF-8"?>
<svg width="47px" height="50px" viewBox="0 0 47 50" version="1.1" xmlns="http://www.w3.org/2000/svg" xmlns:xlink="http://www.w3.org/1999/xlink">
    <title>savesave</title>
    <desc>Created with Sketch.</desc>
    <defs>
        <path d="M39.2130178,42.1787709 L39.2130178,38.4440075 C39.2130178,36.3413843 40.9175306,34.6368715 43.0201537,34.6368715 L43.192864,34.6368715 C45.2954872,34.6368715 47,36.3413843 47,38.4440075 L47,45.9859069 L47,46.192864 C47,48.2954872 45.2954872,50 43.192864,50 L3.80713597,50 C1.70451283,50 6.0306568e-15,48.2954872 5.77315973e-15,46.192864 L7.10542736e-15,45.9859069 L1.11022302e-14,38.4440075 C1.08447332e-14,36.3413843 1.70451283,34.6368715 3.80713597,34.6368715 L3.97984628,34.6368715 C6.08246942,34.6368715 7.78698225,36.3413843 7.78698225,38.4440075 L7.78698225,42.1787709 L39.2130178,42.1787709 Z M30.6549858,20.1117318 L36.1259285,20.1117318 C36.6557775,20.1117318 37.1674135,20.3050987 37.5648162,20.6555428 C38.4659766,21.4502185 38.5522996,22.8249654 37.7576238,23.7261258 L24.9260945,38.2770504 C24.8809638,38.3282286 24.832667,38.3765254 24.7814888,38.4216561 C24.1056185,39.0176629 23.0745583,38.9529207 22.4785515,38.2770504 L9.64702224,23.7261258 C9.29657821,23.3287231 9.10321132,22.8170871 9.10321132,22.2872381 C9.10321132,21.0857392 10.0772186,20.1117318 11.2787176,20.1117318 L16.7496603,20.1117318 L16.7496603,3.80713597 C16.7496603,1.70451283 18.4541731,1.50411895e-14 20.5567963,1.46549439e-14 L26.8478498,1.46549439e-14 C28.9504729,1.42686983e-14 30.6549858,1.70451283 30.6549858,3.80713597 L30.6549858,20.1117318 Z" id="path-1"></path>
    </defs>
    <g id="icon" stroke="none" stroke-width="1" fill="none" fill-rule="evenodd">
        <g id="图标/原型/保存" transform="translate(-27.000000, -21.000000)">
            <g id="保存" transform="translate(27.000000, 21.000000)">
                <mask id="mask-2" fill="white">
                    <use xlink:href="#path-1"></use>
                </mask>
                <use id="Mask" fill="#34363A" xlink:href="#path-1"></use>
            </g>
        </g>
    </g>
</svg>