<?xml version="1.0" encoding="UTF-8"?>
<svg width="24px" height="24px" viewBox="0 0 24 24" version="1.1" xmlns="http://www.w3.org/2000/svg" xmlns:xlink="http://www.w3.org/1999/xlink">
    <title>locinaddfrine</title>
    <desc>Created with Sketch.</desc>
    <g id="IM-对话列表" stroke="none" stroke-width="1" fill="none" fill-rule="evenodd">
        <g id="输入搜索内容" transform="translate(-20.000000, -785.000000)" fill="#1890FF" fill-rule="nonzero">
            <g id="编组-4" transform="translate(0.000000, 769.000000)">
                <g id="227注册、添加好友" transform="translate(16.000000, 12.000000)">
                    <rect id="矩形" opacity="0" x="0" y="0" width="32" height="32"></rect>
                    <path d="M10,9.6 C10.2,6.625 12.65,4.2 15.625,4.025 C19.1,3.825 22,6.575 22,10.025 C22,13.325 19.325,16.025 16,16.025 C12.55,16.025 9.775,13.1 10,9.6 Z M17.975,24 C17.975,21.725 19.25,19.725 21.125,18.725 C19.25,18.25 17.375,18 15.975,18 C12,18 4,20 4,24 L4,27 C4,27.55 4.45,28 5,28 L19.5,28 C18.55,26.95 17.975,25.55 17.975,24 Z M28,23 L25,23 L25,20 L23,20 L23,23 L20,23 L20,25 L23,25 L23,28 L25,28 L25,25 L28,25 L28,23 Z" id="形状"></path>
                </g>
            </g>
        </g>
    </g>
</svg>