<?xml version="1.0" encoding="UTF-8"?>
<svg width="56px" height="47px" viewBox="0 0 56 47" version="1.1" xmlns="http://www.w3.org/2000/svg" xmlns:xlink="http://www.w3.org/1999/xlink">
    <title>zhuanfa</title>
    <desc>Created with Sketch.</desc>
    <defs>
        <path d="M31.8707828,30.5497091 C30.8382303,30.5561103 29.8138136,30.5988076 28.7986164,30.6766592 L28.6871395,30.5497131 L28.6871395,30.6853521 C17.5217817,31.570467 7.47790436,39.1365186 0,47 C0.69725429,25.2728431 14.6661367,10.3262227 31.8707828,10.0695378 L31.8707828,2.71948492 C31.8707828,1.21755487 33.1162995,-4.38335391e-14 34.6527223,0 C35.3534101,2.50477366e-14 36.0282924,0.258473408 36.5424985,0.723766146 L54.5130397,16.9848748 C56.3922361,18.6853142 56.5054897,21.5529823 54.7659987,23.3899907 C54.6849645,23.4755677 54.600582,23.5580558 54.5130397,23.6372707 L36.5424985,39.8983794 C35.4149807,40.918643 33.6548653,40.8522164 32.6111707,39.7500114 C32.1351922,39.2473491 31.8707828,38.587618 31.8707828,37.9026606 L31.8707828,34.1948664 L31.8880098,34.194756 L31.8707828,34.1751384 L31.8707828,30.5497091 Z" id="path-1"></path>
    </defs>
    <g id="icon" stroke="none" stroke-width="1" fill="none" fill-rule="evenodd">
        <g id="图标/原型/分享" transform="translate(-25.000000, -27.000000)">
            <g id="转发" transform="translate(25.000000, 27.000000)">
                <g id="分享">
                    <mask id="mask-2" fill="white">
                        <use xlink:href="#path-1"></use>
                    </mask>
                    <use id="Mask" fill="#34363A" xlink:href="#path-1"></use>
                </g>
            </g>
        </g>
    </g>
</svg>