<?xml version="1.0" encoding="UTF-8"?>
<svg width="40px" height="40px" viewBox="0 0 40 40" version="1.1" xmlns="http://www.w3.org/2000/svg" xmlns:xlink="http://www.w3.org/1999/xlink">
    <title>pageschan</title>
    <desc>Created with Sketch.</desc>
    <g id="页面-1" stroke="none" stroke-width="1" fill="none" fill-rule="evenodd">
        <g id="all-icon" transform="translate(-164.000000, -349.000000)" fill="#000000">
            <g id="扫一扫" transform="translate(159.000000, 344.000000)">
                <g>
                    <rect id="矩形" fill-rule="nonzero" opacity="0" x="0" y="0" width="50" height="50"></rect>
                    <g transform="translate(5.000000, 5.000000)" fill-rule="nonzero" id="形状">
                        <path d="M35.5326172,39.5597656 L4.46738281,39.5597656 C2.24726563,39.5597656 0.440234375,37.7527344 0.440234375,35.5326172 L0.440234375,27.2410156 C0.440234375,26.2876953 1.2125,25.5154297 2.16582031,25.5154297 C3.11914063,25.5154297 3.89140625,26.2876953 3.89140625,27.2410156 L3.89140625,35.5326172 C3.89140625,35.8501953 4.14921875,36.1080078 4.46679688,36.1080078 L35.5320313,36.1080078 C35.8496094,36.1080078 36.1074219,35.8501953 36.1074219,35.5326172 L36.1074219,27.565625 C36.1074219,26.6123047 36.8796875,25.8400391 37.8330078,25.8400391 C38.7863281,25.8400391 39.5585943,26.6123047 39.5585943,27.565625 L39.5585943,35.5326172 C39.5597656,37.7527344 37.7527344,39.5597656 35.5326172,39.5597656 Z M37.8335938,22.3009766 L2.16640625,22.3009766 C1.21308594,22.3009766 0.440820313,21.5287109 0.440820313,20.5753906 C0.440820313,19.6220703 1.21308594,18.8498047 2.16640625,18.8498047 L37.8341797,18.8498047 C38.7875,18.8498047 39.5597656,19.6220703 39.5597656,20.5753906 C39.5597656,21.5287109 38.7869141,22.3009766 37.8335938,22.3009766 Z M2.16640625,15.5984375 C1.21308594,15.5984375 0.440820313,14.8261719 0.440820313,13.8728516 L0.440820313,4.46738281 C0.440820313,2.24726563 2.24785156,0.440234375 4.46796875,0.440234375 L35.5332031,0.440234375 C37.7533203,0.440234375 39.5603516,2.24726563 39.5603516,4.46738281 L39.5603516,13.6560547 C39.5603516,14.609375 38.7880859,15.3816406 37.8347656,15.3816406 C36.8814453,15.3816406 36.1091797,14.609375 36.1091797,13.6560547 L36.1091797,4.46738281 C36.1091797,4.14980469 35.8513672,3.89199219 35.5337891,3.89199219 L4.46738281,3.89199219 C4.14980469,3.89199219 3.89199219,4.14980469 3.89199219,4.46738281 L3.89199219,13.8722656 C3.89199219,14.8255859 3.11972656,15.5984375 2.16640625,15.5984375 L2.16640625,15.5984375 Z"></path>
                    </g>
                </g>
            </g>
        </g>
    </g>
</svg>