<?xml version="1.0" encoding="UTF-8"?>
<svg width="50px" height="44px" viewBox="0 0 50 44" version="1.1" xmlns="http://www.w3.org/2000/svg" xmlns:xlink="http://www.w3.org/1999/xlink">
    <title>selcedtxiangjitupina</title>
    <desc>Created with Sketch.</desc>
    <g id="页面-1" stroke="none" stroke-width="1" fill="none" fill-rule="evenodd">
        <g id="all-icon" transform="translate(-1899.000000, -174.000000)">
            <g id="相机" transform="translate(1899.000000, 171.000000)">
                <g>
                    <rect id="矩形" fill="#000000" fill-rule="nonzero" opacity="0" x="0" y="0" width="50" height="50"></rect>
                    <path d="M24.7863449,36.364321 C19.8157904,36.364321 15.7863449,32.3348755 15.7863449,27.364321 C15.7863449,22.3937664 19.8157903,18.364321 24.7863449,18.364321 C29.7568994,18.364321 33.7863449,22.3937665 33.7863449,27.364321 C33.7863449,32.3348755 29.7568994,36.364321 24.7863449,36.364321 Z M3.87287422,8.09824941 L10.0694729,8.09824941 C9.82047335,8.09824941 9.61862261,7.89639868 9.61862261,7.64739907 C9.61862261,7.39839949 9.82047337,7.19654873 10.0694729,7.19654873 L3.87287422,7.19654873 C4.12187377,7.19654873 4.32372451,7.39839947 4.32372451,7.64739907 C4.32372451,7.89639865 4.12187375,8.09824941 3.87287422,8.09824941 Z M15.0055548,11.4286275 C14.0641286,12.8992866 12.507293,13.7999665 10.8154671,13.7999546 L3.0982993,13.7999546 C2.5525561,13.7999546 2,14.4277183 2,15.3199591 L2,43.4799954 C2,44.3722362 2.55255612,45 3.09829937,45 L46.4743904,45 C47.0201336,45 47.5726897,44.3722362 47.5726897,43.4799954 L47.5726897,15.3200159 C47.5726897,14.4277751 47.0201336,13.8000114 46.4743904,13.8000114 L38.757228,13.8000114 C37.0653581,13.8000159 35.5085004,12.8993059 34.5670945,11.4286422 L30.7897255,5.52789883 C30.5651225,5.17701813 30.2591487,5 29.9684814,5 L19.6041084,5 C19.3134622,5 19.0074709,5.17703075 18.7828408,5.52793557 L15.0055518,11.4286321 Z" id="形状" stroke="#000000" stroke-width="4" fill-rule="nonzero"></path>
                </g>
            </g>
        </g>
    </g>
</svg>