<?xml version="1.0" encoding="UTF-8"?>
<svg width="50px" height="50px" viewBox="0 0 50 50" version="1.1" xmlns="http://www.w3.org/2000/svg" xmlns:xlink="http://www.w3.org/1999/xlink">
    <title>gengxinversion</title>
    <desc>Created with Sketch.</desc>
    <g id="更新版本" stroke="none" stroke-width="1" fill="none" fill-rule="evenodd">
        <g fill-rule="nonzero" id="版本更新">
            <g>
                <rect id="矩形" opacity="0" x="0" y="0" width="50" height="50"></rect>
                <path d="M25.25,48.5 C12.4625,48.5 2,37.925 2,25 C2,23.59 2.93000002,22.65 4.32500002,22.65 C5.72000002,22.65 6.65000003,23.59 6.65000003,25 C6.65000003,35.34 15.02,43.8 25.25,43.8 C35.48,43.8 43.85,35.34 43.85,25 C43.85,14.66 35.48,6.20000003 25.25,6.20000003 C18.9725,6.20000003 13.16,9.25499999 9.90500001,14.66 C8.97499999,15.6 7.58,15.835 6.65000003,15.13 C5.4875,14.425 5.25500003,13.015 5.95250003,11.84 C10.1375,5.49500003 17.5775,1.5 25.25,1.5 C38.0375,1.5 48.5,12.075 48.5,25 C48.5,37.925 38.0375,48.5 25.25,48.5 Z M25,30 C23.5,30 22.5,29.0285714 22.5,27.5714286 L22.5,15.4285714 C22.5,13.9714286 23.5,13 25,13 C26.5,13 27.5,13.9714286 27.5,15.4285714 L27.5,27.5714286 C27.5,29.0285714 26.5,30 25,30 Z M32.1,37 C31.38,37 30.9,36.76 30.42,36.28 L23.22,29.08 C22.26,28.12 22.26,26.68 23.22,25.72 C24.18,24.76 25.62,24.76 26.58,25.72 L33.78,32.92 C34.74,33.88 34.74,35.32 33.78,36.28 C33.3,36.76 32.82,37 32.1,37 Z M17.0833333,16 L7.41666668,16 C5.96666668,16 5,15.0333334 5,13.5833334 L5,3.91666669 C5,2.46666669 5.96666668,1.5 7.41666668,1.5 C8.86666667,1.5 9.83333335,2.46666669 9.83333335,3.91666669 L9.83333335,11.1666667 L17.0833333,11.1666667 C18.5333333,11.1666667 19.5,12.1333334 19.5,13.5833334 C19.5,15.0333334 18.5333333,16 17.0833333,16 Z" id="形状" fill="#333333"></path>
            </g>
        </g>
    </g>
</svg>