<?xml version="1.0" encoding="UTF-8"?>
<svg width="42px" height="43px" viewBox="0 0 42 43" version="1.1" xmlns="http://www.w3.org/2000/svg" xmlns:xlink="http://www.w3.org/1999/xlink">
    <title>gerenzhongxin</title>
    <desc>Created with Sketch.</desc>
    <g id="icon" stroke="none" stroke-width="1" fill="none" fill-rule="evenodd">
        <g id="标签栏icon" transform="translate(-1273.000000, -175.000000)">
            <g id="个人中心" transform="translate(1269.000000, 171.000000)">
                <g id="个人中心备份-2" fill="#000000" opacity="0">
                    <g id="个人中心" fill-rule="nonzero">
                        <rect id="矩形" x="0" y="0" width="50" height="50"></rect>
                    </g>
                </g>
                <g id="set">
                    <rect id="矩形" fill="#000000" fill-rule="nonzero" opacity="0" x="0" y="0" width="50" height="50"></rect>
                    <path d="M21.6889416,4 L28.4627598,4.01013938 C30.5659394,4.01363002 32.2698337,5.7118608 32.272635,7.80735106 L32.2751792,8.90747778 C33.5873713,9.45000242 34.8303853,10.1456041 35.9781998,10.9797211 L36.8851918,10.460076 C38.7080529,9.4148987 41.0360279,10.0361428 42.0905372,11.8491762 L45.4857148,17.6894803 C46.4966861,19.428724 45.9744825,21.6514963 44.2937772,22.7629911 L44.0864284,22.8897338 L43.1756202,23.4131812 C43.3320858,24.8529784 43.3130047,26.3155893 43.1082,27.7693282 L43.7518718,28.1406844 C45.5019747,29.1471606 46.1612635,31.3384214 45.2554686,33.1381495 L45.1498861,33.3346008 L41.9696897,38.8225602 C40.9595197,40.5662637 38.7602171,41.2231418 36.953884,40.320659 L36.7554398,40.2141952 L35.8764335,39.7072243 C34.7710812,40.4996074 33.5781263,41.1630081 32.320974,41.6844106 L32.320974,43.1926489 C32.3235932,45.2019744 30.7566268,46.8664793 28.7438891,46.9923954 L28.5009221,47 L21.7271039,46.9898606 C19.62442,46.9863718 17.9207302,45.2889117 17.9172286,43.1939163 L17.9134124,41.3751584 C16.8636312,40.8840319 15.8638169,40.2932128 14.9278441,39.6108998 L13.3046719,40.5411914 C11.4814782,41.5861554 9.15340095,40.9643171 8.09932649,39.1508238 L4.70414884,33.3117871 C3.69236285,31.5722582 4.21464773,29.3485847 5.89608642,28.2370089 L6.10343526,28.1102662 L7.75459317,27.1634981 C7.62738533,25.9594423 7.62102492,24.7414449 7.74314446,23.5259822 L5.9100793,22.4702154 C4.15950705,21.4641632 3.49963014,19.2728017 4.40521041,17.4727503 L4.512065,17.2762991 L7.69226134,11.7883397 C8.70243131,10.0446361 10.9017339,9.38775802 12.708067,10.2902408 L12.9052392,10.3967047 L14.5029699,11.3155894 C15.5442299,10.5066404 16.6727467,9.81585236 17.8676176,9.25602026 L17.8676176,7.80861846 C17.8643254,5.79880442 19.4314744,4.13355038 21.4447025,4.00760456 L21.6876694,4 L21.6889416,4 Z M29.2794342,18.7173637 C27.5277781,17.7081435 25.4452478,17.4342782 23.4907673,17.9561189 C21.5362868,18.4779597 19.8702644,19.7526781 18.8598388,21.4993663 C16.7550634,25.1387301 18.0055344,29.788875 21.6545954,31.8922687 C23.4062116,32.9019967 25.4889337,33.1762803 27.4437029,32.6546639 C29.398472,32.1330475 31.0648203,30.8583508 32.0754628,29.1115336 C34.1800245,25.4718381 32.9289568,20.8215911 29.2794342,18.7186312 L29.2794342,18.7173637 Z M22.1646989,23.3992395 C23.1719577,21.6564459 25.3695576,21.0001883 27.1728721,21.9036755 L27.3700443,22.008872 L27.5608561,22.1267427 C29.2495493,23.2368673 29.7790635,25.4649127 28.7693307,27.2116603 C28.2649905,28.0847237 27.4327264,28.7219784 26.4561688,28.9828206 C25.4796112,29.2436629 24.4390179,29.1066555 23.5639853,28.6020279 C21.7373582,27.5489634 21.111315,25.2212268 22.1646989,23.3992395 L22.1646989,23.3992395 Z" id="形状" fill="#333333" fill-rule="nonzero"></path>
                </g>
            </g>
        </g>
    </g>
</svg>