<?xml version="1.0" encoding="UTF-8"?>
<svg width="41px" height="42px" viewBox="0 0 41 42" version="1.1" xmlns="http://www.w3.org/2000/svg" xmlns:xlink="http://www.w3.org/1999/xlink">
    <title>quxiaozhiding</title>
    <desc>Created with Sketch.</desc>
    <g id="页面-1" stroke="none" stroke-width="1" fill="none" fill-rule="evenodd">
        <g id="好友（通讯录）icon" transform="translate(-1094.000000, -178.000000)" fill="#000000">
            <g id="取消置顶" transform="translate(1089.000000, 175.000000)">
                <rect id="矩形" fill-rule="nonzero" opacity="0" x="0" y="0" width="50" height="50"></rect>
                <g id="编组-8" transform="translate(5.000000, 5.000000)">
                    <path d="M27.594459,0.315949542 C28.0400656,0.5080354 28.4451151,0.782215526 28.7882463,1.12403048 L38.8738241,11.1644042 C39.770705,12.0575317 40.1674789,13.3328079 39.9345218,14.573607 C39.7015647,15.8144061 38.8687961,16.8613686 37.7082769,17.3724573 L34.1346166,18.9464917 L27.4301528,25.6217764 L26.8987249,32.9647172 C26.7902628,34.4599141 25.8145841,35.754712 24.4020396,36.2780033 C22.9894952,36.8012946 21.399817,36.4568589 20.334178,35.3966195 L13.8235441,28.9153764 L4.08753618,38.6426992 C3.33608364,39.3934814 2.11928269,39.3961765 1.36451177,38.6487304 C0.614913884,37.9064071 0.609016654,36.696966 1.35133994,35.9473681 C1.35372504,35.9449597 1.35611656,35.9425575 1.35851445,35.9401618 L11.1009388,26.2064542 L11.1009388,26.2064542 L4.3656675,19.5030845 C3.30186491,18.4441324 2.9559305,16.8658619 3.48006635,15.4626707 C4.00420219,14.0594794 5.30232871,13.0885871 6.80330427,12.9771608 L14.3973323,12.4129084 L20.9824174,5.85634649 L22.5292064,2.30742862 C22.9352531,1.37525204 23.6970758,0.641709133 24.6470315,0.268219994 C25.5969872,-0.105269144 26.657234,-0.0880998998 27.594459,0.315949542 Z M26.0630737,3.8303995 L24.2248979,8.04697348 L16.1122784,16.1277828 L7.08827287,16.7954389 L23.058067,32.6889739 L23.6921863,23.9239128 L31.9177663,15.7333168 L36.1499351,13.8694966 L26.0630737,3.8303995 Z" id="形状" fill-rule="nonzero"></path>
                    <path d="M23.2135887,-4.65183528 L23.2430119,-4.65002943 C25.2412985,-4.52738451 26.799148,-2.87099062 26.799148,-0.868943869 L26.799148,34.1745114 C26.799148,36.1439688 25.2025873,37.7405295 23.2331299,37.7405295 C23.1602608,37.7405295 23.0874087,37.738296 23.0146765,37.733832 L22.9852532,37.7320262 C20.9869666,37.6093813 19.4291171,35.9529874 19.4291171,33.9509406 L19.4291171,-1.09251466 C19.4291171,-3.06197208 21.0256778,-4.65853277 22.9951353,-4.65853277 C23.0680044,-4.65853277 23.1408564,-4.65629922 23.2135887,-4.65183528 Z" id="矩形" stroke="#FFFFFF" stroke-width="3.24702886" transform="translate(23.114133, 16.540998) rotate(-45.000000) translate(-23.114133, -16.540998) "></path>
                </g>
            </g>
        </g>
    </g>
</svg>