<?xml version="1.0" encoding="UTF-8"?>
<svg width="140px" height="140px" viewBox="0 0 140 140" version="1.1" xmlns="http://www.w3.org/2000/svg" xmlns:xlink="http://www.w3.org/1999/xlink">
    <title>shanghuaquxiaofasong</title>
    <desc>Created with Sketch.</desc>
    <g id="IM-好友对话" stroke="none" stroke-width="1" fill="none" fill-rule="evenodd">
        <g id="对话框-发送语音中" transform="translate(-110.000000, -357.000000)">
            <g id="对话框-上滑取消发送" transform="translate(110.000000, 357.000000)">
                <rect id="矩形" fill="#000000" opacity="0.6" x="0" y="0" width="140" height="140" rx="8"></rect>
                <text id="上滑取消" opacity="0.8" font-family="PingFangSC-Regular, PingFang SC" font-size="9" font-weight="normal" fill="#FFFFFF">
                    <tspan x="52" y="112">上滑取消</tspan>
                </text>
                <g id="头颈外科-声音嘶哑" transform="translate(46.000000, 71.000000)" fill="#FFFFFF" fill-opacity="0.800000012" fill-rule="nonzero">
                    <rect id="矩形" opacity="0" x="0" y="0" width="48" height="29"></rect>
                    <path d="M44.2804743,13.4637757 L46,13.4637757 L46,16.5708618 L44.2804743,16.5708618 L44.2804743,13.4637757 Z M39.1205797,8.28582764 L40.8387878,8.28582764 L40.8387878,21.7496033 L39.1205797,21.7496033 L39.1205797,8.28582764 Z M33.9606852,11.3929138 L35.6802108,11.3929138 L35.6802108,19.677948 L33.9606852,19.677948 L33.9606852,11.3929138 Z M28.7994729,5.17874144 L30.5203162,5.17874144 L30.5203162,23.8212586 L28.7994729,23.8212586 L28.7994729,5.17874144 Z M25.3630569,0 L25.3630569,29 L23.6395783,29 L23.6422136,0 L25.3630569,0 L25.3630569,0 Z M18.4796838,5.17874144 L20.2005271,5.17874144 L20.2005271,23.8212586 L18.4796838,23.8212586 L18.4796838,5.17874144 Z M13.3197892,11.3929138 L15.0406325,11.3929138 L15.0406325,19.677948 L13.3197892,19.677948 L13.3197892,11.3929138 Z M8.16121223,8.28582764 L9.88073789,8.28582764 L9.88073789,21.7496033 L8.16121223,21.7496033 L8.16121223,8.28582764 Z M3,13.4637757 L4.71952566,13.4637757 L4.71952566,16.5708618 L3,16.5708618 L3,13.4637757 Z" id="形状"></path>
                </g>
                <g id="语音" transform="translate(46.000000, 17.000000)" fill="#FFFFFF" fill-opacity="0.800000012" fill-rule="nonzero">
                    <rect id="矩形" opacity="0" x="0" y="0" width="48" height="48"></rect>
                    <path d="M24.0609375,33.3796875 C28.9546875,33.3796875 32.925,29.409375 32.925,24.515625 L32.925,11.8546875 C32.925,6.9609375 28.9546875,2.990625 24.0609375,2.990625 C19.1671875,2.990625 15.196875,6.9609375 15.196875,11.8546875 L15.196875,24.515625 C15.196875,29.4140625 19.1671875,33.3796875 24.0609375,33.3796875 Z M37.9875,27.0515625 L35.45625,27.0515625 C34.303125,32.1234375 29.484375,35.915625 24.0609375,35.915625 C18.6375,35.915625 13.81875,32.1234375 12.665625,27.0515625 L10.134375,27.0515625 C11.25,33.1265625 16.5421875,37.8234375 22.7953125,38.390625 L22.7953125,40.978125 L21.5296875,40.978125 C20.83125,40.978125 20.2640625,41.5453125 20.2640625,42.24375 C20.2640625,42.9421875 20.83125,43.509375 21.5296875,43.509375 L26.5921875,43.509375 C27.290625,43.509375 27.8578125,42.9421875 27.8578125,42.24375 C27.8578125,41.5453125 27.290625,40.978125 26.5921875,40.978125 L25.3265625,40.978125 L25.3265625,38.390625 C31.5796875,37.8234375 36.871875,33.1265625 37.9875,27.0515625 Z" id="形状"></path>
                </g>
            </g>
        </g>
    </g>
</svg>