<?xml version="1.0" encoding="UTF-8"?>
<svg width="100px" height="100px" viewBox="0 0 100 100" version="1.1" xmlns="http://www.w3.org/2000/svg" xmlns:xlink="http://www.w3.org/1999/xlink">
    <title>shipngshiu</title>
    <desc>Created with Sketch.</desc>
    <defs>
        <path d="M33.7758241,32 L49.7214585,32 C56.2250666,32 61.4972826,37.2722161 61.4972826,43.7758241 L61.4972826,56.2241759 C61.4972826,62.7277839 56.2250666,68 49.7214585,68 L33.7758241,68 C27.2722161,68 22,62.7277839 22,56.2241759 L22,43.7758241 C22,37.2722161 27.2722161,32 33.7758241,32 Z M64.4846052,44.215752 L74.52307,37.1771484 C75.8091858,36.2753711 77.5828235,36.586939 78.4846008,37.8730548 C78.8200431,38.351463 79,38.921576 79,39.505867 L79,61.3866376 C79,62.9574005 77.7266451,64.2307555 76.1558822,64.2307555 C75.5715912,64.2307555 75.0014782,64.0507986 74.52307,63.7153563 L64.4846052,56.6767527 L64.4846052,44.215752 Z" id="path-1"></path>
    </defs>
    <g id="icon" stroke="none" stroke-width="1" fill="none" fill-rule="evenodd">
        <g id="图标/原型/视频">
            <g id="视频">
                <circle id="椭圆形" fill="#F2F2F2" cx="50" cy="50" r="50"></circle>
                <mask id="mask-2" fill="white">
                    <use xlink:href="#path-1"></use>
                </mask>
                <use id="Mask" fill="#1890FF" xlink:href="#path-1"></use>
            </g>
        </g>
    </g>
</svg>