<?xml version="1.0" encoding="UTF-8"?>
<svg width="50px" height="50px" viewBox="0 0 50 50" version="1.1" xmlns="http://www.w3.org/2000/svg" xmlns:xlink="http://www.w3.org/1999/xlink">
    <!-- Generator: Sketch 61.2 (89653) - https://sketch.com -->
    <title>加密对话@1x</title>
    <desc>Created with Sketch.</desc>
    <g id="加密对话" stroke="none" stroke-width="1" fill="none" fill-rule="evenodd">
        <g id="数据加密" transform="translate(5.000000, 5.000000)" fill="#000000" fill-rule="nonzero">
            <rect id="矩形" opacity="0" x="0" y="0" width="40" height="40"></rect>
            <path d="M20,35.8862891 C17.1764844,35.8862891 14.6518359,35.3349609 12.4962109,34.2475 C10.5197656,33.2505078 8.8471875,31.8026562 7.52492187,29.9443359 C6.34707031,28.2890234 5.45386719,26.3191406 4.87019531,24.0894922 C4.34773437,22.0939062 4.0828125,19.9381641 4.0828125,17.6822656 C4.0828125,17.0902734 4.56273437,16.6103516 5.15472656,16.6103516 C5.74671875,16.6103516 6.22664062,17.0902734 6.22664062,17.6822656 C6.22664062,21.4498437 7.21988281,33.7424609 20,33.7424609 C32.7801562,33.7424609 33.7733984,21.4498437 33.7733984,17.6822656 C33.7733984,17.0902734 34.2533203,16.6103516 34.8452734,16.6103516 C35.4372656,16.6103516 35.9171875,17.0902734 35.9171875,17.6822656 C35.9171875,19.9355078 35.6498828,22.0917969 35.1227344,24.0913281 C34.5353125,26.3192969 33.6382813,28.2888672 32.4566406,29.9453516 C31.1317187,31.8026953 29.4588281,33.2501172 27.4842969,34.2473047 C25.3309375,35.3348828 22.8128125,35.8862891 20,35.8862891 L20,35.8862891 Z" id="路径"></path>
            <path d="M34.5773047,18.7544922 L5.42269531,18.7544922 C4.83070312,18.7544922 4.35078125,18.2745703 4.35078125,17.6825781 C4.35078125,17.0905859 4.83070312,16.6107031 5.42269531,16.6107031 L34.5772656,16.6107031 C35.1692578,16.6107031 35.6491406,17.090625 35.6491406,17.6825781 C35.6491406,18.2745312 35.1692969,18.7544922 34.5773047,18.7544922 L34.5773047,18.7544922 Z M20,26.8113672 C18.394375,26.8113672 17.0880859,25.5051172 17.0880859,23.8994922 C17.0880859,22.2938672 18.3943359,20.9875781 20,20.9875781 C21.6056641,20.9875781 22.911875,22.2938281 22.911875,23.8994922 C22.911875,25.5051172 21.605625,26.8113672 20,26.8113672 Z M20,22.4167969 C19.1824609,22.4167969 18.5173047,23.0819141 18.5173047,23.8994922 C18.5173047,24.7170312 19.1824219,25.3821484 20,25.3821484 C20.8175781,25.3821484 21.4826953,24.7170312 21.4826953,23.8994922 C21.4826953,23.0819141 20.8175781,22.4167969 20,22.4167969 Z" id="形状"></path>
            <path d="M20,29.6694141 C19.6053125,29.6694141 19.2853906,29.3494922 19.2853906,28.9548047 L19.2853906,26.4897656 C19.2853906,26.0950781 19.6053125,25.7751172 20,25.7751172 C20.3946875,25.7751172 20.7146094,26.0950391 20.7146094,26.4897656 L20.7146094,28.9548047 C20.7146094,29.3494922 20.3946875,29.6694141 20,29.6694141 Z M31.8472656,18.6655078 C31.2552734,18.6655078 30.7753516,18.1855859 30.7753516,17.5935938 C30.7753516,11.5947266 25.8949219,6.71429688 19.8960547,6.71429688 C15.1010156,6.71429688 11.4999219,9.07355469 10.0161719,13.1871875 C9.8153125,13.7441016 9.20105469,14.0327344 8.64417969,13.8318359 C8.08726562,13.6309766 7.79867187,13.0167187 7.99953125,12.4598047 C8.88871094,9.99464844 10.46125,7.97144531 12.5472266,6.60890625 C14.5888281,5.27535156 17.13,4.57046875 19.8960156,4.57046875 C21.6537109,4.57046875 23.3592969,4.91496094 24.9655469,5.59433594 C26.5164844,6.25027344 27.9090625,7.18917969 29.1047656,8.38484375 C30.3004687,9.58050781 31.2393359,10.9731641 31.8953125,12.5240625 C32.5747266,14.1303125 32.9191797,15.8359375 32.9191797,17.5935547 C32.9191797,18.185625 32.4392187,18.6655078 31.8472656,18.6655078 Z" id="形状"></path>
            <path d="M28.0599609,15.0208594 C27.9049895,15.0207455 27.7677343,14.9208088 27.7200391,14.7733594 C26.6420313,11.4386328 23.5610156,9.19808594 20.0533984,9.19808594 C19.8560753,9.19808594 19.6961133,9.03812392 19.6961133,8.84080078 C19.6961133,8.64347764 19.8560753,8.48351562 20.0533984,8.48351562 C21.945,8.48351562 23.7464844,9.07632812 25.2629688,10.1977734 C26.749375,11.2969531 27.8341016,12.8031641 28.4,14.5535547 C28.4351928,14.6623166 28.4162207,14.7813516 28.348961,14.8737844 C28.2817013,14.9662172 28.1742749,15.0208594 28.0599609,15.0208594 Z" id="路径" stroke="#979797"></path>
        </g>
    </g>
</svg>